<svg width="777" height="632" viewBox="0 0 777 632" fill="none" xmlns="http://www.w3.org/2000/svg">
<path fill-rule="evenodd" clip-rule="evenodd" d="M764.833 162.325C764.232 161.888 762.803 161.733 762.14 161.601C759.377 161.057 756.533 160.82 753.717 160.82C745.037 160.834 736.215 161.686 727.679 163.16C722.258 164.095 715.706 167.245 710.314 165.534C700.922 162.554 691.429 162.701 682.517 166.955C674.369 170.846 668.184 178.235 664.574 186.218C664.029 187.424 661.82 191.86 661.195 194.85C660.927 195.462 660.67 196.077 660.439 196.701C659.782 198.476 659.192 200.28 658.645 202.09C658.41 202.861 657.822 204.564 658.521 204.894C657.405 206.954 656.414 209.077 655.59 211.269C653.192 217.644 650.57 224.637 649.727 231.394C649.416 233.895 649.403 236.412 649.693 238.918C649.837 240.158 649.778 242.648 650.617 243.591C652.401 245.59 653.316 242.791 653.116 241.458C651.581 231.3 654.545 221.76 658.058 212.211C660.33 206.036 664.063 200.386 668.245 195.271C671.629 191.129 675.259 187.869 679.898 185.123C685.571 181.765 691.636 179.051 697.645 176.329C701.598 174.537 705.555 172.794 709.617 171.251C710.521 170.907 711.941 170.026 712.943 170.022C715.061 170.015 718.064 171.578 720.11 172.159C726.839 174.072 733.655 176.52 740.61 177.497C745.072 178.124 749.251 177.418 753.423 175.933C753.849 175.781 754.565 175.391 755.44 174.834C758.538 173.643 761.468 172.144 764.019 169.98C765.489 168.735 766.823 167.125 768.04 165.65C768.403 165.21 768.565 164.705 768.57 164.225C768.845 164.081 769.028 163.912 769.07 163.716C769.374 162.265 766.606 162.239 764.833 162.325Z" fill="#89C5CC"/>
<path fill-rule="evenodd" clip-rule="evenodd" d="M59.6512 283.248C57.9481 284.627 56.2778 286.034 54.6482 287.5C53.4062 288.616 51.2083 289.953 50.7624 291.645C50.2989 293.403 51.7621 295.049 52.918 296.111C59.0304 301.733 65.9133 305.533 74.3832 306.166C87.4247 307.139 98.7746 303.81 110.09 297.26C118.039 292.658 123.304 285.852 124.453 276.661C133.919 280.593 143.074 286.014 150.854 292.667C154.693 295.949 157.999 299.585 161.057 303.617C163.016 306.2 164.91 308.823 166.668 311.548C167.432 312.732 168.21 314.832 169.471 315.513C170.953 316.314 172.744 315.059 172.67 313.413C172.608 312.042 171.129 310.453 170.436 309.333C169.287 307.473 168.121 305.624 166.892 303.816C164.904 300.887 162.849 298.001 160.608 295.26C155.571 289.101 149.163 284.015 142.52 279.677C129.776 271.355 115.79 266.113 100.284 265.668C90.749 265.395 82.7281 268.652 74.5744 273.514C69.498 276.542 64.2577 279.519 59.6512 283.248Z" fill="#DDE3E9"/>
<path fill-rule="evenodd" clip-rule="evenodd" d="M183.332 242.997C173.396 232.768 163.425 222.668 152.324 213.66C145.782 208.353 138.888 203.527 132.135 198.495C132.914 199.177 133.678 199.879 134.424 200.598C132.316 199.168 129.557 198.359 127.323 197.035C124.83 195.559 122.447 193.869 120.11 192.167C115.548 188.844 111.055 185.458 106.366 182.309C101.141 178.8 95.7268 175.558 90.4134 172.181C85.9038 169.316 81.3392 166.179 76.5149 163.837C73.8855 162.56 71.25 161.047 68.6099 159.715C67.7263 159.27 58.7605 153.611 58.7831 153.593C59.2787 153.22 63.7905 155.339 64.4882 155.624C66.5264 156.456 68.4755 157.451 70.4351 158.444C69.3595 156.323 68.5081 154.095 68.0447 151.75C67.9015 151.025 66.7544 145.756 67.3414 145.314C67.6346 145.092 70.495 154.522 70.6415 155.428C70.7605 156.164 70.743 157.225 70.9841 157.922C71.3734 159.048 71.3538 158.708 72.2115 159.343C73.7833 160.506 75.8698 161.232 77.5711 162.203C78.4884 162.715 81.3288 164.746 83.0395 165.324C88.216 167.837 93.4628 171.704 98.3812 174.914C97.0904 172.489 96.1081 169.953 95.3918 167.296C95.2213 166.665 93.383 161.007 93.8291 160.67C94.3309 160.291 97.8336 168.936 98.0411 169.754C98.4265 171.274 98.5065 172.965 98.9894 174.445C99.5186 176.068 101.172 176.643 102.661 177.59C108.142 181.07 113.435 184.769 118.639 188.638C124.318 178.542 117.77 166.351 112.252 157.88C108.274 151.774 102.92 146.541 97.2649 141.971C89.719 135.873 81.0854 131.001 72.4624 126.545C62.4149 121.353 51.5554 118.135 40.2655 116.649C34.3607 115.871 28.3198 115.893 22.3553 116.143C19.4417 116.263 16.6451 116.649 13.8529 117.6C12.5944 118.029 11.3781 118.569 10.1929 119.173C9.29232 119.633 7.11387 120.118 6.59605 120.802C2.33383 126.348 0.153353 131.874 0.486337 138.843C0.801155 145.439 2.88527 152.038 5.71366 157.923C8.86353 164.474 12.9146 170.42 18.2129 175.412C22.2552 179.219 26.7745 182.533 31.264 185.804C47.2318 197.437 67.4762 207.554 88.1573 204.955C94.8518 204.114 101.219 201.774 107.169 198.593C108.572 197.844 109.965 197.086 111.289 196.202C112.181 195.605 114.567 192.917 115.464 192.819C116.695 192.686 119.344 195.187 120.499 195.948C129.271 201.737 137.812 207.839 146.175 214.187C155.073 220.941 163.534 228.155 171.746 235.708C175.238 238.92 178.709 242.141 182.1 245.461C182.89 246.234 184.821 249.078 186.253 249.207C187.157 249.289 187.768 248.516 187.639 247.679C187.415 246.223 184.35 244.044 183.332 242.997Z" fill="#C1DEE2"/>
<path fill-rule="evenodd" clip-rule="evenodd" d="M754.401 203.299C750.553 202.458 746.303 202.523 742.383 202.592C721.357 202.878 700.71 212.829 687.273 228.728C675.833 242.263 672.687 259.092 670.427 276.104C670.204 277.792 670.108 279.471 669.982 281.164C669.954 281.527 669.914 281.851 669.87 282.156C668.982 282.951 668.515 283.877 669.042 284.894C667.084 289.177 665.427 293.568 664.006 298.098C659.823 311.43 655.569 325.016 658.189 339.035C658.802 331.32 660.09 323.431 661.63 315.842C661.718 315.407 661.814 314.975 661.914 314.544C661.925 314.499 661.934 314.453 661.944 314.408C662.489 312.084 663.198 309.831 664.06 307.612C664.069 307.587 664.078 307.563 664.087 307.54C664.201 307.248 664.322 306.957 664.441 306.667C664.688 306.065 664.942 305.465 665.211 304.869C665.302 304.665 665.389 304.459 665.474 304.253C666.728 301.178 667.258 297.713 668.383 294.532C668.651 293.809 668.932 293.088 669.227 292.371C669.245 292.329 669.262 292.288 669.28 292.246C670.076 290.316 670.955 288.411 671.886 286.525C672.392 286.145 672.661 285.203 673.098 284.347C673.187 284.178 673.893 283.053 674.102 282.405C674.651 281.345 675.196 280.286 675.748 279.228C675.732 279.235 675.715 279.241 675.698 279.248C676.25 278.231 676.804 277.221 677.353 276.213C677.474 275.992 677.596 275.771 677.718 275.549C677.915 275.196 678.113 274.843 678.309 274.491C680.15 271.196 682.104 267.968 684.131 264.779C684.856 263.641 686.584 262.009 686.916 260.732C686.929 260.684 686.931 260.64 686.939 260.595C691.339 254.416 696.405 248.718 702.481 244.202C701.747 244.996 700.185 247.689 699.773 248.222C698.509 249.855 697.138 251.374 695.763 252.912C693.297 255.668 690.892 258.51 688.753 261.516C684.842 267.014 681.47 272.799 678.28 278.702C678.25 278.735 678.216 278.768 678.188 278.804C676.585 280.779 675.576 283.764 674.423 286.023C678.988 283.909 684.038 282.532 688.723 280.655C693.397 278.784 697.942 276.7 702.331 274.253C708.164 271 714.215 267.329 719.726 263.173C726.042 259.257 731.35 253.867 736.035 248.21C741.577 241.517 746.657 234.766 749.799 226.639C751.342 222.646 752.556 218.482 753.276 214.269C753.308 214.086 753.347 213.887 753.391 213.68C754.128 212.225 754.786 210.738 755.339 209.216C756.216 206.802 758.288 204.147 754.401 203.299Z" fill="#69A1AC"/>
<path fill-rule="evenodd" clip-rule="evenodd" d="M102.23 231.575C101.025 230.27 99.6709 229.093 98.0807 228.252C97.6786 228.04 94.6844 226.619 94.4894 226.93C94.0351 227.657 101.868 231.158 102.23 231.575ZM116.427 222.857C116.417 222.913 117.455 224.673 117.739 225.215C118.34 226.366 118.895 227.539 119.418 228.716C118.645 226.639 117.849 224.713 116.427 222.857ZM43.8219 237.192C42.822 237.514 41.6198 236.245 42.9168 235.932C43.9663 235.682 43.9148 235.623 44.386 234.777C44.7686 234.092 45.0044 233.255 45.3402 232.535C46.0524 231.008 46.8603 229.55 47.8521 228.186C49.9775 225.26 52.567 222.739 55.4714 220.614C60.5401 216.907 66.2234 213.518 72.2522 211.816C81.8379 209.109 92.7479 208.942 102.349 210.819C108.295 211.981 113.728 214.002 117.676 218.788C119.65 221.179 121.199 223.981 121.876 227.066C122.053 227.872 122.02 228.769 122.241 229.558C122.582 230.773 122.431 230.449 123.852 230.685C125.402 230.943 126.952 231.206 128.501 231.475C132.557 232.176 136.638 232.921 140.59 234.059C141.891 234.433 143.163 234.891 144.407 235.423C145.347 235.824 149.089 237.086 149.544 238.307C150.301 240.338 147.765 239.418 146.976 238.974C146.285 238.588 145.577 238.225 144.858 237.893C143.047 237.056 141.16 236.407 139.231 235.892C137.145 235.335 135.018 234.918 132.898 234.501C130.922 234.113 128.939 233.76 126.952 233.422C125.848 233.234 124.745 233.052 123.64 232.87C123.262 232.807 122.597 232.481 122.647 232.972C120.325 232.524 117.814 232.588 115.449 232.465C112.552 232.314 109.645 232.19 106.738 232.28C104.641 232.346 102.544 232.483 100.457 232.765C99.2387 232.93 98.0395 233.17 96.8438 233.475C96.1869 233.643 93.5969 233.998 93.239 234.57C93.3927 234.324 96.2512 234.563 96.6151 234.548C98.0704 234.494 99.5141 234.35 100.964 234.189C103.655 233.887 106.346 233.731 109.045 233.753C109.035 234.227 107.192 235.071 106.741 235.384C105.733 236.089 104.766 236.856 103.864 237.699C102.276 239.182 100.374 241.019 99.276 242.778C99.5998 242.259 101.196 241.586 101.763 241.19C102.671 240.556 103.562 239.879 104.403 239.156C105.18 238.488 105.905 237.766 106.618 237.03C107.331 236.293 108.298 234.76 109.236 234.27C109.293 234.239 109.701 234.562 109.932 234.452C110.167 234.342 110.458 233.789 110.517 233.767C111.389 233.431 113.046 233.849 113.963 233.892C116.34 234.001 118.717 234.145 121.092 234.275C121.829 234.316 122.454 234.148 122.733 234.69C123.028 235.27 122.486 236.792 122.331 237.422C121.758 239.764 120.741 241.863 119.139 243.678C116.14 247.076 112.44 249.341 108.261 250.857C92.256 256.662 75.2283 258.986 59.2277 252.948C52.6035 250.448 42.6274 245.981 43.8219 237.192Z" fill="#89C5CC"/>
<g opacity="0.6">
<path fill-rule="evenodd" clip-rule="evenodd" d="M776.665 510.654C787.554 584.335 523.486 632.396 296.198 598.855C68.9093 565.316 -35.36 434.338 73.0984 364.549C181.557 294.759 765.776 436.972 776.665 510.654Z" fill="#DDE3E9"/>
</g>
<path d="M312.099 27.7234H150.741C145.756 27.7234 141.714 31.7634 141.714 36.7469V359.338C141.714 364.322 145.756 368.362 150.741 368.362H312.099C317.085 368.362 321.126 364.322 321.126 359.338V36.7469C321.126 31.7634 317.085 27.7234 312.099 27.7234Z" fill="#F2F2F2"/>
<path fill-rule="evenodd" clip-rule="evenodd" d="M230.856 346.931C240.204 346.931 247.782 339.356 247.782 330.012C247.782 320.668 240.204 313.093 230.856 313.093C221.509 313.093 213.93 320.668 213.93 330.012C213.93 339.356 221.509 346.931 230.856 346.931Z" fill="white"/>
<path fill-rule="evenodd" clip-rule="evenodd" d="M216.187 50.2822C217.434 50.2822 218.444 49.2723 218.444 48.0264C218.444 46.7804 217.434 45.7705 216.187 45.7705C214.94 45.7705 213.93 46.7804 213.93 48.0264C213.93 49.2723 214.94 50.2822 216.187 50.2822Z" fill="white"/>
<path d="M245.525 45.7705H226.343C225.096 45.7705 224.086 46.7805 224.086 48.0264C224.086 49.2722 225.096 50.2822 226.343 50.2822H245.525C246.771 50.2822 247.782 49.2722 247.782 48.0264C247.782 46.7805 246.771 45.7705 245.525 45.7705Z" fill="white"/>
<path d="M300.816 59.3058H162.025C159.532 59.3058 157.512 61.3258 157.512 63.8175V115.703C157.512 118.195 159.532 120.215 162.025 120.215H300.816C303.308 120.215 305.329 118.195 305.329 115.703V63.8175C305.329 61.3258 303.308 59.3058 300.816 59.3058Z" fill="white"/>
<mask id="mask0_92_2" style="mask-type:luminance" maskUnits="userSpaceOnUse" x="201" y="77" width="83" height="25">
<path d="M283.89 77.5784H201.518V101.942H283.89V77.5784Z" fill="white"/>
</mask>
<g mask="url(#mask0_92_2)">
<path d="M280.505 77.5784H204.903C203.034 77.5784 201.518 79.0934 201.518 80.9622V83.3309C201.518 85.1998 203.034 86.7147 204.903 86.7147H280.505C282.374 86.7147 283.89 85.1998 283.89 83.3309V80.9622C283.89 79.0934 282.374 77.5784 280.505 77.5784Z" fill="#DDE3E9"/>
<path d="M253.424 92.8056H204.903C203.034 92.8056 201.518 94.3206 201.518 96.1894V98.5581C201.518 100.427 203.034 101.942 204.903 101.942H253.424C255.293 101.942 256.809 100.427 256.809 98.5581V96.1894C256.809 94.3206 255.293 92.8056 253.424 92.8056Z" fill="#DDE3E9"/>
</g>
<path fill-rule="evenodd" clip-rule="evenodd" d="M181.208 103.295C188.685 103.295 194.748 97.2351 194.748 89.7602C194.748 82.2853 188.685 76.2249 181.208 76.2249C173.73 76.2249 167.667 82.2853 167.667 89.7602C167.667 97.2351 173.73 103.295 181.208 103.295Z" fill="#C5CFD6"/>
<path d="M300.816 129.238H162.025C159.532 129.238 157.512 131.258 157.512 133.75V172.1C157.512 174.592 159.532 176.612 162.025 176.612H300.816C303.308 176.612 305.329 174.592 305.329 172.1V133.75C305.329 131.258 303.308 129.238 300.816 129.238Z" fill="white"/>
<mask id="mask1_92_2" style="mask-type:luminance" maskUnits="userSpaceOnUse" x="201" y="143" width="83" height="20">
<path d="M283.89 143.45H201.518V162.4H283.89V143.45Z" fill="white"/>
</mask>
<g mask="url(#mask1_92_2)">
<path d="M280.505 143.45H204.903C203.034 143.45 201.518 144.965 201.518 146.834V147.172C201.518 149.041 203.034 150.556 204.903 150.556H280.505C282.374 150.556 283.89 149.041 283.89 147.172V146.834C283.89 144.965 282.374 143.45 280.505 143.45Z" fill="#DDE3E9"/>
<path d="M253.424 155.294H204.903C203.034 155.294 201.518 156.809 201.518 158.677V159.016C201.518 160.885 203.034 162.4 204.903 162.4H253.424C255.293 162.4 256.809 160.885 256.809 159.016V158.677C256.809 156.809 255.293 155.294 253.424 155.294Z" fill="#DDE3E9"/>
</g>
<path fill-rule="evenodd" clip-rule="evenodd" d="M181.208 166.46C188.685 166.46 194.748 160.4 194.748 152.925C194.748 145.45 188.685 139.39 181.208 139.39C173.73 139.39 167.667 145.45 167.667 152.925C167.667 160.4 173.73 166.46 181.208 166.46Z" fill="#C5CFD6"/>
<path d="M300.816 185.635H162.025C159.532 185.635 157.512 187.655 157.512 190.147V228.497C157.512 230.989 159.532 233.009 162.025 233.009H300.816C303.308 233.009 305.329 230.989 305.329 228.497V190.147C305.329 187.655 303.308 185.635 300.816 185.635Z" fill="white"/>
<mask id="mask2_92_2" style="mask-type:luminance" maskUnits="userSpaceOnUse" x="201" y="199" width="83" height="20">
<path d="M283.89 199.847H201.518V218.797H283.89V199.847Z" fill="white"/>
</mask>
<g mask="url(#mask2_92_2)">
<path d="M280.505 199.847H204.903C203.034 199.847 201.518 201.362 201.518 203.231V203.569C201.518 205.438 203.034 206.953 204.903 206.953H280.505C282.374 206.953 283.89 205.438 283.89 203.569V203.231C283.89 201.362 282.374 199.847 280.505 199.847Z" fill="#DDE3E9"/>
<path d="M253.424 211.691H204.903C203.034 211.691 201.518 213.206 201.518 215.074V215.413C201.518 217.282 203.034 218.797 204.903 218.797H253.424C255.293 218.797 256.809 217.282 256.809 215.413V215.074C256.809 213.206 255.293 211.691 253.424 211.691Z" fill="#DDE3E9"/>
</g>
<path fill-rule="evenodd" clip-rule="evenodd" d="M181.208 222.857C188.685 222.857 194.748 216.797 194.748 209.322C194.748 201.847 188.685 195.787 181.208 195.787C173.73 195.787 167.667 201.847 167.667 209.322C167.667 216.797 173.73 222.857 181.208 222.857Z" fill="#AFB9C5"/>
<path d="M300.816 242.032H162.025C159.532 242.032 157.512 244.052 157.512 246.544V284.894C157.512 287.386 159.532 289.406 162.025 289.406H300.816C303.308 289.406 305.329 287.386 305.329 284.894V246.544C305.329 244.052 303.308 242.032 300.816 242.032Z" fill="white"/>
<mask id="mask3_92_2" style="mask-type:luminance" maskUnits="userSpaceOnUse" x="201" y="256" width="83" height="20">
<path d="M283.89 256.244H201.518V275.194H283.89V256.244Z" fill="white"/>
</mask>
<g mask="url(#mask3_92_2)">
<path d="M280.505 256.244H204.903C203.034 256.244 201.518 257.759 201.518 259.628V259.967C201.518 261.835 203.034 263.35 204.903 263.35H280.505C282.374 263.35 283.89 261.835 283.89 259.967V259.628C283.89 257.759 282.374 256.244 280.505 256.244Z" fill="#DDE3E9"/>
<path d="M253.424 268.088H204.903C203.034 268.088 201.518 269.603 201.518 271.472V271.81C201.518 273.679 203.034 275.194 204.903 275.194H253.424C255.293 275.194 256.809 273.679 256.809 271.81V271.472C256.809 269.603 255.293 268.088 253.424 268.088Z" fill="#DDE3E9"/>
</g>
<path fill-rule="evenodd" clip-rule="evenodd" d="M181.208 279.254C188.685 279.254 194.748 273.194 194.748 265.719C194.748 258.244 188.685 252.184 181.208 252.184C173.73 252.184 167.667 258.244 167.667 265.719C167.667 273.194 173.73 279.254 181.208 279.254Z" fill="#C5CFD6"/>
<path fill-rule="evenodd" clip-rule="evenodd" d="M175.724 302.941C174.229 302.941 172.738 302.972 171.245 303.048C170.107 303.108 168.368 302.872 167.405 303.582C166.404 304.318 166.473 305.825 166.63 306.89C167.456 312.521 169.472 317.513 173.691 321.502C180.187 327.644 187.634 330.765 196.445 332.155C202.635 333.132 208.35 331.776 212.906 327.376C216.236 333.552 218.761 340.388 220.028 347.286C220.653 350.69 220.844 354.054 220.735 357.52C220.664 359.74 220.542 361.955 220.304 364.165C220.2 365.124 219.71 366.577 220.086 367.485C220.527 368.55 222.015 368.654 222.683 367.745C223.24 366.989 223.138 365.503 223.252 364.609C223.442 363.122 223.617 361.635 223.742 360.141C223.946 357.724 224.096 355.3 224.086 352.873C224.06 347.421 222.847 341.949 221.188 336.774C218.006 326.844 212.844 318.021 204.814 311.097C199.877 306.84 194.226 305.117 187.815 304.191C183.823 303.614 179.767 302.941 175.724 302.941Z" fill="#89C5CC"/>
<path fill-rule="evenodd" clip-rule="evenodd" d="M198.778 342.419C182.643 342.419 171.777 355.417 166.639 368.928C164.702 374.019 164.248 379.612 163.501 384.958C163.262 386.675 163.351 389.289 162.654 390.818C162.401 391.373 161.821 391.571 162.098 392.327C162.267 392.784 162.595 393.065 163.09 393.155C164.105 393.342 165.54 392.237 166.41 391.801C173.627 388.183 178.369 382.588 182.237 375.744C184.636 371.502 187.068 367.097 188.492 362.44C189.362 359.594 189.869 356.598 190.167 353.647C190.284 352.484 190.397 351.294 190.39 350.125C190.384 348.964 189.843 348.351 189.455 347.341C194.838 345.304 200.916 344.749 206.369 346.86C211.413 348.812 215.603 352.585 217.949 357.326C218.558 358.558 219.029 359.857 219.37 361.183C219.595 362.052 219.605 363.178 220.021 363.963C221.028 365.867 223.147 364.594 222.944 362.822C222.376 357.881 219.549 352.919 215.933 349.483C211.374 345.15 205.195 342.419 198.778 342.419Z" fill="#89C5CC"/>
<path d="M386.572 57.0499H225.214C220.229 57.0499 216.187 61.0899 216.187 66.0734V388.665C216.187 393.648 220.229 397.688 225.214 397.688H386.572C391.558 397.688 395.599 393.648 395.599 388.665V66.0734C395.599 61.0899 391.558 57.0499 386.572 57.0499Z" fill="#DDE3E9"/>
<path fill-rule="evenodd" clip-rule="evenodd" d="M305.329 376.257C314.677 376.257 322.255 368.682 322.255 359.338C322.255 349.994 314.677 342.419 305.329 342.419C295.982 342.419 288.403 349.994 288.403 359.338C288.403 368.682 295.982 376.257 305.329 376.257Z" fill="white"/>
<path fill-rule="evenodd" clip-rule="evenodd" d="M290.66 79.6087C291.907 79.6087 292.917 78.5992 292.917 77.3528C292.917 76.1065 291.907 75.0969 290.66 75.0969C289.413 75.0969 288.403 76.1065 288.403 77.3528C288.403 78.5992 289.413 79.6087 290.66 79.6087Z" fill="white"/>
<path d="M319.998 75.0969H300.816C299.569 75.0969 298.559 76.1069 298.559 77.3528C298.559 78.5987 299.569 79.6087 300.816 79.6087H319.998C321.244 79.6087 322.255 78.5987 322.255 77.3528C322.255 76.1069 321.244 75.0969 319.998 75.0969Z" fill="white"/>
<path d="M375.289 88.6322H236.498C234.005 88.6322 231.985 90.6522 231.985 93.144V145.029C231.985 147.521 234.005 149.541 236.498 149.541H375.289C377.781 149.541 379.802 147.521 379.802 145.029V93.144C379.802 90.6522 377.781 88.6322 375.289 88.6322Z" fill="white"/>
<mask id="mask4_92_2" style="mask-type:luminance" maskUnits="userSpaceOnUse" x="242" y="106" width="83" height="26">
<path d="M324.512 106.905H242.14V131.268H324.512V106.905Z" fill="white"/>
</mask>
<g mask="url(#mask4_92_2)">
<path d="M321.126 106.905H245.525C243.656 106.905 242.14 108.42 242.14 110.289V112.657C242.14 114.526 243.656 116.041 245.525 116.041H321.126C322.996 116.041 324.512 114.526 324.512 112.657V110.289C324.512 108.42 322.996 106.905 321.126 106.905Z" fill="#DDE3E9"/>
<path d="M294.045 122.132H245.525C243.656 122.132 242.14 123.647 242.14 125.516V127.885C242.14 129.753 243.656 131.268 245.525 131.268H294.045C295.915 131.268 297.431 129.753 297.431 127.885V125.516C297.431 123.647 295.915 122.132 294.045 122.132Z" fill="#DDE3E9"/>
</g>
<path fill-rule="evenodd" clip-rule="evenodd" d="M364.005 126.982C368.367 126.982 371.903 123.447 371.903 119.087C371.903 114.726 368.367 111.191 364.005 111.191C359.643 111.191 356.106 114.726 356.106 119.087C356.106 123.447 359.643 126.982 364.005 126.982Z" fill="#DDE3E9"/>
<path fill-rule="evenodd" clip-rule="evenodd" d="M364.005 122.47C365.875 122.47 367.39 120.956 367.39 119.087C367.39 117.218 365.875 115.703 364.005 115.703C362.135 115.703 360.62 117.218 360.62 119.087C360.62 120.956 362.135 122.47 364.005 122.47Z" fill="#F2F2F2"/>
<path d="M375.289 158.565H236.498C234.005 158.565 231.985 160.585 231.985 163.076V201.426C231.985 203.918 234.005 205.938 236.498 205.938H375.289C377.781 205.938 379.802 203.918 379.802 201.426V163.076C379.802 160.585 377.781 158.565 375.289 158.565Z" fill="white"/>
<mask id="mask5_92_2" style="mask-type:luminance" maskUnits="userSpaceOnUse" x="275" y="172" width="84" height="20">
<path d="M358.363 172.777H275.991V191.726H358.363V172.777Z" fill="white"/>
</mask>
<g mask="url(#mask5_92_2)">
<path d="M354.978 172.777H279.376C277.507 172.777 275.991 174.292 275.991 176.16V176.499C275.991 178.368 277.507 179.883 279.376 179.883H354.978C356.847 179.883 358.363 178.368 358.363 176.499V176.16C358.363 174.292 356.847 172.777 354.978 172.777Z" fill="#DDE3E9"/>
<path d="M327.897 184.62H279.376C277.507 184.62 275.991 186.135 275.991 188.004V188.342C275.991 190.211 277.507 191.726 279.376 191.726H327.897C329.766 191.726 331.282 190.211 331.282 188.342V188.004C331.282 186.135 329.766 184.62 327.897 184.62Z" fill="#DDE3E9"/>
</g>
<path fill-rule="evenodd" clip-rule="evenodd" d="M255.681 195.787C263.158 195.787 269.221 189.726 269.221 182.251C269.221 174.776 263.158 168.716 255.681 168.716C248.203 168.716 242.14 174.776 242.14 182.251C242.14 189.726 248.203 195.787 255.681 195.787Z" fill="#C5CFD6"/>
<path d="M375.289 214.962H236.498C234.005 214.962 231.985 216.982 231.985 219.473V257.823C231.985 260.315 234.005 262.335 236.498 262.335H375.289C377.781 262.335 379.802 260.315 379.802 257.823V219.473C379.802 216.982 377.781 214.962 375.289 214.962Z" fill="white"/>
<mask id="mask6_92_2" style="mask-type:luminance" maskUnits="userSpaceOnUse" x="242" y="229" width="83" height="20">
<path d="M324.512 229.174H242.14V248.123H324.512V229.174Z" fill="white"/>
</mask>
<g mask="url(#mask6_92_2)">
<path d="M321.126 229.174H245.525C243.656 229.174 242.14 230.689 242.14 232.558V232.896C242.14 234.765 243.656 236.28 245.525 236.28H321.126C322.996 236.28 324.512 234.765 324.512 232.896V232.558C324.512 230.689 322.996 229.174 321.126 229.174Z" fill="#DDE3E9"/>
<path d="M294.045 241.017H245.525C243.656 241.017 242.14 242.532 242.14 244.401V244.739C242.14 246.608 243.656 248.123 245.525 248.123H294.045C295.915 248.123 297.431 246.608 297.431 244.739V244.401C297.431 242.532 295.915 241.017 294.045 241.017Z" fill="#AFB9C5"/>
</g>
<path fill-rule="evenodd" clip-rule="evenodd" d="M364.005 246.544C368.367 246.544 371.903 243.009 371.903 238.648C371.903 234.288 368.367 230.753 364.005 230.753C359.643 230.753 356.106 234.288 356.106 238.648C356.106 243.009 359.643 246.544 364.005 246.544Z" fill="#DDE3E9"/>
<path fill-rule="evenodd" clip-rule="evenodd" d="M364.005 242.032C365.875 242.032 367.39 240.517 367.39 238.648C367.39 236.779 365.875 235.265 364.005 235.265C362.135 235.265 360.62 236.779 360.62 238.648C360.62 240.517 362.135 242.032 364.005 242.032Z" fill="#F2F2F2"/>
<path d="M375.289 271.359H236.498C234.005 271.359 231.985 273.379 231.985 275.87V314.22C231.985 316.712 234.005 318.732 236.498 318.732H375.289C377.781 318.732 379.802 316.712 379.802 314.22V275.87C379.802 273.379 377.781 271.359 375.289 271.359Z" fill="white"/>
<mask id="mask7_92_2" style="mask-type:luminance" maskUnits="userSpaceOnUse" x="275" y="285" width="84" height="20">
<path d="M358.363 285.571H275.991V304.52H358.363V285.571Z" fill="white"/>
</mask>
<g mask="url(#mask7_92_2)">
<path d="M354.978 285.571H279.376C277.507 285.571 275.991 287.086 275.991 288.955V289.293C275.991 291.162 277.507 292.677 279.376 292.677H354.978C356.847 292.677 358.363 291.162 358.363 289.293V288.955C358.363 287.086 356.847 285.571 354.978 285.571Z" fill="#DDE3E9"/>
<path d="M327.897 297.414H279.376C277.507 297.414 275.991 298.929 275.991 300.798V301.136C275.991 303.005 277.507 304.52 279.376 304.52H327.897C329.766 304.52 331.282 303.005 331.282 301.136V300.798C331.282 298.929 329.766 297.414 327.897 297.414Z" fill="#DDE3E9"/>
</g>
<path fill-rule="evenodd" clip-rule="evenodd" d="M255.681 308.581C263.158 308.581 269.221 302.52 269.221 295.045C269.221 287.571 263.158 281.51 255.681 281.51C248.203 281.51 242.14 287.571 242.14 295.045C242.14 302.52 248.203 308.581 255.681 308.581Z" fill="#C5CFD6"/>
<path d="M659.64 85.2484H299.687C294.702 85.2484 290.66 89.2884 290.66 94.2719V466.493C290.66 471.476 294.702 475.516 299.687 475.516H659.64C664.625 475.516 668.667 471.476 668.667 466.493V94.2719C668.667 89.2884 664.625 85.2484 659.64 85.2484Z" fill="#F2F2F2"/>
<path d="M641.586 133.75H580.653C575.668 133.75 571.626 137.79 571.626 142.773V216.09C571.626 221.073 575.668 225.113 580.653 225.113H641.586C646.571 225.113 650.613 221.073 650.613 216.09V142.773C650.613 137.79 646.571 133.75 641.586 133.75Z" fill="white"/>
<path fill-rule="evenodd" clip-rule="evenodd" d="M611.12 186.763C621.091 186.763 629.174 178.684 629.174 168.716C629.174 158.748 621.091 150.669 611.12 150.669C601.148 150.669 593.066 158.748 593.066 168.716C593.066 178.684 601.148 186.763 611.12 186.763Z" fill="#DDE3E9"/>
<path d="M635.944 191.275H586.295C584.426 191.275 582.91 192.79 582.91 194.659C582.91 196.528 584.426 198.043 586.295 198.043H635.944C637.814 198.043 639.329 196.528 639.329 194.659C639.329 192.79 637.814 191.275 635.944 191.275Z" fill="#DDE3E9"/>
<path d="M626.917 202.554H595.322C593.453 202.554 591.937 204.069 591.937 205.938C591.937 207.807 593.453 209.322 595.322 209.322H626.917C628.787 209.322 630.302 207.807 630.302 205.938C630.302 204.069 628.787 202.554 626.917 202.554Z" fill="#DDE3E9"/>
<path d="M290.66 94.272C290.66 89.2887 294.702 85.2484 299.687 85.2484H659.64C664.625 85.2484 668.667 89.2887 668.667 94.272V115.703H290.66V94.272Z" fill="#C5CFD6"/>
<path fill-rule="evenodd" clip-rule="evenodd" d="M305.329 105.551C307.822 105.551 309.843 103.531 309.843 101.04C309.843 98.548 307.822 96.5278 305.329 96.5278C302.837 96.5278 300.816 98.548 300.816 101.04C300.816 103.531 302.837 105.551 305.329 105.551Z" fill="#F2F2F2"/>
<path fill-rule="evenodd" clip-rule="evenodd" d="M318.87 105.551C321.362 105.551 323.383 103.531 323.383 101.04C323.383 98.548 321.362 96.5278 318.87 96.5278C316.377 96.5278 314.356 98.548 314.356 101.04C314.356 103.531 316.377 105.551 318.87 105.551Z" fill="#F2F2F2"/>
<path fill-rule="evenodd" clip-rule="evenodd" d="M332.41 105.551C334.903 105.551 336.924 103.531 336.924 101.04C336.924 98.548 334.903 96.5278 332.41 96.5278C329.918 96.5278 327.897 98.548 327.897 101.04C327.897 103.531 329.918 105.551 332.41 105.551Z" fill="#F2F2F2"/>
<path d="M641.586 234.137H580.653C575.668 234.137 571.626 238.177 571.626 243.16V443.934C571.626 448.917 575.668 452.957 580.653 452.957H641.586C646.571 452.957 650.613 448.917 650.613 443.934V243.16C650.613 238.177 646.571 234.137 641.586 234.137Z" fill="white"/>
<path d="M625.789 254.44H596.451C593.958 254.44 591.937 256.46 591.937 258.951V279.254C591.937 281.746 593.958 283.766 596.451 283.766H625.789C628.281 283.766 630.302 281.746 630.302 279.254V258.951C630.302 256.46 628.281 254.44 625.789 254.44Z" fill="#DDE3E9"/>
<path d="M625.789 292.79H596.451C593.958 292.79 591.937 294.81 591.937 297.301V316.476C591.937 318.968 593.958 320.988 596.451 320.988H625.789C628.281 320.988 630.302 318.968 630.302 316.476V297.301C630.302 294.81 628.281 292.79 625.789 292.79Z" fill="#AFB9C5"/>
<path d="M625.789 330.012H596.451C593.958 330.012 591.937 332.032 591.937 334.523V353.698C591.937 356.19 593.958 358.21 596.451 358.21H625.789C628.281 358.21 630.302 356.19 630.302 353.698V334.523C630.302 332.032 628.281 330.012 625.789 330.012Z" fill="#DDE3E9"/>
<path d="M625.789 404.456H596.451C593.958 404.456 591.937 406.476 591.937 408.968V428.143C591.937 430.634 593.958 432.654 596.451 432.654H625.789C628.281 432.654 630.302 430.634 630.302 428.143V408.968C630.302 406.476 628.281 404.456 625.789 404.456Z" fill="#DDE3E9"/>
<path d="M625.789 367.234H596.451C593.958 367.234 591.937 369.254 591.937 371.745V390.92C591.937 393.412 593.958 395.432 596.451 395.432H625.789C628.281 395.432 630.302 393.412 630.302 390.92V371.745C630.302 369.254 628.281 367.234 625.789 367.234Z" fill="#C5CFD6"/>
<path d="M558.086 134.878H313.228C310.735 134.878 308.714 136.898 308.714 139.39V183.379C308.714 185.871 310.735 187.891 313.228 187.891H558.086C560.579 187.891 562.599 185.871 562.599 183.379V139.39C562.599 136.898 560.579 134.878 558.086 134.878Z" fill="white"/>
<mask id="mask8_92_2" style="mask-type:luminance" maskUnits="userSpaceOnUse" x="318" y="150" width="190" height="22">
<path d="M507.309 150.782H318.87V171.987H507.309V150.782Z" fill="white"/>
</mask>
<g mask="url(#mask8_92_2)">
<path d="M503.924 150.782H322.255C320.385 150.782 318.87 152.297 318.87 154.166V155.35C318.87 157.219 320.385 158.734 322.255 158.734H503.924C505.793 158.734 507.309 157.219 507.309 155.35V154.166C507.309 152.297 505.793 150.782 503.924 150.782Z" fill="#DDE3E9"/>
<path d="M441.971 164.035H322.255C320.385 164.035 318.87 165.55 318.87 167.419V168.603C318.87 170.472 320.385 171.987 322.255 171.987H441.971C443.841 171.987 445.356 170.472 445.356 168.603V167.419C445.356 165.55 443.841 164.035 441.971 164.035Z" fill="#DDE3E9"/>
</g>
<path fill-rule="evenodd" clip-rule="evenodd" d="M535.466 169.28C539.829 169.28 543.365 165.745 543.365 161.384C543.365 157.024 539.829 153.489 535.466 153.489C531.104 153.489 527.568 157.024 527.568 161.384C527.568 165.745 531.104 169.28 535.466 169.28Z" fill="#DDE3E9"/>
<path fill-rule="evenodd" clip-rule="evenodd" d="M535.466 164.768C537.336 164.768 538.852 163.253 538.852 161.384C538.852 159.515 537.336 158.001 535.466 158.001C533.597 158.001 532.081 159.515 532.081 161.384C532.081 163.253 533.597 164.768 535.466 164.768Z" fill="#F2F2F2"/>
<path d="M558.086 196.915H313.228C310.735 196.915 308.714 198.935 308.714 201.426V236.393C308.714 238.884 310.735 240.904 313.228 240.904H558.086C560.579 240.904 562.599 238.884 562.599 236.393V201.426C562.599 198.935 560.579 196.915 558.086 196.915Z" fill="white"/>
<mask id="mask9_92_2" style="mask-type:luminance" maskUnits="userSpaceOnUse" x="318" y="210" width="190" height="18">
<path d="M507.309 210.112H318.87V227.707H507.309V210.112Z" fill="white"/>
</mask>
<g mask="url(#mask9_92_2)">
<path d="M504.008 210.112H322.17C320.347 210.112 318.87 211.589 318.87 213.411C318.87 215.233 320.347 216.71 322.17 216.71H504.008C505.831 216.71 507.309 215.233 507.309 213.411C507.309 211.589 505.831 210.112 504.008 210.112Z" fill="#DDE3E9"/>
<path d="M442.056 221.109H322.17C320.347 221.109 318.87 222.586 318.87 224.408C318.87 226.23 320.347 227.707 322.17 227.707H442.056C443.879 227.707 445.356 226.23 445.356 224.408C445.356 222.586 443.879 221.109 442.056 221.109Z" fill="#DDE3E9"/>
</g>
<path fill-rule="evenodd" clip-rule="evenodd" d="M535.466 226.805C539.829 226.805 543.365 223.27 543.365 218.909C543.365 214.549 539.829 211.014 535.466 211.014C531.104 211.014 527.568 214.549 527.568 218.909C527.568 223.27 531.104 226.805 535.466 226.805Z" fill="#DDE3E9"/>
<path fill-rule="evenodd" clip-rule="evenodd" d="M535.466 222.293C537.336 222.293 538.852 220.778 538.852 218.909C538.852 217.04 537.336 215.526 535.466 215.526C533.597 215.526 532.081 217.04 532.081 218.909C532.081 220.778 533.597 222.293 535.466 222.293Z" fill="#F2F2F2"/>
<path d="M558.086 249.928H313.228C310.735 249.928 308.714 251.948 308.714 254.44V289.406C308.714 291.898 310.735 293.918 313.228 293.918H558.086C560.579 293.918 562.599 291.898 562.599 289.406V254.44C562.599 251.948 560.579 249.928 558.086 249.928Z" fill="white"/>
<mask id="mask10_92_2" style="mask-type:luminance" maskUnits="userSpaceOnUse" x="318" y="263" width="190" height="18">
<path d="M507.309 263.125H318.87V280.721H507.309V263.125Z" fill="white"/>
</mask>
<g mask="url(#mask10_92_2)">
<path d="M504.008 263.125H322.17C320.347 263.125 318.87 264.602 318.87 266.424C318.87 268.246 320.347 269.723 322.17 269.723H504.008C505.831 269.723 507.309 268.246 507.309 266.424C507.309 264.602 505.831 263.125 504.008 263.125Z" fill="#DDE3E9"/>
<path d="M442.056 274.122H322.17C320.347 274.122 318.87 275.599 318.87 277.421C318.87 279.244 320.347 280.721 322.17 280.721H442.056C443.879 280.721 445.356 279.244 445.356 277.421C445.356 275.599 443.879 274.122 442.056 274.122Z" fill="#DDE3E9"/>
</g>
<path fill-rule="evenodd" clip-rule="evenodd" d="M535.466 279.818C539.829 279.818 543.365 276.283 543.365 271.923C543.365 267.562 539.829 264.027 535.466 264.027C531.104 264.027 527.568 267.562 527.568 271.923C527.568 276.283 531.104 279.818 535.466 279.818Z" fill="#DDE3E9"/>
<path fill-rule="evenodd" clip-rule="evenodd" d="M535.466 275.307C537.336 275.307 538.852 273.792 538.852 271.923C538.852 270.054 537.336 268.539 535.466 268.539C533.597 268.539 532.081 270.054 532.081 271.923C532.081 273.792 533.597 275.307 535.466 275.307Z" fill="#AFB9C5"/>
<path d="M558.086 408.968H313.228C310.735 408.968 308.714 410.988 308.714 413.479V448.445C308.714 450.937 310.735 452.957 313.228 452.957H558.086C560.579 452.957 562.599 450.937 562.599 448.445V413.479C562.599 410.988 560.579 408.968 558.086 408.968Z" fill="white"/>
<mask id="mask11_92_2" style="mask-type:luminance" maskUnits="userSpaceOnUse" x="318" y="422" width="190" height="18">
<path d="M507.309 422.164H318.87V439.76H507.309V422.164Z" fill="white"/>
</mask>
<g mask="url(#mask11_92_2)">
<path d="M504.008 422.164H322.17C320.347 422.164 318.87 423.642 318.87 425.464C318.87 427.286 320.347 428.763 322.17 428.763H504.008C505.831 428.763 507.309 427.286 507.309 425.464C507.309 423.642 505.831 422.164 504.008 422.164Z" fill="#DDE3E9"/>
<path d="M442.056 433.162H322.17C320.347 433.162 318.87 434.639 318.87 436.461C318.87 438.283 320.347 439.76 322.17 439.76H442.056C443.879 439.76 445.356 438.283 445.356 436.461C445.356 434.639 443.879 433.162 442.056 433.162Z" fill="#DDE3E9"/>
</g>
<path fill-rule="evenodd" clip-rule="evenodd" d="M535.466 438.858C539.829 438.858 543.365 435.323 543.365 430.962C543.365 426.602 539.829 423.067 535.466 423.067C531.104 423.067 527.568 426.602 527.568 430.962C527.568 435.323 531.104 438.858 535.466 438.858Z" fill="#DDE3E9"/>
<path fill-rule="evenodd" clip-rule="evenodd" d="M535.466 434.346C537.336 434.346 538.852 432.831 538.852 430.962C538.852 429.093 537.336 427.579 535.466 427.579C533.597 427.579 532.081 429.093 532.081 430.962C532.081 432.831 533.597 434.346 535.466 434.346Z" fill="#F2F2F2"/>
<path d="M558.086 355.954H313.228C310.735 355.954 308.714 357.974 308.714 360.466V395.432C308.714 397.924 310.735 399.944 313.228 399.944H558.086C560.579 399.944 562.599 397.924 562.599 395.432V360.466C562.599 357.974 560.579 355.954 558.086 355.954Z" fill="white"/>
<mask id="mask12_92_2" style="mask-type:luminance" maskUnits="userSpaceOnUse" x="318" y="369" width="190" height="18">
<path d="M507.309 369.151H318.87V386.747H507.309V369.151Z" fill="white"/>
</mask>
<g mask="url(#mask12_92_2)">
<path d="M504.008 369.151H322.17C320.347 369.151 318.87 370.628 318.87 372.45C318.87 374.273 320.347 375.75 322.17 375.75H504.008C505.831 375.75 507.309 374.273 507.309 372.45C507.309 370.628 505.831 369.151 504.008 369.151Z" fill="#DDE3E9"/>
<path d="M442.056 380.149H322.17C320.347 380.149 318.87 381.626 318.87 383.448C318.87 385.27 320.347 386.747 322.17 386.747H442.056C443.879 386.747 445.356 385.27 445.356 383.448C445.356 381.626 443.879 380.149 442.056 380.149Z" fill="#DDE3E9"/>
</g>
<path fill-rule="evenodd" clip-rule="evenodd" d="M535.466 385.845C539.829 385.845 543.365 382.31 543.365 377.949C543.365 373.589 539.829 370.054 535.466 370.054C531.104 370.054 527.568 373.589 527.568 377.949C527.568 382.31 531.104 385.845 535.466 385.845Z" fill="#DDE3E9"/>
<path fill-rule="evenodd" clip-rule="evenodd" d="M535.466 381.333C537.336 381.333 538.852 379.818 538.852 377.949C538.852 376.08 537.336 374.565 535.466 374.565C533.597 374.565 532.081 376.08 532.081 377.949C532.081 379.818 533.597 381.333 535.466 381.333Z" fill="#F2F2F2"/>
<path d="M558.086 302.941H313.228C310.735 302.941 308.714 304.961 308.714 307.453V342.419C308.714 344.911 310.735 346.931 313.228 346.931H558.086C560.579 346.931 562.599 344.911 562.599 342.419V307.453C562.599 304.961 560.579 302.941 558.086 302.941Z" fill="white"/>
<mask id="mask13_92_2" style="mask-type:luminance" maskUnits="userSpaceOnUse" x="318" y="316" width="190" height="18">
<path d="M507.309 316.138H318.87V333.734H507.309V316.138Z" fill="white"/>
</mask>
<g mask="url(#mask13_92_2)">
<path d="M504.008 316.138H322.17C320.347 316.138 318.87 317.615 318.87 319.437C318.87 321.259 320.347 322.736 322.17 322.736H504.008C505.831 322.736 507.309 321.259 507.309 319.437C507.309 317.615 505.831 316.138 504.008 316.138Z" fill="#DDE3E9"/>
<path d="M442.056 327.135H322.17C320.347 327.135 318.87 328.613 318.87 330.435C318.87 332.257 320.347 333.734 322.17 333.734H442.056C443.879 333.734 445.356 332.257 445.356 330.435C445.356 328.613 443.879 327.135 442.056 327.135Z" fill="#DDE3E9"/>
</g>
<path fill-rule="evenodd" clip-rule="evenodd" d="M535.466 332.832C539.829 332.832 543.365 329.297 543.365 324.936C543.365 320.575 539.829 317.04 535.466 317.04C531.104 317.04 527.568 320.575 527.568 324.936C527.568 329.297 531.104 332.832 535.466 332.832Z" fill="#DDE3E9"/>
<path fill-rule="evenodd" clip-rule="evenodd" d="M535.466 328.32C537.336 328.32 538.852 326.805 538.852 324.936C538.852 323.067 537.336 321.552 535.466 321.552C533.597 321.552 532.081 323.067 532.081 324.936C532.081 326.805 533.597 328.32 535.466 328.32Z" fill="#F2F2F2"/>
<path fill-rule="evenodd" clip-rule="evenodd" d="M762.307 277.423C757.855 274.405 751.937 273.615 746.611 273.615C725.808 273.615 706.254 281.33 689.363 292.826C680.106 299.124 671.826 307.146 664.517 315.497C660.297 320.319 656.535 325.534 653.871 331.335C652.073 335.25 650.84 339.33 650.004 343.537C648.985 348.664 648.174 353.896 647.809 359.109C647.664 361.162 646.472 372.055 649.886 372.239C649.866 372.508 649.861 372.764 649.883 372.993C642.468 384.581 637.888 398.162 633.64 411.037C629.944 422.242 626.651 433.541 624.513 445.133C621.698 460.393 619.85 475.884 618.971 491.364C618.782 494.69 618.653 498.018 618.541 501.349C618.446 504.191 618.35 507.032 618.257 509.874C618.153 513.058 617.592 516.724 618.099 519.889C618.54 522.646 620.926 522.229 621.032 519.485C621.16 516.173 621.138 512.853 621.284 509.538C621.477 505.138 621.676 500.738 621.891 496.339C623.391 465.781 629.016 435.672 639.398 406.806C643.6 395.125 648.414 384.068 654.602 373.263C660.042 363.762 666.586 354.564 673.275 345.998C679.776 337.673 686.536 329.541 694.501 322.488C700.966 316.765 708.077 311.778 715.386 307.139C724.669 301.247 733.936 295.498 743.992 290.975C749.22 288.624 754.546 286.519 759.814 284.262C760.762 283.857 761.777 283.464 762.689 282.993C765.73 281.426 764.729 279.065 762.307 277.423Z" fill="#C1DEE2"/>
<path fill-rule="evenodd" clip-rule="evenodd" d="M678.617 384.153C687.054 384.153 694.562 385.249 702.336 388.6C709.046 391.493 715.162 395.323 721.099 399.492C729.45 405.356 736.029 412.18 740.634 421.223C743.385 426.624 745.403 434.268 743.555 440.161C741.38 447.1 735.404 452.888 727.533 451.666C722.667 450.91 718.206 447.69 714.507 444.659C710.082 441.033 706.54 436.673 703.615 431.831C698.844 423.932 696.041 415.003 691.988 406.749C690.066 402.832 688.207 398.887 685.903 395.164C684.763 393.321 683.549 391.495 681.819 390.124C680.894 389.391 676.992 388.123 678.484 386.478C656.605 386.764 637.221 403.561 633.02 424.354C632.63 426.292 632.324 428.245 632 430.195C631.797 431.426 631.88 435.967 630.778 436.753C628.35 438.488 629.37 433.217 629.475 432.458C629.745 430.497 630.031 428.537 630.333 426.58C631.973 415.939 636.712 406.047 644.616 398.459C653.653 389.781 665.847 384.153 678.617 384.153Z" fill="#89C5CC"/>
<path fill-rule="evenodd" clip-rule="evenodd" d="M70.5564 357.912C91.6191 393.235 116.151 427.436 130.883 466.056C130.289 461.504 129.66 456.956 128.955 452.416C125.217 428.344 120.571 404.449 115.689 380.583C113.204 368.432 110.573 356.323 107.876 344.217C106.427 337.714 104.993 331.208 103.513 324.713C103.154 323.138 102.846 320.389 102.398 317.604C116.715 364.568 130.522 411.567 140.621 459.659C141.946 465.971 143.074 472.272 143.998 478.562C144.314 477.127 144.626 475.692 144.965 474.261C149.052 457.108 155.181 440.092 162.48 424.053C165.969 416.384 169.976 408.882 174.695 401.891C177.637 397.534 184.577 392.354 187.26 387.891C172.581 414.806 167.28 448.482 158.804 477.742C156.735 484.882 154.653 492.011 152.613 499.152C165.396 473.528 185.228 452.473 212.802 443.351C179.425 465.395 159.405 504.001 145.914 543.486C145.87 543.954 145.817 544.422 145.771 544.891C149.742 537.36 154.741 530.547 161.518 525.777C176.025 515.563 192.116 518.538 206.186 527.3C195.143 520.283 175.185 526.673 165.893 533.805C159.241 538.91 153.557 545.759 148.62 552.442C147.437 554.043 145.823 555.912 144.118 557.905C141.728 573.416 137.833 588.82 132.317 604.101C133.228 599.715 132.57 592.7 132.823 589.43C132.85 589.077 132.872 588.722 132.899 588.37C132.061 591.715 131.251 595.023 130.471 598.278C132.022 592.067 132.863 585.584 133.521 579.034C133.69 576.22 133.856 573.404 134.03 570.59C133.975 565.247 133.755 559.885 133.382 554.513C132.063 549.292 130.585 544.368 129.365 540.272C124.968 525.495 118.519 511.339 110.583 498.132C103.343 486.08 94.6749 475.164 84.6689 465.291C79.2747 459.97 73.6295 454.903 68.0638 449.765C66.0512 447.907 62.4538 443.34 59.3427 440.959C82.0011 453.447 105.323 466.955 121.853 487.075C119.914 479.636 117.81 472.303 115.583 465.116C104.287 428.655 90.0247 390.867 70.5564 357.912Z" fill="#DDE3E9"/>
<path fill-rule="evenodd" clip-rule="evenodd" d="M93.194 557.856C93.194 598.348 96.4018 631.172 139.458 631.172C182.513 631.172 185.721 598.348 185.721 557.856" fill="#C5CFD6"/>
<path d="M579.525 40.1308C579.525 38.2619 578.01 36.7469 576.14 36.7469C574.27 36.7469 572.755 38.2619 572.755 40.1308V61.5617C572.755 63.4305 574.27 64.9455 576.14 64.9455C578.01 64.9455 579.525 63.4305 579.525 61.5617V40.1308Z" fill="#DDE3E9"/>
<path d="M595.322 22.0837C595.322 20.2149 593.807 18.6999 591.937 18.6999C590.068 18.6999 588.552 20.2149 588.552 22.0837V61.5617C588.552 63.4305 590.068 64.9455 591.937 64.9455C593.807 64.9455 595.322 63.4305 595.322 61.5617V22.0837Z" fill="#DDE3E9"/>
<path d="M611.12 13.0602C611.12 11.1913 609.604 9.67636 607.735 9.67636C605.865 9.67636 604.349 11.1913 604.349 13.0602V61.5617C604.349 63.4305 605.865 64.9455 607.735 64.9455C609.604 64.9455 611.12 63.4305 611.12 61.5617V13.0602Z" fill="#DDE3E9"/>
<path d="M626.917 22.0837C626.917 20.2149 625.401 18.6999 623.532 18.6999C621.662 18.6999 620.147 20.2149 620.147 22.0837V61.5617C620.147 63.4305 621.662 64.9455 623.532 64.9455C625.401 64.9455 626.917 63.4305 626.917 61.5617V22.0837Z" fill="#DDE3E9"/>
<path d="M642.714 4.03665C642.714 2.16782 641.199 0.652831 639.329 0.652831C637.46 0.652831 635.944 2.16782 635.944 4.03665V61.5617C635.944 63.4305 637.46 64.9455 639.329 64.9455C641.199 64.9455 642.714 63.4305 642.714 61.5617V4.03665Z" fill="#C5CFD6"/>
<path fill-rule="evenodd" clip-rule="evenodd" d="M17.5927 346.092C17.5927 333.527 27.7503 323.244 40.1602 323.244V346.092L24.7376 362.722C20.3504 358.656 17.5927 352.691 17.5927 346.092Z" fill="#F2F2F2"/>
<path fill-rule="evenodd" clip-rule="evenodd" d="M39.563 345.803H62.3532C62.3532 351.692 59.95 357.21 56.1508 361.22C51.9722 365.605 46.0217 368.362 39.563 368.362C33.6137 368.362 28.1679 365.983 23.9883 362.222L39.563 345.803Z" fill="#AFB9C5"/>
<path fill-rule="evenodd" clip-rule="evenodd" d="M62.7278 345.803C62.7278 333.398 52.5701 323.244 40.1602 323.244V345.803H62.7278ZM28.8765 323.244L37.9035 343.547L17.5927 334.523C19.6012 329.26 24.1113 325.252 28.8765 323.244Z" fill="#C5CFD6"/>
<path fill-rule="evenodd" clip-rule="evenodd" d="M751.903 356.156C749.735 358.457 746.664 359.902 743.247 359.902C736.683 359.902 731.362 354.6 731.362 348.059C731.362 341.518 736.683 336.215 743.247 336.215V314.22C724.574 314.22 709.289 329.451 709.289 348.059C709.289 366.666 724.574 381.897 743.247 381.897C753.056 381.897 761.922 377.762 767.964 371.184L751.903 356.156Z" fill="#F2F2F2"/>
<path fill-rule="evenodd" clip-rule="evenodd" d="M743.14 314.22V336.215C749.683 336.215 754.988 341.518 754.988 348.059H776.991C776.991 329.451 761.755 314.22 743.14 314.22Z" fill="#AFB9C5"/>
<path fill-rule="evenodd" clip-rule="evenodd" d="M754.533 348.059C754.533 351.902 752.722 355.317 749.91 357.523L763.746 375.129C771.8 368.826 776.991 359.055 776.991 348.059H754.533Z" fill="#C5CFD6"/>
<path fill-rule="evenodd" clip-rule="evenodd" d="M536.704 45.2109C535.037 46.975 532.674 48.0828 530.046 48.0828C524.996 48.0828 520.904 44.0175 520.904 39.0028C520.904 33.9881 524.996 29.9229 530.046 29.9229V13.0602C515.681 13.0602 503.924 24.737 503.924 39.0028C503.924 53.2687 515.681 64.9455 530.046 64.9455C537.591 64.9455 544.41 61.7748 549.059 56.7318L536.704 45.2109Z" fill="#F2F2F2"/>
<path fill-rule="evenodd" clip-rule="evenodd" d="M529.876 13.0602V29.9229C534.893 29.9229 538.96 33.9881 538.96 39.0028H555.829C555.829 24.737 544.148 13.0602 529.876 13.0602Z" fill="#AFB9C5"/>
<path fill-rule="evenodd" clip-rule="evenodd" d="M538.986 39.0028C538.986 41.8849 537.627 44.4469 535.518 46.1011L545.895 59.3058C551.936 54.5783 555.829 47.2503 555.829 39.0028H538.986Z" fill="#C5CFD6"/>
<path fill-rule="evenodd" clip-rule="evenodd" d="M125.925 64.9297C125.92 64.9408 125.916 64.952 125.909 64.9655C125.916 64.9543 125.925 64.9095 125.925 64.9297Z" fill="#C5CFD6"/>
<path fill-rule="evenodd" clip-rule="evenodd" d="M125.915 64.9462C125.915 64.9484 125.912 64.9528 125.912 64.9572C125.912 64.9462 125.932 64.9132 125.915 64.9462Z" fill="#C5CFD6"/>
<path fill-rule="evenodd" clip-rule="evenodd" d="M125.992 64.756C125.977 64.801 125.956 64.8438 125.938 64.8889C125.947 64.8664 125.956 64.8484 125.965 64.8258C125.731 65.4116 125.88 65.0308 125.992 64.756Z" fill="#C5CFD6"/>
<path fill-rule="evenodd" clip-rule="evenodd" d="M125.942 64.8925C125.933 64.9127 125.924 64.9353 125.915 64.9555C125.849 65.0817 125.942 64.8925 125.942 64.8925Z" fill="#C5CFD6"/>
<path fill-rule="evenodd" clip-rule="evenodd" d="M125.906 64.9626C125.967 64.8612 125.892 64.9891 125.906 64.9626Z" fill="#C5CFD6"/>
<path fill-rule="evenodd" clip-rule="evenodd" d="M125.915 64.9472L125.919 64.9432C125.917 64.9452 125.917 64.9472 125.915 64.9472Z" fill="#C5CFD6"/>
<path d="M174.437 6.29254H76.2683C73.7756 6.29254 71.7548 8.31252 71.7548 10.8043V72.8411C71.7548 75.3328 73.7756 77.3528 76.2683 77.3528H174.437C176.93 77.3528 178.951 75.3328 178.951 72.8411V10.8043C178.951 8.31252 176.93 6.29254 174.437 6.29254Z" fill="#DDE3E9"/>
<path fill-rule="evenodd" clip-rule="evenodd" d="M112.376 26.5955L80.7819 77.3528H143.971L112.376 26.5955Z" fill="#AFB9C5"/>
<path fill-rule="evenodd" clip-rule="evenodd" d="M143.407 40.1308L115.762 77.3528H171.052L143.407 40.1308Z" fill="#C5CFD6"/>
<path fill-rule="evenodd" clip-rule="evenodd" d="M155.255 40.1308C160.864 40.1308 165.41 35.5858 165.41 29.9793C165.41 24.3728 160.864 19.8278 155.255 19.8278C149.646 19.8278 145.099 24.3728 145.099 29.9793C145.099 35.5858 149.646 40.1308 155.255 40.1308Z" fill="white"/>
<path fill-rule="evenodd" clip-rule="evenodd" d="M664.146 546.561C664.15 546.572 664.155 546.583 664.161 546.596C664.155 546.585 664.146 546.54 664.146 546.561Z" fill="#C5CFD6"/>
<path fill-rule="evenodd" clip-rule="evenodd" d="M664.155 546.577C664.155 546.579 664.158 546.584 664.158 546.588C664.158 546.577 664.138 546.544 664.155 546.577Z" fill="#C5CFD6"/>
<path fill-rule="evenodd" clip-rule="evenodd" d="M664.078 546.387C664.094 546.432 664.114 546.475 664.132 546.52C664.123 546.497 664.114 546.479 664.105 546.457C664.339 547.042 664.191 546.662 664.078 546.387Z" fill="#C5CFD6"/>
<path fill-rule="evenodd" clip-rule="evenodd" d="M664.129 546.523C664.138 546.544 664.147 546.566 664.156 546.586C664.221 546.713 664.129 546.523 664.129 546.523Z" fill="#C5CFD6"/>
<path fill-rule="evenodd" clip-rule="evenodd" d="M664.164 546.593C664.177 546.62 664.102 546.492 664.164 546.593Z" fill="#C5CFD6"/>
<path fill-rule="evenodd" clip-rule="evenodd" d="M664.155 546.578L664.151 546.574C664.153 546.576 664.153 546.578 664.155 546.578Z" fill="#C5CFD6"/>
<path d="M588.552 459.725H739.755C742.248 459.725 744.268 461.745 744.268 464.237V561.24C744.268 563.731 742.248 565.751 739.755 565.751H588.552C586.059 565.751 584.039 563.731 584.039 561.24V464.237C584.039 461.745 586.059 459.725 588.552 459.725Z" fill="#DDE3E9"/>
<path fill-rule="evenodd" clip-rule="evenodd" d="M684.773 490.179L731.099 565.751H638.448L684.773 490.179Z" fill="#AFB9C5"/>
<path fill-rule="evenodd" clip-rule="evenodd" d="M637.009 510.422L677.964 565.751H596.055L637.009 510.422Z" fill="#C5CFD6"/>
<path fill-rule="evenodd" clip-rule="evenodd" d="M619.583 510.482C611.169 510.482 604.349 503.665 604.349 495.255C604.349 486.845 611.169 480.028 619.583 480.028C627.996 480.028 634.816 486.845 634.816 495.255C634.816 503.665 627.996 510.482 619.583 510.482Z" fill="white"/>
</svg>
