<svg width="158" height="158" viewBox="0 0 158 158" fill="none" xmlns="http://www.w3.org/2000/svg">
<path d="M77.6357 156.812C34.7714 156.812 1.1875 122.632 1.1875 79C1.1875 60.1746 7.60444 42.1117 19.2659 28.1418C20.1893 27.042 21.8182 26.9019 22.9179 27.8149C24.0177 28.7331 24.1681 30.3672 23.2499 31.4669C12.3666 44.5031 6.375 61.3833 6.375 79C6.375 119.727 37.6764 151.625 77.6357 151.625C118.435 151.625 151.625 119.047 151.625 79C151.625 38.9525 118.435 6.375 77.6357 6.375C64.9782 6.375 52.6682 9.59125 42.0598 15.671C40.8304 16.3609 39.2326 15.9511 38.5219 14.7061C37.8112 13.4611 38.2418 11.8789 39.4868 11.1631C50.8786 4.63719 64.0704 1.1875 77.6357 1.1875C121.294 1.1875 156.812 36.0942 156.812 79C156.812 121.906 121.294 156.812 77.6357 156.812Z" fill="#2F5F6D" stroke="#2F5F6D" stroke-width="2"/>
<path d="M35.1293 19.6135C35.1293 21.0401 33.9621 22.2073 32.5356 22.2073C31.109 22.2073 29.9418 21.0401 29.9418 19.6135C29.9418 18.1869 31.109 17.0198 32.5356 17.0198C33.9621 17.0198 35.1293 18.1818 35.1293 19.6135Z" fill="#2F5F6D" stroke="#2F5F6D" stroke-width="3"/>
<path d="M113.968 95.7062C112.089 91.2554 109.362 87.2126 105.94 83.8029C102.527 80.3834 98.4851 77.657 94.0362 75.7744C93.9963 75.7545 93.9565 75.7445 93.9167 75.7246C100.122 71.2422 104.157 63.9408 104.157 55.7031C104.157 42.0566 93.0999 31 79.4534 31C65.8069 31 54.7503 42.0566 54.7503 55.7031C54.7503 63.9408 58.7844 71.2422 64.9901 75.7346C64.9502 75.7545 64.9104 75.7645 64.8706 75.7844C60.4081 77.667 56.4038 80.3664 52.9672 83.8129C49.5477 87.2251 46.8213 91.2673 44.9387 95.7162C43.0892 100.072 42.0917 104.741 42.0002 109.472C41.9976 109.579 42.0162 109.684 42.0551 109.783C42.0939 109.882 42.1522 109.973 42.2265 110.049C42.3007 110.125 42.3895 110.185 42.4875 110.227C42.5855 110.268 42.6908 110.289 42.7971 110.289H48.7737C49.212 110.289 49.5606 109.94 49.5706 109.512C49.7698 101.822 52.8577 94.6205 58.3163 89.1619C63.9641 83.5141 71.4647 80.4062 79.4534 80.4062C87.442 80.4062 94.9426 83.5141 100.59 89.1619C106.049 94.6205 109.137 101.822 109.336 109.512C109.346 109.95 109.695 110.289 110.133 110.289H116.11C116.216 110.289 116.321 110.268 116.419 110.227C116.517 110.185 116.606 110.125 116.68 110.049C116.755 109.973 116.813 109.882 116.852 109.783C116.891 109.684 116.909 109.579 116.907 109.472C116.807 104.711 115.821 100.079 113.968 95.7062ZM79.4534 72.8359C74.8813 72.8359 70.5782 71.0529 67.3409 67.8156C64.1036 64.5783 62.3206 60.2752 62.3206 55.7031C62.3206 51.1311 64.1036 46.8279 67.3409 43.5906C70.5782 40.3533 74.8813 38.5703 79.4534 38.5703C84.0254 38.5703 88.3286 40.3533 91.5659 43.5906C94.8032 46.8279 96.5862 51.1311 96.5862 55.7031C96.5862 60.2752 94.8032 64.5783 91.5659 67.8156C88.3286 71.0529 84.0254 72.8359 79.4534 72.8359Z" fill="#2F5F6D"/>
</svg>
