<svg width="35" height="17" viewBox="0 0 35 17" fill="none" xmlns="http://www.w3.org/2000/svg">
<path d="M34.6504 13.9041L18.3063 0.292199C18.0728 0.0975021 17.8041 0 17.5002 0C17.1963 0 16.9272 0.0975021 16.6936 0.292199L0.350825 13.9041C0.116696 14.0991 0 14.3228 0 14.5761C0 14.8292 0.117065 15.0532 0.350825 15.2478L2.10397 16.7079C2.33773 16.9026 2.60675 16.9999 2.91065 16.9999C3.21455 16.9999 3.48356 16.9026 3.71732 16.7079L17.5002 5.22847L31.2837 16.7086C31.5173 16.9033 31.7864 17 32.0898 17C32.3942 17 32.6633 16.9027 32.8969 16.7086L34.6503 15.2479C34.8839 15.0533 35 14.8292 35 14.5762C35.0001 14.3228 34.884 14.0988 34.6504 13.9041Z" fill="white"/>
</svg>
