<svg width="16" height="29" viewBox="0 0 16 29" fill="none" xmlns="http://www.w3.org/2000/svg">
<path d="M13.0862 0.289667L0.275011 13.8319C0.0917667 14.0254 0 14.248 0 14.4998C0 14.7516 0.0917667 14.9746 0.275011 15.1682L13.0862 28.7093C13.2697 28.9033 13.4803 29 13.7186 29C13.9569 29 14.1678 28.903 14.3509 28.7093L15.7251 27.2567C15.9083 27.063 15.9999 26.8401 15.9999 26.5883C15.9999 26.3365 15.9083 26.1136 15.7251 25.9199L4.92091 14.4998L15.7258 3.07926C15.909 2.88567 16 2.66267 16 2.41127C16 2.15906 15.9084 1.93616 15.7258 1.74258L14.351 0.28977C14.1678 0.0961838 13.9569 0 13.7187 0C13.4803 -0.000101089 13.2694 0.0960808 13.0862 0.289667Z" fill="#2F5F6D"/>
</svg>
