<svg width="30" height="27" viewBox="0 0 30 27" fill="none" xmlns="http://www.w3.org/2000/svg">
<path fill-rule="evenodd" clip-rule="evenodd" d="M24.9061 11.7142H8.94594L5.87719 2.58016H27.2899L24.9061 11.7142ZM0 0V2.58016H3.42494L8.56234 17.9369C8.84904 18.8152 9.38774 19.5882 10.1104 20.1583C10.8041 20.7012 11.6568 20.9972 12.5353 21H25.3719V18.3922H12.5353C12.1288 18.3913 11.734 18.2555 11.4119 18.0059C11.0848 17.7534 10.8412 17.4071 10.7132 17.0125L9.85012 14.253H24.6595C25.2444 14.2529 25.8111 14.0481 26.2624 13.6735C26.7395 13.2738 27.0798 12.7332 27.2351 12.1281L29.975 1.62812C30.0083 1.45496 30.0083 1.27697 29.975 1.10381C29.954 0.92625 29.903 0.753605 29.8244 0.593298C29.7436 0.44627 29.6368 0.315343 29.5093 0.206965C29.3873 0.111168 29.2475 0.0408104 29.0983 0H0Z" fill="#5D5B58"/>
<path fill-rule="evenodd" clip-rule="evenodd" d="M12.5 27C12.9945 27 13.4778 26.8534 13.8889 26.5787C14.3 26.304 14.6205 25.9135 14.8097 25.4567C14.9989 24.9999 15.0484 24.4972 14.952 24.0123C14.8555 23.5273 14.6174 23.0819 14.2678 22.7322C13.9181 22.3826 13.4727 22.1445 12.9877 22.048C12.5028 21.9516 12.0001 22.0011 11.5433 22.1903C11.0865 22.3795 10.696 22.7 10.4213 23.1111C10.1466 23.5222 10 24.0055 10 24.5C10 25.163 10.2634 25.7989 10.7322 26.2678C11.2011 26.7366 11.837 27 12.5 27Z" fill="#5D5B58"/>
<path fill-rule="evenodd" clip-rule="evenodd" d="M23.5 27C23.9945 27 24.4778 26.8534 24.8889 26.5787C25.3 26.304 25.6205 25.9135 25.8097 25.4567C25.9989 24.9999 26.0484 24.4972 25.952 24.0123C25.8555 23.5273 25.6174 23.0819 25.2678 22.7322C24.9181 22.3826 24.4727 22.1445 23.9877 22.048C23.5028 21.9516 23.0001 22.0011 22.5433 22.1903C22.0865 22.3795 21.696 22.7 21.4213 23.1111C21.1466 23.5222 21 24.0055 21 24.5C21 25.163 21.2634 25.7989 21.7322 26.2678C22.2011 26.7366 22.837 27 23.5 27Z" fill="#5D5B58"/>
</svg>
