<svg width="30" height="30" viewBox="0 0 30 30" fill="none" xmlns="http://www.w3.org/2000/svg">
<rect width="30" height="30" fill="white"/>
<path fill-rule="evenodd" clip-rule="evenodd" d="M24.9061 14.7142H8.94594L5.87719 5.58016H27.2899L24.9061 14.7142ZM0 3V5.58016H3.42494L8.56234 20.9369C8.84904 21.8152 9.38774 22.5882 10.1104 23.1583C10.8041 23.7012 11.6568 23.9972 12.5353 24H25.3719V21.3922H12.5353C12.1288 21.3913 11.734 21.2555 11.4119 21.0059C11.0848 20.7534 10.8412 20.4071 10.7132 20.0125L9.85012 17.253H24.6595C25.2444 17.2529 25.8111 17.048 26.2624 16.6735C26.7395 16.2738 27.0798 15.7332 27.2351 15.1281L29.975 4.62812C30.0083 4.45496 30.0083 4.27697 29.975 4.10381C29.954 3.92625 29.903 3.7536 29.8244 3.5933C29.7436 3.44627 29.6368 3.31534 29.5093 3.20696C29.3873 3.11117 29.2475 3.04081 29.0983 3H0Z" fill="#5D5B58"/>
<path fill-rule="evenodd" clip-rule="evenodd" d="M12.5 30C12.9945 30 13.4778 29.8534 13.8889 29.5787C14.3 29.304 14.6205 28.9135 14.8097 28.4567C14.9989 27.9999 15.0484 27.4972 14.952 27.0123C14.8555 26.5273 14.6174 26.0819 14.2678 25.7322C13.9181 25.3826 13.4727 25.1445 12.9877 25.048C12.5028 24.9516 12.0001 25.0011 11.5433 25.1903C11.0865 25.3795 10.696 25.7 10.4213 26.1111C10.1466 26.5222 10 27.0055 10 27.5C10 28.163 10.2634 28.7989 10.7322 29.2678C11.2011 29.7366 11.837 30 12.5 30Z" fill="#5D5B58"/>
<path fill-rule="evenodd" clip-rule="evenodd" d="M23.5 30C23.9945 30 24.4778 29.8534 24.8889 29.5787C25.3 29.304 25.6205 28.9135 25.8097 28.4567C25.9989 27.9999 26.0484 27.4972 25.952 27.0123C25.8555 26.5273 25.6174 26.0819 25.2678 25.7322C24.9181 25.3826 24.4727 25.1445 23.9877 25.048C23.5028 24.9516 23.0001 25.0011 22.5433 25.1903C22.0865 25.3795 21.696 25.7 21.4213 26.1111C21.1466 26.5222 21 27.0055 21 27.5C21 28.163 21.2634 28.7989 21.7322 29.2678C22.2011 29.7366 22.837 30 23.5 30Z" fill="#5D5B58"/>
<path fill-rule="evenodd" clip-rule="evenodd" d="M25 15H9.0096L5.5 5.5H27.5L25 15Z" fill="white"/>
</svg>
