<svg width="26" height="23" viewBox="0 0 26 23" fill="none" xmlns="http://www.w3.org/2000/svg">
<path d="M24.25 1H0.5V3.5H3.375L7.475 14.75C7.73289 15.4794 8.21009 16.1113 8.84117 16.5588C9.47225 17.0064 10.2263 17.2478 11 17.25H21.75V14.75H11C10.7431 14.7499 10.4925 14.6706 10.2822 14.523C10.072 14.3754 9.91234 14.1666 9.825 13.925L9.25 12.25H20.85C21.3925 12.2492 21.9201 12.072 22.353 11.745C22.786 11.418 23.1008 10.9591 23.25 10.4375L25.5 2.5875C25.5508 2.42335 25.5672 2.2505 25.5482 2.07972C25.5293 1.90894 25.4753 1.74391 25.3896 1.59494C25.304 1.44597 25.1886 1.31625 25.0506 1.21388C24.9125 1.11152 24.7549 1.03871 24.5875 1C24.4758 0.980878 24.3617 0.980878 24.25 1ZM20.8125 9.75H8.3125L6.0375 3.5H22.5875L20.8125 9.75Z" fill="#222222"/>
<path d="M11.125 22.25C12.1605 22.25 13 21.4105 13 20.375C13 19.3395 12.1605 18.5 11.125 18.5C10.0895 18.5 9.25 19.3395 9.25 20.375C9.25 21.4105 10.0895 22.25 11.125 22.25Z" fill="#222222"/>
<path d="M18.625 22.25C19.6605 22.25 20.5 21.4105 20.5 20.375C20.5 19.3395 19.6605 18.5 18.625 18.5C17.5895 18.5 16.75 19.3395 16.75 20.375C16.75 21.4105 17.5895 22.25 18.625 22.25Z" fill="#222222"/>
</svg>
