<svg width="260" height="59" viewBox="0 0 260 59" fill="none" xmlns="http://www.w3.org/2000/svg">
<path d="M202 18.1671C202.061 18.3322 202.098 18.5035 202.098 18.6869C202.098 37.3558 212.512 37.3558 218.107 37.3558H241.686C242.536 37.3558 243.227 38.0467 243.227 38.8967V39.869C243.227 40.719 242.536 41.4099 241.686 41.4099H201.994V58.1465H246.59C249.959 57.9324 259.963 57.217 260 39.4104C260.006 21.6588 249.941 20.9433 246.633 20.711L220.259 20.6376C219.489 20.6376 218.871 20.0139 218.871 19.2495V18.2772C218.871 17.5129 219.495 16.8891 220.259 16.8891H260V0.00585938H218.156C212.958 0.0119743 202.214 0.0180778 202 18.1671Z" fill="#4D96AB"/>
<path d="M57.9755 17.5757C57.5291 0.0259113 46.9564 0.0136719 41.8383 0.0136719H0V39.889C0.201792 57.3104 10.1752 57.9525 13.4467 58.1604H58.0061V40.1642V40.0725V38.5804V18.4318C58 18.389 58 18.3401 58 18.2973C57.9939 18.0466 57.9816 17.8142 57.9755 17.5757ZM41.1595 39.8646C41.1595 40.7145 40.4685 41.4055 39.6185 41.4055H20.0447C18.2224 41.4055 16.7426 39.9196 16.7426 38.0974V18.2789C16.7426 17.429 17.4336 16.738 18.2775 16.738H37.8513C39.6736 16.738 41.1534 18.2239 41.1534 20.0461V39.8646H41.1595Z" fill="#4D96AB"/>
<path d="M118.782 39.8812C118.782 39.8751 118.782 39.8751 118.782 39.869V18.6992V18.4301C118.77 18.3873 118.77 18.3384 118.77 18.2895C118.77 18.1855 118.764 18.0877 118.764 17.9776C118.483 0.018079 107.782 0.00585938 102.621 0.00585938H60.7762V16.724H100.468C101.318 16.724 102.009 17.415 102.009 18.265V19.2373C102.009 20.0872 101.324 20.7782 100.474 20.7782L74.0089 20.8577C70.8414 21.084 60.8863 21.7933 60.8863 39.3187C60.8863 39.496 60.8496 39.7039 60.7885 39.8935C61.0025 57.2965 70.9453 57.9386 74.2291 58.1465H118.788V40.6211L118.782 39.8812ZM102.009 39.869C102.009 40.719 101.318 41.4099 100.468 41.4099H78.9987C78.1487 41.4099 77.4577 40.719 77.4577 39.869V38.8967C77.4577 38.0467 78.1487 37.3558 78.9987 37.3558H100.468C101.318 37.3558 102.009 38.0467 102.009 38.8967V39.869Z" fill="#4D96AB"/>
<path d="M121.564 18.1674C121.626 18.3325 121.662 18.5037 121.662 18.6872C121.662 37.356 132.076 37.356 137.671 37.356H161.244C162.1 37.356 162.785 38.047 162.785 38.897V39.8693C162.785 40.7192 162.1 41.4102 161.244 41.4102H121.552V58.1467H166.148C169.469 57.9388 179.246 57.2234 179.546 40.1077C179.546 40.0833 179.546 40.0588 179.546 40.0343C179.552 39.8264 179.558 39.6247 179.558 39.4106C179.558 39.1293 179.546 38.8725 179.546 38.5973C179.24 21.6468 169.45 20.9375 166.191 20.7112L139.824 20.6317C139.059 20.6317 138.436 20.008 138.436 19.2436V18.2714C138.436 17.507 139.053 16.8833 139.824 16.8833H179.558V16.7182V0H137.714C132.522 0.0122298 121.779 0.0183393 121.564 18.1674Z" fill="#4D96AB"/>
<path d="M182.341 17.7205V18.277V38.7742V39.3306V39.8626V39.8687V58.1462H199.218V40.6148V39.881V18.6989V17.9468V0.0117188H182.341V17.7205Z" fill="#4D96AB"/>
</svg>
