<svg width="273" height="83" viewBox="0 0 273 83" fill="none" xmlns="http://www.w3.org/2000/svg">
<path fill-rule="evenodd" clip-rule="evenodd" d="M140.139 60.1526V63.3936C136.954 62.7454 119.897 60.5416 119.897 69.1903H138.288V72.1905H119.916L119.99 81.9319H116.508V69.1718C116.508 56.0412 140.139 60.1526 140.139 60.1526ZM142.232 69.1718V81.9319H145.714L145.64 72.1905H164.012V69.1903H145.621C145.621 60.5601 162.678 62.7639 165.863 63.3936V60.1526C165.863 60.1526 142.232 56.0412 142.232 69.1718ZM191.68 62.7824V59.56H171.105H167.993V72.3201C167.993 85.4506 191.625 81.3393 191.625 81.3393V78.0983C188.439 78.7465 171.382 80.9318 171.382 72.3016H189.773V69.2829H171.401L171.456 62.7824H191.68ZM218.978 62.7824V59.56H198.403H195.31V72.3201C195.31 85.4506 218.941 81.3393 218.941 81.3393V78.0983C215.756 78.7465 198.699 80.9318 198.699 72.3016H217.089V69.2829H198.718L198.773 62.7824H218.978ZM81.0799 61.449C81.0799 61.449 76.4685 59.7637 68.8754 59.7637C61.3008 59.7637 54.004 62.8936 54.004 70.6719C54.004 79.3577 61.3008 82.4134 68.8754 82.4134C76.45 82.4134 81.154 80.7281 81.154 80.7281L80.3762 77.839C80.3762 77.839 75.9129 79.2095 68.8754 79.2095C62.2453 79.2095 57.282 76.6167 57.282 70.6719C57.282 64.9493 63.375 62.8195 68.8754 62.8195C74.3573 62.8195 80.3021 64.4863 80.3021 64.4863L81.0799 61.449ZM83.6727 70.6534C83.6727 76.7649 87.7841 82.3764 97.8959 82.3764C108.008 82.3764 112.897 77.5427 112.897 70.5608C112.897 63.5788 107.322 59.7637 97.8959 59.7637C88.4323 59.7637 83.6727 64.5418 83.6727 70.6534ZM97.9885 62.8936C105.156 62.8936 109.397 65.653 109.397 70.7089C109.397 75.7648 105.674 79.265 97.9885 79.265C90.3028 79.265 87.173 75.1907 87.173 70.783C87.1915 66.3568 90.7843 62.8936 97.9885 62.8936Z" fill="#4D96AB"/>
<path fill-rule="evenodd" clip-rule="evenodd" d="M0 36.8546V11.5195L7.98202 10.9824V36.8546H0Z" fill="#4D96AB"/>
<path d="M7.98202 0H0V7.09308H7.98202V0Z" fill="#4D96AB"/>
<path fill-rule="evenodd" clip-rule="evenodd" d="M199.717 36.8546V11.5195L207.699 10.9824V36.8546H199.717Z" fill="#4D96AB"/>
<path d="M207.699 0H199.717V7.09308H207.699V0Z" fill="#4D96AB"/>
<path fill-rule="evenodd" clip-rule="evenodd" d="M47.4105 10.2051C42.5398 10.2051 39.2247 11.5755 36.206 13.2053C34.6689 11.5755 32.1687 10.2051 27.8351 10.2051C24.0015 10.2051 20.1308 11.9274 19.2974 12.3163V10.2051L12.1674 11.0199V36.781H19.2974V19.1686C24.4089 17.7982 28.1684 17.5204 29.9648 18.3167C32.7058 19.5576 32.2613 23.7801 32.2613 23.7801V36.7624H39.3914V23.7801C39.3914 23.1134 39.3729 21.2984 38.8173 19.1131C38.8173 19.1131 43.7251 17.7982 47.8179 17.8352C51.5034 17.8723 52.2812 21.5947 52.2812 23.7801V36.7624H59.4113V23.7801C59.4113 10.9459 50.6329 10.2051 47.4105 10.2051Z" fill="#4D96AB"/>
<path fill-rule="evenodd" clip-rule="evenodd" d="M269.814 13.2053C268.37 11.4829 265.777 10.2051 261.443 10.2051C257.61 10.2051 253.739 11.9274 252.906 12.3163V10.2051L245.776 11.0199V36.781H252.906V19.1686C258.017 17.7982 261.777 17.5204 263.573 18.3167C266.314 19.5576 265.87 23.7801 265.87 23.7801V36.7624H273V23.7801C273 23.1134 272.981 21.2984 272.426 19.1131C272.407 19.1131 272.444 16.3536 269.814 13.2053Z" fill="#4D96AB"/>
<path fill-rule="evenodd" clip-rule="evenodd" d="M81.3388 10.2051C77.1533 10.2051 74.3754 11.52 71.0974 12.983V10.2051L63.9673 11.0199V46.0594H71.0974V33.7437C73.0419 35.2068 76.8014 37.5773 80.8202 37.5773C86.6169 37.5773 95.4509 35.4105 95.4509 23.7245C95.4509 12.02 85.7465 10.2051 81.3388 10.2051ZM80.7277 30.1509C75.6347 30.1509 72.6345 28.1322 71.0789 26.5951V19.002C74.1346 18.3353 79.4313 17.8167 79.4313 17.8167C87.9133 17.8167 88.3763 22.5207 88.3763 23.7245C88.3578 24.9283 88.9504 30.1509 80.7277 30.1509Z" fill="#4D96AB"/>
<path fill-rule="evenodd" clip-rule="evenodd" d="M227.219 10.2051C217.2 10.2051 211.607 16.3351 211.607 23.8912C211.607 31.4473 217.496 37.5773 227.219 37.5773C236.942 37.5773 242.831 31.4473 242.831 23.8912C242.831 16.3351 237.238 10.2051 227.219 10.2051ZM227.219 30.1323C222.089 30.1323 218.978 27.3359 218.978 23.8912C218.978 20.4465 221.922 17.65 227.219 17.65C232.516 17.65 235.46 20.4465 235.46 23.8912C235.442 27.3359 232.33 30.1323 227.219 30.1323Z" fill="#4D96AB"/>
<path fill-rule="evenodd" clip-rule="evenodd" d="M195.254 11.7596C195.254 11.7596 186.068 10.1484 180.586 10.1484C175.105 10.1484 166.382 11.7782 166.382 18.9824C166.382 25.7421 173.308 26.8718 179.549 27.1866C183.013 27.3533 185.439 27.3533 186.772 27.3533C188.106 27.3533 189.365 27.5941 189.365 28.8534C189.365 30.1128 188.272 30.298 187.235 30.5758C186.198 30.8721 177.938 32.0203 167.252 28.8534L165.974 35.4279C165.974 35.4279 172.79 37.5021 180.586 37.5021C188.383 37.5021 197.106 35.7613 197.106 29.0201C197.106 22.2604 190.921 20.7047 184.05 20.7047C177.179 20.7047 174.068 20.2417 174.068 18.5749C174.068 16.9081 178.975 16.9081 183.939 16.9081C186.939 16.9081 193.921 18.2971 193.921 18.2971L195.254 11.7596Z" fill="#4D96AB"/>
<path fill-rule="evenodd" clip-rule="evenodd" d="M161.363 11.7596C161.363 11.7596 152.177 10.1484 146.695 10.1484C141.213 10.1484 132.49 11.7782 132.49 18.9824C132.49 25.7421 139.417 26.8718 145.658 27.1866C149.121 27.3533 151.547 27.3533 152.881 27.3533C154.214 27.3533 155.473 27.5941 155.473 28.8534C155.473 30.1128 154.381 30.298 153.344 30.5758C152.306 30.8721 144.047 32.0203 133.361 28.8534L132.083 35.4279C132.083 35.4279 138.898 37.5021 146.695 37.5021C154.492 37.5021 163.215 35.7613 163.215 29.0201C163.215 22.2604 157.029 20.7047 150.158 20.7047C143.287 20.7047 140.176 20.2417 140.176 18.5749C140.176 16.9081 145.084 16.9081 150.047 16.9081C153.047 16.9081 160.029 18.2971 160.029 18.2971L161.363 11.7596Z" fill="#4D96AB"/>
<path fill-rule="evenodd" clip-rule="evenodd" d="M129.176 37.3732V10.8344L122.045 10.0195V12.7975C118.767 11.3344 115.971 10.0195 111.804 10.0195C107.396 10.0195 97.6919 11.8345 97.6919 23.539C97.6919 35.2249 106.526 37.3918 112.323 37.3918C116.341 37.3918 120.119 35.0212 122.045 33.5582V37.5214M104.766 23.539C104.766 22.3352 105.211 17.6311 113.711 17.6311C113.711 17.6311 119.008 18.1497 122.064 18.8164V26.4095C120.508 27.9467 117.508 29.9653 112.415 29.9653C104.174 29.9653 104.766 24.7427 104.766 23.539Z" fill="#4D96AB"/>
</svg>
