<svg width="276" height="61" viewBox="0 0 276 61" fill="none" xmlns="http://www.w3.org/2000/svg">
<g clip-path="url(#clip0_2319_12644)">
<path d="M51.7159 20.7386H42.8523C42.5114 18.8447 41.8769 17.178 40.9489 15.7386C40.0208 14.2992 38.8845 13.0777 37.5398 12.0739C36.1951 11.0701 34.6894 10.3125 33.0227 9.80114C31.375 9.28977 29.6231 9.03409 27.767 9.03409C24.4148 9.03409 21.4129 9.87689 18.7614 11.5625C16.1288 13.2481 14.0455 15.7197 12.5114 18.9773C10.9962 22.2348 10.2386 26.2121 10.2386 30.9091C10.2386 35.6439 10.9962 39.6402 12.5114 42.8977C14.0455 46.1553 16.1383 48.6174 18.7898 50.2841C21.4413 51.9508 24.4242 52.7841 27.7386 52.7841C29.5758 52.7841 31.3182 52.5379 32.9659 52.0455C34.6326 51.5341 36.1383 50.786 37.483 49.8011C38.8277 48.8163 39.964 47.6136 40.892 46.1932C41.839 44.7538 42.4924 43.1061 42.8523 41.25L51.7159 41.2784C51.2424 44.1383 50.3239 46.7708 48.9602 49.1761C47.6155 51.5625 45.8826 53.6269 43.7614 55.3693C41.6591 57.0928 39.2538 58.428 36.5455 59.375C33.8371 60.322 30.8826 60.7955 27.6818 60.7955C22.6439 60.7955 18.1553 59.6023 14.2159 57.2159C10.2765 54.8106 7.17045 51.3731 4.89773 46.9034C2.64394 42.4337 1.51705 37.1023 1.51705 30.9091C1.51705 24.697 2.65341 19.3655 4.92614 14.9148C7.19886 10.4451 10.3049 7.01704 14.2443 4.63068C18.1837 2.22538 22.6629 1.02273 27.6818 1.02273C30.7689 1.02273 33.6477 1.4678 36.3182 2.35795C39.0076 3.22917 41.4223 4.51704 43.5625 6.22159C45.7027 7.9072 47.4735 9.97159 48.875 12.4148C50.2765 14.839 51.2235 17.6136 51.7159 20.7386ZM61.3402 60V1.81818H70.1186V52.4432H96.4822V60H61.3402ZM113.5 60H104.182L125.119 1.81818H135.261L156.199 60H146.881L130.432 12.3864H129.977L113.5 60ZM115.062 37.2159H145.29V44.6023H115.062V37.2159ZM162.712 1.81818L178.905 49.2045H179.559L195.752 1.81818H205.241L184.303 60H174.161L153.224 1.81818H162.712ZM221.541 1.81818V60H212.763V1.81818H221.541ZM265.178 17.1023C264.875 14.4129 263.625 12.3295 261.428 10.8523C259.231 9.35606 256.466 8.60795 253.133 8.60795C250.746 8.60795 248.682 8.98674 246.939 9.74432C245.197 10.483 243.843 11.5057 242.877 12.8125C241.93 14.1004 241.457 15.5682 241.457 17.2159C241.457 18.5985 241.779 19.7917 242.422 20.7955C243.085 21.7992 243.947 22.642 245.008 23.3239C246.087 23.9867 247.243 24.5455 248.474 25C249.705 25.4356 250.888 25.7955 252.025 26.0795L257.707 27.5568C259.563 28.0114 261.466 28.6269 263.417 29.4034C265.368 30.1799 267.176 31.2027 268.843 32.4716C270.51 33.7405 271.854 35.3125 272.877 37.1875C273.919 39.0625 274.439 41.3068 274.439 43.9205C274.439 47.2159 273.587 50.142 271.883 52.6989C270.197 55.2557 267.744 57.2727 264.525 58.75C261.324 60.2273 257.451 60.9659 252.905 60.9659C248.549 60.9659 244.78 60.2746 241.599 58.892C238.417 57.5095 235.926 55.5492 234.127 53.0114C232.328 50.4545 231.333 47.4242 231.144 43.9205H239.951C240.121 46.0227 240.803 47.7746 241.996 49.1761C243.208 50.5587 244.752 51.5909 246.627 52.2727C248.521 52.9356 250.595 53.267 252.849 53.267C255.33 53.267 257.536 52.8788 259.468 52.1023C261.419 51.3068 262.953 50.2083 264.07 48.8068C265.188 47.3864 265.746 45.7292 265.746 43.8352C265.746 42.1117 265.254 40.7008 264.269 39.6023C263.303 38.5038 261.987 37.5947 260.32 36.875C258.672 36.1553 256.807 35.5208 254.724 34.9716L247.849 33.0966C243.189 31.8277 239.496 29.9621 236.769 27.5C234.061 25.0379 232.707 21.7803 232.707 17.7273C232.707 14.375 233.616 11.4489 235.434 8.94886C237.252 6.44886 239.714 4.50757 242.82 3.125C245.926 1.72348 249.43 1.02273 253.332 1.02273C257.271 1.02273 260.746 1.71401 263.758 3.09659C266.788 4.47917 269.174 6.38258 270.917 8.80682C272.659 11.2121 273.568 13.9773 273.644 17.1023H265.178Z" fill="#4D96AB"/>
</g>
<defs>
<clipPath id="clip0_2319_12644">
<rect width="276" height="61" fill="white"/>
</clipPath>
</defs>
</svg>
