<svg width="173" height="169" viewBox="0 0 173 169" fill="none" xmlns="http://www.w3.org/2000/svg">
<path d="M122.636 123.125H134.199V120.674H122.636V109.612H137.781V107.145H118.412V140.653H138.15V138.185H122.636V123.125Z" fill="#4D96AB"/>
<path d="M38.8008 140.653H43.0085V107.145H38.8008V140.653Z" fill="#4D96AB"/>
<path d="M78.3415 107.145H75.4828L59.5671 123.463V107.145H55.3594V140.653H59.5671V126.108L62.1046 123.544L76.5106 140.653H82.2601L65.1721 120.448L78.3415 107.145Z" fill="#4D96AB"/>
<path d="M151.431 127.462L156.972 112.257L162.963 127.462H151.431ZM168.166 140.653H173L158.771 106.936H156.731L144.156 140.653H146.629L150.709 129.478H163.766L168.166 140.653Z" fill="#4D96AB"/>
<path d="M24.7647 133.735L2.37692 107.145H0V140.653H2.4572V113.934L25.1984 141.039H27.222V107.145H24.7647V133.735Z" fill="#4D96AB"/>
<path d="M84.2031 109.612H95.654V140.653H99.8779V109.612H111.329V107.145H84.2031V109.612Z" fill="#4D96AB"/>
<path d="M84.1552 162.986C84.1552 163.631 83.3361 164.712 81.7622 166.147C81.9228 164.551 82.5492 162.47 83.6091 162.47C84.107 162.503 84.1552 162.728 84.1552 162.986ZM79.6423 158.665V158.681C79.6423 160.519 78.2451 162.358 76.639 164.099C76.9763 163.132 77.3296 162.196 77.5384 161.535C77.9399 160.213 78.5502 157.875 79.2408 157.714C79.3693 157.778 79.4656 157.875 79.5459 158.02C79.6423 158.23 79.6423 158.504 79.6423 158.665ZM73.8285 158.665V158.681C73.8285 160.519 72.4313 162.358 70.8253 164.099C71.1465 163.132 71.5158 162.196 71.7246 161.535C72.1261 160.213 72.7364 157.875 73.427 157.714C73.5555 157.778 73.6518 157.875 73.7161 158.02C73.8285 158.23 73.8285 158.504 73.8285 158.665ZM59.1174 159.923C58.9407 159.923 58.9086 159.858 58.9086 159.745C58.9086 159.503 59.2459 159.068 59.808 158.649C59.6955 159.536 59.2941 159.923 59.1174 159.923ZM122.555 164.422L122.427 164.567C121.591 165.583 119.696 167.921 118.765 168.146C118.428 168.146 118.299 167.937 118.299 167.534C118.299 166.421 119.327 165.067 119.327 163.567C119.327 162.325 118.106 162.148 117.528 162.148H117.512C117.512 162.148 117.512 162.148 117.496 162.148C117.464 162.148 117.448 162.148 117.432 162.148V162.164C116.308 162.212 115.376 163.777 114.525 165.744L114.477 165.631C114.653 164.857 115.023 163.067 113.754 162.454C113.754 162.454 113.674 162.374 113.642 162.503C113.481 162.97 113.288 163.583 113.112 164.228C112.277 165.002 111.763 165.179 111.65 165.179C110.96 165.179 110.542 164.518 109.771 163.244L109.562 163.341C109.723 163.777 109.707 164.147 109.707 164.422C109.707 164.47 109.707 164.518 109.707 164.551C109.707 166.824 108.438 168.017 107.41 168.388C106.382 168.453 106.222 167.614 106.222 166.614C106.222 164.986 107.137 162.438 108.358 162.438C108.872 162.47 109.064 162.664 109.193 162.793C109.225 162.825 109.257 162.857 109.305 162.89L109.45 162.696C109.434 162.68 109.402 162.648 109.37 162.616C109.209 162.454 108.936 162.196 108.181 162.196C106.447 162.196 104.696 163.325 104.616 165.824C103.636 166.873 102.175 168.356 101.516 168.356C101.372 168.356 101.05 168.34 101.05 167.179C101.05 166.276 101.372 164.696 102.159 162.68C102.159 162.68 102.191 162.503 101.95 162.503C101.324 162.503 99.9745 163.486 99.6854 165.131C99.4124 165.405 99.1233 165.712 98.8181 166.034C97.8545 167.082 96.7624 168.259 95.7024 168.259C95.0761 168.259 94.9476 167.63 94.9476 166.598C94.9476 165.308 95.6061 162.89 96.5857 160.568C97.9027 160.406 98.8663 160.1 99.7496 159.842C100.874 159.503 101.853 159.213 103.299 159.213C104.054 159.213 104.471 159.407 104.471 159.584C104.471 159.729 104.407 159.874 103.925 159.874V160.116C104.118 160.116 104.712 160.116 104.712 159.584C104.712 159.133 103.989 158.987 103.299 158.987C101.805 158.987 100.761 159.294 99.6693 159.632C98.8342 159.89 97.9188 160.165 96.6821 160.326C96.9391 159.729 97.2282 159.116 97.5172 158.552L97.726 158.133C97.5654 158.052 97.3566 157.988 97.3406 157.988H97.3245C96.5055 157.988 95.6543 159.052 94.9476 160.471C94.6906 160.487 94.4176 160.487 94.1285 160.487C92.8598 160.487 92.4101 160.116 92.4101 159.761C92.4101 159.584 92.4904 159.439 92.651 159.358C92.9562 159.165 93.454 159.229 93.6146 159.31L93.727 159.1C93.5022 158.971 92.908 158.923 92.5386 159.149C92.3137 159.278 92.1853 159.487 92.1853 159.761C92.1853 159.987 92.3298 160.729 94.1446 160.729C94.3855 160.729 94.6264 160.729 94.8513 160.713C94.257 161.954 93.7592 163.406 93.4701 164.631C93.0044 165.067 92.5867 165.55 92.1692 166.034C91.2377 167.114 90.3383 168.162 89.1659 168.388C88.4754 168.404 88.2987 167.824 88.2987 167.066C88.2987 164.051 89.9208 162.132 90.8683 162.358C91.3341 162.487 91.5268 162.712 91.6874 162.938L91.8801 162.809C91.575 162.341 91.1574 162.035 90.0493 162.035C89.0535 162.035 87.2387 163.099 86.7569 165.067C86.5963 165.244 86.4197 165.454 86.227 165.679C85.4079 166.631 84.3318 167.888 82.9988 168.308C82.0031 168.517 81.7462 167.727 81.7462 166.872C81.7462 166.76 81.7462 166.631 81.7622 166.486C83.5128 164.905 84.4121 163.728 84.4121 162.986C84.4121 162.438 84.1231 162.212 83.4807 162.212C82.3725 162.212 80.9271 163.825 80.2686 165.292C80.0438 165.534 79.819 165.776 79.6102 166.018C78.6787 167.05 77.8435 167.969 77.0405 168.259C76.0448 168.404 75.9645 167.808 75.9645 167.098C75.9645 166.453 76.1894 165.55 76.4945 164.631C78.2772 162.745 79.9153 160.745 79.9153 158.681V158.665C79.9153 158.488 79.9153 158.181 79.7868 157.907C79.6262 157.568 79.305 157.375 78.8714 157.375C77.3938 157.375 75.0009 161.293 74.6958 165.05C74.3906 165.373 74.0855 165.695 73.7964 166.018C72.8649 167.05 72.0458 167.969 71.2268 168.259C70.231 168.404 70.1507 167.808 70.1507 167.098C70.1507 166.453 70.3916 165.55 70.6807 164.631C72.4634 162.745 74.1015 160.745 74.1015 158.681V158.665C74.1015 158.488 74.1015 158.181 73.973 157.907C73.8124 157.568 73.4912 157.375 73.0576 157.375C71.6122 157.375 69.2995 161.1 68.9141 164.76C68.4484 165.099 68.1592 165.196 68.0789 165.196C67.3884 165.196 66.9708 164.534 66.1999 163.261L65.9911 163.357C66.1517 163.793 66.1357 164.164 66.1357 164.438C66.1357 164.486 66.1357 164.534 66.1357 164.567C66.1357 166.84 64.8669 168.034 63.8391 168.404C62.8112 168.469 62.6506 167.63 62.6506 166.631C62.6506 165.002 63.5661 162.454 64.7866 162.454C65.3006 162.487 65.4933 162.68 65.6217 162.809C65.6539 162.841 65.686 162.874 65.7342 162.906L65.8787 162.712C65.8626 162.696 65.8305 162.664 65.7984 162.632C65.6378 162.47 65.3648 162.212 64.61 162.212C63.1485 162.212 61.687 163.003 61.1892 164.744C61.0767 164.873 60.9482 165.018 60.8198 165.179C59.6313 166.566 57.8326 168.678 55.2308 168.678C55.1666 168.678 55.1023 168.679 55.0381 168.662C53.0145 168.566 52.2115 167.001 52.2115 164.599C52.2115 160.406 54.6848 155.682 57.1259 155.666C58.8765 155.811 59.9043 156.972 59.9043 158.084C59.9043 158.165 59.9043 158.246 59.9043 158.326C59.2137 158.794 58.732 159.342 58.732 159.729C58.732 159.89 58.7962 160.148 59.1816 160.148C59.551 160.148 60.0489 159.568 60.1292 158.455C60.5307 158.197 61.0125 157.939 61.5425 157.778L61.4622 157.552C60.9964 157.697 60.5468 157.923 60.1292 158.181V158.101C60.1292 156.601 58.6356 155.424 56.7244 155.424C54.0424 155.424 50.3164 158.584 50.3164 163.712C50.3164 167.082 52.8539 168.904 55.2308 168.904C57.945 168.904 59.8562 166.663 60.9965 165.325C61.0286 165.292 61.0607 165.26 61.0767 165.228C61.0286 165.486 61.0125 165.744 61.0125 166.034C61.0125 167.905 62.1367 168.775 63.1806 168.775C64.2888 168.775 66.3766 167.534 66.3766 164.583C66.3766 164.551 66.3766 164.502 66.3766 164.454C66.3766 164.325 66.3766 164.164 66.3605 163.986C66.9066 164.873 67.3723 165.437 68.0789 165.437C68.2074 165.437 68.4804 165.341 68.8819 165.083C68.8659 165.325 68.8498 165.566 68.8498 165.824C68.8498 167.647 69.4923 168.614 70.7128 168.614C71.8049 168.614 72.8167 167.501 73.973 166.195C74.1979 165.937 74.4227 165.695 74.6636 165.437C74.6636 165.566 74.6476 165.695 74.6476 165.824C74.6476 167.647 75.29 168.614 76.5105 168.614C77.6026 168.614 78.6144 167.501 79.7707 166.195C79.851 166.099 79.9474 166.002 80.0277 165.905C79.9474 166.179 79.8992 166.437 79.8992 166.663C79.8992 168.162 81.0235 168.711 82.0674 168.711C83.9625 168.711 85.44 166.985 86.4036 165.841C86.5 165.728 86.5803 165.631 86.6766 165.534C86.6606 165.728 86.6285 165.921 86.6285 166.131C86.6285 167.711 87.3994 168.695 88.6521 168.695C90.2099 168.695 91.302 167.421 92.3619 166.195C92.6992 165.808 93.0364 165.421 93.3898 165.067C93.2613 165.695 93.181 166.244 93.181 166.631C93.181 167.953 93.968 168.533 95.7185 168.533C96.8909 168.533 98.0151 167.308 99.0108 166.228C99.2357 165.986 99.4444 165.76 99.6532 165.55C99.6532 165.631 99.6372 165.728 99.6372 165.824C99.6372 167.824 101.259 168.646 101.532 168.646C102.223 168.646 103.411 167.517 104.632 166.211C104.696 167.985 105.788 168.791 106.8 168.791C107.908 168.791 109.996 167.55 109.996 164.599C109.996 164.567 109.996 164.518 109.996 164.47C109.996 164.341 109.996 164.18 109.98 164.002C110.542 164.889 110.992 165.454 111.698 165.454C111.875 165.454 112.341 165.276 113.047 164.68C112.614 166.292 112.244 168.034 112.26 168.501C112.839 168.517 113.706 168.566 113.706 168.566L113.802 168.34C114.942 165.437 116.115 162.422 117.56 162.422C117.753 162.422 117.801 162.503 117.817 162.519C117.978 162.745 117.721 163.438 117.464 164.18C117.159 165.034 116.757 166.115 116.757 167.098C116.757 168.243 117.352 168.437 118.685 168.437C119.536 168.437 121.094 166.663 122.667 164.744L122.796 164.583L122.555 164.422Z" fill="#4D96AB"/>
<path d="M80.3808 3.99899C80.4129 5.57923 83.0146 5.22447 82.035 7.11108C76.7993 7.56257 70.3432 8.57844 66.1836 20.011C62.4094 19.5595 61.1728 21.2204 61.9758 23.3972C63.3731 27.1704 63.7425 27.8638 62.8431 30.2664C62.8431 30.2664 57.3344 21.8331 48.935 21.1075C40.5355 20.3818 29.1328 23.9615 31.3331 41.6989C32.5215 51.2771 40.8085 56.9369 43.6191 59.404C45.8354 61.339 47.4735 62.1453 48.8547 65.0961C50.8461 69.4015 53.9939 74.1583 60.5947 76.3352C65.0433 77.8025 62.4898 78.641 63.2446 79.9794C64.5776 82.3014 66.6333 86.0423 85.3433 86.2197C101.966 86.381 108.871 81.995 107.555 78.7861C106.479 76.1578 109.755 76.7222 111.072 76.3352C118.572 74.1583 121.158 69.853 123.984 64.9994C126.811 60.1458 129.396 45.6979 131.934 37.8129C134.471 29.9278 138.792 29.6375 141.602 28.8958C141.602 28.8958 141.939 28.6539 141.972 28.0896V27.9444C141.939 27.2994 141.522 26.2997 139.964 24.8807C137.796 22.9134 133.283 22.4297 131.902 23.0425C128.529 24.526 123.101 28.7668 117.142 40.0542C112.967 47.9393 106.832 36.9743 106.302 33.443C105.756 29.8955 105.531 27.7509 106.687 25.574C107.282 24.4614 108.936 22.1878 107.619 21.0591C106.189 19.8336 103.845 19.7207 103.138 20.1077C99.8939 7.1272 87.7042 7.12722 87.7042 7.12722C87.7042 7.12722 86.58 5.86943 88.2663 5.01481C89.4708 4.40207 89.9205 2.48321 86.7727 0.580472C86.0982 0.17735 85.4237 0 84.7652 0C82.3401 0.0161249 80.3486 2.35425 80.3808 3.99899ZM36.7614 41.6989C34.3844 31.0404 41.6437 26.3158 46.542 26.2191C50.6856 26.1384 54.8291 28.4927 56.9651 33.9106C56.5154 35.894 56.6117 37.2646 57.6075 38.9899C57.7038 39.1673 57.3344 40.7637 55.5839 43.1502C53.223 46.3429 47.9393 46.9395 48.3408 54.0183C48.3408 54.0022 38.7849 50.7611 36.7614 41.6989Z" fill="#4D96AB"/>
</svg>
