<svg width="276" height="107" viewBox="0 0 276 107" fill="none" xmlns="http://www.w3.org/2000/svg">
<g clip-path="url(#clip0_71_53)">
<mask id="mask0_71_53" style="mask-type:luminance" maskUnits="userSpaceOnUse" x="-91" y="-256" width="457" height="619">
<path d="M365.325 -255.641H-90.0452V362.944H365.325V-255.641Z" fill="white"/>
</mask>
<g mask="url(#mask0_71_53)">
<path d="M47.1516 104.1C43.3275 104.1 40.8827 101.461 40.8827 97.9797C40.8827 94.4829 43.4465 91.8435 47.2706 91.8435C51.0784 91.8435 53.5395 94.4829 53.5395 97.9797C53.5395 101.461 50.9594 104.1 47.1516 104.1ZM47.2057 94.3063C45.2476 94.3063 43.9333 95.8442 43.9333 97.9797C43.9333 100.1 45.2476 101.653 47.2057 101.653C49.1583 101.653 50.4726 100.1 50.4726 97.9797C50.4726 95.8442 49.1583 94.3063 47.2057 94.3063Z" fill="#4D96AB"/>
</g>
<mask id="mask1_71_53" style="mask-type:luminance" maskUnits="userSpaceOnUse" x="-91" y="-256" width="457" height="619">
<path d="M365.325 -255.641H-90.0452V362.944H365.325V-255.641Z" fill="white"/>
</mask>
<g mask="url(#mask1_71_53)">
<path d="M64.4545 103.908L62.3505 100.037C62.1828 100.053 62.0314 100.053 61.8637 100.053C61.4418 100.053 61.2038 100.037 60.8035 100.021V103.908H57.9368V92.1549C58.9807 92.0406 60.1274 91.9627 61.577 91.9627C65.4173 91.9627 66.9372 93.724 66.9372 95.8959C66.9372 97.3039 66.1475 98.5665 64.8115 99.3251L67.7107 103.908H64.4545ZM61.9124 94.4203C61.4742 94.4203 61.2038 94.4359 60.7981 94.5034V97.7716C61.1713 97.8027 61.3715 97.8183 61.7068 97.8183C63.0699 97.8183 63.9461 97.1844 63.9461 95.9894C63.9515 95.0022 63.1402 94.4203 61.9124 94.4203Z" fill="#4D96AB"/>
</g>
<mask id="mask2_71_53" style="mask-type:luminance" maskUnits="userSpaceOnUse" x="-91" y="-256" width="457" height="619">
<path d="M365.325 -255.641H-90.0452V362.944H365.325V-255.641Z" fill="white"/>
</mask>
<g mask="url(#mask2_71_53)">
<path d="M74.3422 92.0408H71.4754V103.908H74.3422V92.0408Z" fill="#4D96AB"/>
</g>
<mask id="mask3_71_53" style="mask-type:luminance" maskUnits="userSpaceOnUse" x="-91" y="-256" width="457" height="619">
<path d="M365.325 -255.641H-90.0452V362.944H365.325V-255.641Z" fill="white"/>
</mask>
<g mask="url(#mask3_71_53)">
<path d="M89.5573 104.131L82.1093 97.7092V103.908H79.2425V91.8795L79.632 91.812L86.9773 98.1924V92.0406H89.844V104.084L89.5573 104.131Z" fill="#4D96AB"/>
</g>
<mask id="mask4_71_53" style="mask-type:luminance" maskUnits="userSpaceOnUse" x="-91" y="-256" width="457" height="619">
<path d="M365.325 -255.641H-90.0452V362.944H365.325V-255.641Z" fill="white"/>
</mask>
<g mask="url(#mask4_71_53)">
<path d="M100.499 104.1C96.6754 104.1 94.2306 101.461 94.2306 97.9797C94.2306 94.4829 96.7944 91.8435 100.618 91.8435C104.426 91.8435 106.887 94.4829 106.887 97.9797C106.887 101.461 104.307 104.1 100.499 104.1ZM100.548 94.3063C98.5902 94.3063 97.2758 95.8442 97.2758 97.9797C97.2758 100.1 98.5902 101.653 100.548 101.653C102.501 101.653 103.815 100.1 103.815 97.9797C103.821 95.8442 102.506 94.3063 100.548 94.3063Z" fill="#4D96AB"/>
</g>
<mask id="mask5_71_53" style="mask-type:luminance" maskUnits="userSpaceOnUse" x="-91" y="-256" width="457" height="619">
<path d="M365.325 -255.641H-90.0452V362.944H365.325V-255.641Z" fill="white"/>
</mask>
<g mask="url(#mask5_71_53)">
<path d="M110.62 106.158L110.382 105.799C111.106 105.202 111.425 104.745 111.626 104.033C110.798 103.986 110.279 103.435 110.279 102.755C110.279 102.095 110.836 101.539 111.528 101.539C112.437 101.539 112.929 102.235 112.929 103.077C112.929 104.246 111.918 105.638 110.62 106.158Z" fill="#4D96AB"/>
</g>
<mask id="mask6_71_53" style="mask-type:luminance" maskUnits="userSpaceOnUse" x="-91" y="-256" width="457" height="619">
<path d="M365.325 -255.641H-90.0452V362.944H365.325V-255.641Z" fill="white"/>
</mask>
<g mask="url(#mask6_71_53)">
<path d="M122.773 92.0408H119.907V103.908H122.773V92.0408Z" fill="#4D96AB"/>
</g>
<mask id="mask7_71_53" style="mask-type:luminance" maskUnits="userSpaceOnUse" x="-91" y="-256" width="457" height="619">
<path d="M365.325 -255.641H-90.0452V362.944H365.325V-255.641Z" fill="white"/>
</mask>
<g mask="url(#mask7_71_53)">
<path d="M133.121 94.566V103.908H130.259V94.566H126.549V92.0408H136.831V94.566H133.121Z" fill="#4D96AB"/>
</g>
<mask id="mask8_71_53" style="mask-type:luminance" maskUnits="userSpaceOnUse" x="-91" y="-256" width="457" height="619">
<path d="M365.325 -255.641H-90.0452V362.944H365.325V-255.641Z" fill="white"/>
</mask>
<g mask="url(#mask8_71_53)">
<path d="M146.973 103.908L146.048 101.751H141.786L140.861 103.908H137.945L143.76 91.9418H144.149L149.964 103.908H146.973ZM143.922 96.7999L142.694 99.6472H145.139L143.922 96.7999Z" fill="#4D96AB"/>
</g>
<mask id="mask9_71_53" style="mask-type:luminance" maskUnits="userSpaceOnUse" x="-91" y="-256" width="457" height="619">
<path d="M365.325 -255.641H-90.0452V362.944H365.325V-255.641Z" fill="white"/>
</mask>
<g mask="url(#mask9_71_53)">
<path d="M153.431 103.908V92.0408H156.298V101.398H161.252V103.908H153.431Z" fill="#4D96AB"/>
</g>
<mask id="mask10_71_53" style="mask-type:luminance" maskUnits="userSpaceOnUse" x="-91" y="-256" width="457" height="619">
<path d="M365.325 -255.641H-90.0452V362.944H365.325V-255.641Z" fill="white"/>
</mask>
<g mask="url(#mask10_71_53)">
<path d="M167.856 92.0408H164.99V103.908H167.856V92.0408Z" fill="#4D96AB"/>
</g>
<mask id="mask11_71_53" style="mask-type:luminance" maskUnits="userSpaceOnUse" x="-91" y="-256" width="457" height="619">
<path d="M365.325 -255.641H-90.0452V362.944H365.325V-255.641Z" fill="white"/>
</mask>
<g mask="url(#mask11_71_53)">
<path d="M180.389 103.908L179.464 101.751H175.202L174.277 103.908H171.362L177.176 91.9418H177.566L183.38 103.908H180.389ZM177.338 96.7999L176.111 99.6472H178.555L177.338 96.7999Z" fill="#4D96AB"/>
</g>
<mask id="mask12_71_53" style="mask-type:luminance" maskUnits="userSpaceOnUse" x="-91" y="-256" width="457" height="619">
<path d="M365.325 -255.641H-90.0452V362.944H365.325V-255.641Z" fill="white"/>
</mask>
<g mask="url(#mask12_71_53)">
<path d="M187.237 106.158L186.999 105.799C187.723 105.202 188.043 104.745 188.248 104.033C187.421 103.986 186.901 103.435 186.901 102.755C186.901 102.095 187.458 101.539 188.145 101.539C189.054 101.539 189.546 102.235 189.546 103.077C189.546 104.246 188.535 105.638 187.237 106.158Z" fill="#4D96AB"/>
</g>
<mask id="mask13_71_53" style="mask-type:luminance" maskUnits="userSpaceOnUse" x="-91" y="-256" width="457" height="619">
<path d="M365.325 -255.641H-90.0452V362.944H365.325V-255.641Z" fill="white"/>
</mask>
<g mask="url(#mask13_71_53)">
<path d="M197.129 103.908V94.8569L195.025 95.6363L194.198 93.532L198.92 91.8485H199.996V103.908H197.129Z" fill="#4D96AB"/>
</g>
<mask id="mask14_71_53" style="mask-type:luminance" maskUnits="userSpaceOnUse" x="-91" y="-256" width="457" height="619">
<path d="M365.325 -255.641H-90.0452V362.944H365.325V-255.641Z" fill="white"/>
</mask>
<g mask="url(#mask14_71_53)">
<path d="M208.818 104.1C206.022 104.1 204.269 102.593 204.269 100.78C204.269 99.5799 204.859 98.4004 206.292 97.9328C205.178 97.3977 204.605 96.3793 204.605 95.1843C204.605 93.3397 206.206 91.8485 208.818 91.8485C211.414 91.8485 213.032 93.3345 213.032 95.1843C213.032 96.3793 212.339 97.4652 211.328 97.9328C212.826 98.4524 213.383 99.5851 213.383 100.78C213.389 102.599 211.62 104.1 208.818 104.1ZM208.818 98.9044C207.958 98.9044 207.298 99.424 207.298 100.281C207.298 101.076 207.92 101.689 208.818 101.689C209.797 101.689 210.403 101.076 210.403 100.281C210.403 99.4396 209.748 98.9044 208.818 98.9044ZM208.818 94.2438C207.909 94.2438 207.352 94.8569 207.352 95.7038C207.352 96.53 207.974 96.9976 208.818 96.9976C209.624 96.9976 210.251 96.53 210.251 95.7038C210.251 94.8569 209.781 94.2438 208.818 94.2438Z" fill="#4D96AB"/>
</g>
<mask id="mask15_71_53" style="mask-type:luminance" maskUnits="userSpaceOnUse" x="-91" y="-256" width="457" height="619">
<path d="M365.325 -255.641H-90.0452V362.944H365.325V-255.641Z" fill="white"/>
</mask>
<g mask="url(#mask15_71_53)">
<path d="M221.626 91.8485C224.461 91.8485 226.278 93.9217 226.278 96.4001C226.278 100.77 223.011 102.827 219.052 104.428L217.77 102.287C219.555 101.689 221.513 100.687 222.724 99.4396C222.183 99.715 221.561 99.876 220.75 99.876C218.424 99.876 216.893 98.2394 216.893 96.0415C216.893 94.0619 218.494 91.8485 221.626 91.8485ZM221.594 97.9016C222.589 97.9016 223.33 97.0599 223.33 96.0571C223.33 95.0388 222.638 94.197 221.626 94.197C220.528 94.197 219.858 95.0544 219.858 96.026C219.858 97.0755 220.55 97.9016 221.594 97.9016Z" fill="#4D96AB"/>
</g>
<mask id="mask16_71_53" style="mask-type:luminance" maskUnits="userSpaceOnUse" x="-91" y="-256" width="457" height="619">
<path d="M365.325 -255.641H-90.0452V362.944H365.325V-255.641Z" fill="white"/>
</mask>
<g mask="url(#mask16_71_53)">
<path d="M233.077 104.1C231.963 104.1 230.8 103.908 229.756 103.565L230.243 101.279C231.054 101.586 231.947 101.783 232.855 101.783C234.527 101.783 235.468 101.185 235.468 100.245C235.468 99.3721 234.656 98.546 232.855 98.546C232.266 98.546 231.103 98.6447 230.443 98.8525L230.259 98.6447V92.0408H237.945V94.5037H233.126V96.3326C233.612 96.3014 233.953 96.2858 234.186 96.2858C237.085 96.2858 238.432 97.9017 238.432 99.9436C238.437 102.271 236.479 104.1 233.077 104.1Z" fill="#4D96AB"/>
</g>
<mask id="mask17_71_53" style="mask-type:luminance" maskUnits="userSpaceOnUse" x="-91" y="-256" width="457" height="619">
<path d="M365.325 -255.641H-90.0452V362.944H365.325V-255.641Z" fill="white"/>
</mask>
<g mask="url(#mask17_71_53)">
<path d="M30.676 68.3738H45.6533L47.2651 61.5309H54.2913V68.3738H69.3388V21.0816H41.6128L30.676 68.3738ZM54.248 32.5176L54.2913 49.3884H49.6721L54.248 32.5176Z" fill="#4D96AB"/>
</g>
<mask id="mask18_71_53" style="mask-type:luminance" maskUnits="userSpaceOnUse" x="-91" y="-256" width="457" height="619">
<path d="M365.325 -255.641H-90.0452V362.944H365.325V-255.641Z" fill="white"/>
</mask>
<g mask="url(#mask18_71_53)">
<path d="M27.7768 21.0816H10.8145L-0.219673 68.3738H27.1439L30.5137 53.784H20.1557L27.7768 21.0816Z" fill="#4D96AB"/>
</g>
<mask id="mask19_71_53" style="mask-type:luminance" maskUnits="userSpaceOnUse" x="-91" y="-256" width="457" height="619">
<path d="M365.325 -255.641H-90.0452V362.944H365.325V-255.641Z" fill="white"/>
</mask>
<g mask="url(#mask19_71_53)">
<path d="M98.1952 21.0816L90.4497 54.6517V21.0816H75.0776V68.3738H102.782L113.746 21.0816H98.1952Z" fill="#4D96AB"/>
</g>
<mask id="mask20_71_53" style="mask-type:luminance" maskUnits="userSpaceOnUse" x="-91" y="-256" width="457" height="619">
<path d="M365.325 -255.641H-90.0452V362.944H365.325V-255.641Z" fill="white"/>
</mask>
<g mask="url(#mask20_71_53)">
<path d="M264.578 21.0816H236.869V68.3738H251.9V61.5309H258.937L260.543 68.3738H275.499L264.578 21.0816ZM251.9 49.3832L251.943 32.5176L256.481 49.3832H251.9Z" fill="#4D96AB"/>
</g>
<mask id="mask21_71_53" style="mask-type:luminance" maskUnits="userSpaceOnUse" x="-91" y="-256" width="457" height="619">
<path d="M365.325 -255.641H-90.0452V362.944H365.325V-255.641Z" fill="white"/>
</mask>
<g mask="url(#mask21_71_53)">
<path d="M223.043 54.3452L226.678 21.0816H195.107L197.914 36.191H208.25L205.14 68.3738H235.235L232.212 54.3452H223.043Z" fill="#4D96AB"/>
</g>
<mask id="mask22_71_53" style="mask-type:luminance" maskUnits="userSpaceOnUse" x="-91" y="-81" width="457" height="444">
<path d="M365.006 -80.2231H-90.0452V362.59H365.006V-80.2231Z" fill="white"/>
</mask>
<g mask="url(#mask22_71_53)">
<path d="M188.865 54.3451L192.489 21.0816H160.901L163.67 36.191H174.077L170.929 68.3738H201.035L198.044 54.3451H188.865Z" fill="#4D96AB"/>
</g>
<mask id="mask23_71_53" style="mask-type:luminance" maskUnits="userSpaceOnUse" x="-55" y="-8" width="456" height="96">
<path d="M400.542 -7.28195H-54.8871V87.2816H400.542V-7.28195Z" fill="white"/>
</mask>
<g mask="url(#mask23_71_53)">
<path d="M124.174 1.14012L108.353 68.3738H127.755L130.016 56.917H145.231L147.562 68.3738H166.904L151.208 1.14012H124.174ZM132.558 42.109L137.621 16.343L142.851 42.109H132.558Z" fill="#4D96AB"/>
</g>
</g>
<defs>
<clipPath id="clip0_71_53">
<rect width="306" height="238" fill="white" transform="translate(-17 -66)"/>
</clipPath>
</defs>
</svg>
