<svg width="250" height="38" viewBox="0 0 250 38" fill="none" xmlns="http://www.w3.org/2000/svg">
<rect width="250" height="38" fill="#F5F5F5"/>
<path d="M0.539688 -0.152002H8.02769V25.72H17.8197V-0.152002H25.3077V25.72H35.0997V-0.152002H42.5877V31H0.539688V-0.152002ZM63.3537 31.48C61.6257 31.48 60.0257 31.368 58.5537 31.144C57.1137 30.92 55.6097 30.536 54.0417 29.992C52.3457 29.416 51.0177 28.488 50.0577 27.208C49.0977 25.896 48.6177 24.312 48.6177 22.456V8.824C48.6177 7.288 48.9537 5.912 49.6257 4.696C50.3297 3.48 51.2257 2.52 52.3137 1.816C53.2737 1.208 54.4577 0.695998 55.8657 0.279998C57.2737 -0.136003 58.5857 -0.392002 59.8017 -0.488001C60.9217 -0.584002 62.1057 -0.632002 63.3537 -0.632002C64.8257 -0.632002 66.1057 -0.568002 67.1937 -0.440001C68.2817 -0.344001 69.4977 -0.120001 70.8417 0.231998C72.3777 0.679998 73.6417 1.224 74.6337 1.864C75.6257 2.504 76.4577 3.4 77.1297 4.552C77.8337 5.736 78.1857 7.16 78.1857 8.824V22.456C78.1857 24.184 77.7217 25.672 76.7937 26.92C75.8977 28.168 74.6497 29.112 73.0497 29.752C70.1697 30.904 66.9377 31.48 63.3537 31.48ZM63.4497 26.152C64.5057 26.152 65.3857 26.12 66.0897 26.056C66.8257 25.96 67.5777 25.8 68.3457 25.576C69.1137 25.352 69.6897 24.984 70.0737 24.472C70.4897 23.928 70.6977 23.256 70.6977 22.456V8.776C70.6977 7.304 70.1057 6.264 68.9217 5.656C67.7377 5.016 65.8977 4.696 63.4017 4.696C60.9057 4.696 59.0657 5 57.8817 5.608C56.6977 6.216 56.1057 7.272 56.1057 8.776V22.456C56.1057 23.256 56.3137 23.928 56.7297 24.472C57.1457 24.984 57.7537 25.352 58.5537 25.576C59.3217 25.8 60.0577 25.96 60.7617 26.056C61.4977 26.12 62.3937 26.152 63.4497 26.152ZM84.2116 -0.152002H91.6996V12.136C93.1076 12.136 94.2436 11.88 95.1076 11.368C95.9716 10.824 96.9156 9.8 97.9396 8.296L103.796 -0.152002H112.196L105.476 9.208C104.452 10.648 103.508 11.752 102.644 12.52C101.812 13.256 100.772 13.864 99.5236 14.344V14.44C101.124 14.824 102.452 15.512 103.508 16.504C104.596 17.496 105.652 18.936 106.676 20.824L112.196 31H103.796L98.7076 21.832C98.0356 20.616 97.3796 19.704 96.7396 19.096C96.1316 18.456 95.4436 18.024 94.6756 17.8C93.9076 17.576 92.9156 17.464 91.6996 17.464V31H84.2116V-0.152002ZM129.729 31.48C128.001 31.48 126.401 31.368 124.929 31.144C123.489 30.92 121.985 30.536 120.417 29.992C118.721 29.416 117.393 28.488 116.433 27.208C115.473 25.896 114.993 24.312 114.993 22.456V8.824C114.993 7.288 115.329 5.912 116.001 4.696C116.705 3.48 117.601 2.52 118.689 1.816C119.649 1.208 120.833 0.695998 122.241 0.279998C123.649 -0.136003 124.961 -0.392002 126.177 -0.488001C127.297 -0.584002 128.481 -0.632002 129.729 -0.632002C131.201 -0.632002 132.481 -0.568002 133.569 -0.440001C134.657 -0.344001 135.873 -0.120001 137.217 0.231998C138.753 0.679998 140.017 1.224 141.009 1.864C142.001 2.504 142.833 3.4 143.505 4.552C144.209 5.736 144.561 7.16 144.561 8.824V22.456C144.561 24.184 144.097 25.672 143.169 26.92C142.273 28.168 141.025 29.112 139.425 29.752C136.545 30.904 133.313 31.48 129.729 31.48ZM129.825 26.152C130.881 26.152 131.761 26.12 132.465 26.056C133.201 25.96 133.953 25.8 134.721 25.576C135.489 25.352 136.065 24.984 136.449 24.472C136.865 23.928 137.073 23.256 137.073 22.456V8.776C137.073 7.304 136.481 6.264 135.297 5.656C134.113 5.016 132.273 4.696 129.777 4.696C127.281 4.696 125.441 5 124.257 5.608C123.073 6.216 122.481 7.272 122.481 8.776V22.456C122.481 23.256 122.689 23.928 123.105 24.472C123.521 24.984 124.129 25.352 124.929 25.576C125.697 25.8 126.433 25.96 127.137 26.056C127.873 26.12 128.769 26.152 129.825 26.152ZM152.219 31.384C151.707 31.384 151.163 31.32 150.587 31.192C150.011 31.096 149.595 31.032 149.339 31V25.144C150.043 25.24 150.635 25.288 151.115 25.288C152.715 25.288 153.947 24.84 154.811 23.944C155.675 23.016 156.299 21.192 156.683 18.472C157.099 15.752 157.307 11.624 157.307 6.088V-0.152002H179.963V31H172.475V5.128H164.075V9.448C164.075 15.368 163.531 19.944 162.443 23.176C161.387 26.408 159.995 28.584 158.267 29.704C156.571 30.824 154.555 31.384 152.219 31.384ZM194.936 -0.152002H204.056L215.288 31H207.704L204.92 22.792H193.544L190.808 31H183.416L194.936 -0.152002ZM203.288 17.8L199.352 6.088H199.16L195.224 17.8H203.288ZM216.103 25.672H216.775C218.087 25.672 219.143 25.176 219.943 24.184C220.775 23.16 221.415 21.304 221.863 18.616C222.311 15.928 222.535 12.12 222.535 7.192V-0.152002H245.191V25.672H249.751V38.248H243.031V31H222.823V38.248H216.103V25.672ZM237.703 25.72V5.128H229.255V8.968C229.255 17.064 228.215 22.648 226.135 25.72H237.703Z" fill="#4D96AB"/>
</svg>
