<svg width="160" height="160" viewBox="0 0 160 160" fill="none" xmlns="http://www.w3.org/2000/svg">
<rect width="160" height="160" fill="#F5F5F5"/>
<mask id="mask0_0_1" style="mask-type:luminance" maskUnits="userSpaceOnUse" x="0" y="0" width="170" height="173">
<path d="M170 0H0V172.641H170V0Z" fill="white"/>
</mask>
<g mask="url(#mask0_0_1)">
<path d="M79.9173 0.372721C35.985 0.372721 0.371195 35.9866 0.371195 79.9189C0.371195 123.851 35.985 159.465 79.9173 159.465C123.85 159.465 159.456 123.851 159.456 79.9189C159.46 35.9866 123.85 0.372721 79.9173 0.372721Z" fill="#4D96AB"/>
</g>
<mask id="mask1_0_1" style="mask-type:luminance" maskUnits="userSpaceOnUse" x="0" y="0" width="170" height="173">
<path d="M170 0H0V172.641H170V0Z" fill="white"/>
</mask>
<g mask="url(#mask1_0_1)">
<path d="M47.1727 74.1895C48.4004 73.5533 49.349 72.6567 50.0112 71.4848C50.6809 70.3204 51.0157 68.9774 51.0157 67.4595C51.0157 65.9417 50.6846 64.5987 50.0112 63.4268C49.349 62.2624 48.4078 61.3583 47.195 60.7222C45.9785 60.0935 44.576 59.7772 42.9651 59.7772H30.2903V70.3911V75.1418H42.9614C44.5425 75.1418 45.9413 74.8256 47.1727 74.1895ZM52.1132 102.925L39.4309 82.0168H29.9182V94.6508C29.0775 95.5697 28.0395 96.7267 26.8044 98.1329C25.5246 99.5317 24.0217 101.128 22.3066 102.928V83.3189V55.9156C21.8267 55.9566 21.2687 56.0012 20.6251 56.0421H18.2888V54.9633V53.4603H22.3215H23.0842H29.9182H42.262C45.6995 53.4603 48.7166 54.0518 51.3133 55.2311C53.9175 56.403 55.9301 58.0771 57.3662 60.246C58.7947 62.4075 59.5127 64.9074 59.5127 67.7385C59.5127 70.5771 58.7873 73.0771 57.3438 75.2386C55.8967 77.4075 53.8766 79.0741 51.2724 80.2534C50.3386 80.685 49.3453 81.031 48.2999 81.2988L62.0053 102.936H52.1132V102.925Z" fill="white"/>
</g>
<mask id="mask2_0_1" style="mask-type:luminance" maskUnits="userSpaceOnUse" x="0" y="0" width="170" height="173">
<path d="M170 0H0V172.641H170V0Z" fill="white"/>
</mask>
<g mask="url(#mask2_0_1)">
<path d="M75.1932 26.2467H72.5407V133.594H75.1932V26.2467Z" fill="white"/>
</g>
<mask id="mask3_0_1" style="mask-type:luminance" maskUnits="userSpaceOnUse" x="0" y="0" width="170" height="173">
<path d="M170 0H0V172.641H170V0Z" fill="white"/>
</mask>
<g mask="url(#mask3_0_1)">
<path d="M135.386 53.8723C135.833 54.0286 136.249 54.1885 136.651 54.3522C137.045 54.594 137.429 54.847 137.789 55.1297C138.15 55.3678 138.511 55.6506 138.868 55.9705C139.348 56.4504 139.765 56.9303 140.126 57.4103C140.442 57.8902 140.725 58.4073 140.967 58.9653C141.249 59.5643 141.446 60.1446 141.566 60.7101C141.729 61.3091 141.826 61.9266 141.863 62.5665C141.863 63.2436 141.826 63.8872 141.752 64.4861C141.632 65.0777 141.469 65.6431 141.272 66.1603C141.034 66.7592 140.751 67.3247 140.431 67.8418C140.107 68.3217 139.709 68.8016 139.229 69.2815C138.946 69.6424 138.63 69.9586 138.269 70.2414C137.868 70.5576 137.473 70.8403 137.068 71.0821C136.673 71.2793 136.268 71.4765 135.866 71.6811C135.427 71.8373 134.992 71.9564 134.545 72.0345C134.75 71.9564 134.906 71.8783 135.033 71.8001C135.189 71.6811 135.33 71.5806 135.449 71.4951C135.606 71.376 135.725 71.2347 135.81 71.0784C135.929 70.9594 136.052 70.8403 136.171 70.7175C136.446 70.2786 136.688 69.7763 136.893 69.222C137.049 68.6231 137.209 67.9385 137.373 67.1833C137.492 66.4207 137.592 65.6655 137.67 64.9028C137.711 64.1811 137.734 63.4408 137.734 62.6855C137.734 61.9638 137.693 61.2235 137.615 60.4683C137.496 59.7466 137.354 59.0062 137.191 58.251C136.993 57.5293 136.774 56.8671 136.536 56.2681C136.331 55.7101 136.078 55.2302 135.751 54.8284C135.632 54.6722 135.509 54.5308 135.39 54.4117C135.271 54.2927 135.152 54.1922 135.037 54.1067C134.873 53.9951 134.713 53.8872 134.549 53.8091C134.393 53.7309 134.252 53.6528 134.132 53.571C134.523 53.6528 134.947 53.7533 135.386 53.8723Z" fill="white"/>
</g>
<mask id="mask4_0_1" style="mask-type:luminance" maskUnits="userSpaceOnUse" x="0" y="0" width="170" height="173">
<path d="M170 0H0V172.641H170V0Z" fill="white"/>
</mask>
<g mask="url(#mask4_0_1)">
<path d="M106.123 70.6652V94.6459C105.283 95.5648 104.245 96.7218 103.01 98.128C101.73 99.5268 100.234 101.123 98.5118 102.923V83.314V55.9108C98.0319 55.9517 97.4738 55.9963 96.8302 56.0372H94.4939V54.9584V53.4554H99.2893H106.123V70.6652Z" fill="white"/>
</g>
<mask id="mask5_0_1" style="mask-type:luminance" maskUnits="userSpaceOnUse" x="0" y="0" width="170" height="173">
<path d="M170 0H0V172.641H170V0Z" fill="white"/>
</mask>
<g mask="url(#mask5_0_1)">
<path d="M117.399 94.3424C117.477 95.2241 117.637 96.1096 117.879 96.9838C118.035 97.8246 118.273 98.6021 118.597 99.3201C118.917 100.042 119.274 100.663 119.68 101.184C119.799 101.426 119.955 101.623 120.159 101.783C120.316 101.939 120.476 102.081 120.632 102.2C120.837 102.319 121.034 102.441 121.231 102.56C121.436 102.639 121.633 102.735 121.83 102.858C121.231 102.702 120.673 102.52 120.156 102.322C119.59 102.159 119.032 101.943 118.474 101.66C117.953 101.385 117.451 101.08 116.971 100.764C116.499 100.447 116.03 100.087 115.595 99.6847C114.996 99.0858 114.456 98.4719 113.976 97.8283C113.497 97.2293 113.095 96.5932 112.775 95.9087C112.455 95.2725 112.217 94.588 112.053 93.8737C111.889 93.152 111.815 92.4116 111.815 91.649C111.815 90.8491 111.893 90.0753 112.053 89.3127C112.217 88.591 112.455 87.8953 112.775 87.2145C113.091 86.5374 113.493 85.8938 113.976 85.2948C114.456 84.6587 114.992 84.0597 115.595 83.5017C116.034 83.0999 116.514 82.739 117.034 82.4228C117.514 82.0991 117.994 81.8015 118.474 81.5188C119.032 81.2807 119.59 81.0612 120.156 80.864C120.669 80.6668 121.227 80.5032 121.83 80.3841C121.592 80.4622 121.391 80.559 121.231 80.6817C121.034 80.8008 120.837 80.9087 120.632 80.9868C120.476 81.1505 120.316 81.303 120.159 81.4667C119.955 81.623 119.799 81.8053 119.68 82.0024C119.278 82.4823 118.917 83.0813 118.597 83.803C118.273 84.5247 118.032 85.3432 117.879 86.2584C117.637 87.1401 117.477 88.0366 117.399 88.9555C117.28 89.8372 117.217 90.7338 117.217 91.6527C117.217 92.527 117.28 93.4273 117.399 94.3424Z" fill="white"/>
</g>
<mask id="mask6_0_1" style="mask-type:luminance" maskUnits="userSpaceOnUse" x="0" y="0" width="170" height="173">
<path d="M170 0H0V172.641H170V0Z" fill="white"/>
</mask>
<g mask="url(#mask6_0_1)">
<path d="M144.502 90.3862C144.424 91.0633 144.26 91.7292 144.022 92.3654C143.739 93.2062 143.367 94.0469 142.884 94.8877C142.404 95.7694 141.824 96.5879 141.146 97.3468C140.548 98.0685 139.904 98.7084 139.227 99.2664C138.505 99.8245 137.731 100.327 136.891 100.762C136.083 101.201 135.265 101.558 134.431 101.841C133.55 102.161 132.664 102.399 131.79 102.563C132.028 102.444 132.389 102.257 132.869 102.019C133.23 101.822 133.591 101.625 133.948 101.428C134.309 101.186 134.681 100.907 135.086 100.58C135.283 100.382 135.481 100.204 135.685 100.044C135.882 99.8468 136.079 99.6645 136.284 99.5082C136.44 99.3036 136.6 99.1064 136.764 98.9093C136.961 98.6675 137.103 98.407 137.181 98.1317C137.378 97.6444 137.582 97.1496 137.78 96.6288C137.977 96.1154 138.163 95.5908 138.323 95.07C138.52 94.5529 138.639 93.9762 138.684 93.3326C138.762 92.6965 138.762 91.9785 138.684 91.1712C138.598 90.5722 138.479 89.9695 138.323 89.378C138.196 88.82 137.999 88.2768 137.724 87.7523C137.486 87.2389 137.203 86.7367 136.883 86.2567C136.522 85.8178 136.143 85.3825 135.737 84.9361C135.343 84.5417 134.863 84.1362 134.305 83.7344C133.739 83.3401 133.141 82.9569 132.504 82.596C131.82 82.2017 131.065 81.8185 130.224 81.4576C129.35 81.0968 128.446 80.7582 127.527 80.4346C126.403 80.0402 125.343 79.6236 124.35 79.1771C123.349 78.7381 122.452 78.314 121.652 77.9197C120.849 77.4807 120.135 77.0157 119.491 76.5432C118.847 76.0968 118.271 75.6615 117.754 75.2225C117.307 74.7761 116.913 74.285 116.552 73.7195C116.191 73.2024 115.875 72.6407 115.592 72.038C115.309 71.48 115.09 70.8438 114.937 70.1258C114.733 69.4487 114.591 68.727 114.513 67.9643C114.435 67.0454 114.413 66.1489 114.457 65.2672C114.495 64.3929 114.632 63.5521 114.874 62.7448C115.079 61.945 115.354 61.1898 115.715 60.4718C116.117 59.7091 116.589 58.9874 117.155 58.3103C117.672 57.6332 118.271 57.0306 118.955 56.5097C119.591 55.9517 120.268 55.4718 120.99 55.07C121.708 54.6756 122.508 54.3557 123.39 54.1102C124.231 53.8758 125.127 53.7158 126.087 53.6377H126.15H126.269H126.325H126.444C126.05 53.7939 125.462 54.0209 124.707 54.2962C124.108 54.4934 123.505 54.8951 122.906 55.4978C122.307 56.0559 121.704 56.7962 121.106 57.7151C120.83 58.0759 120.588 58.4777 120.391 58.9167C120.187 59.3557 120.03 59.8579 119.904 60.4122C119.792 60.8922 119.729 61.4279 119.729 62.0306C119.688 62.596 119.688 63.195 119.729 63.8311C119.848 64.5529 119.989 65.2523 120.153 65.9368C120.35 66.573 120.603 67.1719 120.931 67.73C121.247 68.2954 121.63 68.7902 122.069 69.2329C122.508 69.6719 122.973 70.1072 123.453 70.5462C123.728 70.7508 124.108 70.9926 124.591 71.2679C125.071 71.5506 125.629 71.8483 126.273 72.1719C126.868 72.4472 127.586 72.7523 128.427 73.0685C129.223 73.3847 130.086 73.7456 131.013 74.1474C132.17 74.5492 133.23 74.9658 134.182 75.4048C135.142 75.8438 136.046 76.3014 136.887 76.7813C137.728 77.2277 138.483 77.6853 139.16 78.1652C139.837 78.6451 140.44 79.1399 140.96 79.6608C141.518 80.1407 141.998 80.6615 142.4 81.2195C142.795 81.7367 143.155 82.2984 143.483 82.9011C143.758 83.4182 143.985 84.0172 144.138 84.6942C144.335 85.3788 144.476 86.0782 144.562 86.7999C144.562 87.0343 144.577 87.2947 144.617 87.5774C144.658 87.8602 144.681 88.1355 144.681 88.4182C144.688 89.0879 144.625 89.7463 144.502 90.3862Z" fill="white"/>
</g>
</svg>
