<svg width="318" height="63" viewBox="0 0 318 63" fill="none" xmlns="http://www.w3.org/2000/svg">
<path d="M307.144 31.5613C307.144 34.8964 306.148 37.643 304.157 39.8992C302.165 42.0572 299.675 43.1362 296.588 43.1362C293.5 43.1362 291.01 42.0572 289.018 39.8992C287.027 37.7411 286.13 34.8964 286.13 31.5613C286.13 28.2261 287.126 25.4795 289.118 23.2234C291.11 20.9673 293.6 19.8883 296.588 19.8883C299.575 19.8883 302.065 20.9673 304.057 23.2234C306.049 25.4795 307.144 28.2261 307.144 31.5613ZM311.825 46.1771C313.817 44.2153 315.411 41.9591 316.407 39.5068C317.502 37.0545 318 34.406 318 31.5613C318 28.7166 317.502 26.0681 316.407 23.6158C315.311 21.0654 313.817 18.9073 311.825 16.9455C309.833 14.9836 307.543 13.5122 304.854 12.4332C302.165 11.3542 299.476 10.8638 296.588 10.8638C293.699 10.8638 291.01 11.3542 288.321 12.4332C285.732 13.5122 283.342 14.9836 281.449 16.9455C279.358 18.9073 277.864 21.1635 276.769 23.6158C275.673 26.0681 275.175 28.7166 275.175 31.5613C275.175 34.406 275.673 37.0545 276.769 39.5068C277.864 41.9591 279.458 44.2153 281.449 46.1771C283.441 48.139 285.732 49.6103 288.321 50.6894C290.911 51.7684 293.699 52.2588 296.588 52.2588C299.376 52.2588 302.165 51.7684 304.754 50.6894C307.443 49.6103 309.734 48.139 311.825 46.1771ZM262.726 51.1798H273.781V11.6485H262.726V51.1798ZM236.135 11.7466V51.2779H260.635V42.0572H246.99V11.7466H236.135ZM221.993 51.1798H233.047V11.6485H221.993V51.1798ZM202.273 39.6049C200.281 37.5449 199.285 34.8964 199.285 31.7575C199.285 28.3242 200.281 25.5777 202.173 23.5177C204.165 21.4578 206.655 20.3787 209.842 20.3787C211.535 20.3787 213.129 20.7711 214.623 21.5559C216.117 22.3406 217.61 23.5177 219.104 25.1853V13.4141C217.411 12.6294 215.619 11.9428 213.925 11.5504C212.232 11.158 210.539 10.9618 208.747 10.9618C205.858 10.9618 203.169 11.4523 200.779 12.3351C198.389 13.3161 196.198 14.6894 194.306 16.6512C192.314 18.7112 190.82 20.8692 189.824 23.4196C188.828 25.8719 188.33 28.6185 188.33 31.6594C188.33 35.3869 189.127 38.8202 190.72 41.7629C192.314 44.8038 194.604 47.2561 197.592 49.218C199.186 50.297 200.879 51.0817 202.671 51.5722C204.564 52.0627 206.556 52.3569 208.747 52.3569C210.44 52.3569 212.232 52.1607 213.925 51.7684C215.619 51.376 217.411 50.6894 219.104 49.9046V38.1335C217.61 39.8011 216.117 40.9782 214.623 41.7629C213.129 42.5477 211.535 42.94 209.842 42.94C206.755 42.6458 204.265 41.6648 202.273 39.6049ZM176.08 11.7466V35.9755L161.54 11.7466H150.584V51.2779H161.141V26.8528L175.781 51.2779H186.637V11.7466H176.08ZM98.4973 25.4796C98.4973 27.1471 97.9994 28.4223 96.9039 29.2071C95.8083 29.9918 94.1152 30.3842 91.725 30.3842H89.7332V19.9864H91.9242C94.3144 19.9864 96.0075 20.3787 97.0034 21.2616C97.8998 22.0463 98.4973 23.5177 98.4973 25.4796ZM123.894 36.4659L127.877 23.4196C128.076 22.6349 128.375 21.752 128.574 20.8692C128.774 19.9864 129.072 19.1035 129.272 18.1226C129.67 19.4959 129.869 20.673 130.168 21.5559C130.367 22.4387 130.566 23.0272 130.666 23.5177L134.749 36.564H123.894V36.4659ZM109.453 48.6294L100.29 35.2888C103.178 34.7003 105.469 33.4251 106.963 31.4632C108.457 29.5995 109.253 27.049 109.253 24.0082C109.253 21.9482 108.855 20.1826 108.058 18.515C107.261 16.8474 106.166 15.4741 104.672 14.3951C103.377 13.4141 101.883 12.7275 100.091 12.3351C98.2982 11.9428 95.2108 11.7466 90.7291 11.7466H79.2759V51.2779H89.534V35.7793L98.6965 51.2779H108.357H111.046H119.213L121.304 44.2153H136.841L138.832 51.2779H149.688L135.845 11.7466H122.2L109.453 48.6294ZM26.4917 18.4169V44.4114C26.4917 48.6294 23.006 52.0627 18.7235 52.0627C14.441 52.0627 10.9552 48.6294 10.9552 44.4114C10.9552 42.6458 11.5528 40.9782 12.6483 39.703L25.197 23.9101C27.0893 21.6539 26.6909 18.2207 24.4003 16.3569L9.36172 1.54496C7.17068 -0.514986 3.68493 -0.514986 1.59348 1.54496C-0.497973 3.6049 -0.497973 7.03814 1.59348 9.19617L13.6442 21.0654L3.98371 33.1308C1.49389 36.2697 0 40.4877 0 44.5095C0 54.6131 8.3658 62.9509 18.7235 62.9509C28.9815 62.9509 37.4469 54.6131 37.4469 44.5095V18.515C37.4469 14.297 40.9327 10.8638 45.2152 10.8638C49.4976 10.8638 52.8838 14.297 52.8838 18.515C52.8838 20.2806 52.2862 21.9482 51.1907 23.2234L38.642 39.0163C36.7498 41.3706 37.1481 44.7057 39.4388 46.5695L54.4773 61.3815C56.5687 63.5395 60.1541 63.5395 62.2455 61.3815C64.337 59.3215 64.337 55.8883 62.2455 53.7302L50.1948 41.861L59.8553 29.7956C62.3451 26.6567 63.839 22.5368 63.839 18.515C63.839 8.41143 55.3736 0.0735694 45.1156 0.0735694C34.9571 -0.0245232 26.4917 8.31333 26.4917 18.4169Z" fill="#4D96AB"/>
</svg>
