<svg width="274" height="61" viewBox="0 0 274 61" fill="none" xmlns="http://www.w3.org/2000/svg">
<rect width="274" height="61" fill="#F5F5F5"/>
<path d="M50.7159 19.7386H41.8523C41.5114 17.8447 40.8769 16.178 39.9489 14.7386C39.0208 13.2992 37.8845 12.0777 36.5398 11.0739C35.1951 10.0701 33.6894 9.3125 32.0227 8.80114C30.375 8.28977 28.6231 8.03409 26.767 8.03409C23.4148 8.03409 20.4129 8.87689 17.7614 10.5625C15.1288 12.2481 13.0455 14.7197 11.5114 17.9773C9.99621 21.2348 9.23864 25.2121 9.23864 29.9091C9.23864 34.6439 9.99621 38.6402 11.5114 41.8977C13.0455 45.1553 15.1383 47.6174 17.7898 49.2841C20.4413 50.9508 23.4242 51.7841 26.7386 51.7841C28.5758 51.7841 30.3182 51.5379 31.9659 51.0455C33.6326 50.5341 35.1383 49.786 36.483 48.8011C37.8277 47.8163 38.964 46.6136 39.892 45.1932C40.839 43.7538 41.4924 42.1061 41.8523 40.25L50.7159 40.2784C50.2424 43.1383 49.3239 45.7708 47.9602 48.1761C46.6155 50.5625 44.8826 52.6269 42.7614 54.3693C40.6591 56.0928 38.2538 57.428 35.5455 58.375C32.8371 59.322 29.8826 59.7955 26.6818 59.7955C21.6439 59.7955 17.1553 58.6023 13.2159 56.2159C9.27652 53.8106 6.17045 50.3731 3.89773 45.9034C1.64394 41.4337 0.517046 36.1023 0.517046 29.9091C0.517046 23.697 1.65341 18.3655 3.92614 13.9148C6.19886 9.44507 9.30492 6.01704 13.2443 3.63068C17.1837 1.22538 21.6629 0.0227251 26.6818 0.0227251C29.7689 0.0227251 32.6477 0.467802 35.3182 1.35795C38.0076 2.22917 40.4223 3.51704 42.5625 5.22159C44.7027 6.9072 46.4735 8.97159 47.875 11.4148C49.2765 13.839 50.2235 16.6136 50.7159 19.7386ZM60.3402 59V0.81818H69.1186V51.4432H95.4822V59H60.3402ZM112.5 59H103.182L124.119 0.81818H134.261L155.199 59H145.881L129.432 11.3864H128.977L112.5 59ZM114.062 36.2159H144.29V43.6023H114.062V36.2159ZM161.712 0.81818L177.905 48.2045H178.559L194.752 0.81818H204.241L183.303 59H173.161L152.224 0.81818H161.712ZM220.541 0.81818V59H211.763V0.81818H220.541ZM264.178 16.1023C263.875 13.4129 262.625 11.3295 260.428 9.85227C258.231 8.35606 255.466 7.60795 252.133 7.60795C249.746 7.60795 247.682 7.98674 245.939 8.74432C244.197 9.48295 242.843 10.5057 241.877 11.8125C240.93 13.1004 240.457 14.5682 240.457 16.2159C240.457 17.5985 240.779 18.7917 241.422 19.7955C242.085 20.7992 242.947 21.642 244.008 22.3239C245.087 22.9867 246.243 23.5455 247.474 24C248.705 24.4356 249.888 24.7955 251.025 25.0795L256.707 26.5568C258.563 27.0114 260.466 27.6269 262.417 28.4034C264.368 29.1799 266.176 30.2027 267.843 31.4716C269.51 32.7405 270.854 34.3125 271.877 36.1875C272.919 38.0625 273.439 40.3068 273.439 42.9205C273.439 46.2159 272.587 49.142 270.883 51.6989C269.197 54.2557 266.744 56.2727 263.525 57.75C260.324 59.2273 256.451 59.9659 251.905 59.9659C247.549 59.9659 243.78 59.2746 240.599 57.892C237.417 56.5095 234.926 54.5492 233.127 52.0114C231.328 49.4545 230.333 46.4242 230.144 42.9205H238.951C239.121 45.0227 239.803 46.7746 240.996 48.1761C242.208 49.5587 243.752 50.5909 245.627 51.2727C247.521 51.9356 249.595 52.267 251.849 52.267C254.33 52.267 256.536 51.8788 258.468 51.1023C260.419 50.3068 261.953 49.2083 263.07 47.8068C264.188 46.3864 264.746 44.7292 264.746 42.8352C264.746 41.1117 264.254 39.7008 263.269 38.6023C262.303 37.5038 260.987 36.5947 259.32 35.875C257.672 35.1553 255.807 34.5208 253.724 33.9716L246.849 32.0966C242.189 30.8277 238.496 28.9621 235.769 26.5C233.061 24.0379 231.707 20.7803 231.707 16.7273C231.707 13.375 232.616 10.4489 234.434 7.94886C236.252 5.44886 238.714 3.50757 241.82 2.125C244.926 0.723483 248.43 0.0227251 252.332 0.0227251C256.271 0.0227251 259.746 0.714013 262.758 2.09659C265.788 3.47917 268.174 5.38258 269.917 7.80682C271.659 10.2121 272.568 12.9773 272.644 16.1023H264.178Z" fill="#4D96AB"/>
</svg>
