<svg width="272" height="64" viewBox="0 0 272 64" fill="none" xmlns="http://www.w3.org/2000/svg">
<rect width="272" height="64" fill="#F5F5F5"/>
<path d="M18.216 63.264C15.976 63.264 13.608 62.912 11.112 62.208C8.68 61.568 6.504 60.48 4.584 58.944C2.728 57.408 1.48 55.36 0.84 52.8C0.776 52.48 0.712 52.128 0.648 51.744C0.648 51.36 0.648 50.976 0.648 50.592C0.648 48.608 1.096 46.688 1.992 44.832C2.888 42.976 3.976 41.568 5.256 40.608H5.352C5.48 40.608 5.64 40.768 5.832 41.088C6.088 41.344 6.088 41.536 5.832 41.664C5.192 42.304 4.712 43.04 4.392 43.872C4.136 44.64 4.008 45.472 4.008 46.368C4.008 47.584 4.2 48.832 4.584 50.112C5.032 51.328 5.576 52.384 6.216 53.28C7.816 55.52 10.024 57.312 12.84 58.656C15.72 59.936 18.536 60.576 21.288 60.576C25.064 60.576 27.976 59.456 30.024 57.216C32.136 54.976 33.192 52.224 33.192 48.96C33.192 46.976 32.808 44.992 32.04 43.008C31.016 40.256 29.64 37.568 27.912 34.944C26.248 32.256 24.712 29.632 23.304 27.072C22.088 24.768 21.48 22.432 21.48 20.064C21.48 17.568 22.248 15.168 23.784 12.864C25.32 10.816 27.336 9.184 29.832 7.96799C32.392 6.688 34.984 6.048 37.608 6.048C39.4 6.048 41.128 6.368 42.792 7.008C44.456 7.64799 45.96 8.70399 47.304 10.176C47.688 10.752 47.88 11.488 47.88 12.384C47.88 13.664 47.624 14.656 47.112 15.36C46.536 16.192 45.896 17.28 45.192 18.624C44.488 19.968 44.072 20.896 43.944 21.408C43.816 21.472 43.496 21.6 42.984 21.792C42.536 21.92 42.248 21.888 42.12 21.696C42.376 21.184 42.728 20.256 43.176 18.912C43.624 17.568 43.848 16.352 43.848 15.264C43.848 14.56 43.816 13.792 43.752 12.96C43.752 12.064 43.336 11.296 42.504 10.656C41.736 9.952 40.744 9.344 39.528 8.832C38.312 8.32 36.84 8.064 35.112 8.064C31.592 8.064 28.904 9.088 27.048 11.136C25.192 13.184 24.264 15.424 24.264 17.856C24.264 19.072 24.52 20.288 25.032 21.504C25.992 23.808 27.336 25.984 29.064 28.032C30.792 30.08 32.488 32.192 34.152 34.368C35.88 36.48 37.224 38.784 38.184 41.28C38.824 42.944 39.144 44.64 39.144 46.368C39.144 48.864 38.504 51.136 37.224 53.184C36.008 55.232 34.344 57.024 32.232 58.56C30.184 60.032 27.944 61.184 25.512 62.016C23.08 62.848 20.648 63.264 18.216 63.264ZM50.3925 60.576C49.4965 60.576 48.7285 60.256 48.0885 59.616C47.4485 58.976 47.1285 57.856 47.1285 56.256C47.1285 54.848 47.2245 53.184 47.4165 51.264C47.6725 49.344 48.0245 47.392 48.4725 45.408C48.9205 43.36 49.4325 41.568 50.0085 40.032C48.9205 41.632 47.7045 43.296 46.3605 45.024C45.0165 46.688 43.8965 48.096 43.0005 49.248C42.8085 49.504 42.6485 49.632 42.5205 49.632C42.3925 49.632 42.3285 49.472 42.3285 49.152C42.3285 48.64 42.4885 48.16 42.8085 47.712C44.1525 45.856 45.6565 43.744 47.3205 41.376C49.0485 39.008 50.5205 36.864 51.7365 34.944C52.4405 34.816 53.2725 34.624 54.2325 34.368C55.2565 34.112 55.9925 33.76 56.4405 33.312C56.7605 33.12 56.9525 33.024 57.0165 33.024C57.2085 33.024 57.3045 33.152 57.3045 33.408C57.3045 33.6 57.2085 33.824 57.0165 34.08C56.4405 34.912 55.8005 36.224 55.0965 38.016C54.3925 39.744 53.7205 41.696 53.0805 43.872C52.4405 45.984 51.8965 48.064 51.4485 50.112C51.0645 52.16 50.8725 53.856 50.8725 55.2C50.8725 56.224 51.0325 56.928 51.3525 57.312C51.7365 57.696 52.1525 57.888 52.6005 57.888C53.4965 57.888 54.4245 57.472 55.3845 56.64C56.4085 55.808 57.4005 54.784 58.3605 53.568C59.3845 52.352 60.2805 51.168 61.0485 50.016C61.8165 48.864 62.3925 47.968 62.7765 47.328C64.0565 45.28 65.2725 43.072 66.4245 40.704C67.6405 38.272 68.6645 36.352 69.4965 34.944C70.2005 34.816 71.0325 34.624 71.9925 34.368C73.0165 34.112 73.7845 33.76 74.2965 33.312C74.4885 33.12 74.6485 33.024 74.7765 33.024C74.9685 33.024 75.0645 33.152 75.0645 33.408C75.1285 33.6 75.0645 33.824 74.8725 34.08C74.2965 34.912 73.6885 36.192 73.0485 37.92C72.4085 39.648 71.7685 41.568 71.1285 43.68C70.5525 45.728 70.0725 47.776 69.6885 49.824C69.3045 51.808 69.1125 53.504 69.1125 54.912C69.1125 56.832 69.8165 57.792 71.2245 57.792C72.1845 57.792 73.2405 57.44 74.3925 56.736C75.6085 56.032 76.6005 55.296 77.3685 54.528C79.5445 52.288 81.3685 50.08 82.8405 47.904C84.3125 45.728 85.5605 43.232 86.5845 40.416C86.9685 39.456 87.2245 38.624 87.3525 37.92C87.4805 37.152 87.5445 36.448 87.5445 35.808C87.5445 34.912 87.3845 34.208 87.0645 33.696C86.8085 33.12 86.5205 32.8 86.2005 32.736C85.8805 32.608 85.7205 32.448 85.7205 32.256C85.7205 32.128 85.8805 32 86.2005 31.872C86.5205 31.68 86.8725 31.616 87.2565 31.68C88.2805 31.936 89.1445 32.416 89.8485 33.12C90.6165 33.76 91.0005 34.72 91.0005 36C91.0005 37.024 90.7765 38.112 90.3285 39.264C89.4325 41.632 88.1205 44.096 86.3925 46.656C84.7285 49.152 82.8405 51.488 80.7285 53.664C78.6165 55.84 76.4085 57.6 74.1045 58.944C73.2725 59.392 72.4085 59.776 71.5125 60.096C70.6165 60.416 69.7525 60.576 68.9205 60.576C67.8965 60.576 67.0005 60.256 66.2325 59.616C65.5285 58.976 65.1765 57.856 65.1765 56.256C65.1765 54.592 65.3365 52.608 65.6565 50.304C66.0405 48 66.5205 45.76 67.0965 43.584C66.6485 44.288 66.2005 45.056 65.7525 45.888C65.3685 46.656 64.9205 47.456 64.4085 48.288C62.8085 50.592 61.1445 52.768 59.4165 54.816C57.7525 56.864 56.3125 58.24 55.0965 58.944C54.3285 59.392 53.5285 59.776 52.6965 60.096C51.8645 60.416 51.0965 60.576 50.3925 60.576ZM94.9365 60.768C92.3125 60.768 90.4885 60.256 89.4645 59.232C88.4405 58.208 87.9285 56.96 87.9285 55.488C87.9285 53.632 88.4085 51.648 89.3685 49.536C90.3925 47.424 91.3525 45.632 92.2485 44.16C93.2725 42.624 94.6485 41.024 96.3765 39.36C98.1045 37.696 99.9925 36.288 102.041 35.136C104.089 33.984 106.073 33.408 107.993 33.408C109.657 33.408 110.809 33.824 111.449 34.656C112.089 35.424 112.409 36.352 112.409 37.44C112.409 39.424 111.801 41.056 110.585 42.336C109.433 43.616 107.993 44.672 106.265 45.504C104.537 46.272 102.873 46.912 101.273 47.424C100.313 47.68 99.1925 47.936 97.9125 48.192C96.6325 48.448 95.4165 48.576 94.2645 48.576C93.8165 49.728 93.4645 50.848 93.2085 51.936C92.9525 53.024 92.8245 54.016 92.8245 54.912C92.8245 56 93.0805 56.896 93.5925 57.6C94.1685 58.304 95.0965 58.656 96.3765 58.656C96.8885 58.656 97.4965 58.592 98.2005 58.464C98.9045 58.336 99.6725 58.144 100.505 57.888C102.425 57.248 104.313 56.224 106.169 54.816C108.025 53.408 109.721 51.904 111.257 50.304C112.857 48.64 114.073 47.264 114.905 46.176C115.097 46.368 115.193 46.592 115.193 46.848C115.193 47.168 114.969 47.68 114.521 48.384C113.241 50.176 111.577 52.032 109.529 53.952C107.481 55.872 105.209 57.504 102.713 58.848C100.217 60.128 97.6245 60.768 94.9365 60.768ZM95.0325 46.656C95.8645 46.72 96.7925 46.72 97.8165 46.656C98.9045 46.528 99.9605 46.304 100.985 45.984C103.609 45.216 105.497 44 106.649 42.336C107.865 40.608 108.473 39.072 108.473 37.728C108.473 36.96 108.313 36.32 107.993 35.808C107.673 35.296 107.161 35.04 106.457 35.04C104.601 35.04 102.937 35.744 101.465 37.152C99.9925 38.496 98.7125 40.064 97.6245 41.856C96.5365 43.648 95.6725 45.248 95.0325 46.656ZM117.787 60.768C115.163 60.768 113.339 60.256 112.315 59.232C111.291 58.208 110.779 56.96 110.779 55.488C110.779 53.632 111.259 51.648 112.219 49.536C113.243 47.424 114.203 45.632 115.099 44.16C116.123 42.624 117.499 41.024 119.227 39.36C120.955 37.696 122.843 36.288 124.891 35.136C126.939 33.984 128.923 33.408 130.843 33.408C132.507 33.408 133.659 33.824 134.299 34.656C134.939 35.424 135.259 36.352 135.259 37.44C135.259 39.424 134.651 41.056 133.435 42.336C132.283 43.616 130.843 44.672 129.115 45.504C127.387 46.272 125.723 46.912 124.123 47.424C123.163 47.68 122.043 47.936 120.763 48.192C119.483 48.448 118.267 48.576 117.115 48.576C116.667 49.728 116.315 50.848 116.059 51.936C115.803 53.024 115.675 54.016 115.675 54.912C115.675 56 115.931 56.896 116.443 57.6C117.019 58.304 117.947 58.656 119.227 58.656C119.739 58.656 120.347 58.592 121.051 58.464C121.755 58.336 122.523 58.144 123.355 57.888C125.275 57.248 127.163 56.224 129.019 54.816C130.875 53.408 132.571 51.904 134.107 50.304C135.707 48.64 136.923 47.264 137.755 46.176C137.947 46.368 138.043 46.592 138.043 46.848C138.043 47.168 137.819 47.68 137.371 48.384C136.091 50.176 134.427 52.032 132.379 53.952C130.331 55.872 128.059 57.504 125.563 58.848C123.067 60.128 120.475 60.768 117.787 60.768ZM117.883 46.656C118.715 46.72 119.643 46.72 120.667 46.656C121.755 46.528 122.811 46.304 123.835 45.984C126.459 45.216 128.347 44 129.499 42.336C130.715 40.608 131.323 39.072 131.323 37.728C131.323 36.96 131.163 36.32 130.843 35.808C130.523 35.296 130.011 35.04 129.307 35.04C127.451 35.04 125.787 35.744 124.315 37.152C122.843 38.496 121.563 40.064 120.475 41.856C119.387 43.648 118.523 45.248 117.883 46.656ZM139.005 60.288C138.365 60.288 137.821 60.16 137.373 59.904C136.925 59.648 136.701 59.168 136.701 58.464C136.701 57.568 136.925 56.512 137.373 55.296C137.885 54.08 138.429 52.864 139.005 51.648C139.581 50.432 140.061 49.44 140.445 48.672C140.765 48.096 141.181 47.2 141.693 45.984C142.269 44.704 142.845 43.392 143.421 42.048C144.061 40.64 144.573 39.456 144.957 38.496C145.405 37.536 145.629 37.056 145.629 37.056C145.053 37.696 144.285 38.592 143.325 39.744C142.429 40.896 141.437 42.112 140.349 43.392C139.325 44.608 138.365 45.76 137.469 46.848C136.637 47.936 136.029 48.736 135.645 49.248C135.453 49.504 135.293 49.632 135.165 49.632C135.037 49.632 134.973 49.472 134.973 49.152C134.973 48.64 135.133 48.16 135.453 47.712C136.221 46.752 137.149 45.6 138.237 44.256C139.325 42.848 140.413 41.44 141.501 40.032C142.653 38.624 143.645 37.376 144.477 36.288C143.965 36.288 143.293 36.32 142.461 36.384C141.693 36.448 140.989 36.544 140.349 36.672C139.709 36.736 139.357 36.768 139.293 36.768C138.973 36.768 139.005 36.512 139.389 36C139.773 35.488 140.285 34.976 140.925 34.464C141.565 33.952 142.045 33.696 142.365 33.696C142.429 33.696 142.941 33.728 143.901 33.792C144.861 33.792 145.565 33.792 146.013 33.792C147.293 32.064 148.541 30.08 149.757 27.84C151.037 25.6 152.285 23.136 153.501 20.448C154.013 20.384 154.877 20.032 156.093 19.392C157.373 18.688 158.365 17.984 159.069 17.28C159.389 16.96 159.645 16.8 159.837 16.8C160.221 16.8 160.221 17.056 159.837 17.568C159.389 18.08 158.621 19.168 157.533 20.832C156.445 22.432 155.229 24.384 153.885 26.688C152.541 28.928 151.261 31.296 150.045 33.792H157.821C158.525 33.792 158.877 33.888 158.877 34.08C158.877 34.336 158.397 34.592 157.437 34.848C156.349 35.168 155.197 35.36 153.981 35.424C152.829 35.488 151.741 35.616 150.717 35.808C149.757 36 149.053 36.416 148.605 37.056C148.221 37.504 147.677 38.464 146.973 39.936C146.269 41.408 145.501 43.104 144.669 45.024C143.901 46.88 143.229 48.768 142.653 50.688C142.077 52.544 141.725 54.112 141.597 55.392V55.776C141.597 56.288 141.757 56.704 142.077 57.024C142.397 57.344 142.717 57.504 143.037 57.504C143.869 57.504 144.925 56.992 146.205 55.968C147.549 54.944 148.925 53.728 150.333 52.32C151.741 50.848 152.957 49.504 153.981 48.288C154.429 47.776 154.813 47.296 155.133 46.848C155.517 46.4 155.741 46.112 155.805 45.984C155.933 46.24 155.997 46.432 155.997 46.56C155.997 46.944 155.869 47.36 155.613 47.808C155.421 48.256 155.197 48.64 154.941 48.96C153.725 50.56 152.253 52.256 150.525 54.048C148.797 55.776 146.941 57.248 144.957 58.464C143.037 59.68 141.053 60.288 139.005 60.288ZM171.092 63.264C168.852 63.264 166.484 62.912 163.988 62.208C161.556 61.568 159.38 60.48 157.46 58.944C155.604 57.408 154.356 55.36 153.716 52.8C153.652 52.48 153.588 52.128 153.524 51.744C153.524 51.36 153.524 50.976 153.524 50.592C153.524 48.608 153.972 46.688 154.868 44.832C155.764 42.976 156.852 41.568 158.132 40.608H158.228C158.356 40.608 158.516 40.768 158.708 41.088C158.964 41.344 158.964 41.536 158.708 41.664C158.068 42.304 157.588 43.04 157.268 43.872C157.012 44.64 156.884 45.472 156.884 46.368C156.884 47.584 157.076 48.832 157.46 50.112C157.908 51.328 158.452 52.384 159.092 53.28C160.692 55.52 162.9 57.312 165.716 58.656C168.596 59.936 171.412 60.576 174.164 60.576C177.94 60.576 180.852 59.456 182.9 57.216C185.012 54.976 186.068 52.224 186.068 48.96C186.068 46.976 185.684 44.992 184.916 43.008C183.892 40.256 182.516 37.568 180.788 34.944C179.124 32.256 177.588 29.632 176.18 27.072C174.964 24.768 174.356 22.432 174.356 20.064C174.356 17.568 175.124 15.168 176.66 12.864C178.196 10.816 180.212 9.184 182.708 7.96799C185.268 6.688 187.86 6.048 190.484 6.048C192.276 6.048 194.004 6.368 195.668 7.008C197.332 7.64799 198.836 8.70399 200.18 10.176C200.564 10.752 200.756 11.488 200.756 12.384C200.756 13.664 200.5 14.656 199.988 15.36C199.412 16.192 198.772 17.28 198.068 18.624C197.364 19.968 196.948 20.896 196.82 21.408C196.692 21.472 196.372 21.6 195.86 21.792C195.412 21.92 195.124 21.888 194.996 21.696C195.252 21.184 195.604 20.256 196.052 18.912C196.5 17.568 196.724 16.352 196.724 15.264C196.724 14.56 196.692 13.792 196.628 12.96C196.628 12.064 196.212 11.296 195.38 10.656C194.612 9.952 193.62 9.344 192.404 8.832C191.188 8.32 189.716 8.064 187.988 8.064C184.468 8.064 181.78 9.088 179.924 11.136C178.068 13.184 177.14 15.424 177.14 17.856C177.14 19.072 177.396 20.288 177.908 21.504C178.868 23.808 180.212 25.984 181.94 28.032C183.668 30.08 185.364 32.192 187.028 34.368C188.756 36.48 190.1 38.784 191.06 41.28C191.7 42.944 192.02 44.64 192.02 46.368C192.02 48.864 191.38 51.136 190.1 53.184C188.884 55.232 187.22 57.024 185.108 58.56C183.06 60.032 180.82 61.184 178.388 62.016C175.956 62.848 173.524 63.264 171.092 63.264ZM209.605 60.576C208.645 60.576 207.781 60.384 207.013 60C206.309 59.616 205.957 58.912 205.957 57.888C205.957 57.312 206.085 56.672 206.341 55.968C206.917 54.496 207.685 52.704 208.645 50.592C209.669 48.48 210.693 46.432 211.717 44.448C212.741 42.4 213.541 40.736 214.117 39.456C214.501 38.688 214.693 38.144 214.693 37.824C214.693 37.248 214.373 37.12 213.733 37.44C213.093 37.76 212.389 38.208 211.621 38.784C210.853 39.36 210.277 39.808 209.893 40.128C208.229 41.664 206.469 43.488 204.613 45.6C202.821 47.648 201.157 49.824 199.621 52.128C198.149 54.368 196.997 56.608 196.165 58.848C196.101 59.232 195.685 59.552 194.917 59.808C194.149 60.064 193.445 60.192 192.805 60.192C191.781 60.192 191.397 59.872 191.653 59.232C193.125 55.904 194.629 52.224 196.165 48.192C197.765 44.16 199.557 40.032 201.541 35.808C203.013 32.608 204.645 29.312 206.437 25.92C208.293 22.528 210.341 19.296 212.581 16.224C214.821 13.088 217.285 10.336 219.973 7.96799C222.341 5.92 224.933 4.256 227.749 2.976C230.629 1.632 233.733 0.959999 237.061 0.959999C238.533 0.959999 239.813 1.28 240.901 1.92C241.989 2.496 242.597 3.552 242.725 5.088V5.952C242.725 6.848 242.629 7.744 242.437 8.64C242.373 8.896 242.117 9.024 241.669 9.024C241.477 9.024 241.413 8.992 241.477 8.928C241.733 7.264 241.285 6.08 240.133 5.376C239.045 4.672 237.637 4.32 235.909 4.32C232.773 4.32 229.893 4.896 227.269 6.048C224.645 7.2 222.213 8.736 219.973 10.656C216.517 13.664 213.509 17.504 210.949 22.176C208.389 26.848 206.181 31.616 204.325 36.48C203.429 38.848 202.533 41.216 201.637 43.584C200.805 45.952 200.005 48.16 199.237 50.208C202.117 46.368 204.869 43.072 207.493 40.32C210.181 37.568 212.517 35.616 214.501 34.464C216.101 33.568 217.541 33.12 218.821 33.12C220.037 33.12 220.645 33.632 220.645 34.656C220.645 35.552 220.197 36.704 219.301 38.112C218.853 38.816 218.149 40 217.189 41.664C216.293 43.328 215.333 45.152 214.309 47.136C213.349 49.056 212.517 50.848 211.813 52.512C211.109 54.176 210.757 55.392 210.757 56.16C210.757 57.184 211.205 57.696 212.101 57.696C212.613 57.696 213.189 57.536 213.829 57.216C214.533 56.896 215.045 56.608 215.365 56.352C217.093 55.072 218.789 53.504 220.453 51.648C222.117 49.792 223.525 48.16 224.677 46.752C224.741 46.688 224.773 46.784 224.773 47.04C224.773 47.296 224.709 47.68 224.581 48.192C224.517 48.64 224.325 49.024 224.005 49.344C223.301 50.304 222.565 51.232 221.797 52.128C221.093 52.96 220.389 53.792 219.685 54.624C218.469 56.032 216.997 57.376 215.269 58.656C213.605 59.936 211.717 60.576 209.605 60.576ZM224.096 60.192C223.072 60.192 222.144 60 221.312 59.616C220.544 59.168 220.16 58.24 220.16 56.832C220.16 54.592 220.736 52.352 221.888 50.112C223.04 47.808 224.224 45.792 225.44 44.064C226.528 42.592 227.744 41.216 229.088 39.936C230.496 38.592 232 37.44 233.6 36.48C234.624 35.84 236 35.168 237.728 34.464C239.52 33.696 241.024 33.312 242.24 33.312C243.264 33.312 244.16 33.6 244.928 34.176C245.696 34.688 246.08 35.648 246.08 37.056C246.08 39.232 245.504 41.472 244.352 43.776C243.264 46.016 242.112 48 240.896 49.728C240.32 50.496 239.744 51.232 239.168 51.936C238.592 52.576 237.952 53.248 237.248 53.952C239.616 53.952 241.792 53.28 243.776 51.936C245.76 50.528 247.488 48.832 248.96 46.848L249.152 46.656C249.344 46.656 249.44 46.848 249.44 47.232C249.44 47.68 249.312 48.096 249.056 48.48C247.776 50.272 246.176 51.872 244.256 53.28C242.336 54.624 240.16 55.296 237.728 55.296C237.472 55.296 237.216 55.296 236.96 55.296C236.704 55.296 236.448 55.264 236.192 55.2C232.608 58.528 228.576 60.192 224.096 60.192ZM226.592 58.56C227.488 58.56 228.448 58.24 229.472 57.6C230.56 56.96 231.392 56.352 231.968 55.776C233.056 54.688 234.048 53.536 234.944 52.32C235.84 51.04 236.672 49.76 237.44 48.48C238.336 46.944 239.232 45.12 240.128 43.008C241.024 40.896 241.472 38.912 241.472 37.056C241.472 35.584 240.96 34.848 239.936 34.848C239.104 34.848 238.08 35.2 236.864 35.904C235.712 36.608 234.848 37.248 234.272 37.824C232.096 40.064 230.272 42.496 228.8 45.12C227.968 46.592 227.072 48.32 226.112 50.304C225.152 52.288 224.672 54.112 224.672 55.776C224.672 56.032 224.672 56.288 224.672 56.544C224.736 56.736 224.8 56.96 224.864 57.216C225.12 58.112 225.696 58.56 226.592 58.56ZM250.75 60.288C250.11 60.288 249.566 60.16 249.118 59.904C248.67 59.648 248.446 59.168 248.446 58.464C248.446 57.568 248.67 56.512 249.118 55.296C249.63 54.08 250.174 52.864 250.75 51.648C251.326 50.432 251.806 49.44 252.19 48.672C252.51 48.096 252.926 47.2 253.438 45.984C254.014 44.704 254.59 43.392 255.166 42.048C255.806 40.64 256.318 39.456 256.702 38.496C257.15 37.536 257.374 37.056 257.374 37.056C256.798 37.696 256.03 38.592 255.07 39.744C254.174 40.896 253.182 42.112 252.094 43.392C251.07 44.608 250.11 45.76 249.214 46.848C248.382 47.936 247.774 48.736 247.39 49.248C247.198 49.504 247.038 49.632 246.91 49.632C246.782 49.632 246.718 49.472 246.718 49.152C246.718 48.64 246.878 48.16 247.198 47.712C247.966 46.752 248.894 45.6 249.982 44.256C251.07 42.848 252.158 41.44 253.246 40.032C254.398 38.624 255.39 37.376 256.222 36.288C255.71 36.288 255.038 36.32 254.206 36.384C253.438 36.448 252.734 36.544 252.094 36.672C251.454 36.736 251.102 36.768 251.038 36.768C250.718 36.768 250.75 36.512 251.134 36C251.518 35.488 252.03 34.976 252.67 34.464C253.31 33.952 253.79 33.696 254.11 33.696C254.174 33.696 254.686 33.728 255.646 33.792C256.606 33.792 257.31 33.792 257.758 33.792C259.038 32.064 260.286 30.08 261.502 27.84C262.782 25.6 264.03 23.136 265.246 20.448C265.758 20.384 266.622 20.032 267.838 19.392C269.118 18.688 270.11 17.984 270.814 17.28C271.134 16.96 271.39 16.8 271.582 16.8C271.966 16.8 271.966 17.056 271.582 17.568C271.134 18.08 270.366 19.168 269.278 20.832C268.19 22.432 266.974 24.384 265.63 26.688C264.286 28.928 263.006 31.296 261.79 33.792H269.566C270.27 33.792 270.622 33.888 270.622 34.08C270.622 34.336 270.142 34.592 269.182 34.848C268.094 35.168 266.942 35.36 265.726 35.424C264.574 35.488 263.486 35.616 262.462 35.808C261.502 36 260.798 36.416 260.35 37.056C259.966 37.504 259.422 38.464 258.718 39.936C258.014 41.408 257.246 43.104 256.414 45.024C255.646 46.88 254.974 48.768 254.398 50.688C253.822 52.544 253.47 54.112 253.342 55.392V55.776C253.342 56.288 253.502 56.704 253.822 57.024C254.142 57.344 254.462 57.504 254.782 57.504C255.614 57.504 256.67 56.992 257.95 55.968C259.294 54.944 260.67 53.728 262.078 52.32C263.486 50.848 264.702 49.504 265.726 48.288C266.174 47.776 266.558 47.296 266.878 46.848C267.262 46.4 267.486 46.112 267.55 45.984C267.678 46.24 267.742 46.432 267.742 46.56C267.742 46.944 267.614 47.36 267.358 47.808C267.166 48.256 266.942 48.64 266.686 48.96C265.47 50.56 263.998 52.256 262.27 54.048C260.542 55.776 258.686 57.248 256.702 58.464C254.782 59.68 252.798 60.288 250.75 60.288Z" fill="#4D96AB"/>
</svg>
