<svg width="160" height="160" viewBox="0 0 160 160" fill="none" xmlns="http://www.w3.org/2000/svg">
<g clip-path="url(#clip0_2310_12629)">
<mask id="mask0_2310_12629" style="mask-type:luminance" maskUnits="userSpaceOnUse" x="0" y="0" width="170" height="173">
<path d="M170 0H0V172.641H170V0Z" fill="white"/>
</mask>
<g mask="url(#mask0_2310_12629)">
<path d="M79.9174 0.373047C35.9851 0.373047 0.371216 35.9869 0.371216 79.9192C0.371216 123.851 35.9851 159.465 79.9174 159.465C123.85 159.465 159.456 123.851 159.456 79.9192C159.46 35.9869 123.85 0.373047 79.9174 0.373047Z" fill="#4D96AB"/>
</g>
<mask id="mask1_2310_12629" style="mask-type:luminance" maskUnits="userSpaceOnUse" x="0" y="0" width="170" height="173">
<path d="M170 0H0V172.641H170V0Z" fill="white"/>
</mask>
<g mask="url(#mask1_2310_12629)">
<path d="M47.1727 74.1901C48.4004 73.5539 49.3491 72.6574 50.0113 71.4855C50.6809 70.3211 51.0157 68.978 51.0157 67.4602C51.0157 65.9423 50.6846 64.5993 50.0113 63.4274C49.3491 62.263 48.4079 61.359 47.1951 60.7228C45.9785 60.0941 44.576 59.7779 42.9652 59.7779H30.2903V70.3917V75.1425H42.9614C44.5425 75.1425 45.9413 74.8263 47.1727 74.1901ZM52.1132 102.925L39.4309 82.0175H29.9183V94.6514C29.0775 95.5703 28.0396 96.7273 26.8044 98.1336C25.5247 99.5324 24.0217 101.128 22.3067 102.929V83.3196V55.9163C21.8268 55.9572 21.2687 56.0018 20.6251 56.0428H18.2888V54.9639V53.4609H22.3216H23.0842H29.9183H42.262C45.6995 53.4609 48.7166 54.0524 51.3134 55.2318C53.9175 56.4036 55.9302 58.0777 57.3662 60.2466C58.7948 62.4081 59.5128 64.9081 59.5128 67.7392C59.5128 70.5777 58.7873 73.0777 57.3439 75.2392C55.8967 77.4081 53.8766 79.0748 51.2724 80.2541C50.3387 80.6856 49.3454 81.0316 48.3 81.2995L62.0053 102.936H52.1132V102.925Z" fill="white"/>
</g>
<mask id="mask2_2310_12629" style="mask-type:luminance" maskUnits="userSpaceOnUse" x="0" y="0" width="170" height="173">
<path d="M170 0H0V172.641H170V0Z" fill="white"/>
</mask>
<g mask="url(#mask2_2310_12629)">
<path d="M75.1932 26.2461H72.5406V133.594H75.1932V26.2461Z" fill="white"/>
</g>
<mask id="mask3_2310_12629" style="mask-type:luminance" maskUnits="userSpaceOnUse" x="0" y="0" width="170" height="173">
<path d="M170 0H0V172.641H170V0Z" fill="white"/>
</mask>
<g mask="url(#mask3_2310_12629)">
<path d="M135.386 53.8717C135.833 54.0279 136.249 54.1879 136.651 54.3516C137.045 54.5934 137.429 54.8464 137.789 55.1291C138.15 55.3672 138.511 55.6499 138.868 55.9699C139.348 56.4498 139.765 56.9297 140.126 57.4096C140.442 57.8895 140.725 58.4066 140.967 58.9647C141.249 59.5636 141.446 60.144 141.565 60.7095C141.729 61.3084 141.826 61.926 141.863 62.5658C141.863 63.2429 141.826 63.8865 141.751 64.4855C141.632 65.077 141.469 65.6425 141.272 66.1596C141.033 66.7586 140.751 67.324 140.431 67.8411C140.107 68.3211 139.709 68.801 139.229 69.2809C138.946 69.6417 138.63 69.958 138.269 70.2407C137.868 70.5569 137.473 70.8397 137.068 71.0815C136.673 71.2787 136.268 71.4758 135.866 71.6804C135.427 71.8367 134.992 71.9557 134.545 72.0339C134.75 71.9557 134.906 71.8776 135.033 71.7995C135.189 71.6804 135.33 71.58 135.449 71.4944C135.606 71.3754 135.725 71.234 135.81 71.0778C135.929 70.9587 136.052 70.8397 136.171 70.7169C136.446 70.2779 136.688 69.7757 136.893 69.2214C137.049 68.6224 137.209 67.9379 137.373 67.1827C137.492 66.42 137.592 65.6648 137.67 64.9022C137.711 64.1804 137.734 63.4401 137.734 62.6849C137.734 61.9632 137.693 61.2228 137.615 60.4676C137.496 59.7459 137.354 59.0056 137.19 58.2504C136.993 57.5286 136.774 56.8664 136.536 56.2675C136.331 55.7094 136.078 55.2295 135.751 54.8278C135.632 54.6715 135.509 54.5301 135.39 54.4111C135.271 54.292 135.152 54.1916 135.036 54.106C134.873 53.9944 134.713 53.8865 134.549 53.8084C134.393 53.7303 134.251 53.6522 134.132 53.5703C134.523 53.6522 134.947 53.7526 135.386 53.8717Z" fill="white"/>
</g>
<mask id="mask4_2310_12629" style="mask-type:luminance" maskUnits="userSpaceOnUse" x="0" y="0" width="170" height="173">
<path d="M170 0H0V172.641H170V0Z" fill="white"/>
</mask>
<g mask="url(#mask4_2310_12629)">
<path d="M106.123 70.6649V94.6456C105.283 95.5645 104.245 96.7214 103.01 98.1277C101.73 99.5265 100.234 101.122 98.5118 102.923V83.3137V55.9104C98.0318 55.9514 97.4738 55.996 96.8302 56.0369H94.4939V54.9581V53.4551H99.2893H106.123V70.6649Z" fill="white"/>
</g>
<mask id="mask5_2310_12629" style="mask-type:luminance" maskUnits="userSpaceOnUse" x="0" y="0" width="160" height="161">
<path d="M159.5 0H0V160.5H88.5H159.5V0Z" fill="white"/>
</mask>
<g mask="url(#mask5_2310_12629)">
<path d="M117.399 94.3431C117.477 95.2248 117.637 96.1102 117.879 96.9845C118.035 97.8252 118.273 98.6028 118.597 99.3208C118.917 100.043 119.274 100.664 119.68 101.185C119.799 101.426 119.955 101.624 120.159 101.784C120.316 101.94 120.476 102.081 120.632 102.2C120.837 102.319 121.034 102.442 121.231 102.561C121.435 102.639 121.633 102.736 121.83 102.859C121.231 102.702 120.673 102.52 120.156 102.323C119.59 102.159 119.032 101.944 118.474 101.661C117.953 101.386 117.451 101.08 116.971 100.764C116.499 100.448 116.03 100.087 115.595 99.6854C114.996 99.0864 114.456 98.4726 113.976 97.829C113.496 97.23 113.095 96.5938 112.775 95.9093C112.455 95.2732 112.217 94.5886 112.053 93.8743C111.889 93.1526 111.815 92.4123 111.815 91.6496C111.815 90.8498 111.893 90.076 112.053 89.3133C112.217 88.5916 112.455 87.8959 112.775 87.2151C113.091 86.538 113.493 85.8944 113.976 85.2955C114.456 84.6593 114.992 84.0604 115.595 83.5023C116.034 83.1005 116.514 82.7397 117.034 82.4234C117.514 82.0998 117.994 81.8022 118.474 81.5194C119.032 81.2813 119.59 81.0618 120.156 80.8647C120.669 80.6675 121.227 80.5038 121.83 80.3848C121.592 80.4629 121.391 80.5596 121.231 80.6824C121.034 80.8014 120.837 80.9093 120.632 80.9874C120.476 81.1511 120.316 81.3037 120.159 81.4674C119.955 81.6236 119.799 81.8059 119.68 82.0031C119.278 82.483 118.917 83.0819 118.597 83.8037C118.273 84.5254 118.031 85.3438 117.879 86.259C117.637 87.1407 117.477 88.0373 117.399 88.9562C117.28 89.8379 117.217 90.7345 117.217 91.6534C117.217 92.5276 117.28 93.4279 117.399 94.3431Z" fill="white"/>
</g>
<mask id="mask6_2310_12629" style="mask-type:luminance" maskUnits="userSpaceOnUse" x="0" y="0" width="170" height="173">
<path d="M170 0H0V172.641H170V0Z" fill="white"/>
</mask>
<g mask="url(#mask6_2310_12629)">
<path d="M144.502 90.3852C144.424 91.0623 144.26 91.7282 144.022 92.3644C143.739 93.2052 143.367 94.0459 142.884 94.8867C142.404 95.7684 141.824 96.5869 141.146 97.3458C140.547 98.0675 139.904 98.7074 139.227 99.2654C138.505 99.8235 137.731 100.326 136.89 100.761C136.083 101.2 135.265 101.557 134.431 101.84C133.55 102.16 132.664 102.398 131.79 102.562C132.028 102.443 132.389 102.257 132.869 102.018C133.23 101.821 133.591 101.624 133.948 101.427C134.309 101.185 134.681 100.906 135.086 100.579C135.283 100.382 135.481 100.203 135.685 100.043C135.882 99.8458 136.079 99.6635 136.284 99.5073C136.44 99.3027 136.6 99.1055 136.764 98.9083C136.961 98.6665 137.103 98.4061 137.181 98.1308C137.378 97.6434 137.582 97.1486 137.78 96.6278C137.977 96.1144 138.163 95.5898 138.323 95.069C138.52 94.5519 138.639 93.9753 138.684 93.3317C138.762 92.6955 138.762 91.9775 138.684 91.1702C138.598 90.5713 138.479 89.9686 138.323 89.377C138.196 88.819 137.999 88.2759 137.724 87.7513C137.486 87.2379 137.203 86.7357 136.883 86.2558C136.522 85.8168 136.143 85.3815 135.737 84.9351C135.343 84.5407 134.863 84.1352 134.305 83.7334C133.739 83.3391 133.14 82.9559 132.504 82.5951C131.82 82.2007 131.065 81.8175 130.224 81.4567C129.35 81.0958 128.446 80.7573 127.527 80.4336C126.403 80.0392 125.343 79.6226 124.35 79.1762C123.349 78.7372 122.452 78.3131 121.652 77.9187C120.849 77.4797 120.135 77.0147 119.491 76.5422C118.847 76.0958 118.271 75.6605 117.754 75.2215C117.307 74.7751 116.913 74.284 116.552 73.7186C116.191 73.2015 115.875 72.6397 115.592 72.037C115.309 71.479 115.09 70.8428 114.937 70.1248C114.733 69.4477 114.591 68.726 114.513 67.9634C114.435 67.0445 114.413 66.1479 114.457 65.2662C114.495 64.3919 114.632 63.5512 114.874 62.7439C115.079 61.944 115.354 61.1888 115.715 60.4708C116.117 59.7081 116.589 58.9864 117.155 58.3093C117.672 57.6323 118.271 57.0296 118.955 56.5087C119.591 55.9507 120.268 55.4708 120.99 55.069C121.708 54.6747 122.508 54.3547 123.39 54.1092C124.231 53.8748 125.127 53.7148 126.087 53.6367H126.15H126.269H126.325H126.444C126.05 53.793 125.462 54.0199 124.707 54.2952C124.108 54.4924 123.505 54.8942 122.906 55.4968C122.307 56.0549 121.704 56.7952 121.106 57.7141C120.83 58.075 120.588 58.4767 120.391 58.9157C120.187 59.3547 120.03 59.857 119.904 60.4113C119.792 60.8912 119.729 61.4269 119.729 62.0296C119.688 62.5951 119.688 63.194 119.729 63.8302C119.848 64.5519 119.989 65.2513 120.153 65.9358C120.35 66.572 120.603 67.1709 120.931 67.729C121.247 68.2945 121.63 68.7893 122.069 69.232C122.508 69.6709 122.973 70.1062 123.453 70.5452C123.728 70.7498 124.108 70.9916 124.591 71.2669C125.071 71.5497 125.629 71.8473 126.273 72.1709C126.868 72.4462 127.586 72.7513 128.427 73.0675C129.223 73.3837 130.086 73.7446 131.013 74.1464C132.17 74.5482 133.23 74.9648 134.182 75.4038C135.142 75.8428 136.046 76.3004 136.887 76.7803C137.728 77.2267 138.483 77.6843 139.16 78.1642C139.837 78.6442 140.44 79.139 140.96 79.6598C141.518 80.1397 141.998 80.6605 142.4 81.2186C142.795 81.7357 143.155 82.2974 143.483 82.9001C143.758 83.4172 143.985 84.0162 144.138 84.6933C144.335 85.3778 144.476 86.0772 144.562 86.7989C144.562 87.0333 144.576 87.2937 144.617 87.5765C144.658 87.8592 144.681 88.1345 144.681 88.4172C144.688 89.0869 144.625 89.7453 144.502 90.3852Z" fill="white"/>
</g>
</g>
<defs>
<clipPath id="clip0_2310_12629">
<rect width="160" height="160" fill="white"/>
</clipPath>
</defs>
</svg>
