<svg width="330" height="77" viewBox="0 0 330 77" fill="none" xmlns="http://www.w3.org/2000/svg">
<g clip-path="url(#clip0_957_16433)">
<path d="M223.201 71.4249C223.75 70.9878 224.299 70.3866 224.299 69.3483C224.299 67.4356 221.939 66.5066 219.689 66.5066C217.933 66.5066 216.616 67.1077 215.518 67.5996L215.299 67.7089L215.957 68.9658L216.177 68.9111C217.11 68.4193 218.262 67.9821 219.689 67.9821C221.665 67.9821 222.872 68.6925 222.872 69.403C222.872 70.2227 221.884 70.8238 220.293 70.8238H218.756V72.2447H220.293C221.884 72.2447 223.531 72.7365 223.531 73.8841C223.531 75.141 221.061 75.5782 219.415 75.5782C217 75.5782 215.902 74.8131 215.244 74.4306L214.969 74.212L214.201 75.4142L214.42 75.5782C215.134 76.07 216.506 76.999 219.36 76.999C220.677 76.999 224.958 76.7804 224.958 73.8295C224.958 72.5179 224.025 71.8075 223.201 71.4249ZM205.255 72.354L207.011 72.2447C208.493 72.1354 210.03 71.2064 210.03 69.5669C210.03 67.7089 208.329 66.5066 205.639 66.5066C203.389 66.5066 202.127 67.217 201.194 67.7635L200.975 67.8728L201.633 69.1297L202.017 68.9111C202.621 68.5832 203.719 67.9821 205.639 67.9821C206.353 67.9821 208.603 68.0914 208.603 69.5669C208.603 70.1134 208.164 70.6052 207.176 70.7145L204.926 70.9331C202.292 71.2064 200.81 73.283 200.81 76.5619V76.7804H210.03V75.3049H202.237C202.347 74.2666 203.28 72.4633 205.255 72.354ZM190.547 71.6982C188.242 71.6982 187.035 70.8238 187.035 70.0041C187.035 68.7472 189.12 67.9821 190.986 67.9821C193.566 67.9821 194.663 69.3483 195.102 70.2773C194.663 70.6599 193.072 71.6982 190.547 71.6982ZM190.986 66.5066C188.407 66.5066 185.608 67.7089 185.608 69.9494C185.608 72.1354 188.077 73.119 190.547 73.119C192.303 73.119 193.95 72.6818 195.377 71.8621C195.157 73.7202 193.511 75.5782 190.602 75.5782C189.175 75.5782 188.187 75.0864 186.98 74.3213L186.815 74.2666L185.992 75.4142L186.157 75.5235C187.584 76.5072 189.065 76.999 190.547 76.999C194.06 76.999 196.804 74.6492 196.804 71.5889C196.804 68.6925 194.334 66.5066 190.986 66.5066ZM178.473 76.7804H179.9V66.7799H178.473V76.7804ZM163.271 71.9168L161.131 71.8621C160.253 71.8621 159.814 71.5342 159.814 70.9331C159.814 70.2773 160.637 69.9494 162.064 69.9494C163.381 69.9494 164.534 70.4413 165.247 70.8238L165.466 70.9878L166.015 69.8401L166.07 69.6762L165.906 69.5669C164.863 68.8565 163.436 68.474 161.899 68.474C159.759 68.474 158.387 69.4576 158.387 70.9331C158.387 72.7365 160.198 73.283 161.186 73.283L163.491 73.3376C164.04 73.3376 165.027 73.5016 165.027 74.3759C165.027 75.141 164.094 75.5782 162.448 75.5782C160.308 75.5782 159.155 74.7585 158.606 74.3213L158.442 74.212L157.838 75.3049L157.728 75.5235L157.893 75.6328C158.551 76.0154 159.978 76.999 162.558 76.999C165.96 76.999 166.454 75.3596 166.454 74.3759C166.454 72.6272 164.753 71.9714 163.271 71.9168ZM152.569 76.7804H153.996V68.7472H152.569V76.7804ZM146.039 73.6109C146.039 74.4852 145.764 75.5782 143.569 75.5782C141.374 75.5782 141.099 74.4852 141.099 73.6109V68.7472H139.672V73.6109C139.672 75.7968 141.044 76.999 143.569 76.999C146.093 76.999 147.465 75.7968 147.465 73.6109V68.7472H146.039V73.6109ZM132.538 72.4633H129.135V70.168H132.538C133.8 70.168 134.02 70.6052 134.02 71.3156C134.02 72.0261 133.8 72.4633 132.538 72.4633ZM132.538 68.7472H127.653V76.7804H129.135V73.8841H132.538C134.459 73.8841 135.501 72.9551 135.501 71.3156C135.501 68.9658 133.416 68.7472 132.538 68.7472ZM117.885 73.3923H121.123V71.9714H117.885V70.168H123.592V68.7472H116.458V76.7804H123.757V75.3049H117.885V73.3923ZM108.61 75.3049H105.591V70.168H108.665C110.146 70.168 111.134 71.1517 111.134 72.7365C111.134 74.3213 110.146 75.3049 108.61 75.3049ZM108.61 68.7472H104.164V76.7804H108.61C111.354 76.7804 112.561 74.7585 112.561 72.7365C112.561 70.7692 111.354 68.7472 108.61 68.7472ZM327.475 50.6587L325.994 50.768L324.512 50.6587L323.14 50.8226L321.548 50.6041H318.42L316.829 50.768L315.292 50.5494L312.328 50.6041L310.682 50.0029L309.914 48.1995L309.859 46.8333L310.133 38.9094L309.914 37.5432L310.133 36.5049V35.1933L309.914 33.8271L310.023 32.4063L309.859 31.2587L310.572 30.1657L311.944 29.346L313.536 29.5099L316.389 29.4006L317.981 29.2367L319.243 29.4006L322.426 29.346L323.798 29.6192L326.543 29.4006L327.969 28.6902L328.683 27.1601L328.024 25.8485L326.488 25.2474L325.006 25.4113L322.317 25.302L320.012 25.1381L317.213 25.2474L314.908 25.1381L313.426 25.302L312.164 25.2474L310.572 24.7555L309.914 23.2254L310.023 21.9685L309.859 20.8755L310.023 19.564L309.859 15.9026L310.023 14.8096L309.859 12.2412L309.914 7.81466L310.737 6.06593L312.328 5.3555L315.292 5.02762L318.42 4.97297L320.012 5.24621L321.384 5.13691L323.03 5.02762L324.512 5.19156L326.652 5.3555L329.067 4.64508L330 3.55212L329.89 2.40451L328.957 1.58479L327.695 0.929016L326.213 0.874368L321.768 0.929016L314.249 0.710424L309.859 1.03831L308.377 0.710424L307.06 1.03831L305.468 0.710424L304.096 1.2569L303.438 2.6231L303.657 3.66142L303.712 4.97297L303.822 6.33917L303.712 7.26818V8.52509L303.986 9.50875L303.712 12.6237L303.931 14.4271L303.822 15.7933L303.931 18.1978V19.2907L303.986 20.8209L303.822 24.3184L303.986 25.6299L303.712 26.9961L303.822 28.417L303.712 29.6192L303.657 31.8051L303.712 33.226L303.986 34.5922L303.931 35.8491L303.712 36.8328L303.931 38.199L303.712 39.2919L303.657 40.6035L303.931 44.4288L303.712 53.2272L304.59 54.4841L306.017 55.0852L308.926 55.1945L311.889 54.8666L313.261 55.0305L314.524 54.8666L316.005 55.0852L318.969 54.9212L320.396 55.0852L321.878 54.8666L323.305 54.9212H326.213L327.695 55.2491L329.177 54.648L329.78 53.4457L329.89 52.2981L329.067 51.1505L327.475 50.6587ZM288.565 9.50875L288.784 8.3065L288.565 6.88565L288.784 5.68339L288.565 3.49747L288.29 2.40451L287.357 1.31155L285.985 0.929016L284.394 0.874368L283.241 1.2569L282.583 2.40451L282.857 6.12058L282.747 7.26818L282.857 8.57974L282.638 9.78199L282.857 10.7657L282.638 12.569L282.912 14.4817L282.857 30.4389L283.022 31.4226L282.857 34.5375L283.022 36.2863L282.747 38.0897L283.022 39.8384V41.2592L282.857 42.5708L283.296 44.8114L283.241 48.6914L282.857 48.746L282.308 47.5984L281.485 44.9753L281.266 43.7184L280.881 42.4615L280.168 41.0953L279.729 39.8384L279.235 37.9804L276.162 30.5482L275.448 28.1437L274.076 24.7555L273.308 23.5533L272.869 22.4603L272.649 21.3674L267.6 8.3065L266.393 6.12058L266.228 4.80902L265.844 3.71606L265.295 2.6231L263.868 1.42085L262.441 0.710424L260.85 0.874368L258.545 0.765072L256.404 1.42085L255.691 2.7324L255.746 4.0986L255.581 9.89129L255.691 11.1482L255.581 15.0828L255.746 16.1212V17.4874L255.471 19.8919L255.746 21.0395L255.581 22.2417L255.691 23.6626L255.581 24.7009L255.691 26.0671L255.581 29.2367L255.856 32.1877L255.691 33.4446V35.3026L255.581 36.3956L255.746 39.4559L255.691 44.4835L255.856 45.959L255.691 47.1066L255.746 53.3365L256.514 54.3201L258.6 54.9212L260.85 54.4841L261.673 53.3365L261.508 48.4181L261.783 47.0519L261.563 45.6311V44.4288L261.673 43.3905L261.508 41.915L261.783 40.2209L261.563 38.3629L261.508 35.6851L261.673 34.5375L261.783 33.4446L261.563 32.0237L261.673 30.7122L261.399 25.7939L261.673 24.5916L261.508 17.8153L261.563 15.8479L261.399 14.5364L261.508 13.5527L261.289 12.2958L261.399 11.0935L261.234 9.78199L261.289 8.47044L261.234 7.26818L261.563 7.37748L262.112 8.36115L263.319 11.9133L263.539 13.0062L267.051 22.515L267.71 23.6079L267.875 24.8648L268.533 26.0124L269.356 28.5809L270.015 29.4006L270.344 30.6575L271.003 31.9144L271.771 34.5922L273.802 39.1826L274.076 40.057L275.613 43.7731L275.887 44.866L276.546 46.0136L276.93 47.3798L278.796 52.0795L279.345 53.1725L280.607 54.3201L282.308 55.0305L283.571 54.8666L285.272 54.9212H286.644L288.016 54.4841L288.675 52.8993V51.861L288.839 50.768L288.675 49.3471V47.9809L288.839 46.9426L288.675 41.915L288.839 40.6035V39.4012L288.675 38.199L288.839 37.1606L288.784 35.9037L288.839 30.7122L288.675 29.4006L288.839 28.3077L288.675 21.9138L288.839 20.8209L288.949 19.564L288.784 16.7223L288.949 15.7933L288.565 9.50875ZM241.093 9.50875L241.257 8.3065L241.093 6.88565L241.257 5.68339L241.093 3.49747L240.763 2.40451L239.885 1.31155L238.458 0.929016L236.922 0.874368L235.714 1.2569L235.056 2.40451L235.33 6.12058L235.22 7.26818L235.33 8.57974L235.165 9.78199L235.33 10.7657L235.165 12.569L235.44 14.4817L235.33 30.4389L235.495 31.4226L235.33 34.5375L235.495 36.2863L235.22 38.0897L235.495 39.8384V41.2592L235.33 42.5708L235.824 44.8114L235.714 48.6914L235.33 48.746L234.781 47.5984L233.958 44.9753L233.739 43.7184L233.409 42.4615L232.641 41.0953L232.202 39.8384L231.708 37.9804L228.69 30.5482L227.921 28.1437L226.549 24.7555L225.836 23.5533L225.342 22.4603L225.177 21.3674L220.073 8.3065L218.866 6.12058L218.701 4.80902L218.317 3.71606L217.768 2.6231L216.396 1.42085L214.914 0.710424L213.323 0.874368L211.018 0.765072L208.877 1.42085L208.164 2.7324L208.274 4.0986L208.054 9.89129L208.164 11.1482L208.054 15.0828L208.274 16.1212V17.4874L207.944 19.8919L208.274 21.0395L208.054 22.2417L208.164 23.6626L208.054 24.7009L208.164 26.0671L208.054 29.2367L208.329 32.1877L208.164 33.4446V35.3026L208.054 36.3956L208.274 39.4559L208.164 44.4835L208.329 45.959L208.164 47.1066L208.274 53.3365L208.987 54.3201L211.128 54.9212L213.323 54.4841L214.146 53.3365L213.981 48.4181L214.256 47.0519L214.091 45.6311V44.4288L214.146 43.3905L213.981 41.915L214.256 40.2209L214.091 38.3629L213.981 35.6851L214.146 34.5375L214.256 33.4446L214.091 32.0237L214.146 30.7122L213.872 25.7939L214.146 24.5916L213.981 17.8153L214.091 15.8479L213.872 14.5364L213.981 13.5527L213.817 12.2958L213.872 11.0935L213.707 9.78199L213.817 8.47044L213.707 7.26818L214.091 7.37748L214.64 8.36115L215.847 11.9133L216.012 13.0062L219.524 22.515L220.183 23.6079L220.348 24.8648L221.006 26.0124L221.829 28.5809L222.488 29.4006L222.872 30.6575L223.476 31.9144L224.244 34.5922L226.275 39.1826L226.549 40.057L228.141 43.7731L228.415 44.866L229.074 46.0136L229.403 47.3798L231.269 52.0795L231.818 53.1725L233.135 54.3201L234.781 55.0305L236.098 54.8666L237.745 54.9212H239.117L240.489 54.4841L241.148 52.8993V51.861L241.367 50.768L241.148 49.3471V47.9809L241.367 46.9426L241.148 41.915L241.367 40.6035V39.4012L241.148 38.199L241.367 37.1606L241.257 35.9037L241.367 30.7122L241.148 29.4006L241.367 28.3077L241.148 21.9138L241.367 20.8209L241.422 19.564L241.257 16.7223L241.422 15.7933L241.093 9.50875ZM177.924 6.06593L179.516 5.3555L182.48 5.02762L185.608 4.97297L187.199 5.24621L188.571 5.13691L190.218 5.02762L191.7 5.19156L193.84 5.3555L196.255 4.64508L197.188 3.55212L197.078 2.40451L196.145 1.58479L194.828 0.929016L193.346 0.874368L188.956 0.929016L181.437 0.710424L176.992 1.03831L175.51 0.710424L174.247 1.03831L172.656 0.710424L171.284 1.2569L170.625 2.6231L170.79 3.66142L170.9 4.97297L171.009 6.33917L170.9 7.26818V8.52509L171.174 9.50875L170.9 12.6237L171.064 14.4271L171.009 15.7933L171.064 18.1978V19.2907L171.174 20.8209L171.009 24.3184L171.174 25.6299L170.9 26.9961L171.009 28.417L170.9 29.6192L170.79 31.8051L170.9 33.226L171.174 34.5922L171.064 35.8491L170.9 36.8328L171.064 38.199L170.9 39.2919L170.79 40.6035L171.064 44.4288L170.9 53.2272L171.723 54.4841L173.205 55.0852L176.059 55.1945L179.022 54.8666L180.449 55.0305L181.711 54.8666L183.193 55.0852L186.157 54.9212L187.529 55.0852L189.01 54.8666L190.492 54.9212H193.346L194.828 55.2491L196.31 54.648L196.968 53.4457L197.078 52.2981L196.255 51.1505L194.663 50.6587L193.181 50.768L191.7 50.6587L190.328 50.8226L188.736 50.6041H185.608L184.016 50.768L182.48 50.5494L179.516 50.6041L177.815 50.0029L177.101 48.1995L176.992 46.8333L177.266 38.9094L177.101 37.5432L177.266 36.5049V35.1933L177.101 33.8271L177.211 32.4063L176.992 31.2587L177.76 30.1657L179.132 29.346L180.723 29.5099L183.577 29.4006L185.169 29.2367L186.431 29.4006L189.559 29.346L190.986 29.6192L193.73 29.4006L195.157 28.6902L195.871 27.1601L195.212 25.8485L193.675 25.2474L192.194 25.4113L189.504 25.302L187.199 25.1381L184.4 25.2474L182.095 25.1381L180.614 25.302L179.297 25.2474L177.76 24.7555L177.101 23.2254L177.211 21.9685L176.992 20.8755L177.211 19.564L176.992 15.9026L177.211 14.8096L176.992 12.2412L177.101 7.81466L177.924 6.06593ZM148.289 26.231L146.972 26.7775L145.49 27.4879L144.008 27.7612L142.691 27.8705L141.319 28.1437H136.983L135.117 27.9251L134.02 26.9415L133.581 25.6846L133.471 24.537L133.581 23.2801L133.361 22.2964L133.471 20.8209L133.361 19.0175L133.581 15.9572L133.361 14.6457L133.471 12.8423L133.635 11.3121L133.581 8.74368L133.471 7.76002L134.129 6.28452L135.062 5.5741L136.325 5.19156L137.916 5.02762L141.868 5.30086L145.49 5.90198L146.807 6.28452L147.905 6.831L149.167 7.76002L151.691 10.8203L152.13 12.0226L152.405 16.9409L152.35 18.7989L151.966 19.8919V21.2034L151.417 22.515L149.386 25.5206L148.289 26.231ZM158.222 52.6807L157.673 51.4784L156.466 49.2925L155.917 47.7624L154.381 44.8114L153.832 43.3905L153.448 42.4069L152.789 41.2592L152.35 40.2209L151.966 39.0733L151.307 38.0897L149.277 33.2806L149.002 31.9144L149.661 30.6575L150.868 29.7832L152.13 29.0727L153.338 28.417L154.435 27.5426L155.094 26.5589L156.027 25.466L156.795 24.3184L157.783 22.0778L158.058 20.6569L158.167 19.3454L158.332 18.1978L158.606 16.7769L158.826 14.9736L158.332 13.3888L158.058 10.9296L157.234 8.36115L156.192 7.21354L155.753 6.33917L154.71 5.51945L153.722 4.48114L152.624 3.71606L150.1 2.56846L148.618 2.02198L147.411 1.69409L145.764 1.20226L144.557 1.31155L142.526 1.09296L140.111 1.03831L138.3 0.765072L136.873 1.09296L135.337 0.765072L133.581 0.710424L131.879 1.03831L129.41 1.09296L127.763 2.13127L127.489 3.44282L127.763 5.79269L127.653 6.99494L127.379 8.1972L127.653 9.89129V11.9133L127.379 13.2248L127.269 14.3178L127.653 15.5747V16.8862L127.379 18.0885V20.6023L127.653 21.8046L127.763 27.9251L127.489 30.275L127.653 31.5865V32.8435L127.379 34.2097L127.653 38.4722L127.544 39.9477V41.4232L127.269 44.3195L127.379 46.5055L127.653 48.746L127.489 51.5331L127.544 52.5167L127.818 53.7736L128.971 54.648L130.397 55.0305L131.989 54.7573L133.087 53.7736L133.581 52.6807L133.635 38.5268L133.581 37.2153V36.0677L133.361 34.8108L133.635 33.4446L134.843 32.5156L136.27 32.4063L139.398 32.5702H141.044L142.252 33.6085L143.295 34.7561L143.843 35.7398L144.667 38.2536L145.325 39.2373L146.533 41.5325L146.862 42.5708L148.069 44.8114L148.453 45.9043L149.112 46.9426L149.441 48.1995L150.1 49.3471L150.484 50.6041L151.417 52.5167L152.405 53.9922L154.106 54.9212L156.137 55.1945L157.344 54.8666L158.332 53.7736L158.222 52.6807ZM108.61 35.1387L108.445 36.1223V38.8547L107.786 41.4778L106.963 43.7731L105.921 45.959L105.097 46.888L104.274 47.9809L103.231 48.746L102.024 48.9646L99.4445 50.1669L97.9628 50.5494L96.5907 50.6587L94.3955 50.5494L91.1575 50.4401L89.9501 49.8936L89.1269 48.3635V45.0846L89.2915 43.937V42.7347L89.0171 41.6964L89.1818 37.7618L89.0171 36.4502L89.2915 35.1933L89.1818 29.0181L89.1269 28.0344L89.0171 26.3403L89.1818 25.0834L89.2915 16.7223L89.1818 15.7933L89.1269 13.3341L89.4013 11.8586L89.1269 10.711V9.61805L89.2915 8.0879L89.1818 6.88565L89.7306 5.90198L91.3221 5.19156L92.8039 4.97297L97.1395 5.02762L98.3469 5.51945L99.9385 5.68339L101.146 6.06593L102.408 6.7217L103.341 7.59607L104.548 8.1972L105.536 9.29016L106.744 11.3121L107.512 13.7713L107.677 14.9189L108.171 16.1212L108.226 17.3234L108.445 18.635L108.994 26.0124L108.61 35.1387ZM114.811 19.8372L114.427 18.3617V17.0502L114.317 15.7386L113.878 14.6457L113.604 13.4981L113.329 12.0772L111.848 8.47044L111.299 7.54142L110.75 6.50311L110.091 5.68339L106.963 2.95099L104.384 1.96733L101.585 1.2569L100.103 1.20226L98.7311 1.03831L94.9443 0.929016L92.9137 0.655776L91.3221 0.874368L85.2303 0.765072L83.8583 1.63944L83.3095 2.7324L82.9253 6.33917L83.3095 8.90763L82.9802 14.8643L83.3095 16.1758L83.09 17.2688L83.3095 18.7989L82.9802 20.0558L83.09 21.2034L82.9802 22.2417L83.09 24.3184V26.0671L83.1997 28.0344L82.9802 29.8925L83.1997 31.0401L83.09 32.8981L83.3095 34.6468L83.09 35.8491L83.1997 37.2153L83.09 38.5268L83.3095 39.4559L82.9802 40.7674V44.5928L83.3095 45.7404V48.3635L83.09 49.4564L83.3095 50.9319L83.09 51.9156L83.1997 53.0632L83.9132 54.4841L86.0536 55.0852L89.4562 54.9212L90.8831 55.0852L96.7005 54.8666L98.1823 54.9212L99.5543 54.8666L101.75 54.4841L103.89 53.8283L105.097 53.3911L106.469 52.5167L107.622 51.9703L108.61 51.0412L109.707 50.1669L110.531 49.1286L111.409 48.1995L112.945 44.7021L113.22 43.4998L113.714 42.0243L113.988 39.9477L114.427 38.4722L114.701 37.3792L114.921 33.6085V31.0947L115.086 29.7832V22.2417L114.701 20.9848L114.811 19.8372ZM52.8505 6.06593L54.442 5.3555L57.4056 5.02762L60.5338 4.97297L62.1254 5.24621L63.4974 5.13691L65.1439 5.02762L66.6256 5.19156L68.766 5.3555L71.1808 4.64508L72.1138 3.55212L72.004 2.40451L71.071 1.58479L69.8087 0.929016L68.327 0.874368L63.8816 0.929016L56.3629 0.710424L51.9724 1.03831L50.4906 0.710424L49.1735 1.03831L47.5819 0.710424L46.2099 1.2569L45.5513 2.6231L45.7708 3.66142L45.8257 4.97297L45.9355 6.33917L45.8257 7.26818V8.52509L46.1001 9.50875L45.8257 12.6237L46.0452 14.4271L45.9355 15.7933L46.0452 18.1978V19.2907L46.1001 20.8209L45.9355 24.3184L46.1001 25.6299L45.8257 26.9961L45.9355 28.417L45.8257 29.6192L45.7708 31.8051L45.8257 33.226L46.1001 34.5922L46.0452 35.8491L45.8257 36.8328L46.0452 38.199L45.8257 39.2919L45.7708 40.6035L46.0452 44.4288L45.8257 53.2272L46.7038 54.4841L48.1856 55.0852L51.0394 55.1945L54.003 54.8666L55.375 55.0305L56.6373 54.8666L58.1191 55.0852L61.0827 54.9212L62.5096 55.0852L63.9914 54.8666L65.4183 54.9212H68.327L69.8087 55.2491L71.2905 54.648L71.8942 53.4457L72.004 52.2981L71.1808 51.1505L69.5892 50.6587L68.1074 50.768L66.6256 50.6587L65.2536 50.8226L63.6621 50.6041H60.5338L58.9972 50.768L57.4056 50.5494L54.442 50.6041L52.7956 50.0029L52.0273 48.1995L51.9724 46.8333L52.2468 38.9094L52.0273 37.5432L52.2468 36.5049V35.1933L52.0273 33.8271L52.137 32.4063L51.9724 31.2587L52.6858 30.1657L54.0579 29.346L55.6494 29.5099L58.5032 29.4006L60.0948 29.2367L61.3571 29.4006L64.5402 29.346L65.9122 29.6192L68.6562 29.4006L70.0832 28.6902L70.7966 27.1601L70.138 25.8485L68.6014 25.2474L67.1196 25.4113L64.4304 25.302L62.1254 25.1381L59.3265 25.2474L57.0215 25.1381L55.5397 25.302L54.2774 25.2474L52.6858 24.7555L52.0273 23.2254L52.137 21.9685L51.9724 20.8755L52.137 19.564L51.9724 15.9026L52.137 14.8096L51.9724 12.2412L52.0273 7.81466L52.8505 6.06593ZM34.5202 0.054648C34.2458 0.054648 34.0263 0 33.8616 0C33.2579 0 32.6543 0 32.0506 0.054648C31.7213 0.109296 31.6115 0.054648 31.5566 0.109296C31.5017 0.109296 31.5017 0.109296 31.4469 0.109296C31.392 0.163944 31.2822 0.27324 31.0078 0.382536C30.5688 0.655776 30.1297 0.983664 29.6907 1.2569L29.1967 3.55212L28.6479 4.75438L28.3735 6.12058L28.2089 7.26818L27.3857 10.9296L26.2332 14.4271L26.0685 15.7933L25.2453 18.0885L24.477 21.7499L23.9282 22.8975L23.7635 24.2091L23.3245 25.466L22.9952 26.6136L22.6659 27.7612L22.3915 29.7832L21.8976 30.8761L21.6231 32.7342L20.9097 34.9201L20.6902 36.3956L18.6047 45.959L18.4949 47.1066L18.001 48.4181L17.8364 48.3635L16.5192 43.6638L15.9155 39.8384L15.3667 38.1443L14.8728 35.5212L14.0496 32.6795L13.8849 31.368L13.391 30.3296L13.1166 29.182L12.8422 27.7612L12.5678 26.6136L12.1287 25.5206V24.373L11.086 20.7662L10.6469 19.564L8.61633 10.9296L8.1224 10.0006L7.68335 8.68903L6.91502 5.02762L6.47597 3.71606L6.36621 2.6231L5.15882 1.58479L3.34775 0.655776L1.92084 0.765072L0.439049 1.4755L0 3.33353L0.713454 5.02762V6.22987L1.20738 7.37748L2.19524 11.0935L2.41477 12.1865L2.96358 13.4981L3.62215 16.9409L4.28073 18.1978L4.44537 19.4547L4.88442 20.7662L5.8174 24.2091L5.98204 25.6846L6.31133 26.7775L6.75037 27.9251L6.91502 29.0727L7.46383 30.1657L7.68335 31.5865L9.71395 38.6908L9.8786 39.8384L10.4274 41.2592L10.6469 42.4615L11.086 43.4998L11.4701 45.9043L12.1287 47.2159L12.458 49.675L13.2263 52.2435L13.5007 53.3365L14.7081 54.2655L16.2448 55.0305L17.9461 55.0852L19.4828 54.7573L20.9646 54.2655L22.1171 53.2272L22.3915 51.7517L23.7635 47.2159L24.0379 45.9043L24.8611 43.3905L25.6295 40.057L26.1783 38.6361L26.2332 37.3792L27.6601 32.8435L27.8247 31.4773L28.2638 30.111L28.4833 28.9634L28.8675 27.7612L29.0321 26.7229L31.2273 19.5093V18.0885L35.6727 2.40451L35.8922 1.3662C35.7276 0.655776 35.0141 0.327888 34.5202 0.054648Z" fill="#4D96AB"/>
</g>
<defs>
<clipPath id="clip0_957_16433">
<rect width="330" height="77" fill="white"/>
</clipPath>
</defs>
</svg>
