<svg width="42" height="42" viewBox="0 0 42 42" fill="none" xmlns="http://www.w3.org/2000/svg">
<path d="M21 7.25C28.5625 7.25 34.75 13.4375 34.75 21C34.75 28.5625 28.5625 34.75 21 34.75C13.4375 34.75 7.25 28.5625 7.25 21V16.875" stroke="#07E069" stroke-width="2" stroke-miterlimit="10" stroke-linecap="round" stroke-linejoin="round"/>
<path d="M12.75 22.375L7.25 16.875L1.75 22.375" stroke="#07E069" stroke-width="2" stroke-miterlimit="10" stroke-linecap="round" stroke-linejoin="round"/>
<path d="M21 1.75C31.5875 1.75 40.25 10.4125 40.25 21C40.25 31.5875 31.5875 40.25 21 40.25" stroke="#07E069" stroke-width="2" stroke-miterlimit="10" stroke-linecap="round" stroke-linejoin="round"/>
<path d="M24.2442 22.9142C25.5718 22.9142 26.8451 22.3788 27.7838 21.4257C28.7226 20.4726 29.25 19.18 29.25 17.8321C29.25 16.4842 28.7226 15.1916 27.7838 14.2385C26.8451 13.2854 25.5718 12.75 24.2442 12.75H16.875V14.2871H18.7649V21.3771H16.875V22.9142H18.7649V25.0229H16.875V26.56H18.7649V29.25H20.2789V26.56H24.8238V25.0229H20.2789V22.9142H24.2442ZM20.2789 14.2871H24.2442C24.7027 14.2871 25.1568 14.3788 25.5804 14.557C26.0041 14.7351 26.389 14.9962 26.7132 15.3254C27.0375 15.6546 27.2947 16.0454 27.4702 16.4755C27.6456 16.9056 27.7359 17.3666 27.7359 17.8321C27.7359 18.2976 27.6456 18.7586 27.4702 19.1887C27.2947 19.6188 27.0375 20.0096 26.7132 20.3388C26.389 20.668 26.0041 20.9291 25.5804 21.1072C25.1568 21.2854 24.7027 21.3771 24.2442 21.3771H20.2789V14.2871Z" fill="#07E069" stroke="#07E069" stroke-width="0.5"/>
</svg>
