<svg width="180" height="180" viewBox="0 0 180 180" fill="none" xmlns="http://www.w3.org/2000/svg">
<path d="M170.875 90C170.875 134.666 134.666 170.875 90 170.875C45.334 170.875 9.125 134.666 9.125 90C9.125 45.334 45.334 9.125 90 9.125C134.666 9.125 170.875 45.334 170.875 90Z" stroke="#4D96AB" stroke-width="7"/>
<path d="M113.354 44.5322V44.9966L113.616 45.3798L125.05 62.0724V143.084C125.05 144.413 123.975 145.487 122.651 145.487H99.2588H95.8475H57.3479C56.0239 145.487 54.9492 144.413 54.9492 143.084V96.6839V77.1688V62.0724L66.3828 45.3798L66.6453 44.9966V44.5322V37.7019C66.6453 36.3723 67.72 35.2988 69.044 35.2988H110.955C112.279 35.2988 113.354 36.3723 113.354 37.7019V44.5322Z" fill="#4D96AB" fill-opacity="0.46" stroke="#4D96AB" stroke-width="3"/>
<path d="M114.759 44.8037L126.55 61.3103H102.969L114.759 44.8037Z" fill="#4D96AB"/>
<path d="M126.55 61.3096V143.07C126.55 145.234 124.791 146.986 122.62 146.986H99.0391C101.21 146.986 102.969 145.234 102.969 143.07V102.307V82.7239V61.3096H126.55Z" fill="#4D96AB"/>
<path d="M102.969 82.9953V102.388C95.32 105.636 89.4456 105.675 85.2486 104.938C76.8934 103.471 73.4319 98.6207 63.6444 96.9384C59.979 96.3082 56.5345 96.313 53.4492 96.6451V77.2527C56.5345 76.9206 59.979 76.9158 63.6444 77.5461C73.4319 79.2283 76.8934 84.0789 85.2486 85.5454C89.4456 86.2823 95.32 86.2435 102.969 82.9953Z" fill="#4D96AB"/>
<path d="M66.0256 99.1707V145.044C66.0256 146.117 65.1247 146.987 64.0134 146.987H57.4737C55.2509 146.987 53.4492 145.248 53.4492 143.101V96.9037C57.2634 96.5066 60.9596 96.6528 64.3671 97.2564C65.3261 97.4261 66.0256 98.2288 66.0256 99.1707Z" fill="#4D96AB" fill-opacity="0.38"/>
<path d="M102.969 61.3096V66.6335C102.969 67.7027 102.099 68.5695 101.027 68.5695H91.0283C83.0748 68.5695 75.9736 72.2077 71.3108 77.9049C70.7932 78.5372 69.9271 78.7628 69.1571 78.4852C67.5351 77.9005 65.734 77.3974 63.6444 77.0395C59.979 76.4103 56.5345 76.4151 53.4492 76.7467V61.3096H102.969Z" fill="#4D96AB" fill-opacity="0.38"/>
<path d="M114.759 44.8037L103 61.3103H71.1372C69.2153 61.3103 68.4329 58.9119 70.023 57.8731C74.4185 55.0019 77.7045 50.881 79.5982 46.0094C79.8819 45.2796 80.6163 44.8037 81.4257 44.8037H114.759Z" fill="#4D96AB" fill-opacity="0.7"/>
</svg>
