<svg width="170" height="170" viewBox="0 0 170 170" fill="none" xmlns="http://www.w3.org/2000/svg">
<path d="M165.875 85C165.875 129.666 129.666 165.875 85 165.875C40.334 165.875 4.125 129.666 4.125 85C4.125 40.334 40.334 4.125 85 4.125C129.666 4.125 165.875 40.334 165.875 85Z" stroke="#4D96AB" stroke-width="7"/>
<g clip-path="url(#clip0_2906_12783)">
<path fill-rule="evenodd" clip-rule="evenodd" d="M78.4217 121.573C78.1726 121.573 77.9235 121.673 77.7491 121.856C77.5664 122.03 77.4668 122.279 77.4668 122.528C77.4668 122.777 77.5664 123.026 77.7491 123.201C77.9318 123.375 78.1726 123.483 78.4217 123.483H93.334C93.5831 123.483 93.8322 123.383 94.0066 123.201C94.1892 123.018 94.2889 122.777 94.2889 122.528C94.2889 122.279 94.1892 122.03 94.0066 121.856C93.8322 121.673 93.5831 121.573 93.334 121.573H78.4217Z" fill="#4D96AB"/>
<path fill-rule="evenodd" clip-rule="evenodd" d="M93.334 125.617H78.4217C78.1726 125.617 77.9235 125.717 77.7491 125.899C77.5664 126.082 77.4668 126.323 77.4668 126.572C77.4668 126.821 77.5664 127.07 77.7491 127.245C77.9318 127.427 78.1726 127.527 78.4217 127.527H93.334C93.5831 127.527 93.8322 127.427 94.0066 127.245C94.1892 127.062 94.2889 126.821 94.2889 126.572C94.2889 126.323 94.1892 126.074 94.0066 125.899C93.8322 125.717 93.5831 125.617 93.334 125.617Z" fill="#4D96AB"/>
<path fill-rule="evenodd" clip-rule="evenodd" d="M75.1252 105.648C75.1584 105.764 75.2165 105.88 75.2995 105.98C75.3743 106.08 75.4739 106.163 75.5818 106.221C75.6898 106.279 75.8143 106.32 75.9389 106.329C76.0634 106.345 76.188 106.329 76.3125 106.295C77.9316 105.814 79.667 105.847 81.2612 106.395C82.8637 106.943 84.2503 107.981 85.2301 109.351C85.0972 109.434 84.9727 109.525 84.8481 109.617C83.8933 110.414 83.2373 111.518 83.0048 112.739C82.764 113.959 82.9633 115.23 83.5445 116.326C84.134 117.422 85.0806 118.285 86.2347 118.767C87.3806 119.248 88.6675 119.315 89.8549 118.958C91.0505 118.601 92.0884 117.845 92.7859 116.824C93.4916 115.794 93.8155 114.557 93.7075 113.312C93.5996 112.074 93.0765 110.904 92.2047 110.007C91.3411 109.11 90.1953 108.537 88.9581 108.388C89.3567 107.707 89.6224 106.96 89.722 106.179C89.8134 105.332 89.7386 104.469 89.4895 103.655C89.2404 102.833 88.8336 102.077 88.2939 101.422C88.1361 101.222 87.912 101.089 87.6629 101.056C87.4138 101.023 87.1564 101.089 86.9571 101.247C85.886 102.044 85.0723 103.14 84.6239 104.402C84.5824 104.519 84.5658 104.643 84.5741 104.776C84.5824 104.901 84.6156 105.025 84.6737 105.133C84.7319 105.249 84.8066 105.349 84.8979 105.432C84.9893 105.515 85.1055 105.573 85.2217 105.615C85.338 105.656 85.4625 105.673 85.5954 105.664C85.7199 105.656 85.8445 105.623 85.9524 105.565C86.0687 105.507 86.1683 105.432 86.2513 105.341C86.3344 105.249 86.3925 105.133 86.434 105.017C86.6416 104.444 86.9654 103.912 87.3889 103.472C87.7957 104.22 87.9701 105.083 87.8787 105.93C87.7459 106.785 87.3639 107.582 86.7661 108.205C85.5539 106.52 83.8434 105.258 81.8756 104.585C79.9078 103.912 77.7822 103.871 75.7894 104.46C75.6649 104.494 75.5569 104.552 75.4573 104.627C75.3577 104.701 75.2746 104.801 75.2165 104.909C75.1584 105.017 75.1169 105.141 75.1003 105.266C75.0837 105.39 75.1003 105.515 75.1335 105.64L75.1252 105.648ZM91.8227 113.752C91.831 114.341 91.6816 114.922 91.4076 115.445C91.1253 115.969 90.7184 116.409 90.2202 116.724C89.722 117.048 89.1574 117.231 88.5596 117.272C87.9701 117.314 87.3806 117.206 86.8409 116.948C86.3012 116.699 85.8445 116.317 85.4958 115.836C85.147 115.362 84.9228 114.798 84.8481 114.217C84.7734 113.627 84.8481 113.038 85.0723 112.49C85.2882 111.942 85.6452 111.452 86.1019 111.078L86.1766 111.02C86.2679 111.261 86.3593 111.51 86.434 111.751C86.4921 111.958 86.6167 112.133 86.791 112.257C86.9654 112.382 87.173 112.448 87.3889 112.44C87.4802 112.448 87.5715 112.448 87.6629 112.44C87.7791 112.407 87.8953 112.34 87.995 112.265C88.0946 112.182 88.1693 112.091 88.2358 111.975C88.2939 111.867 88.3354 111.742 88.3437 111.618C88.352 111.493 88.3437 111.369 88.3105 111.244C88.2192 110.929 88.1112 110.638 87.9867 110.289C88.1195 110.289 88.2524 110.289 88.3935 110.289C89.2986 110.306 90.1704 110.679 90.8097 111.319C91.4491 111.966 91.8144 112.83 91.831 113.735L91.8227 113.752Z" fill="#4D96AB"/>
<path fill-rule="evenodd" clip-rule="evenodd" d="M112.92 123.491H127.824C128.073 123.491 128.322 123.391 128.496 123.208C128.679 123.026 128.779 122.785 128.779 122.536C128.779 122.287 128.679 122.038 128.496 121.863C128.314 121.681 128.073 121.581 127.824 121.581H112.92C112.671 121.581 112.422 121.681 112.247 121.863C112.064 122.038 111.965 122.287 111.965 122.536C111.965 122.785 112.064 123.034 112.247 123.208C112.422 123.383 112.671 123.491 112.92 123.491Z" fill="#4D96AB"/>
<path fill-rule="evenodd" clip-rule="evenodd" d="M127.832 125.625H112.928C112.678 125.625 112.429 125.725 112.255 125.907C112.072 126.09 111.973 126.331 111.973 126.58C111.973 126.829 112.072 127.078 112.255 127.252C112.429 127.435 112.678 127.535 112.928 127.535H127.832C128.081 127.535 128.33 127.435 128.504 127.252C128.687 127.07 128.786 126.829 128.786 126.58C128.786 126.331 128.687 126.082 128.504 125.907C128.321 125.725 128.081 125.625 127.832 125.625Z" fill="#4D96AB"/>
<path fill-rule="evenodd" clip-rule="evenodd" d="M118.956 118.301C119.197 118.301 119.446 118.301 119.686 118.301H119.778C121.496 118.135 123.132 117.463 124.469 116.375C125.806 115.279 126.794 113.818 127.309 112.165C127.815 110.513 127.823 108.745 127.334 107.092C126.844 105.432 125.872 103.962 124.544 102.858C124.444 102.775 124.336 102.716 124.212 102.683C124.087 102.65 123.962 102.633 123.838 102.65C123.589 102.675 123.356 102.8 123.199 102.99L113.227 114.939C113.144 115.038 113.085 115.146 113.052 115.262C113.011 115.379 113.002 115.512 113.011 115.636C113.019 115.761 113.061 115.885 113.119 115.993C113.177 116.101 113.26 116.201 113.351 116.284C114.92 117.596 116.905 118.31 118.947 118.301H118.956ZM125.797 109.882C125.739 111.036 125.399 112.157 124.785 113.145L121.347 110.289L125.797 109.89V109.882ZM123.564 114.648C122.709 115.429 121.671 115.985 120.542 116.251L120.118 111.792L123.556 114.648H123.564ZM124.021 104.992C124.801 105.83 125.357 106.86 125.623 107.972L121.181 108.379L124.021 104.983V104.992ZM118.225 111.966L118.632 116.417C117.478 116.375 116.357 116.051 115.36 115.462L118.217 111.966H118.225Z" fill="#4D96AB"/>
<path fill-rule="evenodd" clip-rule="evenodd" d="M46.3951 114.216C46.7272 114.789 47.1258 115.312 47.5825 115.786C48.8694 117.197 50.6048 118.111 52.4979 118.368H52.9712C53.7268 118.36 54.474 118.194 55.1632 117.886C55.8524 117.579 56.4668 117.131 56.9816 116.574C57.4881 116.018 57.8783 115.362 58.1274 114.648C58.3765 113.934 58.4761 113.179 58.418 112.423C58.1689 110.53 57.2556 108.786 55.8441 107.508C54.9722 106.71 53.9592 106.063 52.8715 105.598H52.8217C50.1149 104.452 47.2836 103.663 44.3775 103.231C44.2363 103.215 44.0869 103.223 43.9457 103.273C43.8046 103.323 43.68 103.397 43.5804 103.497C43.4724 103.597 43.3977 103.73 43.3479 103.862C43.2981 104.004 43.2815 104.153 43.3064 104.294C43.3562 104.593 44.1699 110.48 46.3619 114.142L46.3868 114.2L46.3951 114.216ZM52.6723 116.467C51.3521 116.276 50.1315 115.645 49.2099 114.681L53.3282 114.607L54.6982 115.977C54.0921 116.35 53.378 116.525 52.664 116.467H52.6723ZM56.4834 112.655C56.5747 113.353 56.4419 114.067 56.1014 114.69L53.0542 111.642L53.2452 107.956C53.6935 108.222 54.1004 108.545 54.474 108.911C55.57 109.874 56.2924 111.186 56.5249 112.631L56.4834 112.672V112.655ZM51.4185 107.059L51.2192 109.849L49.6831 108.313C49.5918 108.222 49.4922 108.155 49.3759 108.105C49.2597 108.056 49.1351 108.031 49.0106 108.031C48.8861 108.031 48.7615 108.056 48.6453 108.105C48.529 108.155 48.4211 108.222 48.338 108.313C48.1637 108.496 48.064 108.736 48.064 108.985C48.064 109.235 48.1637 109.475 48.338 109.658L51.4683 112.772L47.7817 112.846C46.6525 110.48 45.8554 107.972 45.4154 105.382C47.4662 105.747 49.4839 106.304 51.4268 107.051L51.4185 107.059Z" fill="#4D96AB"/>
<path fill-rule="evenodd" clip-rule="evenodd" d="M36 89.1243C36 89.3236 36.0664 89.5146 36.1827 89.6723C36.2989 89.8301 36.465 89.9546 36.6476 90.0128V139.549C36.6476 141.01 37.2289 142.414 38.2667 143.443C39.3046 144.473 40.7079 145.054 42.1692 145.054H59.5891C61.0505 145.054 62.4537 144.473 63.4916 143.443C64.5295 142.414 65.1107 141.01 65.1107 139.549V90.0128C65.3017 89.9463 65.4594 89.8301 65.5757 89.6723C65.6919 89.5146 65.7583 89.3153 65.7583 89.1243V81.8259C65.7666 80.6884 65.3432 79.5841 64.571 78.7455C57.1065 72.9333 55.9939 56.0946 56.409 54.5087C56.409 54.3758 56.3841 54.2513 56.3343 54.1351C56.2845 54.0188 56.2098 53.9109 56.1184 53.8195C56.0271 53.7282 55.9108 53.6618 55.7946 53.6203C55.6701 53.5787 55.5455 53.5538 55.4127 53.5621C55.1719 53.5704 54.9394 53.6784 54.7733 53.861C54.6073 54.0354 54.5076 54.2762 54.5076 54.517C54.5076 54.8408 54.6405 57.4231 55.0307 61.0515H46.7359C47.1179 57.4231 47.2507 54.8408 47.259 54.517C47.259 54.2762 47.1677 54.0354 46.9933 53.861C46.8272 53.6867 46.5948 53.5787 46.354 53.5621C46.2211 53.5538 46.0966 53.5787 45.972 53.6203C45.8475 53.6618 45.7395 53.7365 45.6482 53.8195C45.5569 53.9109 45.4821 54.0188 45.4323 54.1351C45.3825 54.2513 45.3576 54.3841 45.3576 54.5087C45.889 55.6711 45.1085 72.9831 37.1956 78.7455C36.4235 79.5841 35.9917 80.6801 36.0083 81.8259V89.1243H36ZM63.201 133.978H38.5574V98.1415H63.201V133.978ZM59.5891 143.153H42.1692C41.2143 143.153 40.2927 142.771 39.6202 142.098C38.9393 141.426 38.5574 140.504 38.5574 139.549V135.879H63.201V139.549C63.201 140.504 62.819 141.426 62.1382 142.098C61.4573 142.771 60.544 143.153 59.5891 143.153ZM55.2466 63.036C55.4293 64.5887 55.6534 66.2576 55.9441 67.9929H45.8226C46.1049 66.2576 46.3374 64.5887 46.52 63.036H55.2466ZM37.9097 81.8259C37.9014 81.17 38.1422 80.5389 38.5823 80.0573C42.1194 76.2462 43.7136 74.5939 45.15 69.9193C45.2247 69.9276 45.6482 69.8777 45.7229 69.8694H56.0354C56.1101 69.8777 56.5834 69.8528 56.6581 69.8445C59.8631 76.13 59.6389 76.296 63.1761 80.0573C63.6161 80.5389 63.8652 81.1783 63.8486 81.8259V88.1695H55.1553C54.9062 88.1695 54.6571 88.2691 54.4827 88.4518C54.3 88.6261 54.2004 88.8752 54.2004 89.1243C54.2004 89.3734 54.3 89.6225 54.4827 89.7969C54.6654 89.9795 54.9062 90.0792 55.1553 90.0792H63.2259V96.2484H38.5491V90.0792H50.7131C50.9622 90.0792 51.2113 89.9795 51.3856 89.7969C51.5683 89.6142 51.668 89.3734 51.668 89.1243C51.668 88.8752 51.5683 88.6261 51.3856 88.4518C51.203 88.2691 50.9622 88.1695 50.7131 88.1695H37.9014V81.8259H37.9097Z" fill="#4D96AB"/>
<path fill-rule="evenodd" clip-rule="evenodd" d="M43.4236 123.515H58.3277C58.5768 123.515 58.8259 123.416 59.0002 123.233C59.1829 123.05 59.2825 122.809 59.2825 122.56C59.2825 122.311 59.1829 122.062 59.0002 121.888C58.8176 121.705 58.5768 121.605 58.3277 121.605H43.4236C43.1745 121.605 42.9254 121.705 42.7511 121.888C42.5684 122.062 42.4688 122.311 42.4688 122.56C42.4688 122.809 42.5684 123.059 42.7511 123.233C42.9337 123.407 43.1745 123.515 43.4236 123.515Z" fill="#4D96AB"/>
<path fill-rule="evenodd" clip-rule="evenodd" d="M58.3355 125.649H43.4314C43.1823 125.649 42.9332 125.749 42.7589 125.932C42.5762 126.114 42.4766 126.355 42.4766 126.604C42.4766 126.853 42.5762 127.102 42.7589 127.277C42.9415 127.459 43.1823 127.559 43.4314 127.559H58.3355C58.5846 127.559 58.8337 127.459 59.008 127.277C59.1907 127.094 59.2903 126.853 59.2903 126.604C59.2903 126.355 59.1907 126.106 59.008 125.932C58.8254 125.749 58.5846 125.649 58.3355 125.649Z" fill="#4D96AB"/>
<path fill-rule="evenodd" clip-rule="evenodd" d="M55.7779 139.316H45.9802C45.7312 139.316 45.4821 139.416 45.3077 139.599C45.125 139.773 45.0254 140.022 45.0254 140.271C45.0254 140.52 45.125 140.769 45.3077 140.944C45.4904 141.126 45.7312 141.226 45.9802 141.226H55.7779C56.027 141.226 56.2761 141.126 56.4505 140.944C56.6248 140.769 56.7328 140.52 56.7328 140.271C56.7328 140.022 56.6331 139.773 56.4505 139.599C56.2678 139.416 56.027 139.316 55.7779 139.316Z" fill="#4D96AB"/>
<path fill-rule="evenodd" clip-rule="evenodd" d="M36.7314 27.3574V30.5209C36.7314 30.77 36.8311 31.0191 37.0138 31.1934C37.1964 31.3761 37.4372 31.4757 37.6863 31.4757C37.9354 31.4757 38.1845 31.3761 38.3589 31.1934C38.5332 31.0107 38.6412 30.77 38.6412 30.5209V28.3122H45.6241V29.7238C45.6241 29.9729 45.7237 30.222 45.9064 30.3963C46.089 30.579 46.3298 30.6786 46.5789 30.6786H49.9583V38.9153H47.4508C47.2017 38.9153 46.9526 39.0149 46.7782 39.1976C46.5955 39.372 46.4959 39.6211 46.4959 39.8702C46.4959 40.1193 46.5955 40.3683 46.7782 40.5427C46.9609 40.7254 47.2017 40.825 47.4508 40.825H49.9168V42.2199H46.4544C46.2053 42.2199 45.9562 42.3196 45.7818 42.5022C45.5992 42.6849 45.4995 42.9257 45.4995 43.1748V52.001C45.4995 52.2501 45.5992 52.4992 45.7818 52.6735C45.9645 52.8562 46.2053 52.9558 46.4544 52.9558H55.2806C55.5297 52.9558 55.7788 52.8562 55.9531 52.6735C56.1358 52.4909 56.2354 52.2501 56.2354 52.001V43.1748C56.2354 42.9257 56.1358 42.6766 55.9531 42.5022C55.7788 42.3196 55.5297 42.2199 55.2806 42.2199H51.8182V40.825H54.2842C54.5333 40.825 54.7824 40.7254 54.9568 40.5427C55.1394 40.36 55.2391 40.1193 55.2391 39.8702C55.2391 39.6211 55.1394 39.372 54.9568 39.1976C54.7741 39.0149 54.5333 38.9153 54.2842 38.9153H51.8182V30.6786H55.1976C55.4466 30.6786 55.6957 30.579 55.8701 30.3963C56.0528 30.2137 56.1524 29.9729 56.1524 29.7238V24.9578C56.1524 24.7087 56.0528 24.4596 55.8701 24.2852C55.6874 24.1026 55.4466 24.0029 55.1976 24.0029H46.5623C46.3132 24.0029 46.0641 24.1026 45.8898 24.2852C45.7071 24.4679 45.6075 24.7087 45.6075 24.9578V26.4108H37.6697C37.4206 26.4108 37.1715 26.5105 36.9971 26.6931C36.8145 26.8758 36.7148 27.1166 36.7148 27.3657L36.7314 27.3574ZM54.334 51.0295H47.4175V44.113H54.334V51.0295ZM47.5255 25.9209H54.2925V28.7772H47.5255V25.9209Z" fill="#4D96AB"/>
<path fill-rule="evenodd" clip-rule="evenodd" d="M47.5332 29.2672H55.1555V25.4478H47.5332V29.2672Z" fill="#4D96AB" fill-opacity="0.658824"/>
<path fill-rule="evenodd" clip-rule="evenodd" d="M46.5781 51.1872H55.1552V43.5566H46.5781V51.1872Z" fill="#4D96AB" fill-opacity="0.658824"/>
<path fill-rule="evenodd" clip-rule="evenodd" d="M45.1504 68.3416L46.1052 62.1475H55.6372L57.0653 68.3416H45.1504Z" fill="#4D96AB" fill-opacity="0.678431"/>
<path fill-rule="evenodd" clip-rule="evenodd" d="M37.0469 135.057H63.733V98.1494H37.0469V135.057Z" fill="#4D96AB" fill-opacity="0.560784"/>
<path fill-rule="evenodd" clip-rule="evenodd" d="M70.4824 89.1243C70.4824 89.3236 70.5488 89.5146 70.6651 89.6723C70.7813 89.8301 70.9474 89.9546 71.1301 90.0128V139.549C71.1301 141.01 71.7113 142.414 72.7492 143.443C73.7871 144.473 75.1903 145.054 76.6516 145.054H94.0715C95.5329 145.054 96.9361 144.473 97.974 143.443C99.0119 142.414 99.5931 141.01 99.5931 139.549V90.0128C99.7841 89.9463 99.9418 89.8301 100.058 89.6723C100.174 89.5146 100.241 89.3153 100.241 89.1243V81.8259C100.249 80.6884 99.8256 79.5841 99.0534 78.7455C91.5889 72.9333 90.4763 56.0946 90.8915 54.5087C90.8915 54.3758 90.8665 54.2513 90.8167 54.1351C90.7669 54.0188 90.6922 53.9109 90.6008 53.8195C90.5095 53.7282 90.3933 53.6618 90.277 53.6203C90.1525 53.5787 90.0279 53.5538 89.8951 53.5621C89.6543 53.5704 89.4218 53.6784 89.2557 53.861C89.0897 54.0354 88.99 54.2762 88.99 54.517C88.99 54.8408 89.1229 57.4231 89.5131 61.0515H81.2183C81.6003 57.4231 81.7331 54.8408 81.7414 54.517C81.7414 54.2762 81.6501 54.0354 81.4757 53.861C81.3097 53.6867 81.0772 53.5787 80.8364 53.5621C80.7035 53.5538 80.579 53.5787 80.4545 53.6203C80.3299 53.6618 80.222 53.7365 80.1306 53.8195C80.0393 53.9109 79.9646 54.0188 79.9147 54.1351C79.8649 54.2513 79.84 54.3841 79.84 54.5087C80.3714 55.6711 79.5909 72.9831 71.6781 78.7455C70.9059 79.5841 70.4741 80.6801 70.4907 81.8259V89.1243H70.4824ZM97.6834 133.978H73.0398V98.1415H97.6834V133.978ZM94.0715 143.153H76.6516C75.6968 143.153 74.7751 142.771 74.1026 142.098C73.4217 141.426 73.0398 140.504 73.0398 139.549V135.879H97.6834V139.549C97.6834 140.504 97.3014 141.426 96.6206 142.098C95.9397 142.771 95.0264 143.153 94.0715 143.153ZM89.729 63.036C89.9117 64.5887 90.1359 66.2576 90.4265 67.9929H80.305C80.5873 66.2576 80.8198 64.5887 81.0025 63.036H89.729ZM72.3921 81.8259C72.3838 81.17 72.6246 80.5389 73.0647 80.0573C76.6018 76.2462 78.196 74.5939 79.6324 69.9193C79.7072 69.9276 80.1306 69.8777 80.2054 69.8694H90.5178C90.5925 69.8777 91.0658 69.8528 91.1405 69.8445C94.3455 76.13 94.1214 76.296 97.6585 80.0573C98.0985 80.5389 98.3476 81.1783 98.331 81.8259V88.1695H89.6377C89.3886 88.1695 89.1395 88.2691 88.9651 88.4518C88.7825 88.6261 88.6828 88.8752 88.6828 89.1243C88.6828 89.3734 88.7825 89.6225 88.9651 89.7969C89.1478 89.9795 89.3886 90.0792 89.6377 90.0792H97.7083V96.2484H73.0315V90.0792H85.1955C85.4446 90.0792 85.6937 89.9795 85.8681 89.7969C86.0507 89.6142 86.1504 89.3734 86.1504 89.1243C86.1504 88.8752 86.0507 88.6261 85.8681 88.4518C85.6854 88.2691 85.4446 88.1695 85.1955 88.1695H72.3838V81.8259H72.3921Z" fill="#4D96AB"/>
<path fill-rule="evenodd" clip-rule="evenodd" d="M90.2603 139.316H80.4627C80.2136 139.316 79.9645 139.416 79.7901 139.599C79.6074 139.773 79.5078 140.022 79.5078 140.271C79.5078 140.52 79.6074 140.769 79.7901 140.944C79.9728 141.126 80.2136 141.226 80.4627 141.226H90.2603C90.5094 141.226 90.7585 141.126 90.9329 140.944C91.1072 140.769 91.2152 140.52 91.2152 140.271C91.2152 140.022 91.1156 139.773 90.9329 139.599C90.7502 139.416 90.5094 139.316 90.2603 139.316Z" fill="#4D96AB"/>
<path fill-rule="evenodd" clip-rule="evenodd" d="M71.2139 27.3574V30.5209C71.2139 30.77 71.3135 31.0191 71.4962 31.1934C71.6788 31.3761 71.9196 31.4757 72.1687 31.4757C72.4178 31.4757 72.6669 31.3761 72.8413 31.1934C73.0156 31.0107 73.1236 30.77 73.1236 30.5209V28.3122H80.1065V29.7238C80.1065 29.9729 80.2061 30.222 80.3888 30.3963C80.5715 30.579 80.8123 30.6786 81.0614 30.6786H84.4407V38.9153H81.9332C81.6841 38.9153 81.435 39.0149 81.2606 39.1976C81.078 39.372 80.9783 39.6211 80.9783 39.8702C80.9783 40.1193 81.078 40.3683 81.2606 40.5427C81.4433 40.7254 81.6841 40.825 81.9332 40.825H84.3992V42.2199H80.9368C80.6877 42.2199 80.4386 42.3196 80.2643 42.5022C80.0816 42.6849 79.982 42.9257 79.982 43.1748V52.001C79.982 52.2501 80.0816 52.4992 80.2643 52.6735C80.4469 52.8562 80.6877 52.9558 80.9368 52.9558H89.763C90.0121 52.9558 90.2612 52.8562 90.4356 52.6735C90.6182 52.4909 90.7179 52.2501 90.7179 52.001V43.1748C90.7179 42.9257 90.6182 42.6766 90.4356 42.5022C90.2612 42.3196 90.0121 42.2199 89.763 42.2199H86.3006V40.825H88.7666C89.0157 40.825 89.2648 40.7254 89.4392 40.5427C89.6219 40.36 89.7215 40.1193 89.7215 39.8702C89.7215 39.6211 89.6219 39.372 89.4392 39.1976C89.2565 39.0149 89.0157 38.9153 88.7666 38.9153H86.3006V30.6786H89.68C89.9291 30.6786 90.1782 30.579 90.3525 30.3963C90.5352 30.2137 90.6348 29.9729 90.6348 29.7238V24.9578C90.6348 24.7087 90.5352 24.4596 90.3525 24.2852C90.1699 24.1026 89.9291 24.0029 89.68 24.0029H81.0447C80.7957 24.0029 80.5466 24.1026 80.3722 24.2852C80.1895 24.4679 80.0899 24.7087 80.0899 24.9578V26.4108H72.1521C71.903 26.4108 71.6539 26.5105 71.4796 26.6931C71.2969 26.8758 71.1973 27.1166 71.1973 27.3657L71.2139 27.3574ZM88.8165 51.0295H81.9V44.113H88.8165V51.0295ZM82.0079 25.9209H88.7749V28.7772H82.0079V25.9209Z" fill="#4D96AB"/>
<path fill-rule="evenodd" clip-rule="evenodd" d="M82.0156 29.2672H89.6379V25.4478H82.0156V29.2672Z" fill="#4D96AB" fill-opacity="0.658824"/>
<path fill-rule="evenodd" clip-rule="evenodd" d="M81.0605 51.1872H89.6377V43.5566H81.0605V51.1872Z" fill="#4D96AB" fill-opacity="0.658824"/>
<path fill-rule="evenodd" clip-rule="evenodd" d="M79.6328 68.3416L80.5794 62.1475H90.1113L91.5395 68.3416H79.6328Z" fill="#4D96AB" fill-opacity="0.678431"/>
<path fill-rule="evenodd" clip-rule="evenodd" d="M71.5293 135.057H98.2155V98.1494H71.5293V135.057Z" fill="#4D96AB" fill-opacity="0.560784"/>
<path fill-rule="evenodd" clip-rule="evenodd" d="M104.957 89.1243C104.957 89.3236 105.023 89.5146 105.14 89.6723C105.256 89.8301 105.422 89.9546 105.605 90.0128V139.549C105.605 141.01 106.186 142.414 107.224 143.443C108.262 144.473 109.665 145.054 111.126 145.054H128.546C130.007 145.054 131.411 144.473 132.449 143.443C133.486 142.414 134.068 141.01 134.068 139.549V90.0128C134.259 89.9463 134.416 89.8301 134.533 89.6723C134.649 89.5146 134.715 89.3153 134.715 89.1243V81.8259C134.724 80.6884 134.3 79.5841 133.528 78.7455C126.064 72.9333 124.951 56.0946 125.366 54.5087C125.366 54.3758 125.341 54.2513 125.291 54.1351C125.242 54.0188 125.167 53.9109 125.075 53.8195C124.984 53.7282 124.868 53.6618 124.752 53.6203C124.627 53.5787 124.503 53.5538 124.37 53.5621C124.129 53.5704 123.896 53.6784 123.73 53.861C123.564 54.0354 123.465 54.2762 123.465 54.517C123.465 54.8408 123.597 57.4231 123.988 61.0515H115.693C116.075 57.4231 116.208 54.8408 116.216 54.517C116.216 54.2762 116.125 54.0354 115.95 53.861C115.784 53.6867 115.552 53.5787 115.311 53.5621C115.178 53.5538 115.054 53.5787 114.929 53.6203C114.805 53.6618 114.697 53.7365 114.605 53.8195C114.514 53.9109 114.439 54.0188 114.389 54.1351C114.34 54.2513 114.315 54.3841 114.315 54.5087C114.846 55.6711 114.066 72.9831 106.153 78.7455C105.38 79.5841 104.949 80.6801 104.965 81.8259V89.1243H104.957ZM132.158 133.978H107.514V98.1415H132.158V133.978ZM128.546 143.153H111.126C110.171 143.153 109.25 142.771 108.577 142.098C107.896 141.426 107.514 140.504 107.514 139.549V135.879H132.158V139.549C132.158 140.504 131.776 141.426 131.095 142.098C130.414 142.771 129.501 143.153 128.546 143.153ZM124.204 63.036C124.386 64.5887 124.61 66.2576 124.901 67.9929H114.78C115.062 66.2576 115.294 64.5887 115.477 63.036H124.204ZM106.867 81.8259C106.858 81.17 107.099 80.5389 107.539 80.0573C111.076 76.2462 112.671 74.5939 114.107 69.9193C114.182 69.9276 114.605 69.8777 114.68 69.8694H124.992C125.067 69.8777 125.54 69.8528 125.615 69.8445C128.82 76.13 128.596 76.296 132.133 80.0573C132.573 80.5389 132.822 81.1783 132.806 81.8259V88.1695H124.112C123.863 88.1695 123.614 88.2691 123.44 88.4518C123.257 88.6261 123.157 88.8752 123.157 89.1243C123.157 89.3734 123.257 89.6225 123.44 89.7969C123.622 89.9795 123.863 90.0792 124.112 90.0792H132.183V96.2484H107.506V90.0792H119.67C119.919 90.0792 120.168 89.9795 120.343 89.7969C120.525 89.6142 120.625 89.3734 120.625 89.1243C120.625 88.8752 120.525 88.6261 120.343 88.4518C120.16 88.2691 119.919 88.1695 119.67 88.1695H106.858V81.8259H106.867Z" fill="#4D96AB"/>
<path fill-rule="evenodd" clip-rule="evenodd" d="M124.735 139.316H114.937C114.688 139.316 114.439 139.416 114.265 139.599C114.082 139.773 113.982 140.022 113.982 140.271C113.982 140.52 114.082 140.769 114.265 140.944C114.447 141.126 114.688 141.226 114.937 141.226H124.735C124.984 141.226 125.233 141.126 125.407 140.944C125.582 140.769 125.69 140.52 125.69 140.271C125.69 140.022 125.59 139.773 125.407 139.599C125.225 139.416 124.984 139.316 124.735 139.316Z" fill="#4D96AB"/>
<path fill-rule="evenodd" clip-rule="evenodd" d="M105.688 27.3574V30.5209C105.688 30.77 105.788 31.0191 105.971 31.1934C106.153 31.3761 106.394 31.4757 106.643 31.4757C106.892 31.4757 107.142 31.3761 107.316 31.1934C107.49 31.0107 107.598 30.77 107.598 30.5209V28.3122H114.581V29.7238C114.581 29.9729 114.681 30.222 114.863 30.3963C115.046 30.579 115.287 30.6786 115.536 30.6786H118.915V38.9153H116.408C116.159 38.9153 115.91 39.0149 115.735 39.1976C115.553 39.372 115.453 39.6211 115.453 39.8702C115.453 40.1193 115.553 40.3683 115.735 40.5427C115.918 40.7254 116.159 40.825 116.408 40.825H118.874V42.2199H115.411C115.162 42.2199 114.913 42.3196 114.739 42.5022C114.556 42.6849 114.457 42.9257 114.457 43.1748V52.001C114.457 52.2501 114.556 52.4992 114.739 52.6735C114.922 52.8562 115.162 52.9558 115.411 52.9558H124.238C124.487 52.9558 124.736 52.8562 124.91 52.6735C125.093 52.4909 125.192 52.2501 125.192 52.001V43.1748C125.192 42.9257 125.093 42.6766 124.91 42.5022C124.736 42.3196 124.487 42.2199 124.238 42.2199H120.775V40.825H123.241C123.49 40.825 123.739 40.7254 123.914 40.5427C124.096 40.36 124.196 40.1193 124.196 39.8702C124.196 39.6211 124.096 39.372 123.914 39.1976C123.731 39.0149 123.49 38.9153 123.241 38.9153H120.775V30.6786H124.155C124.404 30.6786 124.653 30.579 124.827 30.3963C125.01 30.2137 125.109 29.9729 125.109 29.7238V24.9578C125.109 24.7087 125.01 24.4596 124.827 24.2852C124.644 24.1026 124.404 24.0029 124.155 24.0029H115.519C115.27 24.0029 115.021 24.1026 114.847 24.2852C114.664 24.4679 114.564 24.7087 114.564 24.9578V26.4108H106.627C106.378 26.4108 106.129 26.5105 105.954 26.6931C105.772 26.8758 105.672 27.1166 105.672 27.3657L105.688 27.3574ZM123.291 51.0295H116.375V44.113H123.291V51.0295ZM116.483 25.9209H123.25V28.7772H116.483V25.9209Z" fill="#4D96AB"/>
<path fill-rule="evenodd" clip-rule="evenodd" d="M116.49 29.2672H124.112V25.4478H116.49V29.2672Z" fill="#4D96AB" fill-opacity="0.658824"/>
<path fill-rule="evenodd" clip-rule="evenodd" d="M115.535 51.1872H124.112V43.5566H115.535V51.1872Z" fill="#4D96AB" fill-opacity="0.658824"/>
<path fill-rule="evenodd" clip-rule="evenodd" d="M114.107 68.3416L115.062 62.1475H124.594L126.022 68.3416H114.107Z" fill="#4D96AB" fill-opacity="0.678431"/>
<path fill-rule="evenodd" clip-rule="evenodd" d="M106.004 135.057H132.69V98.1494H106.004V135.057Z" fill="#4D96AB" fill-opacity="0.560784"/>
</g>
<defs>
<clipPath id="clip0_2906_12783">
<rect width="98.7156" height="121.065" fill="white" transform="translate(36 24)"/>
</clipPath>
</defs>
</svg>
