<svg width="180" height="180" viewBox="0 0 180 180" fill="none" xmlns="http://www.w3.org/2000/svg">
<path d="M170.699 93.8672C170.699 139.504 133.703 176.5 88.0664 176.5C42.4296 176.5 5.43359 139.504 5.43359 93.8672C5.43359 48.2303 42.4296 11.2344 88.0664 11.2344C133.703 11.2344 170.699 48.2303 170.699 93.8672Z" stroke="#4D96AB" stroke-width="7"/>
<path d="M27.0293 80.02H26.0293V80.0207H22.8021C22.2837 80.0207 21.8633 79.6001 21.8633 79.0818V76.8842C21.8633 76.3657 22.2838 75.9453 22.8021 75.9453H38.0898C38.3625 75.9453 38.6215 76.0637 38.8 76.27C38.8 76.27 38.8001 76.2701 38.8001 76.2702L51.8389 91.3571C51.4525 93.5471 51.2532 95.7721 51.2532 98.0162C51.2532 101.216 51.6596 104.383 52.441 107.465H39.855C34.9313 98.9287 31.7085 89.0342 29.867 82.1947C29.5222 80.9129 28.3557 80.02 27.0293 80.02Z" stroke="#4D96AB" stroke-width="2"/>
<path d="M27.0293 81.0203C27.904 81.0203 28.6743 81.6102 28.9014 82.455C30.7612 89.3625 34.0339 99.4176 39.0626 108.093C39.1357 108.219 39.2096 108.341 39.283 108.465H48.7654C47.9167 107.235 47.0842 105.921 46.2696 104.516C41.2409 95.8404 37.9686 85.7857 36.1084 78.8779C35.8813 78.0331 35.1111 77.4432 34.2364 77.4432H30.0092C28.9387 77.4432 28.0703 76.5748 28.0703 75.5043V74.9453H22.8021C21.7316 74.9453 20.8633 75.8133 20.8633 76.8842V79.0818C20.8633 80.1523 21.7313 81.0207 22.8021 81.0207H27.0293V81.0203Z" fill="#438092" fill-opacity="0.48"/>
<path d="M154.608 58.7451C147.686 58.7451 141.456 62.2734 137.158 67.871C139.154 69.6464 140.96 71.5554 142.561 73.5761C145.444 69.2554 149.774 66.5002 154.608 66.5002C163.267 66.5002 170.312 75.3332 170.312 86.1902C170.312 97.0472 163.267 105.88 154.608 105.88C153.23 105.88 151.893 105.654 150.618 105.234C150.12 107.761 149.364 110.24 148.364 112.64C150.353 113.284 152.446 113.635 154.608 113.635C167.544 113.635 178.067 101.323 178.067 86.1902C178.067 71.0572 167.543 58.7451 154.608 58.7451Z" fill="#2F5F6D"/>
<path d="M101.29 49.7044C103.535 49.7044 105.743 49.8812 107.89 50.2128C108.728 49.2576 109.239 48.0092 109.239 46.6384C109.239 43.6403 106.809 41.21 103.811 41.21H98.7703C95.7722 41.21 93.3418 43.6403 93.3418 46.6384C93.3418 48.0092 93.8537 49.2576 94.6918 50.2128C96.8374 49.8812 99.0455 49.7044 101.29 49.7044Z" fill="#4D96AB"/>
<path d="M100.455 49.7164C99.8499 48.841 99.4917 47.7828 99.4917 46.6384C99.4917 43.8277 101.628 41.5158 104.366 41.2377C104.183 41.2195 103.998 41.21 103.811 41.21H98.7703C95.7722 41.21 93.3418 43.6403 93.3418 46.6384C93.3418 48.0092 93.8537 49.2576 94.6918 50.2128C96.5705 49.9227 98.4975 49.754 100.455 49.7164Z" fill="#2F5F6D"/>
<path d="M101.291 50.8535C113.857 50.8535 124.487 56.2202 129.546 63.7332H73.0363C78.0948 56.2202 88.7246 50.8535 101.291 50.8535Z" stroke="#4D96AB" stroke-width="3"/>
<path d="M106.753 49.6907C104.976 49.4709 103.152 49.3535 101.291 49.3535C87.1476 49.3535 75.0961 55.9597 70.4199 65.2332H81.3437C85.4046 57.1803 95.0282 51.1416 106.753 49.6907Z" fill="#4D96AB" fill-opacity="0.48"/>
<path d="M134.903 65.514C134.359 65.0925 133.691 64.8633 133.003 64.8633H69.5789C68.8912 64.8633 68.2226 65.0922 67.6787 65.514C57.0046 73.7849 50.8828 85.6325 50.8828 98.0163C50.8828 101.563 51.3915 105.07 52.3639 108.465H96.909C97.7419 108.465 98.4193 109.143 98.4193 109.976C98.4193 110.075 98.4141 110.467 98.4141 110.467C98.4134 110.57 98.457 110.667 98.5343 110.735C98.599 110.791 98.6813 110.822 98.7656 110.822C98.7825 110.822 98.799 110.821 98.8159 110.818C99.5897 110.707 100.355 110.65 101.09 110.65C104.756 110.65 108.098 111.973 110.5 114.374C113.231 117.106 114.52 120.964 114.129 125.239C113.956 127.129 113.463 128.998 112.685 130.782H133.5C134.203 130.782 134.885 130.543 135.434 130.105C145.77 121.862 151.699 110.166 151.699 98.0163C151.699 85.6322 145.577 73.7849 134.903 65.514Z" stroke="#4D96AB" stroke-width="3"/>
<path d="M63.3555 108.465C62.3831 105.07 61.8744 101.563 61.8744 98.0163C61.8744 85.6322 67.9962 73.7849 78.6703 65.514C79.2142 65.0925 79.8825 64.8633 80.5705 64.8633H69.5789C68.8912 64.8633 68.2226 65.0922 67.6787 65.514C57.0046 73.7849 50.8828 85.6325 50.8828 98.0163C50.8828 101.563 51.3915 105.07 52.3639 108.465H63.3555Z" fill="#438092" fill-opacity="0.48"/>
<path d="M34.3613 161.201C38.8902 164.82 43.7895 167.993 48.9986 170.649H85.6016C86.5684 170.649 87.6698 169.921 88.0495 169.032L91.3925 161.201H34.3613Z" fill="#4D96AB"/>
<path d="M34.3613 161.201C38.8902 164.82 43.7895 167.993 48.9986 170.649H63.702C58.4933 167.993 53.5936 164.82 49.0647 161.201H34.3613Z" fill="#29525E" fill-opacity="0.48"/>
<path d="M110.749 114.125C108.28 111.657 104.851 110.298 101.09 110.298C100.073 110.298 99.0505 110.401 98.0345 110.59C98.0064 113.28 97.7979 115.918 97.4182 118.485C98.641 118.006 99.8911 117.746 101.09 117.746C102.343 117.746 104.121 118.032 105.482 119.392C106.765 120.676 107.328 122.608 107.064 124.832C106.766 127.349 105.416 129.971 103.362 132.026C101.004 134.384 97.9227 135.792 95.1194 135.792C94.2725 135.792 93.1844 135.66 92.148 135.155C90.9987 137.408 89.7004 139.537 88.2695 141.522C90.2864 142.641 92.6296 143.24 95.1194 143.24C99.9252 143.24 104.849 141.072 108.629 137.293C115.6 130.321 116.551 119.928 110.749 114.125Z" fill="#2F5F6D"/>
<path d="M21.6934 109.976V109.976C21.6934 109.775 21.8557 109.613 22.0552 109.613H96.9089C97.1086 109.613 97.2707 109.775 97.2707 109.976C97.2707 126.069 90.5479 140.194 80.4744 148.488H38.4894C28.4159 140.194 21.693 126.069 21.6934 109.976Z" stroke="#4D96AB" stroke-width="3"/>
<path d="M37.9575 149.988H48.8763C38.1839 141.429 31.1094 126.691 31.1094 109.976C31.1094 108.947 31.9433 108.113 32.9713 108.113H22.0552C21.0273 108.113 20.1934 108.947 20.1934 109.976C20.1934 126.689 27.2668 141.427 37.9575 149.988Z" fill="#438092" fill-opacity="0.48"/>
<path d="M25.76 151.137H101.401C102.506 151.137 103.416 152.047 103.416 153.152V153.152V158.038C103.416 159.143 102.506 160.053 101.401 160.053H35.3176C31.9062 157.331 28.7115 154.348 25.76 151.137Z" stroke="#4D96AB" stroke-width="3"/>
<path d="M37.0464 158.038V153.152C37.0464 151.219 38.6285 149.637 40.5621 149.637H22.4316C26.1473 154.005 30.2877 158.001 34.795 161.553H40.5621C38.6285 161.553 37.0464 159.971 37.0464 158.038Z" fill="#29525D" fill-opacity="0.48"/>
<path d="M59.4141 142.383C66.4039 142.383 72.0703 136.716 72.0703 129.727C72.0703 122.737 66.4039 117.07 59.4141 117.07C52.4242 117.07 46.7578 122.737 46.7578 129.727C46.7578 136.716 52.4242 142.383 59.4141 142.383Z" fill="#2F5F6D" fill-opacity="0.58"/>
</svg>
