<svg width="180" height="180" viewBox="0 0 180 180" fill="none" xmlns="http://www.w3.org/2000/svg">
<path d="M170.875 90C170.875 134.666 134.666 170.875 90 170.875C45.334 170.875 9.125 134.666 9.125 90C9.125 45.334 45.334 9.125 90 9.125C134.666 9.125 170.875 45.334 170.875 90Z" stroke="#4D96AB" stroke-width="7"/>
<path d="M97.8393 38.0672V38.5642L98.2355 38.8643C102.199 41.8663 105.532 46.2838 107.879 50.463C109.049 52.5469 109.963 54.5508 110.581 56.2603C111.208 57.997 111.5 59.3442 111.5 60.1442V76.3702C111.5 78.5527 110.151 79.9119 108.463 81.2533C108.274 81.4034 108.076 81.5564 107.875 81.7119C107.233 82.2096 106.557 82.7328 106.027 83.2667C105.311 83.9877 104.67 84.9069 104.67 86.1058C104.67 87.3047 105.311 88.2238 106.027 88.9448C106.557 89.4787 107.233 90.0019 107.875 90.4996C108.076 90.6551 108.274 90.8081 108.463 90.9582C110.151 92.2996 111.5 93.6588 111.5 95.8413V147.764C111.5 152.539 107.406 156.5 102.254 156.5H88.5938H74.933C69.7779 156.5 65.6875 152.539 65.6875 147.764V95.8413C65.6875 93.6588 67.0361 92.2996 68.7247 90.9582C68.9137 90.8081 69.1113 90.6551 69.3121 90.4996C69.9547 90.0019 70.6302 89.4787 71.1603 88.9448C71.8761 88.2238 72.5179 87.3047 72.5179 86.1058C72.5179 84.9069 71.8761 83.9877 71.1603 83.2667C70.6302 82.7328 69.9547 82.2096 69.3121 81.712C69.1112 81.5564 68.9136 81.4034 68.7247 81.2533C67.0361 79.9119 65.6875 78.5527 65.6875 76.3702V60.1442C65.6875 59.3441 65.9788 57.9969 66.6065 56.2601C67.2242 54.5507 68.1372 52.5468 69.3072 50.463C71.6537 46.2838 74.9872 41.8664 78.9519 38.8644L79.3482 38.5643V38.0672V31.9375H97.8393V38.0672Z" stroke="#4D96AB" stroke-width="2"/>
<path d="M98.2542 26.2535C98.2542 24.7757 96.7902 23.5811 94.9791 23.5811H81.8786C80.0708 23.5811 78.6035 24.7757 78.6035 26.2535V36.9435H98.2542V26.2535Z" fill="#4D96AB"/>
<path d="M112.5 101.566V94.978C112.5 89.5287 105.67 88.3967 105.67 85.1061C105.67 81.8155 112.5 80.6835 112.5 75.2342L112.009 58.9522C112.009 57.8762 111.578 56.0172 110.83 54.0198C109.873 54.5858 109.361 55.0857 108.245 55.4904C106.687 56.0564 105.089 56.6158 103.535 57.1489C100.82 58.0768 98.2655 58.1657 95.4002 58.1657C91.5445 58.1657 88.0644 57.4483 84.3726 56.4743C80.2402 55.3818 75.9781 53.8517 71.6954 53.4831C69.8069 53.3186 68.3761 53.5624 66.4192 54.0198C65.685 55.9942 64.8472 57.8861 64.8472 58.9522L64.6875 75.2342C64.6875 80.6835 71.5179 81.8155 71.5179 85.1061C71.5179 88.3967 64.6875 89.5287 64.6875 94.978V147.628C64.6875 153.077 69.2741 157.5 74.933 157.5H88.5938H102.254C107.91 157.5 112.5 153.077 112.5 147.628V101.566Z" fill="#4D96AB" fill-opacity="0.46"/>
<path d="M111.056 130.57C110.049 131.131 105.639 133.162 104.713 133.51C103.237 134.068 101.721 134.619 100.251 135.141C98.1049 135.902 96.0279 135.965 93.5341 135.965C90.0199 135.965 86.7813 135.213 83.8052 134.393C82.8143 134.124 81.8168 133.822 80.8127 133.52C77.6824 132.582 74.4471 131.61 71.051 131.305C69.2988 131.158 67.3596 131.358 65.1152 131.837V138.701C65.4499 138.567 65.7846 138.432 66.1095 138.301C67.878 137.884 69.3021 137.727 70.4604 137.842C73.1937 138.084 75.9762 138.921 78.9227 139.807C79.976 140.122 81.026 140.434 82.0662 140.723C85.4852 141.658 89.2423 142.524 93.5309 142.524C96.4446 142.524 99.319 142.432 102.449 141.323C103.959 140.782 105.517 140.217 107.023 139.65C107.611 139.43 109.356 138.655 111.056 137.868V130.57Z" fill="#4D96AB"/>
<path d="M104.713 120.382C103.237 120.94 101.721 121.491 100.251 122.013C98.1049 122.774 96.0279 122.836 93.5341 122.836C90.0199 122.836 86.7813 122.085 83.8052 121.264C82.8143 120.995 81.8168 120.693 80.8127 120.392C77.6824 119.453 74.4471 118.482 71.051 118.177C69.2988 118.029 67.3596 118.233 65.1152 118.712V125.573C65.4499 125.438 65.7846 125.304 66.1095 125.172C67.878 124.756 69.3021 124.595 70.4604 124.713C73.1937 124.956 75.9762 125.793 78.9227 126.678C79.976 126.993 81.026 127.305 82.0662 127.594C85.4852 128.529 89.2423 129.395 93.5309 129.395C96.4446 129.395 99.319 129.303 102.449 128.194C103.959 127.653 105.517 127.089 107.023 126.521C107.611 126.301 109.356 125.527 111.056 124.739V117.438C110.049 118.006 105.639 120.037 104.713 120.382Z" fill="#4D96AB"/>
<path d="M104.713 107.257C103.237 107.815 101.721 108.366 100.251 108.888C98.1049 109.649 96.0279 109.711 93.5341 109.711C90.0199 109.711 86.7813 108.96 83.8052 108.139C82.8143 107.87 81.8168 107.568 80.8127 107.267C77.6824 106.328 74.4471 105.357 71.051 105.052C69.2988 104.904 67.3596 105.104 65.1152 105.583V112.448C65.4499 112.313 65.7846 112.179 66.1095 112.047C67.878 111.631 69.3021 111.47 70.4604 111.588C73.1937 111.831 75.9762 112.668 78.9227 113.553C79.976 113.868 81.026 114.18 82.0662 114.469C85.4852 115.404 89.2423 116.27 93.5309 116.27C96.4446 116.27 99.319 116.178 102.449 115.069C103.959 114.528 105.517 113.964 107.023 113.396C107.611 113.176 109.356 112.402 111.056 111.614V104.313C110.049 104.881 105.639 106.912 104.713 107.257Z" fill="#4D96AB"/>
</svg>
