<svg width="170" height="170" viewBox="0 0 170 170" fill="none" xmlns="http://www.w3.org/2000/svg">
<path d="M165.875 85C165.875 129.666 129.666 165.875 85 165.875C40.334 165.875 4.125 129.666 4.125 85C4.125 40.334 40.334 4.125 85 4.125C129.666 4.125 165.875 40.334 165.875 85Z" stroke="#4D96AB" stroke-width="7"/>
<path d="M104.594 115.937V120.062H70.1875V116.219V115.392L69.4885 114.951C64.3144 111.683 59.6782 107.322 55.8539 101.859L55.406 101.219H54.625H54.6234H54.6217H54.62H54.6184H54.6167H54.615H54.6133H54.6116H54.6099H54.6082H54.6065H54.6048H54.603H54.6013H54.5996H54.5978H54.5961H54.5943H54.5925H54.5908H54.589H54.5872H54.5854H54.5836H54.5818H54.58H54.5782H54.5764H54.5746H54.5727H54.5709H54.569H54.5672H54.5653H54.5635H54.5616H54.5597H54.5578H54.556H54.5541H54.5522H54.5503H54.5484H54.5464H54.5445H54.5426H54.5407H54.5387H54.5368H54.5348H54.5329H54.5309H54.5289H54.527H54.525H54.523H54.521H54.519H54.517H54.515H54.513H54.511H54.5089H54.5069H54.5049H54.5028H54.5008H54.4987H54.4967H54.4946H54.4925H54.4904H54.4884H54.4863H54.4842H54.4821H54.48H54.4779H54.4758H54.4736H54.4715H54.4694H54.4672H54.4651H54.463H54.4608H54.4587H54.4565H54.4543H54.4521H54.45H54.4478H54.4456H54.4434H54.4412H54.439H54.4368H54.4346H54.4323H54.4301H54.4279H54.4256H54.4234H54.4212H54.4189H54.4167H54.4144H54.4121H54.4099H54.4076H54.4053H54.403H54.4007H54.3984H54.3961H54.3938H54.3915H54.3892H54.3869H54.3845H54.3822H54.3799H54.3775H54.3752H54.3728H54.3705H54.3681H54.3657H54.3634H54.361H54.3586H54.3562H54.3538H54.3514H54.349H54.3466H54.3442H54.3418H54.3394H54.337H54.3345H54.3321H54.3297H54.3272H54.3248H54.3223H54.3199H54.3174H54.3149H54.3125H54.31H54.3075H54.305H54.3025H54.3H54.2976H54.295H54.2925H54.29H54.2875H54.285H54.2825H54.2799H54.2774H54.2749H54.2723H54.2698H54.2672H54.2647H54.2621H54.2596H54.257H54.2544H54.2519H54.2493H54.2467H54.2441H54.2415H54.2389H54.2363H54.2337H54.2311H54.2285H54.2259H54.2232H54.2206H54.218H54.2154H54.2127H54.2101H54.2074H54.2048H54.2021H54.1995H54.1968H54.1941H54.1915H54.1888H54.1861H54.1834H54.1807H54.1781H54.1754H54.1727H54.17H54.1673H54.1645H54.1618H54.1591H54.1564H54.1537H54.1509H54.1482H54.1455H54.1427H54.14H54.1372H54.1345H54.1317H54.129H54.1262H54.1235H54.1207H54.1179H54.1151H54.1124H54.1096H54.1068H54.104H54.1012H54.0984H54.0956H54.0928H54.09H54.0872H54.0844H54.0815H54.0787H54.0759H54.0731H54.0702H54.0674H54.0646H54.0617H54.0589H54.056H54.0532H54.0503H54.0475H54.0446H54.0417H54.0389H54.036H54.0331H54.0302H54.0273H54.0245H54.0216H54.0187H54.0158H54.0129H54.01H54.0071H54.0042H54.0013H53.9984H53.9954H53.9925H53.9896H53.9867H53.9837H53.9808H53.9779H53.9749H53.972H53.969H53.9661H53.9631H53.9602H53.9572H53.9543H53.9513H53.9484H53.9454H53.9424H53.9394H53.9365H53.9335H53.9305H53.9275H53.9245H53.9215H53.9185H53.9156H53.9126H53.9095H53.9065H53.9035H53.9005H53.8975H53.8945H53.8915H53.8885H53.8854H53.8824H53.8794H53.8764H53.8733H53.8703H53.8673H53.8642H53.8612H53.8581H53.8551H53.852H53.849H53.8459H53.8429H53.8398H53.8367H53.8337H53.8306H53.8275H53.8245H53.8214H53.8183H53.8152H53.8121H53.8091H53.806H53.8029H53.7998H53.7967H53.7936H53.7905H53.7874H53.7843H53.7812H53.7781H53.775H53.7719H53.7688H53.7656H53.7625H53.7594H53.7563H53.7532H53.75H53.7469H53.7438H53.7406H53.7375H53.7344H53.7312H53.7281H53.725H53.7218H53.7187H53.7155H53.7124H53.7092H53.7061H53.7029H53.6998H53.6966H53.6934H53.6903H53.6871H53.6839H53.6808H53.6776H53.6744H53.6713H53.6681H53.6649H53.6617H53.6585H53.6554H53.6522H53.649H53.6458H53.6426H53.6394H53.6362H53.633H53.6298H53.6266H53.6234H53.6203H53.617H53.6138H53.6106H53.6074H53.6042H53.601H53.5978H53.5946H53.5914H53.5882H53.5849H53.5817H53.5785H53.5753H53.5721H53.5688H53.5656H53.5624H53.5592H53.5559H53.5527H53.5495H53.5462H53.543H53.5398H53.5365H53.5333H53.5301H53.5268H53.5236H53.5203H53.5171H53.5139H53.5106H53.5074H53.5041H53.5009H53.4976H53.4944H53.4911H53.4879H53.4846H53.4814H53.4781H53.4748H53.4716H53.4683H53.4651H53.4618H53.4585H53.4553H53.452H53.4487H53.4455H53.4422H53.4389H53.4357H53.4324H53.4291H53.4259H53.4226H53.4193H53.4161H53.4128H53.4095H53.4062H53.403H53.3997H53.3964H53.3931H53.3898H53.3866H53.3833H53.38H53.3767H53.3734H53.3702H53.3669H53.3636H53.3603H53.357H53.3537H53.3505H53.3472H53.3439H53.3406H53.3373H53.334H53.3307H53.3274H53.3242H53.3209H53.3176H53.3143H53.311H53.3077H53.3044H53.3011H53.2978H53.2945H53.2912H53.2879H53.2847H53.2814H53.2781H53.2748H53.2715H53.2682H53.2649H53.2616H53.2583H53.255H53.2517H53.2484H53.2451H53.2418H53.2385H53.2352H53.2319H53.2286H53.2253H53.222H53.2188C45.0439 101.219 38.7276 99.0438 34.3107 94.6268C27.7361 88.0523 27.7188 78.762 27.7188 78.5312V78.3259C28.2573 73.1009 30.3069 69.9855 33.3986 68.3207C36.5868 66.604 40.0865 66.8142 42.9803 67.6034L44.875 68.1201V66.1562V66.1513V66.1463V66.1414V66.1364V66.1314V66.1265V66.1215V66.1165V66.1115V66.1065V66.1015V66.0965V66.0914V66.0864V66.0814V66.0763V66.0713V66.0662V66.0612V66.0561V66.051V66.046V66.0409V66.0358V66.0307V66.0256V66.0205V66.0154V66.0103V66.0051V66V65.9949V65.9897V65.9846V65.9794V65.9743V65.9691V65.964V65.9588V65.9536V65.9484V65.9432V65.938V65.9328V65.9276V65.9224V65.9172V65.912V65.9068V65.9015V65.8963V65.8911V65.8858V65.8806V65.8753V65.87V65.8648V65.8595V65.8542V65.8489V65.8436V65.8384V65.8331V65.8278V65.8224V65.8171V65.8118V65.8065V65.8012V65.7958V65.7905V65.7852V65.7798V65.7745V65.7691V65.7638V65.7584V65.753V65.7477V65.7423V65.7369V65.7315V65.7261V65.7207V65.7153V65.7099V65.7045V65.6991V65.6937V65.6883V65.6829V65.6774V65.672V65.6666V65.6611V65.6557V65.6502V65.6448V65.6393V65.6339V65.6284V65.6229V65.6175V65.612V65.6065V65.601V65.5955V65.59V65.5846V65.5791V65.5736V65.568V65.5625V65.557V65.5515V65.546V65.5405V65.5349V65.5294V65.5239V65.5183V65.5128V65.5073V65.5017V65.4962V65.4906V65.485V65.4795V65.4739V65.4684V65.4628V65.4572V65.4516V65.4461V65.4405V65.4349V65.4293V65.4237V65.4181V65.4125V65.4069V65.4013V65.3957V65.3901V65.3845V65.3789V65.3733V65.3676V65.362V65.3564V65.3508V65.3451V65.3395V65.3339V65.3282V65.3226V65.3169V65.3113V65.3056V65.3V65.2943V65.2887V65.283V65.2774V65.2717V65.266V65.2604V65.2547V65.249V65.2434V65.2377V65.232V65.2263V65.2206V65.215V65.2093V65.2036V65.1979V65.1922V65.1865V65.1808V65.1751V65.1694V65.1637V65.158V65.1523V65.1466V65.1409V65.1352V65.1295V65.1238V65.118V65.1123V65.1066V65.1009V65.0952V65.0894V65.0837V65.078V65.0723V65.0665V65.0608V65.0551V65.0493V65.0436V65.0379V65.0321V65.0264V65.0206V65.0149V65.0092V65.0034V64.9977V64.9919V64.9862V64.9804V64.9747V64.9689V64.9632V64.9574V64.9517V64.9459V64.9402V64.9344V64.9287V64.9229V64.9172V64.9114V64.9056V64.8999V64.8941V64.8884V64.8826V64.8768V64.8711V64.8653V64.8596V64.8538V64.848V64.8423V64.8365V64.8307V64.825V64.8192V64.8134V64.8077V64.8019V64.7961V64.7904V64.7846V64.7788V64.7731V64.7673V64.7615V64.7558V64.75V64.7442V64.7385V64.7327V64.7269V64.7212V64.7154V64.7096V64.7039V64.6981V64.6923V64.6866V64.6808V64.675V64.6693V64.6635V64.6577V64.652V64.6462V64.6404V64.6347V64.6289V64.6231V64.6174V64.6116V64.6059V64.6001V64.5943V64.5886V64.5828V64.5771V64.5713V64.5656V64.5598V64.5541V64.5483V64.5426V64.5368V64.531V64.5253V64.5196V64.5138V64.5081V64.5023V64.4966V64.4908V64.4851V64.4793V64.4736V64.4679V64.4621V64.4564V64.4507V64.4449V64.4392V64.4335V64.4277V64.422V64.4163V64.4106V64.4048V64.3991V64.3934V64.3877V64.382V64.3762V64.3705V64.3648V64.3591V64.3534V64.3477V64.342V64.3363V64.3306V64.3249V64.3192V64.3135V64.3078V64.3021V64.2964V64.2907V64.285V64.2793V64.2737V64.268V64.2623V64.2566V64.251V64.2453V64.2396V64.2339V64.2283V64.2226V64.217V64.2113V64.2056V64.2V64.1943V64.1887V64.183V64.1774V64.1718V64.1661V64.1605V64.1549V64.1492V64.1436V64.138V64.1324V64.1267V64.1211V64.1155V64.1099V64.1043V64.0987V64.0931V64.0875V64.0819V64.0763V64.0707V64.0651V64.0595V64.0539V64.0484V64.0428V64.0372V64.0316V64.0261V64.0205V64.0149V64.0094V64.0038V63.9983V63.9927V63.9872V63.9817V63.9761V63.9706V63.9651V63.9595V63.954V63.9485V63.943V63.9375V63.9319V63.9264V63.9209V63.9154V63.9099V63.9045V63.899V63.8935V63.888V63.8825V63.8771V63.8716V63.8661V63.8607V63.8552V63.8498V63.8443V63.8389V63.8334V63.828V63.8226V63.8171V63.8117V63.8063V63.8009V63.7955V63.7901V63.7847V63.7793V63.7739V63.7685V63.7631V63.7577V63.7523V63.747V63.7416V63.7362V63.7309V63.7255V63.7202V63.7148V63.7095V63.7041V63.6988V63.6935V63.6882V63.6829V63.6775V63.6722V63.6669V63.6616V63.6563V63.6511V63.6458V63.6405V63.6352V63.63V63.6247V63.6194V63.6142V63.6089V63.6037V63.5985V63.5932V63.588V63.5828V63.5776V63.5724V63.5671V63.5619V63.5568V63.5516V63.5464V63.5412V63.536V63.5309V63.5257V63.5205V63.5154V63.5102V63.5051V63.5V63.4948V63.4897V63.4846V63.4795V63.4744V63.4693V63.4642V63.4591V63.454V63.4489V63.4439V63.4388V63.4338V63.4287V63.4237V63.4186V63.4136V63.4086V63.4035V63.3985V63.3935V63.3885V63.3835V63.3785V63.3735V63.3685V63.3636V63.3586V63.3536V63.3487V63.3437C44.875 61.2631 44.876 59.2471 45.0242 57.25H130.072C130.278 59.1723 130.406 61.2212 130.199 62.8764L130.188 62.9691V63.0625C130.188 86.0125 119.953 105.71 105.312 114.658L104.594 115.096V115.937ZM31.1937 78.3954L31.1875 78.4632V78.5312C31.1875 79.7572 31.4697 87.0405 36.9857 92.2633C40.4174 95.6858 45.3102 97.4549 51.1751 97.7481L53.7876 97.8787L52.5808 95.558C49.0068 88.6848 46.5279 80.9793 45.4252 72.433L45.3096 71.5375L44.4642 71.2205C43.2585 70.7684 41.6487 70.3042 40.0016 70.1474C38.4085 69.9957 36.5674 70.111 35.0465 71.0346C32.6939 72.2518 31.4879 75.1584 31.1937 78.3954Z" stroke="#4D96AB" stroke-width="3"/>
<path d="M49.5625 55.75C49.2813 58 49.2812 60.25 49.2812 62.5C49.2812 90.9063 66.4375 114.25 87.8125 114.25C109.187 114.25 126.344 91.1875 126.344 62.5C126.344 60.25 126.344 58 126.062 55.75H49.5625Z" fill="#4D96AB" fill-opacity="0.34"/>
<path d="M41.375 123.516C41.375 122.034 43.0665 120.765 45.0399 120.765H130.461C132.435 120.765 134.126 122.034 134.126 123.516C134.126 124.997 132.435 126.267 130.461 126.267H45.0399C43.0665 126.267 41.375 124.997 41.375 123.516Z" fill="#447E8E"/>
<path d="M49.5625 69.25C52.0938 94.5625 68.125 113.969 87.5313 113.969C106.938 113.969 123.25 94.5625 125.5 69.25H49.5625Z" fill="#4D96AB" fill-opacity="0.4"/>
<g opacity="0.25">
<path d="M131.687 63.3437C131.687 60.8125 131.406 58.2812 131.406 55.75H68.9688L106.094 115.937C121.281 106.656 131.687 86.6875 131.687 63.3437Z" fill="#467988"/>
</g>
</svg>
