<svg width="180" height="180" viewBox="0 0 180 180" fill="none" xmlns="http://www.w3.org/2000/svg">
<g clip-path="url(#clip0_675_3771)">
<g filter="url(#filter0_d_675_3771)">
<path d="M170.875 90C170.875 134.666 134.666 170.875 90 170.875C45.334 170.875 9.125 134.666 9.125 90C9.125 45.334 45.334 9.125 90 9.125C134.666 9.125 170.875 45.334 170.875 90Z" stroke="#4D96AB" stroke-width="7"/>
<path d="M109.594 120.937V125.062H75.1875V121.219V120.392L74.4885 119.951C69.3144 116.683 64.6782 112.322 60.8539 106.859L60.406 106.219H59.625H59.6234H59.6217H59.62H59.6184H59.6167H59.615H59.6133H59.6116H59.6099H59.6082H59.6065H59.6048H59.603H59.6013H59.5996H59.5978H59.5961H59.5943H59.5925H59.5908H59.589H59.5872H59.5854H59.5836H59.5818H59.58H59.5782H59.5764H59.5746H59.5727H59.5709H59.569H59.5672H59.5653H59.5635H59.5616H59.5597H59.5578H59.556H59.5541H59.5522H59.5503H59.5484H59.5464H59.5445H59.5426H59.5407H59.5387H59.5368H59.5348H59.5329H59.5309H59.5289H59.527H59.525H59.523H59.521H59.519H59.517H59.515H59.513H59.511H59.5089H59.5069H59.5049H59.5028H59.5008H59.4987H59.4967H59.4946H59.4925H59.4904H59.4884H59.4863H59.4842H59.4821H59.48H59.4779H59.4758H59.4736H59.4715H59.4694H59.4672H59.4651H59.463H59.4608H59.4587H59.4565H59.4543H59.4521H59.45H59.4478H59.4456H59.4434H59.4412H59.439H59.4368H59.4346H59.4323H59.4301H59.4279H59.4256H59.4234H59.4212H59.4189H59.4167H59.4144H59.4121H59.4099H59.4076H59.4053H59.403H59.4007H59.3984H59.3961H59.3938H59.3915H59.3892H59.3869H59.3845H59.3822H59.3799H59.3775H59.3752H59.3728H59.3705H59.3681H59.3657H59.3634H59.361H59.3586H59.3562H59.3538H59.3514H59.349H59.3466H59.3442H59.3418H59.3394H59.337H59.3345H59.3321H59.3297H59.3272H59.3248H59.3223H59.3199H59.3174H59.3149H59.3125H59.31H59.3075H59.305H59.3025H59.3H59.2976H59.295H59.2925H59.29H59.2875H59.285H59.2825H59.2799H59.2774H59.2749H59.2723H59.2698H59.2672H59.2647H59.2621H59.2596H59.257H59.2544H59.2519H59.2493H59.2467H59.2441H59.2415H59.2389H59.2363H59.2337H59.2311H59.2285H59.2259H59.2232H59.2206H59.218H59.2154H59.2127H59.2101H59.2074H59.2048H59.2021H59.1995H59.1968H59.1941H59.1915H59.1888H59.1861H59.1834H59.1807H59.1781H59.1754H59.1727H59.17H59.1673H59.1645H59.1618H59.1591H59.1564H59.1537H59.1509H59.1482H59.1455H59.1427H59.14H59.1372H59.1345H59.1317H59.129H59.1262H59.1235H59.1207H59.1179H59.1151H59.1124H59.1096H59.1068H59.104H59.1012H59.0984H59.0956H59.0928H59.09H59.0872H59.0844H59.0815H59.0787H59.0759H59.0731H59.0702H59.0674H59.0646H59.0617H59.0589H59.056H59.0532H59.0503H59.0475H59.0446H59.0417H59.0389H59.036H59.0331H59.0302H59.0273H59.0245H59.0216H59.0187H59.0158H59.0129H59.01H59.0071H59.0042H59.0013H58.9984H58.9954H58.9925H58.9896H58.9867H58.9837H58.9808H58.9779H58.9749H58.972H58.969H58.9661H58.9631H58.9602H58.9572H58.9543H58.9513H58.9484H58.9454H58.9424H58.9394H58.9365H58.9335H58.9305H58.9275H58.9245H58.9215H58.9185H58.9156H58.9126H58.9095H58.9065H58.9035H58.9005H58.8975H58.8945H58.8915H58.8885H58.8854H58.8824H58.8794H58.8764H58.8733H58.8703H58.8673H58.8642H58.8612H58.8581H58.8551H58.852H58.849H58.8459H58.8429H58.8398H58.8367H58.8337H58.8306H58.8275H58.8245H58.8214H58.8183H58.8152H58.8121H58.8091H58.806H58.8029H58.7998H58.7967H58.7936H58.7905H58.7874H58.7843H58.7812H58.7781H58.775H58.7719H58.7688H58.7656H58.7625H58.7594H58.7563H58.7532H58.75H58.7469H58.7438H58.7406H58.7375H58.7344H58.7312H58.7281H58.725H58.7218H58.7187H58.7155H58.7124H58.7092H58.7061H58.7029H58.6998H58.6966H58.6934H58.6903H58.6871H58.6839H58.6808H58.6776H58.6744H58.6713H58.6681H58.6649H58.6617H58.6585H58.6554H58.6522H58.649H58.6458H58.6426H58.6394H58.6362H58.633H58.6298H58.6266H58.6234H58.6203H58.617H58.6138H58.6106H58.6074H58.6042H58.601H58.5978H58.5946H58.5914H58.5882H58.5849H58.5817H58.5785H58.5753H58.5721H58.5688H58.5656H58.5624H58.5592H58.5559H58.5527H58.5495H58.5462H58.543H58.5398H58.5365H58.5333H58.5301H58.5268H58.5236H58.5203H58.5171H58.5139H58.5106H58.5074H58.5041H58.5009H58.4976H58.4944H58.4911H58.4879H58.4846H58.4814H58.4781H58.4748H58.4716H58.4683H58.4651H58.4618H58.4585H58.4553H58.452H58.4487H58.4455H58.4422H58.4389H58.4357H58.4324H58.4291H58.4259H58.4226H58.4193H58.4161H58.4128H58.4095H58.4062H58.403H58.3997H58.3964H58.3931H58.3898H58.3866H58.3833H58.38H58.3767H58.3734H58.3702H58.3669H58.3636H58.3603H58.357H58.3537H58.3505H58.3472H58.3439H58.3406H58.3373H58.334H58.3307H58.3274H58.3242H58.3209H58.3176H58.3143H58.311H58.3077H58.3044H58.3011H58.2978H58.2945H58.2912H58.2879H58.2847H58.2814H58.2781H58.2748H58.2715H58.2682H58.2649H58.2616H58.2583H58.255H58.2517H58.2484H58.2451H58.2418H58.2385H58.2352H58.2319H58.2286H58.2253H58.222H58.2188C50.0439 106.219 43.7276 104.044 39.3107 99.6268C32.7361 93.0523 32.7188 83.762 32.7188 83.5312V83.3259C33.2573 78.1009 35.3069 74.9855 38.3986 73.3207C41.5868 71.604 45.0865 71.8142 47.9803 72.6034L49.875 73.1201V71.1562V71.1513V71.1463V71.1414V71.1364V71.1314V71.1265V71.1215V71.1165V71.1115V71.1065V71.1015V71.0965V71.0914V71.0864V71.0814V71.0763V71.0713V71.0662V71.0612V71.0561V71.051V71.046V71.0409V71.0358V71.0307V71.0256V71.0205V71.0154V71.0103V71.0051V71V70.9949V70.9897V70.9846V70.9794V70.9743V70.9691V70.964V70.9588V70.9536V70.9484V70.9432V70.938V70.9328V70.9276V70.9224V70.9172V70.912V70.9068V70.9015V70.8963V70.8911V70.8858V70.8806V70.8753V70.87V70.8648V70.8595V70.8542V70.8489V70.8436V70.8384V70.8331V70.8278V70.8224V70.8171V70.8118V70.8065V70.8012V70.7958V70.7905V70.7852V70.7798V70.7745V70.7691V70.7638V70.7584V70.753V70.7477V70.7423V70.7369V70.7315V70.7261V70.7207V70.7153V70.7099V70.7045V70.6991V70.6937V70.6883V70.6829V70.6774V70.672V70.6666V70.6611V70.6557V70.6502V70.6448V70.6393V70.6339V70.6284V70.6229V70.6175V70.612V70.6065V70.601V70.5955V70.59V70.5846V70.5791V70.5736V70.568V70.5625V70.557V70.5515V70.546V70.5405V70.5349V70.5294V70.5239V70.5183V70.5128V70.5073V70.5017V70.4962V70.4906V70.485V70.4795V70.4739V70.4684V70.4628V70.4572V70.4516V70.4461V70.4405V70.4349V70.4293V70.4237V70.4181V70.4125V70.4069V70.4013V70.3957V70.3901V70.3845V70.3789V70.3733V70.3676V70.362V70.3564V70.3508V70.3451V70.3395V70.3339V70.3282V70.3226V70.3169V70.3113V70.3056V70.3V70.2943V70.2887V70.283V70.2774V70.2717V70.266V70.2604V70.2547V70.249V70.2434V70.2377V70.232V70.2263V70.2206V70.215V70.2093V70.2036V70.1979V70.1922V70.1865V70.1808V70.1751V70.1694V70.1637V70.158V70.1523V70.1466V70.1409V70.1352V70.1295V70.1238V70.118V70.1123V70.1066V70.1009V70.0952V70.0894V70.0837V70.078V70.0723V70.0665V70.0608V70.0551V70.0493V70.0436V70.0379V70.0321V70.0264V70.0206V70.0149V70.0092V70.0034V69.9977V69.9919V69.9862V69.9804V69.9747V69.9689V69.9632V69.9574V69.9517V69.9459V69.9402V69.9344V69.9287V69.9229V69.9172V69.9114V69.9056V69.8999V69.8941V69.8884V69.8826V69.8768V69.8711V69.8653V69.8596V69.8538V69.848V69.8423V69.8365V69.8307V69.825V69.8192V69.8134V69.8077V69.8019V69.7961V69.7904V69.7846V69.7788V69.7731V69.7673V69.7615V69.7558V69.75V69.7442V69.7385V69.7327V69.7269V69.7212V69.7154V69.7096V69.7039V69.6981V69.6923V69.6866V69.6808V69.675V69.6693V69.6635V69.6577V69.652V69.6462V69.6404V69.6347V69.6289V69.6231V69.6174V69.6116V69.6059V69.6001V69.5943V69.5886V69.5828V69.5771V69.5713V69.5656V69.5598V69.5541V69.5483V69.5426V69.5368V69.531V69.5253V69.5196V69.5138V69.5081V69.5023V69.4966V69.4908V69.4851V69.4793V69.4736V69.4679V69.4621V69.4564V69.4507V69.4449V69.4392V69.4335V69.4277V69.422V69.4163V69.4106V69.4048V69.3991V69.3934V69.3877V69.382V69.3762V69.3705V69.3648V69.3591V69.3534V69.3477V69.342V69.3363V69.3306V69.3249V69.3192V69.3135V69.3078V69.3021V69.2964V69.2907V69.285V69.2793V69.2737V69.268V69.2623V69.2566V69.251V69.2453V69.2396V69.2339V69.2283V69.2226V69.217V69.2113V69.2056V69.2V69.1943V69.1887V69.183V69.1774V69.1718V69.1661V69.1605V69.1549V69.1492V69.1436V69.138V69.1324V69.1267V69.1211V69.1155V69.1099V69.1043V69.0987V69.0931V69.0875V69.0819V69.0763V69.0707V69.0651V69.0595V69.0539V69.0484V69.0428V69.0372V69.0316V69.0261V69.0205V69.0149V69.0094V69.0038V68.9983V68.9927V68.9872V68.9817V68.9761V68.9706V68.9651V68.9595V68.954V68.9485V68.943V68.9375V68.9319V68.9264V68.9209V68.9154V68.9099V68.9045V68.899V68.8935V68.888V68.8825V68.8771V68.8716V68.8661V68.8607V68.8552V68.8498V68.8443V68.8389V68.8334V68.828V68.8226V68.8171V68.8117V68.8063V68.8009V68.7955V68.7901V68.7847V68.7793V68.7739V68.7685V68.7631V68.7577V68.7523V68.747V68.7416V68.7362V68.7309V68.7255V68.7202V68.7148V68.7095V68.7041V68.6988V68.6935V68.6882V68.6829V68.6775V68.6722V68.6669V68.6616V68.6563V68.6511V68.6458V68.6405V68.6352V68.63V68.6247V68.6194V68.6142V68.6089V68.6037V68.5985V68.5932V68.588V68.5828V68.5776V68.5724V68.5671V68.5619V68.5568V68.5516V68.5464V68.5412V68.536V68.5309V68.5257V68.5205V68.5154V68.5102V68.5051V68.5V68.4948V68.4897V68.4846V68.4795V68.4744V68.4693V68.4642V68.4591V68.454V68.4489V68.4439V68.4388V68.4338V68.4287V68.4237V68.4186V68.4136V68.4086V68.4035V68.3985V68.3935V68.3885V68.3835V68.3785V68.3735V68.3685V68.3636V68.3586V68.3536V68.3487V68.3437C49.875 66.2631 49.876 64.2471 50.0242 62.25H135.072C135.278 64.1723 135.406 66.2212 135.199 67.8764L135.188 67.9691V68.0625C135.188 91.0125 124.953 110.71 110.312 119.658L109.594 120.096V120.937ZM36.1937 83.3954L36.1875 83.4632V83.5312C36.1875 84.7572 36.4697 92.0405 41.9857 97.2633C45.4174 100.686 50.3102 102.455 56.1751 102.748L58.7876 102.879L57.5808 100.558C54.0068 93.6848 51.5279 85.9793 50.4252 77.433L50.3096 76.5375L49.4642 76.2205C48.2585 75.7684 46.6487 75.3042 45.0016 75.1474C43.4085 74.9957 41.5674 75.111 40.0465 76.0346C37.6939 77.2518 36.4879 80.1584 36.1937 83.3954Z" stroke="#4D96AB" stroke-width="3"/>
<path d="M54.5625 60.75C54.2813 63 54.2812 65.25 54.2812 67.5C54.2812 95.9063 71.4375 119.25 92.8125 119.25C114.187 119.25 131.344 96.1875 131.344 67.5C131.344 65.25 131.344 63 131.062 60.75H54.5625Z" fill="#4D96AB" fill-opacity="0.34"/>
<path d="M46.375 128.516C46.375 127.034 48.0665 125.765 50.0399 125.765H135.461C137.435 125.765 139.126 127.034 139.126 128.516C139.126 129.997 137.435 131.267 135.461 131.267H50.0399C48.0665 131.267 46.375 129.997 46.375 128.516Z" fill="#447E8E"/>
<path d="M54.5625 74.25C57.0938 99.5625 73.125 118.969 92.5313 118.969C111.938 118.969 128.25 99.5625 130.5 74.25H54.5625Z" fill="#4D96AB" fill-opacity="0.4"/>
<g opacity="0.25">
<path d="M136.687 68.3437C136.687 65.8125 136.406 63.2812 136.406 60.75H73.9688L111.094 120.937C126.281 111.656 136.687 91.6875 136.687 68.3437Z" fill="#467988"/>
</g>
</g>
</g>
<defs>
<filter id="filter0_d_675_3771" x="-4.375" y="-4.375" width="188.75" height="188.75" filterUnits="userSpaceOnUse" color-interpolation-filters="sRGB">
<feFlood flood-opacity="0" result="BackgroundImageFix"/>
<feColorMatrix in="SourceAlpha" type="matrix" values="0 0 0 0 0 0 0 0 0 0 0 0 0 0 0 0 0 0 127 0" result="hardAlpha"/>
<feMorphology radius="2" operator="dilate" in="SourceAlpha" result="effect1_dropShadow_675_3771"/>
<feOffset/>
<feGaussianBlur stdDeviation="4"/>
<feComposite in2="hardAlpha" operator="out"/>
<feColorMatrix type="matrix" values="0 0 0 0 0 0 0 0 0 0 0 0 0 0 0 0 0 0 0.25 0"/>
<feBlend mode="normal" in2="BackgroundImageFix" result="effect1_dropShadow_675_3771"/>
<feBlend mode="normal" in="SourceGraphic" in2="effect1_dropShadow_675_3771" result="shape"/>
</filter>
<clipPath id="clip0_675_3771">
<rect width="180" height="180" fill="white"/>
</clipPath>
</defs>
</svg>
