<svg width="180" height="180" viewBox="0 0 180 180" fill="none" xmlns="http://www.w3.org/2000/svg">
<path d="M130.57 114.679C131.807 118.569 130.424 123.233 126.488 127.749C122.58 132.234 116.364 136.284 108.736 138.712C101.107 141.139 93.6937 141.425 87.9127 140.023C82.0906 138.612 78.2664 135.605 77.0288 131.715C75.7911 127.825 77.1745 123.161 81.1104 118.645C85.0186 114.161 91.2343 110.11 98.8628 107.683C106.491 105.255 113.905 104.969 119.686 106.371C125.508 107.782 129.332 110.789 130.57 114.679Z" stroke="#4D96AB" stroke-width="4"/>
<path d="M78.8678 129.986C79.6244 129.783 80.4737 129.567 81.4061 129.35C85.5329 128.39 91.2985 127.393 97.8528 127.25L78.8678 129.986ZM78.8678 129.986C81.5042 127.98 85.0179 126.173 89.056 124.565C94.8797 122.246 101.651 120.396 108.111 118.961C114.567 117.526 120.685 116.511 125.191 115.854C127.443 115.525 129.291 115.287 130.574 115.131C130.792 115.104 130.994 115.08 131.179 115.058C130.673 116.402 129.564 117.721 127.885 118.988C125.704 120.634 122.698 122.087 119.268 123.299C112.412 125.723 104.08 127.112 97.8533 127.25L78.8678 129.986Z" fill="#4D96AB" fill-opacity="0.37" stroke="#4D96AB" stroke-width="2"/>
<path d="M69.5156 53.0802C77.3307 54.815 83.8839 58.293 88.1777 62.4097C92.502 66.5556 94.2972 71.0771 93.4126 75.0619C92.5281 79.0467 88.9884 82.3839 83.3161 84.3107C77.6837 86.224 70.2744 86.6026 62.4594 84.8677C54.6443 83.1329 48.0911 79.6549 43.7973 75.5382C39.473 71.3923 37.6778 66.8709 38.5624 62.8861C39.4469 58.9013 42.9866 55.564 48.6589 53.6372C54.2913 51.724 61.7006 51.3454 69.5156 53.0802Z" stroke="#4D96AB" stroke-width="4"/>
<path d="M88.4486 74.7162C89.3388 74.9817 90.161 75.2097 90.9025 75.4038C87.6691 75.7986 83.7833 75.5997 79.5418 74.9746C73.3533 74.0626 66.5629 72.269 60.2425 70.2731C53.9269 68.2787 48.1062 66.0905 43.8627 64.4002C41.7417 63.5553 40.0164 62.8354 38.8224 62.3271C38.6213 62.2416 38.4354 62.162 38.2651 62.0889C39.3664 61.2021 40.9688 60.6315 43.0353 60.3851C45.7337 60.0635 49.05 60.3187 52.6187 60.9943C59.7521 62.3449 67.6683 65.3308 73.2056 68.3763C78.9083 71.5128 84.3919 73.5063 88.4486 74.7162Z" fill="#4D96AB" fill-opacity="0.37" stroke="#4D96AB" stroke-width="2"/>
<path d="M117.583 80.6953C111.691 74.3911 108.695 68.256 107.493 62.6031C106.244 56.7267 106.921 51.3062 108.391 46.6736C109.863 42.0358 112.126 38.2 114.028 35.5196C114.977 34.1811 115.833 33.1358 116.449 32.4281C116.566 32.2932 116.674 32.1705 116.773 32.0606C122.981 37.8447 126.146 43.7093 127.425 49.2461C128.755 55.0023 128.066 60.4835 126.525 65.2594C124.983 70.0394 122.596 74.0877 120.57 76.9456C119.559 78.3726 118.642 79.496 117.974 80.258C117.831 80.4211 117.7 80.567 117.583 80.6953Z" fill="#4D96AB" fill-opacity="0.55" stroke="#4D96AB" stroke-width="2"/>
<path d="M115.455 85.9235C115.32 85.7948 115.198 85.6755 115.087 85.5667C121.699 80.0267 127.983 77.3667 133.687 76.4731C139.627 75.5427 145.004 76.5174 149.551 78.2438C154.103 79.9722 157.81 82.45 160.383 84.5023C161.668 85.5271 162.665 86.4418 163.338 87.0973C163.466 87.2219 163.582 87.337 163.686 87.4418C157.517 93.3182 151.46 96.1382 145.85 97.0916C140.017 98.0828 134.586 97.0702 129.913 95.2556C125.235 93.4395 121.341 90.8287 118.61 88.6631C117.247 87.582 116.179 86.6162 115.455 85.9235Z" fill="#4D96AB" fill-opacity="0.55" stroke="#4D96AB" stroke-width="2"/>
<path d="M138.246 62.6339C138.247 62.6434 138.248 62.653 138.248 62.6626L138.247 62.6507C138.247 62.6451 138.246 62.6395 138.246 62.6339ZM138.726 61.604C138.528 61.6305 138.349 61.6524 138.189 61.6701C137.75 53.0345 139.423 46.4157 142.16 41.3346C145.001 36.0589 149.022 32.3814 153.141 29.8177C157.265 27.2511 161.476 25.8082 164.664 25.008C166.256 24.6084 167.587 24.3706 168.515 24.233C168.695 24.2063 168.86 24.1834 169.008 24.1639C170.023 32.6564 168.641 39.2063 166.024 44.2637C163.306 49.5186 159.217 53.2358 154.938 55.8541C150.656 58.4747 146.207 59.98 142.821 60.8116C141.13 61.2268 139.713 61.4718 138.726 61.604Z" fill="#4D96AB" fill-opacity="0.55" stroke="#4D96AB" stroke-width="2"/>
<path d="M48.375 117.281C47.8125 117.281 46.9688 116.719 46.9688 116.156C46.9688 115.312 47.25 114.75 48.0937 114.469C107.719 105.187 150.188 45.2812 150.469 44.7187C151.031 44.1562 151.875 43.875 152.438 44.4375C153 45 153.281 45.8437 152.719 46.4062C152.719 46.9687 109.687 107.719 48.375 117.281C48.6562 117.281 48.6562 117.281 48.375 117.281Z" fill="#4D96AB"/>
<path d="M53.7072 111.018C59.3564 113.619 63.7415 117.327 66.3024 121.122C68.8872 124.952 69.4392 128.554 68.187 131.273C66.9349 133.993 63.8396 135.915 59.2491 136.441C54.7007 136.963 49.0321 136.042 43.3829 133.441C37.7337 130.84 33.3486 127.132 30.7876 123.337C28.2029 119.507 27.6509 115.905 28.903 113.186C30.1552 110.466 33.2505 108.544 37.841 108.018C42.3893 107.496 48.058 108.417 53.7072 111.018Z" stroke="#4D96AB" stroke-width="4"/>
<path d="M32.2317 113.981C31.9956 113.85 31.7658 113.724 31.5428 113.604C33.7605 113.951 36.2524 114.676 38.902 115.68C43.4608 117.408 48.3407 119.902 52.8355 122.473C57.3261 125.042 61.4094 127.673 64.3714 129.664C65.8518 130.659 67.0506 131.493 67.8785 132.077C67.9058 132.097 67.9327 132.116 67.9593 132.134C67.1062 132.461 65.9879 132.565 64.5987 132.419C62.523 132.2 60.0423 131.441 57.4166 130.318C52.1701 128.075 46.5601 124.473 42.836 121.301C38.9761 118.013 35.1208 115.586 32.2317 113.981Z" fill="#4D96AB" fill-opacity="0.37" stroke="#4D96AB" stroke-width="2"/>
<path d="M151.875 89.1562L117.562 83.5313C117 83.5313 116.438 82.6875 116.438 82.125L116.719 45.5625C116.719 44.7188 117.281 44.1562 118.125 44.1562C118.969 44.1562 119.531 44.7188 119.531 45.5625L119.25 81L152.156 86.625C153 86.625 153.562 87.4688 153.281 88.3125C153.281 88.5938 152.437 89.1562 151.875 89.1562Z" fill="#4D96AB"/>
<mask id="path-12-inside-1_675_3738" fill="white">
<path d="M166.732 54.616C175.505 73.6401 176.898 95.2446 170.641 115.238C164.383 135.231 150.923 152.186 132.87 162.815C114.817 173.444 93.4594 176.987 72.9415 172.758C52.4236 168.529 34.2082 156.828 21.8299 139.927C9.45154 123.026 3.79288 102.129 5.95188 81.2916C8.11087 60.4539 17.9336 41.1611 33.514 27.1568C49.0945 13.1525 69.3217 5.43519 90.2708 5.50239C111.22 5.56959 131.397 13.4165 146.888 27.5205L143.205 31.5649C128.717 18.3739 109.846 11.035 90.2533 10.9721C70.6602 10.9093 51.7424 18.127 37.1705 31.2248C22.5986 44.3225 13.4117 62.3664 11.3925 81.8553C9.37326 101.344 14.6656 120.888 26.2427 136.695C37.8197 152.502 54.856 163.445 74.0457 167.401C93.2355 171.356 113.21 168.042 130.095 158.101C146.979 148.161 159.568 132.303 165.42 113.604C171.273 94.9051 169.97 74.6991 161.765 56.9065L166.732 54.616Z"/>
</mask>
<path d="M166.732 54.616C175.505 73.6401 176.898 95.2446 170.641 115.238C164.383 135.231 150.923 152.186 132.87 162.815C114.817 173.444 93.4594 176.987 72.9415 172.758C52.4236 168.529 34.2082 156.828 21.8299 139.927C9.45154 123.026 3.79288 102.129 5.95188 81.2916C8.11087 60.4539 17.9336 41.1611 33.514 27.1568C49.0945 13.1525 69.3217 5.43519 90.2708 5.50239C111.22 5.56959 131.397 13.4165 146.888 27.5205L143.205 31.5649C128.717 18.3739 109.846 11.035 90.2533 10.9721C70.6602 10.9093 51.7424 18.127 37.1705 31.2248C22.5986 44.3225 13.4117 62.3664 11.3925 81.8553C9.37326 101.344 14.6656 120.888 26.2427 136.695C37.8197 152.502 54.856 163.445 74.0457 167.401C93.2355 171.356 113.21 168.042 130.095 158.101C146.979 148.161 159.568 132.303 165.42 113.604C171.273 94.9051 169.97 74.6991 161.765 56.9065L166.732 54.616Z" stroke="#4D96AB" stroke-width="14" stroke-linejoin="round" mask="url(#path-12-inside-1_675_3738)"/>
</svg>
