<svg width="180" height="180" viewBox="0 0 180 180" fill="none" xmlns="http://www.w3.org/2000/svg">
<path d="M170.875 90C170.875 134.666 134.666 170.875 90 170.875C45.334 170.875 9.125 134.666 9.125 90C9.125 45.334 45.334 9.125 90 9.125C134.666 9.125 170.875 45.334 170.875 90Z" stroke="#4D96AB" stroke-width="7"/>
<g clip-path="url(#clip0_675_3945)">
<path d="M132.003 91.6367C129.516 91.3452 127.647 89.2278 127.664 86.724V79.1914C120.75 66.6691 107.579 58.8923 93.2751 58.8857C92.1615 58.8857 91.0644 58.8857 90 59.0168C73.8717 60.3695 60.221 71.4721 55.6113 86.9862V109.404C60.2275 124.912 73.8749 136.006 90 137.357C91.0644 137.357 92.1452 137.488 93.2751 137.488C110.659 137.487 125.977 126.065 130.939 109.404V91.6367H132.02H132.003Z" fill="#4D96AB" fill-opacity="0.5"/>
<path d="M55.6109 91.6367V134.213C55.6109 136.023 54.1453 137.488 52.3357 137.488C50.5261 137.488 49.0605 136.023 49.0605 134.213V91.6367H55.6109Z" fill="#4D96AB" fill-opacity="0.7"/>
<path d="M55.6107 68.7119H49.0605V91.6377H55.6107V68.7119Z" fill="#4D96AB" fill-opacity="0.7"/>
<path d="M137.49 44.1482V91.6374H132.577H132.004C129.516 91.3459 127.648 89.2284 127.664 86.7247V47.4234C127.664 44.7099 129.863 42.5107 132.577 42.5107H135.852C136.756 42.5106 137.49 43.2442 137.49 44.1482Z" fill="#4D96AB" fill-opacity="0.7"/>
<path d="M137.488 91.6367V134.213C137.488 136.023 136.022 137.488 134.213 137.488C132.403 137.488 130.938 136.023 130.938 134.213V91.6367H137.488Z" fill="#4D96AB" fill-opacity="0.7"/>
<path d="M52.3365 139.127C49.623 139.127 47.4238 136.927 47.4238 134.214V91.6375C47.4238 90.7336 48.1575 90 49.0613 90H55.6117C56.5155 90 57.2492 90.7336 57.2492 91.6375V134.214C57.2492 136.927 55.05 139.127 52.3365 139.127ZM50.699 93.2752V134.214C50.699 135.118 51.4326 135.851 52.3365 135.851C53.2403 135.851 53.974 135.118 53.974 134.214V93.2752H50.699Z" fill="#4D96AB"/>
<path d="M55.6115 93.275H49.0613C48.1575 93.275 47.4238 92.5414 47.4238 91.6375V68.7117C47.4238 67.8079 48.1575 67.0742 49.0613 67.0742H55.6115C56.5153 67.0742 57.249 67.8079 57.249 68.7117V91.6375C57.249 92.5414 56.5153 93.275 55.6115 93.275ZM50.6988 89.9999H53.974V70.3492H50.6988V89.9999Z" fill="#4D96AB"/>
<path d="M137.489 93.2748H132.576H131.905H131.61C128.374 92.7918 125.99 89.9964 126.026 86.7247V47.4234C126.026 43.8059 128.959 40.873 132.576 40.873H135.851C137.661 40.873 139.126 42.3386 139.126 44.1482V91.6374C139.126 92.5412 138.393 93.2748 137.489 93.2748ZM132.38 89.9997H135.851V44.1482H132.576C130.767 44.1482 129.301 45.6138 129.301 47.4234V86.7247C129.289 88.39 130.529 89.8001 132.183 89.9999H132.38V89.9997Z" fill="#4D96AB"/>
<path d="M42.5105 62.1612C41.6067 62.1612 40.873 61.4276 40.873 60.5237V42.5105C40.873 41.6067 41.6067 40.873 42.5105 40.873C43.4144 40.873 44.148 41.6067 44.148 42.5105V60.5237C44.1482 61.4276 43.4146 62.1612 42.5105 62.1612Z" fill="#4D96AB"/>
<path d="M62.1602 60.5234V62.1609C62.1602 65.7783 59.2274 68.7111 55.6101 68.7111H49.0599C45.4426 68.7111 42.5098 65.7783 42.5098 62.1609V60.5234H62.1602Z" fill="#4D96AB" fill-opacity="0.7"/>
<path d="M55.611 70.3486H49.0609C44.5395 70.3486 40.873 66.6821 40.873 62.1607V60.5232C40.873 59.6194 41.6067 58.8857 42.5105 58.8857H62.1612C63.065 58.8857 63.7987 59.6194 63.7987 60.5232V62.1607C63.7989 66.6821 60.1324 70.3486 55.611 70.3486ZM44.1482 62.1607C44.1482 64.8742 46.3474 67.0734 49.0609 67.0734H55.611C58.3245 67.0734 60.5237 64.8742 60.5237 62.1607H44.1482Z" fill="#4D96AB"/>
<path d="M62.1609 62.1612C61.2571 62.1612 60.5234 61.4276 60.5234 60.5237V42.5105C60.5234 41.6067 61.2571 40.873 62.1609 40.873C63.0648 40.873 63.7984 41.6067 63.7984 42.5105V60.5237C63.7986 61.4276 63.065 62.1612 62.1609 62.1612Z" fill="#4D96AB"/>
<path d="M49.0613 62.1612C48.1575 62.1612 47.4238 61.4276 47.4238 60.5237V42.5105C47.4238 41.6067 48.1575 40.873 49.0613 40.873C49.9652 40.873 50.6988 41.6067 50.6988 42.5105V60.5237C50.6988 61.4276 49.9652 62.1612 49.0613 62.1612Z" fill="#4D96AB"/>
<path d="M55.6101 62.1612C54.7063 62.1612 53.9727 61.4276 53.9727 60.5237V42.5105C53.9727 41.6067 54.7063 40.873 55.6101 40.873C56.514 40.873 57.2476 41.6067 57.2476 42.5105V60.5237C57.2476 61.4276 56.514 62.1612 55.6101 62.1612Z" fill="#4D96AB"/>
<path d="M134.213 139.127C131.5 139.127 129.301 136.927 129.301 134.214V91.6375C129.301 90.7336 130.034 90 130.938 90H137.488C138.392 90 139.126 90.7336 139.126 91.6375V134.214C139.126 136.927 136.927 139.127 134.213 139.127ZM132.576 93.2752V134.214C132.576 135.118 133.31 135.851 134.213 135.851C135.117 135.851 135.851 135.118 135.851 134.214V93.2752H132.576Z" fill="#4D96AB"/>
<path d="M93.2755 139.126C75.1658 139.074 59.2159 127.197 53.9742 109.863C53.9513 109.706 53.9513 109.545 53.9742 109.388V86.9864C53.9529 86.8341 53.9529 86.6802 53.9742 86.528C60.413 64.8549 83.2045 52.5044 104.877 58.9449C115.155 61.999 123.826 68.9635 129.023 78.3402C129.159 78.5808 129.233 78.851 129.236 79.1262V86.7245C129.224 88.3898 130.464 89.7999 132.118 89.9997C132.698 90.0586 133.202 90.419 133.445 90.9494C133.515 91.0885 133.564 91.2376 133.592 91.3915C133.715 92.1513 133.292 92.8932 132.577 93.1764V109.405C132.599 109.562 132.599 109.722 132.577 109.879C127.328 127.206 111.38 139.075 93.2755 139.126ZM57.2491 109.159C63.3163 129.055 84.3638 140.268 104.26 134.2C116.255 130.542 125.643 121.154 129.302 109.159V92.3904C127.278 91.2211 126.028 89.0628 126.026 86.7245V79.6175C115.754 61.5291 92.7644 55.1933 74.676 65.4657C66.2967 70.2245 60.0591 78.0143 57.2491 87.2321V109.159Z" fill="#4D96AB"/>
<path d="M119.476 98.1874C119.476 112.658 107.746 124.388 93.2754 124.388C92.1798 124.391 91.086 124.321 90.0002 124.175C75.647 122.335 65.5041 109.207 67.3446 94.855C68.8625 83.027 78.1737 73.7158 90.0002 72.1994C91.086 72.0537 92.1798 71.9816 93.2754 71.9866C107.746 71.9864 119.476 83.7163 119.476 98.1874Z" fill="#4D96AB" fill-opacity="0.25"/>
<path d="M93.274 126.025C77.8989 126.025 65.4355 113.562 65.4355 98.1871C65.4355 82.8122 77.8989 70.3486 93.274 70.3486C108.649 70.3486 121.113 82.812 121.113 98.1871C121.113 113.562 108.649 126.025 93.274 126.025ZM93.274 73.6238C79.7086 73.6238 68.7107 84.6216 68.7107 98.1871C68.7107 111.753 79.7086 122.75 93.274 122.75C106.84 122.75 117.837 111.753 117.837 98.1871C117.837 84.6216 106.84 73.6238 93.274 73.6238Z" fill="#4D96AB"/>
<path d="M73.6238 99.8251C72.72 99.8251 71.9863 99.0914 71.9863 98.1876C71.9863 86.43 81.5169 76.8994 93.2745 76.8994C94.1783 76.8994 94.912 77.6331 94.912 78.5369C94.912 79.4408 94.1783 80.1744 93.2745 80.1744C83.3263 80.1744 75.2613 88.2394 75.2613 98.1876C75.2613 99.0914 74.5277 99.8251 73.6238 99.8251Z" fill="#4D96AB"/>
<path d="M93.2742 119.475C92.3704 119.475 91.6367 118.742 91.6367 117.838C91.6367 116.934 92.3704 116.2 93.2742 116.2C103.222 116.2 111.287 108.135 111.287 98.1873C111.287 97.2834 112.021 96.5498 112.925 96.5498C113.829 96.5498 114.562 97.2834 114.562 98.1873C114.562 109.945 105.032 119.475 93.2742 119.475Z" fill="#4D96AB"/>
<path d="M86.4629 88.0612H89.5552L92.9411 93.9851L95.5151 89.4386L98.0719 93.9851L101.363 88.0342H102.969L97.2686 98.2525L94.7464 93.715L92.1637 98.1895L86.4629 88.0612Z" fill="white"/>
<path d="M87.248 96.3959H89.7861L92.0812 100.407L94.7093 95.8945L96.6804 99.2517V107.676H93.7823V100.344L91.2442 104.623L88.6521 100.29L88.6611 107.685H87.248V96.3959Z" fill="white"/>
<path d="M99.0621 96.6807H102.183V99.4864H100.256V101.366H101.913V102.72H100.256V107.685H97.4668V99.4077L99.0621 96.6807Z" fill="white"/>
</g>
<defs>
<clipPath id="clip0_675_3945">
<rect width="98.2533" height="98.2533" fill="white" transform="translate(40.873 40.873)"/>
</clipPath>
</defs>
</svg>
