<svg width="180" height="180" viewBox="0 0 180 180" fill="none" xmlns="http://www.w3.org/2000/svg">
<path d="M170.875 90C170.875 134.666 134.666 170.875 90 170.875C45.334 170.875 9.125 134.666 9.125 90C9.125 45.334 45.334 9.125 90 9.125C134.666 9.125 170.875 45.334 170.875 90Z" stroke="#4D96AB" stroke-width="7"/>
<path d="M66.791 73.1499H110.391V42.2666H66.791V73.1499ZM70.4243 45.8999H106.758V69.5166H70.4243V45.8999Z" fill="#4D96AB"/>
<mask id="path-3-inside-1_680_2876" fill="white">
<path d="M135.825 114.933C136.827 114.933 137.641 114.121 137.641 113.117V73.2009C139.912 70.1852 141.275 66.4501 141.275 62.3953V44.5321C141.275 39.2764 136.998 35 131.743 35H47.2567C42.001 35 37.7246 39.2764 37.7246 44.5321V62.3935C37.7246 68.2977 40.5913 73.5315 44.9913 76.8197V129.536C40.931 129.895 37.7246 133.276 37.7246 137.429V144H141.275V137.431C141.275 133.04 137.701 129.467 133.31 129.467H132.191V78.0223C132.823 77.659 133.427 77.2557 134.008 76.8215V113.117C134.008 114.121 134.822 114.933 135.825 114.933ZM75.8746 123.07V109.483H101.308V123.07C101.308 126.596 98.4376 129.467 94.9115 129.467H82.2711C78.7449 129.467 75.8746 126.596 75.8746 123.07ZM128.558 129.467H102.63C104.073 127.728 104.941 125.499 104.941 123.07V105.85H75.8746H72.2413H66.7913C61.7827 105.85 57.7079 109.925 57.7079 114.933C57.7079 119.942 61.7827 124.017 66.7913 124.017H72.2885C72.4829 126.077 73.2986 127.957 74.5521 129.467H48.6246V78.947C48.6391 78.9524 48.6555 78.9579 48.67 78.9633C49.0988 79.1468 49.5402 79.3031 49.9853 79.4538C50.1106 79.4956 50.2305 79.5501 50.3559 79.5901C50.8918 79.759 51.4404 79.8989 51.9982 80.017C52.0345 80.0243 52.069 80.037 52.1035 80.0443C53.2807 80.2877 54.4997 80.4167 55.7478 80.4167H74.0579V93.1333C74.0579 97.1409 77.317 100.4 81.3246 100.4H83.1413V102.217C83.1413 103.221 83.9551 104.033 84.9579 104.033C85.9607 104.033 86.7746 103.221 86.7746 102.217V100.4H90.4079V102.217C90.4079 103.221 91.2218 104.033 92.2246 104.033C93.2274 104.033 94.0413 103.221 94.0413 102.217V100.4H95.8579C99.2333 100.4 102.055 98.0747 102.867 94.95H115.841C118.846 94.95 121.291 92.5048 121.291 89.5C121.291 86.4952 118.846 84.05 115.841 84.05H103.125V80.4167H123.251C124.073 80.4167 124.874 80.3422 125.666 80.235C125.851 80.2096 126.035 80.1805 126.218 80.1496C127.016 80.017 127.8 79.8499 128.56 79.6155L128.558 129.467ZM66.7913 120.383C63.7865 120.383 61.3413 117.938 61.3413 114.933C61.3413 111.929 63.7865 109.483 66.7913 109.483H72.2413V120.383H66.7913ZM96.4157 91.3167C96.1086 91.3167 95.8579 91.066 95.8579 90.7589V88.2392C95.8579 87.9322 96.1086 87.6815 96.4157 87.6815H103.125H115.841C116.842 87.6815 117.658 88.4954 117.658 89.4982C117.658 90.501 116.842 91.3149 115.841 91.3149H103.125L96.4157 91.3167ZM99.4913 84.05H96.4157C94.1049 84.05 92.2246 85.9303 92.2246 88.2411V90.7608C92.2246 93.0698 94.1049 94.9518 96.4157 94.9518H99.0044C98.3758 96.0382 97.2005 96.7685 95.8598 96.7685H81.3264C79.3226 96.7685 77.6931 95.1389 77.6931 93.1352V80.4185H99.4931L99.4913 84.05ZM130.106 75.043L130.08 75.0557C129.893 75.1574 129.693 75.241 129.501 75.3354C129.059 75.548 128.611 75.7369 128.158 75.9041C128.093 75.9277 128.027 75.9531 127.962 75.9767C127.544 76.1239 127.121 76.2438 126.694 76.351C126.59 76.3764 126.491 76.4073 126.387 76.4309C125.986 76.5217 125.58 76.5871 125.174 76.6416C125.054 76.658 124.937 76.6834 124.817 76.6961C124.301 76.7506 123.778 76.7833 123.251 76.7833H103.125H74.0579H55.7478C55.1137 76.7833 54.487 76.727 53.8657 76.6453C53.7058 76.6253 53.5478 76.598 53.3897 76.5726C52.8411 76.4818 52.2979 76.3637 51.7656 76.2111C51.6966 76.1911 51.6239 76.1784 51.5549 76.1566C50.9645 75.9767 50.3886 75.7497 49.8236 75.4935C49.6892 75.4336 49.5584 75.3663 49.4276 75.3027C48.9225 75.0557 48.4284 74.7814 47.9524 74.4725C43.9921 71.9056 41.3579 67.4548 41.3579 62.3935V44.5321C41.3579 41.2802 44.0048 38.6333 47.2567 38.6333H131.743C134.994 38.6333 137.641 41.2802 137.641 44.5321V62.3935C137.641 67.8472 134.591 72.6032 130.106 75.043Z"/>
</mask>
<path d="M135.825 114.933C136.827 114.933 137.641 114.121 137.641 113.117V73.2009C139.912 70.1852 141.275 66.4501 141.275 62.3953V44.5321C141.275 39.2764 136.998 35 131.743 35H47.2567C42.001 35 37.7246 39.2764 37.7246 44.5321V62.3935C37.7246 68.2977 40.5913 73.5315 44.9913 76.8197V129.536C40.931 129.895 37.7246 133.276 37.7246 137.429V144H141.275V137.431C141.275 133.04 137.701 129.467 133.31 129.467H132.191V78.0223C132.823 77.659 133.427 77.2557 134.008 76.8215V113.117C134.008 114.121 134.822 114.933 135.825 114.933ZM75.8746 123.07V109.483H101.308V123.07C101.308 126.596 98.4376 129.467 94.9115 129.467H82.2711C78.7449 129.467 75.8746 126.596 75.8746 123.07ZM128.558 129.467H102.63C104.073 127.728 104.941 125.499 104.941 123.07V105.85H75.8746H72.2413H66.7913C61.7827 105.85 57.7079 109.925 57.7079 114.933C57.7079 119.942 61.7827 124.017 66.7913 124.017H72.2885C72.4829 126.077 73.2986 127.957 74.5521 129.467H48.6246V78.947C48.6391 78.9524 48.6555 78.9579 48.67 78.9633C49.0988 79.1468 49.5402 79.3031 49.9853 79.4538C50.1106 79.4956 50.2305 79.5501 50.3559 79.5901C50.8918 79.759 51.4404 79.8989 51.9982 80.017C52.0345 80.0243 52.069 80.037 52.1035 80.0443C53.2807 80.2877 54.4997 80.4167 55.7478 80.4167H74.0579V93.1333C74.0579 97.1409 77.317 100.4 81.3246 100.4H83.1413V102.217C83.1413 103.221 83.9551 104.033 84.9579 104.033C85.9607 104.033 86.7746 103.221 86.7746 102.217V100.4H90.4079V102.217C90.4079 103.221 91.2218 104.033 92.2246 104.033C93.2274 104.033 94.0413 103.221 94.0413 102.217V100.4H95.8579C99.2333 100.4 102.055 98.0747 102.867 94.95H115.841C118.846 94.95 121.291 92.5048 121.291 89.5C121.291 86.4952 118.846 84.05 115.841 84.05H103.125V80.4167H123.251C124.073 80.4167 124.874 80.3422 125.666 80.235C125.851 80.2096 126.035 80.1805 126.218 80.1496C127.016 80.017 127.8 79.8499 128.56 79.6155L128.558 129.467ZM66.7913 120.383C63.7865 120.383 61.3413 117.938 61.3413 114.933C61.3413 111.929 63.7865 109.483 66.7913 109.483H72.2413V120.383H66.7913ZM96.4157 91.3167C96.1086 91.3167 95.8579 91.066 95.8579 90.7589V88.2392C95.8579 87.9322 96.1086 87.6815 96.4157 87.6815H103.125H115.841C116.842 87.6815 117.658 88.4954 117.658 89.4982C117.658 90.501 116.842 91.3149 115.841 91.3149H103.125L96.4157 91.3167ZM99.4913 84.05H96.4157C94.1049 84.05 92.2246 85.9303 92.2246 88.2411V90.7608C92.2246 93.0698 94.1049 94.9518 96.4157 94.9518H99.0044C98.3758 96.0382 97.2005 96.7685 95.8598 96.7685H81.3264C79.3226 96.7685 77.6931 95.1389 77.6931 93.1352V80.4185H99.4931L99.4913 84.05ZM130.106 75.043L130.08 75.0557C129.893 75.1574 129.693 75.241 129.501 75.3354C129.059 75.548 128.611 75.7369 128.158 75.9041C128.093 75.9277 128.027 75.9531 127.962 75.9767C127.544 76.1239 127.121 76.2438 126.694 76.351C126.59 76.3764 126.491 76.4073 126.387 76.4309C125.986 76.5217 125.58 76.5871 125.174 76.6416C125.054 76.658 124.937 76.6834 124.817 76.6961C124.301 76.7506 123.778 76.7833 123.251 76.7833H103.125H74.0579H55.7478C55.1137 76.7833 54.487 76.727 53.8657 76.6453C53.7058 76.6253 53.5478 76.598 53.3897 76.5726C52.8411 76.4818 52.2979 76.3637 51.7656 76.2111C51.6966 76.1911 51.6239 76.1784 51.5549 76.1566C50.9645 75.9767 50.3886 75.7497 49.8236 75.4935C49.6892 75.4336 49.5584 75.3663 49.4276 75.3027C48.9225 75.0557 48.4284 74.7814 47.9524 74.4725C43.9921 71.9056 41.3579 67.4548 41.3579 62.3935V44.5321C41.3579 41.2802 44.0048 38.6333 47.2567 38.6333H131.743C134.994 38.6333 137.641 41.2802 137.641 44.5321V62.3935C137.641 67.8472 134.591 72.6032 130.106 75.043Z" fill="#4D96AB" stroke="#4D96AB" mask="url(#path-3-inside-1_680_2876)"/>
<path d="M123.299 73.0236C120.27 73.0236 117.807 70.5603 117.807 67.5313C117.807 64.5023 120.27 62.0391 123.299 62.0391C126.328 62.0391 128.791 64.5023 128.791 67.5313C128.791 70.5603 126.328 73.0236 123.299 73.0236Z" fill="#4D96AB" fill-opacity="0.53"/>
<path d="M123.299 56.9688C119.338 56.9688 116.117 53.7476 116.117 49.7867C116.117 45.8257 119.338 42.6045 123.299 42.6045C127.26 42.6045 130.482 45.8257 130.482 49.7867C130.482 53.7476 127.26 56.9688 123.299 56.9688Z" fill="#4D96AB" fill-opacity="0.53"/>
<path d="M123.299 55.2794C120.271 55.2794 117.807 52.8152 117.807 49.7872C117.807 46.7591 120.271 44.2949 123.299 44.2949C126.327 44.2949 128.791 46.7591 128.791 49.7872C128.791 52.8152 126.327 55.2794 123.299 55.2794Z" fill="#4D96AB"/>
<path d="M123.298 71.3332C121.201 71.3332 119.496 69.6278 119.496 67.5308C119.496 65.4339 121.201 63.7285 123.298 63.7285C125.395 63.7285 127.101 65.4339 127.101 67.5308C127.101 69.6278 125.395 71.3332 123.298 71.3332Z" fill="#4D96AB"/>
<path d="M50.209 44.2949H61.1935V53.5895H50.209V44.2949Z" fill="#4D96AB" fill-opacity="0.53"/>
<path d="M50.209 62.8838H61.1935V71.3334H50.209V62.8838Z" fill="#4D96AB" fill-opacity="0.53"/>
<path d="M51.8984 45.9844H59.5031V51.8991H51.8984V45.9844Z" fill="#4D96AB"/>
<path d="M51.8984 64.5732H59.5031V69.643H51.8984V64.5732Z" fill="#4D96AB"/>
<path d="M74.0574 54.9829C74.5224 54.9829 74.9875 54.8049 75.3417 54.4507L78.9751 50.8173C79.6854 50.107 79.6854 48.9589 78.9751 48.2486C78.2648 47.5382 77.1166 47.5382 76.4063 48.2486L72.773 51.8819C72.0627 52.5922 72.0627 53.7403 72.773 54.4507C73.1272 54.8049 73.5923 54.9829 74.0574 54.9829Z" fill="white"/>
<path d="M85.4896 48.2486L72.773 60.9652C72.0627 61.6755 72.0627 62.8237 72.773 63.534C73.1272 63.8882 73.5923 64.0663 74.0574 64.0663C74.5224 64.0663 74.9875 63.8882 75.3417 63.534L88.0584 50.8173C88.7687 50.107 88.7687 48.9589 88.0584 48.2486C87.3481 47.5382 86.2 47.5382 85.4896 48.2486Z" fill="white"/>
<rect x="69.4219" y="45.5176" width="38.2456" height="24.8596" fill="#4D96AB" fill-opacity="0.38"/>
<rect x="75.1582" y="115.315" width="26.7719" height="14.3421" fill="#4D96AB" fill-opacity="0.46"/>
<rect x="75.1582" y="115.315" width="26.7719" height="5.73684" fill="#4D96AB" fill-opacity="0.46"/>
</svg>
