<svg width="180" height="180" viewBox="0 0 180 180" fill="none" xmlns="http://www.w3.org/2000/svg">
<path d="M170.875 90C170.875 134.666 134.666 170.875 90 170.875C45.334 170.875 9.125 134.666 9.125 90C9.125 45.334 45.334 9.125 90 9.125C134.666 9.125 170.875 45.334 170.875 90Z" stroke="#4D96AB" stroke-width="7"/>
<g clip-path="url(#clip0_675_3887)">
<path d="M102.895 72.3633C115.177 70.5211 126.845 65.6084 116.405 50.2563C112.107 44.1155 107.808 41.6592 104.124 41.6592C97.9828 41.6592 93.6842 48.4141 89.9997 55.169C86.3152 48.4141 82.0166 41.6592 75.8758 41.6592C72.1913 41.6592 67.8927 44.1155 63.5941 50.2563C52.5406 65.6084 64.8223 70.5211 77.1039 72.3633H40.873V90.7858H139.126V72.3633H102.895ZM104.124 47.8C104.738 47.8 107.194 48.4141 111.493 53.9408C114.563 58.2394 115.177 60.6958 114.563 61.9239C113.335 63.7662 106.58 66.2225 94.2983 66.8366C94.2983 65.6084 93.6842 64.3802 93.0701 63.1521C96.7546 54.5549 101.053 47.8 104.124 47.8ZM65.4364 61.9239C64.8223 60.6958 65.4364 58.2394 68.5068 53.9408C72.8054 48.4141 75.2617 47.8 75.8758 47.8C78.9462 47.8 83.2448 54.5549 86.9293 63.1521C86.3152 64.3802 85.7011 65.6084 85.7011 66.8366C73.4194 66.2225 66.6645 63.7662 65.4364 61.9239ZM83.8589 90.7858V72.3633H96.1405V90.7858H83.8589Z" fill="#4D96AB"/>
<path d="M82.3587 93.7109V133.697H48.5137V93.7109H82.3587ZM131.485 133.697H97.6403V93.7109H131.485V133.697Z" stroke="#4D96AB" stroke-width="3"/>
<rect x="83.3184" y="71.5283" width="13.3624" height="63.6681" fill="#4D96AB" fill-opacity="0.36"/>
</g>
<defs>
<clipPath id="clip0_675_3887">
<rect width="98.2533" height="98.2533" fill="white" transform="translate(40.873 36.9434)"/>
</clipPath>
</defs>
</svg>
