<svg width="180" height="180" viewBox="0 0 180 180" fill="none" xmlns="http://www.w3.org/2000/svg">
<g clip-path="url(#clip0_675_3903)">
<g filter="url(#filter0_d_675_3903)">
<path d="M170.875 90C170.875 134.666 134.666 170.875 90 170.875C45.334 170.875 9.125 134.666 9.125 90C9.125 45.334 45.334 9.125 90 9.125C134.666 9.125 170.875 45.334 170.875 90Z" stroke="#4D96AB" stroke-width="7"/>
</g>
<g clip-path="url(#clip1_675_3903)">
<path fill-rule="evenodd" clip-rule="evenodd" d="M83.4217 126.573C83.1726 126.573 82.9235 126.673 82.7491 126.856C82.5664 127.03 82.4668 127.279 82.4668 127.528C82.4668 127.777 82.5664 128.026 82.7491 128.201C82.9318 128.375 83.1726 128.483 83.4217 128.483H98.334C98.5831 128.483 98.8322 128.383 99.0066 128.201C99.1892 128.018 99.2889 127.777 99.2889 127.528C99.2889 127.279 99.1892 127.03 99.0066 126.856C98.8322 126.673 98.5831 126.573 98.334 126.573H83.4217Z" fill="#4D96AB"/>
<path fill-rule="evenodd" clip-rule="evenodd" d="M98.334 130.617H83.4217C83.1726 130.617 82.9235 130.717 82.7491 130.899C82.5664 131.082 82.4668 131.323 82.4668 131.572C82.4668 131.821 82.5664 132.07 82.7491 132.245C82.9318 132.427 83.1726 132.527 83.4217 132.527H98.334C98.5831 132.527 98.8322 132.427 99.0066 132.245C99.1892 132.062 99.2889 131.821 99.2889 131.572C99.2889 131.323 99.1892 131.074 99.0066 130.899C98.8322 130.717 98.5831 130.617 98.334 130.617Z" fill="#4D96AB"/>
<path fill-rule="evenodd" clip-rule="evenodd" d="M80.1252 110.648C80.1584 110.764 80.2165 110.88 80.2995 110.98C80.3743 111.08 80.4739 111.163 80.5818 111.221C80.6898 111.279 80.8143 111.32 80.9389 111.329C81.0634 111.345 81.188 111.329 81.3125 111.295C82.9316 110.814 84.667 110.847 86.2612 111.395C87.8637 111.943 89.2503 112.981 90.2301 114.351C90.0972 114.434 89.9727 114.525 89.8481 114.617C88.8933 115.414 88.2373 116.518 88.0048 117.739C87.764 118.959 87.9633 120.23 88.5445 121.326C89.134 122.422 90.0806 123.285 91.2347 123.767C92.3806 124.248 93.6675 124.315 94.8549 123.958C96.0505 123.601 97.0884 122.845 97.7859 121.824C98.4916 120.794 98.8155 119.557 98.7075 118.312C98.5996 117.074 98.0765 115.904 97.2047 115.007C96.3411 114.11 95.1953 113.537 93.9581 113.388C94.3567 112.707 94.6224 111.96 94.722 111.179C94.8134 110.332 94.7386 109.469 94.4895 108.655C94.2404 107.833 93.8336 107.077 93.2939 106.422C93.1361 106.222 92.912 106.089 92.6629 106.056C92.4138 106.023 92.1564 106.089 91.9571 106.247C90.886 107.044 90.0723 108.14 89.6239 109.402C89.5824 109.519 89.5658 109.643 89.5741 109.776C89.5824 109.901 89.6156 110.025 89.6737 110.133C89.7319 110.249 89.8066 110.349 89.8979 110.432C89.9893 110.515 90.1055 110.573 90.2217 110.615C90.338 110.656 90.4625 110.673 90.5954 110.664C90.7199 110.656 90.8445 110.623 90.9524 110.565C91.0687 110.507 91.1683 110.432 91.2513 110.341C91.3344 110.249 91.3925 110.133 91.434 110.017C91.6416 109.444 91.9654 108.912 92.3889 108.472C92.7957 109.22 92.9701 110.083 92.8787 110.93C92.7459 111.785 92.3639 112.582 91.7661 113.205C90.5539 111.52 88.8434 110.258 86.8756 109.585C84.9078 108.912 82.7822 108.871 80.7894 109.46C80.6649 109.494 80.5569 109.552 80.4573 109.627C80.3577 109.701 80.2746 109.801 80.2165 109.909C80.1584 110.017 80.1169 110.141 80.1003 110.266C80.0837 110.39 80.1003 110.515 80.1335 110.64L80.1252 110.648ZM96.8227 118.752C96.831 119.341 96.6816 119.922 96.4076 120.445C96.1253 120.969 95.7184 121.409 95.2202 121.724C94.722 122.048 94.1574 122.231 93.5596 122.272C92.9701 122.314 92.3806 122.206 91.8409 121.948C91.3012 121.699 90.8445 121.317 90.4958 120.836C90.147 120.362 89.9228 119.798 89.8481 119.217C89.7734 118.627 89.8481 118.038 90.0723 117.49C90.2882 116.942 90.6452 116.452 91.1019 116.078L91.1766 116.02C91.2679 116.261 91.3593 116.51 91.434 116.751C91.4921 116.958 91.6167 117.133 91.791 117.257C91.9654 117.382 92.173 117.448 92.3889 117.44C92.4802 117.448 92.5715 117.448 92.6629 117.44C92.7791 117.407 92.8953 117.34 92.995 117.265C93.0946 117.182 93.1693 117.091 93.2358 116.975C93.2939 116.867 93.3354 116.742 93.3437 116.618C93.352 116.493 93.3437 116.369 93.3105 116.244C93.2192 115.929 93.1112 115.638 92.9867 115.289C93.1195 115.289 93.2524 115.289 93.3935 115.289C94.2986 115.306 95.1704 115.679 95.8097 116.319C96.4491 116.966 96.8144 117.83 96.831 118.735L96.8227 118.752Z" fill="#4D96AB"/>
<path fill-rule="evenodd" clip-rule="evenodd" d="M117.92 128.491H132.824C133.073 128.491 133.322 128.391 133.496 128.208C133.679 128.026 133.779 127.785 133.779 127.536C133.779 127.287 133.679 127.038 133.496 126.863C133.314 126.681 133.073 126.581 132.824 126.581H117.92C117.671 126.581 117.422 126.681 117.247 126.863C117.064 127.038 116.965 127.287 116.965 127.536C116.965 127.785 117.064 128.034 117.247 128.208C117.422 128.383 117.671 128.491 117.92 128.491Z" fill="#4D96AB"/>
<path fill-rule="evenodd" clip-rule="evenodd" d="M132.832 130.625H117.928C117.678 130.625 117.429 130.725 117.255 130.907C117.072 131.09 116.973 131.331 116.973 131.58C116.973 131.829 117.072 132.078 117.255 132.252C117.429 132.435 117.678 132.535 117.928 132.535H132.832C133.081 132.535 133.33 132.435 133.504 132.252C133.687 132.07 133.786 131.829 133.786 131.58C133.786 131.331 133.687 131.082 133.504 130.907C133.321 130.725 133.081 130.625 132.832 130.625Z" fill="#4D96AB"/>
<path fill-rule="evenodd" clip-rule="evenodd" d="M123.956 123.301C124.197 123.301 124.446 123.301 124.686 123.301H124.778C126.496 123.135 128.132 122.463 129.469 121.375C130.806 120.279 131.794 118.818 132.309 117.165C132.815 115.513 132.823 113.745 132.334 112.092C131.844 110.432 130.872 108.962 129.544 107.858C129.444 107.775 129.336 107.716 129.212 107.683C129.087 107.65 128.962 107.633 128.838 107.65C128.589 107.675 128.356 107.8 128.199 107.99L118.227 119.939C118.144 120.038 118.085 120.146 118.052 120.262C118.011 120.379 118.002 120.512 118.011 120.636C118.019 120.761 118.061 120.885 118.119 120.993C118.177 121.101 118.26 121.201 118.351 121.284C119.92 122.596 121.905 123.31 123.947 123.301H123.956ZM130.797 114.882C130.739 116.036 130.399 117.157 129.785 118.145L126.347 115.289L130.797 114.89V114.882ZM128.564 119.648C127.709 120.429 126.671 120.985 125.542 121.251L125.118 116.792L128.556 119.648H128.564ZM129.021 109.992C129.801 110.83 130.357 111.86 130.623 112.972L126.181 113.379L129.021 109.983V109.992ZM123.225 116.966L123.632 121.417C122.478 121.375 121.357 121.051 120.36 120.462L123.217 116.966H123.225Z" fill="#4D96AB"/>
<path fill-rule="evenodd" clip-rule="evenodd" d="M51.3951 119.216C51.7272 119.789 52.1258 120.312 52.5825 120.786C53.8694 122.197 55.6048 123.111 57.4979 123.368H57.9712C58.7268 123.36 59.474 123.194 60.1632 122.886C60.8524 122.579 61.4668 122.131 61.9816 121.574C62.4881 121.018 62.8783 120.362 63.1274 119.648C63.3765 118.934 63.4761 118.179 63.418 117.423C63.1689 115.53 62.2556 113.786 60.8441 112.508C59.9722 111.71 58.9592 111.063 57.8715 110.598H57.8217C55.1149 109.452 52.2836 108.663 49.3775 108.231C49.2363 108.215 49.0869 108.223 48.9457 108.273C48.8046 108.323 48.68 108.397 48.5804 108.497C48.4724 108.597 48.3977 108.73 48.3479 108.862C48.2981 109.004 48.2815 109.153 48.3064 109.294C48.3562 109.593 49.1699 115.48 51.3619 119.142L51.3868 119.2L51.3951 119.216ZM57.6723 121.467C56.3521 121.276 55.1315 120.645 54.2099 119.681L58.3282 119.607L59.6982 120.977C59.0921 121.35 58.378 121.525 57.664 121.467H57.6723ZM61.4834 117.655C61.5747 118.353 61.4419 119.067 61.1014 119.69L58.0542 116.642L58.2452 112.956C58.6935 113.222 59.1004 113.545 59.474 113.911C60.57 114.874 61.2924 116.186 61.5249 117.631L61.4834 117.672V117.655ZM56.4185 112.059L56.2192 114.849L54.6831 113.313C54.5918 113.222 54.4922 113.155 54.3759 113.105C54.2597 113.056 54.1351 113.031 54.0106 113.031C53.8861 113.031 53.7615 113.056 53.6453 113.105C53.529 113.155 53.4211 113.222 53.338 113.313C53.1637 113.496 53.064 113.736 53.064 113.985C53.064 114.235 53.1637 114.475 53.338 114.658L56.4683 117.772L52.7817 117.846C51.6525 115.48 50.8554 112.972 50.4154 110.382C52.4662 110.747 54.4839 111.304 56.4268 112.051L56.4185 112.059Z" fill="#4D96AB"/>
<path fill-rule="evenodd" clip-rule="evenodd" d="M41 94.1243C41 94.3236 41.0664 94.5146 41.1827 94.6723C41.2989 94.8301 41.465 94.9546 41.6476 95.0128V144.549C41.6476 146.01 42.2289 147.414 43.2667 148.443C44.3046 149.473 45.7079 150.054 47.1692 150.054H64.5891C66.0505 150.054 67.4537 149.473 68.4916 148.443C69.5295 147.414 70.1107 146.01 70.1107 144.549V95.0128C70.3017 94.9463 70.4594 94.8301 70.5757 94.6723C70.6919 94.5146 70.7583 94.3153 70.7583 94.1243V86.8259C70.7666 85.6884 70.3432 84.5841 69.571 83.7455C62.1065 77.9333 60.9939 61.0946 61.409 59.5087C61.409 59.3758 61.3841 59.2513 61.3343 59.1351C61.2845 59.0188 61.2098 58.9109 61.1184 58.8195C61.0271 58.7282 60.9108 58.6618 60.7946 58.6203C60.6701 58.5787 60.5455 58.5538 60.4127 58.5621C60.1719 58.5704 59.9394 58.6784 59.7733 58.861C59.6073 59.0354 59.5076 59.2762 59.5076 59.517C59.5076 59.8408 59.6405 62.4231 60.0307 66.0515H51.7359C52.1179 62.4231 52.2507 59.8408 52.259 59.517C52.259 59.2762 52.1677 59.0354 51.9933 58.861C51.8272 58.6867 51.5948 58.5787 51.354 58.5621C51.2211 58.5538 51.0966 58.5787 50.972 58.6203C50.8475 58.6618 50.7395 58.7365 50.6482 58.8195C50.5569 58.9109 50.4821 59.0188 50.4323 59.1351C50.3825 59.2513 50.3576 59.3841 50.3576 59.5087C50.889 60.6711 50.1085 77.9831 42.1956 83.7455C41.4235 84.5841 40.9917 85.6801 41.0083 86.8259V94.1243H41ZM68.201 138.978H43.5574V103.141H68.201V138.978ZM64.5891 148.153H47.1692C46.2143 148.153 45.2927 147.771 44.6202 147.098C43.9393 146.426 43.5574 145.504 43.5574 144.549V140.879H68.201V144.549C68.201 145.504 67.819 146.426 67.1382 147.098C66.4573 147.771 65.544 148.153 64.5891 148.153ZM60.2466 68.036C60.4293 69.5887 60.6534 71.2576 60.9441 72.9929H50.8226C51.1049 71.2576 51.3374 69.5887 51.52 68.036H60.2466ZM42.9097 86.8259C42.9014 86.17 43.1422 85.5389 43.5823 85.0573C47.1194 81.2462 48.7136 79.5939 50.15 74.9193C50.2247 74.9276 50.6482 74.8777 50.7229 74.8694H61.0354C61.1101 74.8777 61.5834 74.8528 61.6581 74.8445C64.8631 81.13 64.6389 81.296 68.1761 85.0573C68.6161 85.5389 68.8652 86.1783 68.8486 86.8259V93.1695H60.1553C59.9062 93.1695 59.6571 93.2691 59.4827 93.4518C59.3 93.6261 59.2004 93.8752 59.2004 94.1243C59.2004 94.3734 59.3 94.6225 59.4827 94.7969C59.6654 94.9795 59.9062 95.0792 60.1553 95.0792H68.2259V101.248H43.5491V95.0792H55.7131C55.9622 95.0792 56.2113 94.9795 56.3856 94.7969C56.5683 94.6142 56.668 94.3734 56.668 94.1243C56.668 93.8752 56.5683 93.6261 56.3856 93.4518C56.203 93.2691 55.9622 93.1695 55.7131 93.1695H42.9014V86.8259H42.9097Z" fill="#4D96AB"/>
<path fill-rule="evenodd" clip-rule="evenodd" d="M48.4236 128.515H63.3277C63.5768 128.515 63.8259 128.416 64.0002 128.233C64.1829 128.05 64.2825 127.809 64.2825 127.56C64.2825 127.311 64.1829 127.062 64.0002 126.888C63.8176 126.705 63.5768 126.605 63.3277 126.605H48.4236C48.1745 126.605 47.9254 126.705 47.7511 126.888C47.5684 127.062 47.4688 127.311 47.4688 127.56C47.4688 127.809 47.5684 128.059 47.7511 128.233C47.9337 128.407 48.1745 128.515 48.4236 128.515Z" fill="#4D96AB"/>
<path fill-rule="evenodd" clip-rule="evenodd" d="M63.3355 130.649H48.4314C48.1823 130.649 47.9332 130.749 47.7589 130.932C47.5762 131.114 47.4766 131.355 47.4766 131.604C47.4766 131.853 47.5762 132.102 47.7589 132.277C47.9415 132.459 48.1823 132.559 48.4314 132.559H63.3355C63.5846 132.559 63.8337 132.459 64.008 132.277C64.1907 132.094 64.2903 131.853 64.2903 131.604C64.2903 131.355 64.1907 131.106 64.008 130.932C63.8254 130.749 63.5846 130.649 63.3355 130.649Z" fill="#4D96AB"/>
<path fill-rule="evenodd" clip-rule="evenodd" d="M60.7779 144.316H50.9802C50.7312 144.316 50.4821 144.416 50.3077 144.599C50.125 144.773 50.0254 145.022 50.0254 145.271C50.0254 145.52 50.125 145.769 50.3077 145.944C50.4904 146.126 50.7312 146.226 50.9802 146.226H60.7779C61.027 146.226 61.2761 146.126 61.4505 145.944C61.6248 145.769 61.7328 145.52 61.7328 145.271C61.7328 145.022 61.6331 144.773 61.4505 144.599C61.2678 144.416 61.027 144.316 60.7779 144.316Z" fill="#4D96AB"/>
<path fill-rule="evenodd" clip-rule="evenodd" d="M41.7314 32.3574V35.5209C41.7314 35.77 41.8311 36.0191 42.0138 36.1934C42.1964 36.3761 42.4372 36.4757 42.6863 36.4757C42.9354 36.4757 43.1845 36.3761 43.3589 36.1934C43.5332 36.0107 43.6412 35.77 43.6412 35.5209V33.3122H50.6241V34.7238C50.6241 34.9729 50.7237 35.222 50.9064 35.3963C51.089 35.579 51.3298 35.6786 51.5789 35.6786H54.9583V43.9153H52.4508C52.2017 43.9153 51.9526 44.0149 51.7782 44.1976C51.5955 44.372 51.4959 44.6211 51.4959 44.8702C51.4959 45.1193 51.5955 45.3683 51.7782 45.5427C51.9609 45.7254 52.2017 45.825 52.4508 45.825H54.9168V47.2199H51.4544C51.2053 47.2199 50.9562 47.3196 50.7818 47.5022C50.5992 47.6849 50.4995 47.9257 50.4995 48.1748V57.001C50.4995 57.2501 50.5992 57.4992 50.7818 57.6735C50.9645 57.8562 51.2053 57.9558 51.4544 57.9558H60.2806C60.5297 57.9558 60.7788 57.8562 60.9531 57.6735C61.1358 57.4909 61.2354 57.2501 61.2354 57.001V48.1748C61.2354 47.9257 61.1358 47.6766 60.9531 47.5022C60.7788 47.3196 60.5297 47.2199 60.2806 47.2199H56.8182V45.825H59.2842C59.5333 45.825 59.7824 45.7254 59.9568 45.5427C60.1394 45.36 60.2391 45.1193 60.2391 44.8702C60.2391 44.6211 60.1394 44.372 59.9568 44.1976C59.7741 44.0149 59.5333 43.9153 59.2842 43.9153H56.8182V35.6786H60.1976C60.4466 35.6786 60.6957 35.579 60.8701 35.3963C61.0528 35.2137 61.1524 34.9729 61.1524 34.7238V29.9578C61.1524 29.7087 61.0528 29.4596 60.8701 29.2852C60.6874 29.1026 60.4466 29.0029 60.1976 29.0029H51.5623C51.3132 29.0029 51.0641 29.1026 50.8898 29.2852C50.7071 29.4679 50.6075 29.7087 50.6075 29.9578V31.4108H42.6697C42.4206 31.4108 42.1715 31.5105 41.9971 31.6931C41.8145 31.8758 41.7148 32.1166 41.7148 32.3657L41.7314 32.3574ZM59.334 56.0295H52.4175V49.113H59.334V56.0295ZM52.5255 30.9209H59.2925V33.7772H52.5255V30.9209Z" fill="#4D96AB"/>
<path fill-rule="evenodd" clip-rule="evenodd" d="M52.5332 34.2672H60.1555V30.4478H52.5332V34.2672Z" fill="#4D96AB" fill-opacity="0.658824"/>
<path fill-rule="evenodd" clip-rule="evenodd" d="M51.5781 56.1872H60.1552V48.5566H51.5781V56.1872Z" fill="#4D96AB" fill-opacity="0.658824"/>
<path fill-rule="evenodd" clip-rule="evenodd" d="M50.1504 73.3416L51.1052 67.1475H60.6372L62.0653 73.3416H50.1504Z" fill="#4D96AB" fill-opacity="0.678431"/>
<path fill-rule="evenodd" clip-rule="evenodd" d="M42.0469 140.057H68.733V103.149H42.0469V140.057Z" fill="#4D96AB" fill-opacity="0.560784"/>
<path fill-rule="evenodd" clip-rule="evenodd" d="M75.4824 94.1243C75.4824 94.3236 75.5488 94.5146 75.6651 94.6723C75.7813 94.8301 75.9474 94.9546 76.1301 95.0128V144.549C76.1301 146.01 76.7113 147.414 77.7492 148.443C78.7871 149.473 80.1903 150.054 81.6516 150.054H99.0715C100.533 150.054 101.936 149.473 102.974 148.443C104.012 147.414 104.593 146.01 104.593 144.549V95.0128C104.784 94.9463 104.942 94.8301 105.058 94.6723C105.174 94.5146 105.241 94.3153 105.241 94.1243V86.8259C105.249 85.6884 104.826 84.5841 104.053 83.7455C96.5889 77.9333 95.4763 61.0946 95.8915 59.5087C95.8915 59.3758 95.8665 59.2513 95.8167 59.1351C95.7669 59.0188 95.6922 58.9109 95.6008 58.8195C95.5095 58.7282 95.3933 58.6618 95.277 58.6203C95.1525 58.5787 95.0279 58.5538 94.8951 58.5621C94.6543 58.5704 94.4218 58.6784 94.2557 58.861C94.0897 59.0354 93.99 59.2762 93.99 59.517C93.99 59.8408 94.1229 62.4231 94.5131 66.0515H86.2183C86.6003 62.4231 86.7331 59.8408 86.7414 59.517C86.7414 59.2762 86.6501 59.0354 86.4757 58.861C86.3097 58.6867 86.0772 58.5787 85.8364 58.5621C85.7035 58.5538 85.579 58.5787 85.4545 58.6203C85.3299 58.6618 85.222 58.7365 85.1306 58.8195C85.0393 58.9109 84.9646 59.0188 84.9147 59.1351C84.8649 59.2513 84.84 59.3841 84.84 59.5087C85.3714 60.6711 84.5909 77.9831 76.6781 83.7455C75.9059 84.5841 75.4741 85.6801 75.4907 86.8259V94.1243H75.4824ZM102.683 138.978H78.0398V103.141H102.683V138.978ZM99.0715 148.153H81.6516C80.6968 148.153 79.7751 147.771 79.1026 147.098C78.4217 146.426 78.0398 145.504 78.0398 144.549V140.879H102.683V144.549C102.683 145.504 102.301 146.426 101.621 147.098C100.94 147.771 100.026 148.153 99.0715 148.153ZM94.729 68.036C94.9117 69.5887 95.1359 71.2576 95.4265 72.9929H85.305C85.5873 71.2576 85.8198 69.5887 86.0025 68.036H94.729ZM77.3921 86.8259C77.3838 86.17 77.6246 85.5389 78.0647 85.0573C81.6018 81.2462 83.196 79.5939 84.6324 74.9193C84.7072 74.9276 85.1306 74.8777 85.2054 74.8694H95.5178C95.5925 74.8777 96.0658 74.8528 96.1405 74.8445C99.3455 81.13 99.1214 81.296 102.658 85.0573C103.099 85.5389 103.348 86.1783 103.331 86.8259V93.1695H94.6377C94.3886 93.1695 94.1395 93.2691 93.9651 93.4518C93.7825 93.6261 93.6828 93.8752 93.6828 94.1243C93.6828 94.3734 93.7825 94.6225 93.9651 94.7969C94.1478 94.9795 94.3886 95.0792 94.6377 95.0792H102.708V101.248H78.0315V95.0792H90.1955C90.4446 95.0792 90.6937 94.9795 90.8681 94.7969C91.0507 94.6142 91.1504 94.3734 91.1504 94.1243C91.1504 93.8752 91.0507 93.6261 90.8681 93.4518C90.6854 93.2691 90.4446 93.1695 90.1955 93.1695H77.3838V86.8259H77.3921Z" fill="#4D96AB"/>
<path fill-rule="evenodd" clip-rule="evenodd" d="M95.2603 144.316H85.4627C85.2136 144.316 84.9645 144.416 84.7901 144.599C84.6074 144.773 84.5078 145.022 84.5078 145.271C84.5078 145.52 84.6074 145.769 84.7901 145.944C84.9728 146.126 85.2136 146.226 85.4627 146.226H95.2603C95.5094 146.226 95.7585 146.126 95.9329 145.944C96.1072 145.769 96.2152 145.52 96.2152 145.271C96.2152 145.022 96.1156 144.773 95.9329 144.599C95.7502 144.416 95.5094 144.316 95.2603 144.316Z" fill="#4D96AB"/>
<path fill-rule="evenodd" clip-rule="evenodd" d="M76.2139 32.3574V35.5209C76.2139 35.77 76.3135 36.0191 76.4962 36.1934C76.6788 36.3761 76.9196 36.4757 77.1687 36.4757C77.4178 36.4757 77.6669 36.3761 77.8413 36.1934C78.0156 36.0107 78.1236 35.77 78.1236 35.5209V33.3122H85.1065V34.7238C85.1065 34.9729 85.2061 35.222 85.3888 35.3963C85.5715 35.579 85.8123 35.6786 86.0614 35.6786H89.4407V43.9153H86.9332C86.6841 43.9153 86.435 44.0149 86.2606 44.1976C86.078 44.372 85.9783 44.6211 85.9783 44.8702C85.9783 45.1193 86.078 45.3683 86.2606 45.5427C86.4433 45.7254 86.6841 45.825 86.9332 45.825H89.3992V47.2199H85.9368C85.6877 47.2199 85.4386 47.3196 85.2643 47.5022C85.0816 47.6849 84.982 47.9257 84.982 48.1748V57.001C84.982 57.2501 85.0816 57.4992 85.2643 57.6735C85.4469 57.8562 85.6877 57.9558 85.9368 57.9558H94.763C95.0121 57.9558 95.2612 57.8562 95.4356 57.6735C95.6182 57.4909 95.7179 57.2501 95.7179 57.001V48.1748C95.7179 47.9257 95.6182 47.6766 95.4356 47.5022C95.2612 47.3196 95.0121 47.2199 94.763 47.2199H91.3006V45.825H93.7666C94.0157 45.825 94.2648 45.7254 94.4392 45.5427C94.6219 45.36 94.7215 45.1193 94.7215 44.8702C94.7215 44.6211 94.6219 44.372 94.4392 44.1976C94.2565 44.0149 94.0157 43.9153 93.7666 43.9153H91.3006V35.6786H94.68C94.9291 35.6786 95.1782 35.579 95.3525 35.3963C95.5352 35.2137 95.6348 34.9729 95.6348 34.7238V29.9578C95.6348 29.7087 95.5352 29.4596 95.3525 29.2852C95.1699 29.1026 94.9291 29.0029 94.68 29.0029H86.0447C85.7957 29.0029 85.5466 29.1026 85.3722 29.2852C85.1895 29.4679 85.0899 29.7087 85.0899 29.9578V31.4108H77.1521C76.903 31.4108 76.6539 31.5105 76.4796 31.6931C76.2969 31.8758 76.1973 32.1166 76.1973 32.3657L76.2139 32.3574ZM93.8165 56.0295H86.9V49.113H93.8165V56.0295ZM87.0079 30.9209H93.7749V33.7772H87.0079V30.9209Z" fill="#4D96AB"/>
<path fill-rule="evenodd" clip-rule="evenodd" d="M87.0156 34.2672H94.6379V30.4478H87.0156V34.2672Z" fill="#4D96AB" fill-opacity="0.658824"/>
<path fill-rule="evenodd" clip-rule="evenodd" d="M86.0605 56.1872H94.6377V48.5566H86.0605V56.1872Z" fill="#4D96AB" fill-opacity="0.658824"/>
<path fill-rule="evenodd" clip-rule="evenodd" d="M84.6328 73.3416L85.5794 67.1475H95.1113L96.5395 73.3416H84.6328Z" fill="#4D96AB" fill-opacity="0.678431"/>
<path fill-rule="evenodd" clip-rule="evenodd" d="M76.5293 140.057H103.215V103.149H76.5293V140.057Z" fill="#4D96AB" fill-opacity="0.560784"/>
<path fill-rule="evenodd" clip-rule="evenodd" d="M109.957 94.1243C109.957 94.3236 110.023 94.5146 110.14 94.6723C110.256 94.8301 110.422 94.9546 110.605 95.0128V144.549C110.605 146.01 111.186 147.414 112.224 148.443C113.262 149.473 114.665 150.054 116.126 150.054H133.546C135.007 150.054 136.411 149.473 137.449 148.443C138.486 147.414 139.068 146.01 139.068 144.549V95.0128C139.259 94.9463 139.416 94.8301 139.533 94.6723C139.649 94.5146 139.715 94.3153 139.715 94.1243V86.8259C139.724 85.6884 139.3 84.5841 138.528 83.7455C131.064 77.9333 129.951 61.0946 130.366 59.5087C130.366 59.3758 130.341 59.2513 130.291 59.1351C130.242 59.0188 130.167 58.9109 130.075 58.8195C129.984 58.7282 129.868 58.6618 129.752 58.6203C129.627 58.5787 129.503 58.5538 129.37 58.5621C129.129 58.5704 128.896 58.6784 128.73 58.861C128.564 59.0354 128.465 59.2762 128.465 59.517C128.465 59.8408 128.597 62.4231 128.988 66.0515H120.693C121.075 62.4231 121.208 59.8408 121.216 59.517C121.216 59.2762 121.125 59.0354 120.95 58.861C120.784 58.6867 120.552 58.5787 120.311 58.5621C120.178 58.5538 120.054 58.5787 119.929 58.6203C119.805 58.6618 119.697 58.7365 119.605 58.8195C119.514 58.9109 119.439 59.0188 119.389 59.1351C119.34 59.2513 119.315 59.3841 119.315 59.5087C119.846 60.6711 119.066 77.9831 111.153 83.7455C110.38 84.5841 109.949 85.6801 109.965 86.8259V94.1243H109.957ZM137.158 138.978H112.514V103.141H137.158V138.978ZM133.546 148.153H116.126C115.171 148.153 114.25 147.771 113.577 147.098C112.896 146.426 112.514 145.504 112.514 144.549V140.879H137.158V144.549C137.158 145.504 136.776 146.426 136.095 147.098C135.414 147.771 134.501 148.153 133.546 148.153ZM129.204 68.036C129.386 69.5887 129.61 71.2576 129.901 72.9929H119.78C120.062 71.2576 120.294 69.5887 120.477 68.036H129.204ZM111.867 86.8259C111.858 86.17 112.099 85.5389 112.539 85.0573C116.076 81.2462 117.671 79.5939 119.107 74.9193C119.182 74.9276 119.605 74.8777 119.68 74.8694H129.992C130.067 74.8777 130.54 74.8528 130.615 74.8445C133.82 81.13 133.596 81.296 137.133 85.0573C137.573 85.5389 137.822 86.1783 137.806 86.8259V93.1695H129.112C128.863 93.1695 128.614 93.2691 128.44 93.4518C128.257 93.6261 128.157 93.8752 128.157 94.1243C128.157 94.3734 128.257 94.6225 128.44 94.7969C128.622 94.9795 128.863 95.0792 129.112 95.0792H137.183V101.248H112.506V95.0792H124.67C124.919 95.0792 125.168 94.9795 125.343 94.7969C125.525 94.6142 125.625 94.3734 125.625 94.1243C125.625 93.8752 125.525 93.6261 125.343 93.4518C125.16 93.2691 124.919 93.1695 124.67 93.1695H111.858V86.8259H111.867Z" fill="#4D96AB"/>
<path fill-rule="evenodd" clip-rule="evenodd" d="M129.735 144.316H119.937C119.688 144.316 119.439 144.416 119.265 144.599C119.082 144.773 118.982 145.022 118.982 145.271C118.982 145.52 119.082 145.769 119.265 145.944C119.447 146.126 119.688 146.226 119.937 146.226H129.735C129.984 146.226 130.233 146.126 130.407 145.944C130.582 145.769 130.69 145.52 130.69 145.271C130.69 145.022 130.59 144.773 130.407 144.599C130.225 144.416 129.984 144.316 129.735 144.316Z" fill="#4D96AB"/>
<path fill-rule="evenodd" clip-rule="evenodd" d="M110.688 32.3574V35.5209C110.688 35.77 110.788 36.0191 110.971 36.1934C111.153 36.3761 111.394 36.4757 111.643 36.4757C111.892 36.4757 112.142 36.3761 112.316 36.1934C112.49 36.0107 112.598 35.77 112.598 35.5209V33.3122H119.581V34.7238C119.581 34.9729 119.681 35.222 119.863 35.3963C120.046 35.579 120.287 35.6786 120.536 35.6786H123.915V43.9153H121.408C121.159 43.9153 120.91 44.0149 120.735 44.1976C120.553 44.372 120.453 44.6211 120.453 44.8702C120.453 45.1193 120.553 45.3683 120.735 45.5427C120.918 45.7254 121.159 45.825 121.408 45.825H123.874V47.2199H120.411C120.162 47.2199 119.913 47.3196 119.739 47.5022C119.556 47.6849 119.457 47.9257 119.457 48.1748V57.001C119.457 57.2501 119.556 57.4992 119.739 57.6735C119.922 57.8562 120.162 57.9558 120.411 57.9558H129.238C129.487 57.9558 129.736 57.8562 129.91 57.6735C130.093 57.4909 130.192 57.2501 130.192 57.001V48.1748C130.192 47.9257 130.093 47.6766 129.91 47.5022C129.736 47.3196 129.487 47.2199 129.238 47.2199H125.775V45.825H128.241C128.49 45.825 128.739 45.7254 128.914 45.5427C129.096 45.36 129.196 45.1193 129.196 44.8702C129.196 44.6211 129.096 44.372 128.914 44.1976C128.731 44.0149 128.49 43.9153 128.241 43.9153H125.775V35.6786H129.155C129.404 35.6786 129.653 35.579 129.827 35.3963C130.01 35.2137 130.109 34.9729 130.109 34.7238V29.9578C130.109 29.7087 130.01 29.4596 129.827 29.2852C129.644 29.1026 129.404 29.0029 129.155 29.0029H120.519C120.27 29.0029 120.021 29.1026 119.847 29.2852C119.664 29.4679 119.564 29.7087 119.564 29.9578V31.4108H111.627C111.378 31.4108 111.129 31.5105 110.954 31.6931C110.772 31.8758 110.672 32.1166 110.672 32.3657L110.688 32.3574ZM128.291 56.0295H121.375V49.113H128.291V56.0295ZM121.483 30.9209H128.25V33.7772H121.483V30.9209Z" fill="#4D96AB"/>
<path fill-rule="evenodd" clip-rule="evenodd" d="M121.49 34.2672H129.112V30.4478H121.49V34.2672Z" fill="#4D96AB" fill-opacity="0.658824"/>
<path fill-rule="evenodd" clip-rule="evenodd" d="M120.535 56.1872H129.112V48.5566H120.535V56.1872Z" fill="#4D96AB" fill-opacity="0.658824"/>
<path fill-rule="evenodd" clip-rule="evenodd" d="M119.107 73.3416L120.062 67.1475H129.594L131.022 73.3416H119.107Z" fill="#4D96AB" fill-opacity="0.678431"/>
<path fill-rule="evenodd" clip-rule="evenodd" d="M111.004 140.057H137.69V103.149H111.004V140.057Z" fill="#4D96AB" fill-opacity="0.560784"/>
</g>
</g>
<defs>
<filter id="filter0_d_675_3903" x="-4.375" y="-4.375" width="188.75" height="188.75" filterUnits="userSpaceOnUse" color-interpolation-filters="sRGB">
<feFlood flood-opacity="0" result="BackgroundImageFix"/>
<feColorMatrix in="SourceAlpha" type="matrix" values="0 0 0 0 0 0 0 0 0 0 0 0 0 0 0 0 0 0 127 0" result="hardAlpha"/>
<feMorphology radius="2" operator="dilate" in="SourceAlpha" result="effect1_dropShadow_675_3903"/>
<feOffset/>
<feGaussianBlur stdDeviation="4"/>
<feComposite in2="hardAlpha" operator="out"/>
<feColorMatrix type="matrix" values="0 0 0 0 0 0 0 0 0 0 0 0 0 0 0 0 0 0 0.25 0"/>
<feBlend mode="normal" in2="BackgroundImageFix" result="effect1_dropShadow_675_3903"/>
<feBlend mode="normal" in="SourceGraphic" in2="effect1_dropShadow_675_3903" result="shape"/>
</filter>
<clipPath id="clip0_675_3903">
<rect width="180" height="180" fill="white"/>
</clipPath>
<clipPath id="clip1_675_3903">
<rect width="98.7156" height="121.065" fill="white" transform="translate(41 29)"/>
</clipPath>
</defs>
</svg>
