<svg width="17" height="13" viewBox="0 0 17 13" fill="none" xmlns="http://www.w3.org/2000/svg">
<path d="M5.86106 12.9999C5.72395 12.9995 5.58838 12.9708 5.4628 12.9158C5.33722 12.8607 5.2243 12.7804 5.13106 12.6799L0.271062 7.50991C0.0893891 7.3163 -0.00793272 7.05845 0.000506415 6.79309C0.00468505 6.6617 0.034703 6.53241 0.0888462 6.41262C0.142989 6.29282 0.220197 6.18487 0.316062 6.09491C0.411927 6.00496 0.524572 5.93476 0.647564 5.88834C0.770556 5.84192 0.901487 5.82018 1.03288 5.82435C1.29825 5.83279 1.54939 5.9463 1.73106 6.13991L5.85106 10.5299L14.2611 1.32991C14.3464 1.22363 14.4526 1.13593 14.5731 1.07217C14.6935 1.00842 14.8258 0.969974 14.9617 0.95919C15.0975 0.948405 15.2342 0.965513 15.3632 1.00946C15.4922 1.05341 15.6109 1.12327 15.7119 1.21476C15.813 1.30624 15.8943 1.41742 15.9508 1.54145C16.0073 1.66549 16.0378 1.79977 16.0406 1.93605C16.0433 2.07233 16.0181 2.20772 15.9666 2.33392C15.9151 2.46012 15.8384 2.57446 15.7411 2.66991L6.60106 12.6699C6.5087 12.7723 6.39618 12.8544 6.27055 12.9112C6.14493 12.968 6.00892 12.9982 5.87106 12.9999H5.86106Z" fill="#00CE18"/>
</svg>
