<svg width="23" height="23" viewBox="0 0 23 23" fill="none" xmlns="http://www.w3.org/2000/svg">
<path d="M14.5136 11.0753L14.0894 11.4996L14.5136 11.9238L21.8635 19.2743L21.8635 19.2743C22.5788 19.9895 22.5788 21.1482 21.8635 21.8635L21.8635 21.8635C21.1482 22.5788 19.9894 22.5788 19.2741 21.8635L18.8499 22.2878L19.2741 21.8635L11.9243 14.514L11.5 14.0897L11.0757 14.514L3.72589 21.8635L4.15014 22.2878L3.72588 21.8635C3.01057 22.5788 1.85178 22.5788 1.13648 21.8635L1.13646 21.8635C0.421184 21.1483 0.421172 19.9896 1.13647 19.2743L8.48633 11.9247L8.91062 11.5004L8.48633 11.0761L1.13647 3.72655C0.421176 3.01128 0.421176 1.85256 1.13647 1.13729C1.85178 0.422007 3.01058 0.422007 3.72589 1.13729L11.0757 8.48688L11.5 8.91115L11.9243 8.48686L19.2741 1.13645C19.2741 1.13645 19.2741 1.13644 19.2741 1.13644C19.9894 0.421187 21.1482 0.42118 21.8635 1.13646L22.2871 0.71289L21.8635 1.13647C22.5788 1.85174 22.5788 3.01045 21.8635 3.72571L22.2849 4.14718L21.8635 3.72572L14.5136 11.0753Z" fill="white" stroke="#2F5F6D" stroke-width="1.2"/>
</svg>
