<svg width="23" height="23" viewBox="0 0 23 23" fill="none" xmlns="http://www.w3.org/2000/svg">
<path d="M14.5843 11.146L14.2308 11.4996L14.5843 11.8531L21.9342 19.2036L21.9342 19.2036C22.6886 19.9579 22.6886 21.1799 21.9342 21.9342L21.9342 21.9342C21.1799 22.6886 19.9578 22.6886 19.2034 21.9342L18.8499 22.2878L19.2034 21.9342L11.8535 14.5847L11.5 14.2311L11.1465 14.5847L3.7966 21.9342L4.15014 22.2878L3.79659 21.9342C3.04223 22.6886 1.82012 22.6886 1.06577 21.9342L1.06575 21.9342C0.311419 21.1799 0.311409 19.9579 1.06576 19.2036L8.41562 11.854L8.76919 11.5004L8.41562 11.1469L1.06576 3.79726C0.311413 3.04294 0.311413 1.8209 1.06576 1.06658C1.82012 0.312244 3.04224 0.312244 3.7966 1.06658L11.1465 8.41617L11.5 8.76973L11.8536 8.41615L19.2034 1.06574C19.2034 1.06574 19.2034 1.06573 19.2034 1.06573C19.9577 0.311424 21.1799 0.311418 21.9342 1.06575L22.2869 0.713013L21.9342 1.06576C22.6886 1.82008 22.6886 3.04211 21.9342 3.79643L22.2878 4.14999L21.9342 3.79643L14.5843 11.146Z" fill="#5D5B58" stroke="white"/>
</svg>
