<svg width="1476" height="392" viewBox="0 0 1476 392" fill="none" xmlns="http://www.w3.org/2000/svg">
<path d="M1146.03 122.448C1146.38 123.562 1146.59 124.716 1146.59 125.953C1146.59 251.823 1205.84 251.823 1237.67 251.823H1371.81C1376.65 251.823 1380.58 256.482 1380.58 262.213V268.768C1380.58 274.499 1376.65 279.158 1371.81 279.158H1146V392H1399.71C1418.88 390.557 1475.79 385.733 1476 265.676C1476.03 145.99 1418.77 141.166 1399.95 139.599L1249.91 139.105C1245.53 139.105 1242.02 134.899 1242.02 129.746V123.191C1242.02 118.037 1245.56 113.832 1249.91 113.832H1476V0H1237.94C1208.38 0.0412284 1147.25 0.0823801 1146.03 122.448Z" fill="#B08254" fill-opacity="0.03"/>
<path d="M328.827 118.396C326.295 0.082513 266.328 0 237.299 0H0V268.822C1.14453 386.27 57.712 390.598 76.2672 392H329V270.677V270.059V260V124.167C328.965 123.878 328.965 123.549 328.965 123.26C328.931 121.57 328.861 120.003 328.827 118.396ZM233.449 268.657C233.449 274.388 229.53 279.046 224.709 279.046H113.69C103.354 279.046 94.9612 269.029 94.9612 256.744V123.136C94.9612 117.406 98.8804 112.748 103.667 112.748H214.686C225.021 112.748 233.415 122.765 233.415 135.05V268.657H233.449Z" fill="#B08254" fill-opacity="0.03"/>
<path d="M673.965 268.851C673.965 268.809 673.965 268.809 673.965 268.768V126.035V124.221C673.896 123.933 673.896 123.603 673.896 123.273C673.896 122.572 673.861 121.912 673.861 121.17C672.266 0.0823898 611.578 0 582.309 0H345V112.719H570.102C574.922 112.719 578.841 117.377 578.841 123.108V129.663C578.841 135.394 574.957 140.053 570.136 140.053L420.045 140.589C402.082 142.114 345.624 146.897 345.624 265.058C345.624 266.253 345.416 267.655 345.069 268.933C346.283 386.269 402.671 390.598 421.294 392H674V273.839L673.965 268.851ZM578.841 268.768C578.841 274.499 574.922 279.158 570.102 279.158H448.343C443.523 279.158 439.604 274.499 439.604 268.768V262.213C439.604 256.482 443.523 251.823 448.343 251.823H570.102C574.922 251.823 578.841 256.482 578.841 262.213V268.768Z" fill="#B08254" fill-opacity="0.03"/>
<path d="M690.069 122.477C690.416 123.59 690.624 124.744 690.624 125.981C690.624 251.838 749.689 251.838 781.424 251.838H915.125C919.981 251.838 923.865 256.496 923.865 262.227V268.781C923.865 274.511 919.981 279.17 915.125 279.17H690V392H942.941C961.774 390.598 1017.23 385.775 1018.93 270.389C1018.93 270.224 1018.93 270.059 1018.93 269.894C1018.97 268.493 1019 267.132 1019 265.689C1019 263.793 1018.93 262.062 1018.93 260.207C1017.2 145.933 961.669 141.151 943.184 139.626L793.632 139.09C789.297 139.09 785.759 134.885 785.759 129.732V123.178C785.759 118.025 789.262 113.82 793.632 113.82H1019V112.707V0H781.666C752.221 0.0824482 691.283 0.123636 690.069 122.477Z" fill="#B08254" fill-opacity="0.03"/>
<path d="M1035 119.41V123.162V261.375V265.127V268.714V268.755V392H1131V273.786V268.838V126.007V120.936V0H1035V119.41Z" fill="#B08254" fill-opacity="0.03"/>
</svg>
