<svg width="158" height="158" viewBox="0 0 158 158" fill="none" xmlns="http://www.w3.org/2000/svg">
<circle cx="78.5" cy="79.5" r="77.5" fill="white"/>
<g clip-path="url(#clip0_2_74)">
<path d="M77.6357 156.812C34.7714 156.812 1.1875 122.632 1.1875 79C1.1875 60.1746 7.60444 42.1117 19.2659 28.1418C20.1893 27.042 21.8182 26.9019 22.9179 27.8149C24.0177 28.7331 24.1681 30.3672 23.2499 31.4669C12.3666 44.5031 6.375 61.3833 6.375 79C6.375 119.727 37.6764 151.625 77.6357 151.625C118.435 151.625 151.625 119.047 151.625 79C151.625 38.9525 118.435 6.375 77.6357 6.375C64.9782 6.375 52.6682 9.59125 42.0598 15.671C40.8304 16.3609 39.2326 15.9511 38.5219 14.7061C37.8112 13.4611 38.2418 11.8789 39.4868 11.1631C50.8786 4.63719 64.0704 1.1875 77.6357 1.1875C121.294 1.1875 156.812 36.0942 156.812 79C156.812 121.906 121.294 156.812 77.6357 156.812Z" fill="url(#paint0_linear_2_74)" stroke="url(#paint1_linear_2_74)" stroke-width="2"/>
<path d="M35.1293 19.6135C35.1293 21.0401 33.9621 22.2073 32.5356 22.2073C31.109 22.2073 29.9418 21.0401 29.9418 19.6135C29.9418 18.1869 31.109 17.0198 32.5356 17.0198C33.9621 17.0198 35.1293 18.1818 35.1293 19.6135Z" fill="#2F5F6D" stroke="#2F5F6D" stroke-width="3"/>
<path d="M79 47.75C96.1875 47.75 110.25 61.8125 110.25 79C110.25 96.1875 96.1875 110.25 79 110.25C61.8125 110.25 47.75 96.1875 47.75 79V69.625" stroke="#6D6D6D" stroke-width="4" stroke-miterlimit="10" stroke-linecap="round" stroke-linejoin="round"/>
<path d="M60.25 82.125L47.75 69.625L35.25 82.125" stroke="#6D6D6D" stroke-width="4" stroke-miterlimit="10" stroke-linecap="round" stroke-linejoin="round"/>
<path d="M79 35.25C103.062 35.25 122.75 54.9375 122.75 79C122.75 103.062 103.062 122.75 79 122.75" stroke="#6D6D6D" stroke-width="4" stroke-miterlimit="10" stroke-linecap="round" stroke-linejoin="round"/>
<path d="M86.3731 83.3504C89.3905 83.3504 92.2842 82.1335 94.4178 79.9675C96.5514 77.8014 97.75 74.8635 97.75 71.8002C97.75 68.7369 96.5514 65.7991 94.4178 63.633C92.2842 61.4669 89.3905 60.25 86.3731 60.25H69.625V63.7434H73.9202V79.857H69.625V83.3504H73.9202V88.143H69.625V91.6365H73.9202V97.75H77.3612V91.6365H87.6904V88.143H77.3612V83.3504H86.3731ZM77.3612 63.7434H86.3731C87.4153 63.7434 88.4472 63.9518 89.41 64.3567C90.3729 64.7616 91.2477 65.3551 91.9846 66.1032C92.7215 66.8514 93.3061 67.7395 93.7049 68.717C94.1037 69.6945 94.309 70.7422 94.309 71.8002C94.309 72.8582 94.1037 73.9059 93.7049 74.8834C93.3061 75.8609 92.7215 76.7491 91.9846 77.4972C91.2477 78.2454 90.3729 78.8388 89.41 79.2437C88.4472 79.6486 87.4153 79.857 86.3731 79.857H77.3612V63.7434Z" fill="#6D6D6D" stroke="#6D6D6D" stroke-width="0.5"/>
</g>
<defs>
<linearGradient id="paint0_linear_2_74" x1="156.813" y1="79" x2="1.1875" y2="79" gradientUnits="userSpaceOnUse">
<stop stop-color="#2F5F6D"/>
<stop offset="1" stop-color="#6AE9FB"/>
</linearGradient>
<linearGradient id="paint1_linear_2_74" x1="156.813" y1="79" x2="1.1875" y2="79" gradientUnits="userSpaceOnUse">
<stop stop-color="#2F5F6D"/>
<stop offset="1" stop-color="#6AE9FB"/>
</linearGradient>
<clipPath id="clip0_2_74">
<rect width="158" height="158" fill="white"/>
</clipPath>
</defs>
</svg>
