<svg width="158" height="158" viewBox="0 0 158 158" fill="none" xmlns="http://www.w3.org/2000/svg">
<circle cx="79.5" cy="78.5" r="77.5" fill="white"/>
<path d="M77.6357 156.812C34.7714 156.812 1.1875 122.632 1.1875 79C1.1875 60.1746 7.60444 42.1117 19.2659 28.1418C20.1893 27.042 21.8182 26.9019 22.9179 27.8149C24.0177 28.7331 24.1681 30.3672 23.2499 31.4669C12.3666 44.5031 6.375 61.3833 6.375 79C6.375 119.727 37.6764 151.625 77.6357 151.625C118.435 151.625 151.625 119.047 151.625 79C151.625 38.9525 118.435 6.375 77.6357 6.375C64.9782 6.375 52.6682 9.59125 42.0598 15.671C40.8304 16.3609 39.2326 15.9511 38.5219 14.7061C37.8112 13.4611 38.2418 11.8789 39.4868 11.1631C50.8786 4.63719 64.0704 1.1875 77.6357 1.1875C121.294 1.1875 156.812 36.0942 156.812 79C156.812 121.906 121.294 156.812 77.6357 156.812Z" fill="url(#paint0_linear_139_93)" stroke="url(#paint1_linear_139_93)" stroke-width="2"/>
<path d="M35.1293 19.6135C35.1293 21.0401 33.9621 22.2073 32.5356 22.2073C31.109 22.2073 29.9418 21.0401 29.9418 19.6135C29.9418 18.1869 31.109 17.0198 32.5356 17.0198C33.9621 17.0198 35.1293 18.1818 35.1293 19.6135Z" fill="#2F5F6D" stroke="#2F5F6D" stroke-width="3"/>
<path d="M50.152 115.64C47.208 115.64 42.792 115.405 36.904 114.936V107.192C42.1947 108.173 46.184 108.664 48.872 108.664C51.2187 108.664 52.9253 108.408 53.992 107.896C55.0587 107.341 55.592 106.488 55.592 105.336V99.128C55.592 97.976 55.208 97.1653 54.44 96.696C53.672 96.184 52.4133 95.928 50.664 95.928H37.864V73.464H64.104V80.632H47.208V89.08H53.736C56.2107 89.08 58.6213 89.5493 60.968 90.488C62.248 91.0427 63.272 91.896 64.04 93.048C64.808 94.2 65.192 95.544 65.192 97.08V105.784C65.192 107.448 64.872 108.941 64.232 110.264C63.592 111.544 62.7813 112.525 61.8 113.208C60.9467 113.848 59.7947 114.36 58.344 114.744C56.936 115.128 55.5707 115.384 54.248 115.512C52.712 115.597 51.3467 115.64 50.152 115.64ZM105.261 72.824H110.829L90.093 115.64H84.525L105.261 72.824ZM83.181 97.144C80.621 97.144 78.573 96.952 77.037 96.568C75.5437 96.1413 74.413 95.416 73.645 94.392C72.877 93.3253 72.493 91.7893 72.493 89.784V82.168C72.493 80.8027 72.7063 79.5867 73.133 78.52C73.5597 77.4533 74.1143 76.6213 74.797 76.024C75.3943 75.512 76.1837 75.1067 77.165 74.808C78.1463 74.4667 79.1277 74.232 80.109 74.104C81.2183 74.0187 82.2423 73.976 83.181 73.976C84.5037 73.976 85.5703 74.0187 86.381 74.104C87.2343 74.1893 88.1303 74.3813 89.069 74.68C90.093 75.0213 90.925 75.4693 91.565 76.024C92.205 76.5787 92.7383 77.368 93.165 78.392C93.5917 79.416 93.805 80.6747 93.805 82.168V89.784C93.805 91.7893 93.421 93.3253 92.653 94.392C91.9277 95.416 90.797 96.1413 89.261 96.568C87.7677 96.952 85.741 97.144 83.181 97.144ZM83.181 92.28C85.5277 92.28 86.701 91.6613 86.701 90.424V81.016C86.701 79.5653 85.5277 78.84 83.181 78.84C80.7917 78.84 79.597 79.5653 79.597 81.016V90.424C79.597 91.1493 79.8743 91.64 80.429 91.896C80.9837 92.152 81.901 92.28 83.181 92.28ZM111.853 115.64C109.293 115.64 107.245 115.427 105.709 115C104.216 114.616 103.085 113.912 102.317 112.888C101.549 111.821 101.165 110.285 101.165 108.28V100.664C101.165 99.2987 101.378 98.0827 101.805 97.016C102.232 95.9493 102.786 95.1173 103.469 94.52C104.066 94.008 104.856 93.6027 105.837 93.304C106.818 92.9627 107.8 92.728 108.781 92.6C109.89 92.5147 110.914 92.472 111.853 92.472C113.176 92.472 114.242 92.5147 115.053 92.6C115.906 92.6853 116.802 92.8773 117.741 93.176C118.765 93.5173 119.597 93.9653 120.237 94.52C120.877 95.0747 121.41 95.864 121.837 96.888C122.264 97.912 122.477 99.1707 122.477 100.664V108.28C122.477 110.285 122.093 111.821 121.325 112.888C120.6 113.912 119.469 114.616 117.933 115C116.44 115.427 114.413 115.64 111.853 115.64ZM111.853 110.776C114.2 110.776 115.373 110.157 115.373 108.92V99.512C115.373 98.0613 114.2 97.336 111.853 97.336C109.464 97.336 108.269 98.0613 108.269 99.512V108.92C108.269 110.157 109.464 110.776 111.853 110.776Z" fill="#6D6D6D"/>
<path d="M98.4169 47.6542C96.678 48.5479 94.8337 49.4416 94.2014 50.9661C93.5164 52.5432 94.2541 54.4357 94.8864 56.2757C95.5187 58.0105 96.1511 59.6928 95.3607 60.4287C94.5176 61.2699 92.8841 60.9019 91.1452 60.4813C89.4063 60.0607 87.6674 59.6928 86.1393 60.3236C84.6639 60.9544 83.7155 62.4264 82.8197 63.8984C81.8185 65.4755 80.87 67 79.5 67C78.1827 67 77.2342 65.4755 76.233 63.8458C75.3372 62.3213 74.3888 60.7967 72.9133 60.1659C71.3852 59.535 69.5937 59.9556 67.8548 60.4287C66.1159 60.8493 64.4824 61.2699 63.6393 60.4813C62.8489 59.6928 63.3759 58.0105 63.9555 56.2757C64.5351 54.4357 65.1674 52.5432 64.4824 51.0187C63.8501 49.4942 62.1112 48.6005 60.4251 47.7593C58.6862 46.8657 57.0527 46.0245 57.0527 44.7103C57.0527 44.6577 57.0527 44.5526 57 44.5C57 44.4474 57.0527 44.3423 57.0527 44.2897C57.0527 43.028 58.6862 42.1869 60.4251 41.2407C62.1112 40.3995 63.8501 39.5058 64.4824 37.9813C65.1148 36.4042 64.5351 34.5117 63.9555 32.7243C63.3759 30.9369 62.8489 29.2547 63.6393 28.5187C64.4824 27.6776 66.1159 28.0981 67.8548 28.5713C69.5937 28.9918 71.3852 29.465 72.9133 28.8341C74.3888 28.2033 75.3372 26.6787 76.233 25.1542C77.2342 23.5245 78.13 22 79.5 22C80.87 22 81.8185 23.5245 82.8197 25.1016C83.7681 26.5736 84.7166 28.0456 86.1393 28.6764C87.6674 29.3072 89.4063 28.8867 91.1452 28.5187C92.8841 28.0981 94.5176 27.7301 95.3607 28.5713C96.1511 29.3072 95.5187 30.9895 94.8864 32.7243C94.2014 34.5643 93.5164 36.4568 94.2014 38.0339C94.8337 39.5584 96.678 40.4521 98.4169 41.3458C100.261 42.2395 101.947 43.1332 101.947 44.3949C101.947 44.4474 101.947 44.5526 102 44.6051C102 44.6577 101.947 44.7629 101.947 44.8154C102 45.8668 100.261 46.7605 98.4169 47.6542Z" fill="#6D6D6D"/>
<path d="M86.666 37.1735L70.3046 50.5007C69.9796 50.7783 69.8712 51.3336 70.1963 51.6668C70.3588 51.8889 70.5755 52 70.8464 52C71.0089 52 71.2256 51.9445 71.334 51.8334L87.6954 38.5062C88.0204 38.2286 88.1288 37.6733 87.8037 37.3401C87.5328 36.9514 87.0453 36.8959 86.666 37.1735Z" fill="white"/>
<path d="M74.9949 43C75.2056 43 75.4162 43 75.6269 42.9477C77.7863 42.6336 79.3137 40.5924 78.945 38.3942C78.787 37.3474 78.2077 36.4053 77.365 35.7773C76.5223 35.1492 75.4689 34.8875 74.4156 35.0445C73.3622 35.2015 72.4142 35.7773 71.7821 36.6147C71.1501 37.4521 70.8868 38.4989 71.0448 39.5456C71.3608 41.5869 73.0988 43 74.9949 43ZM74.6262 36.667C74.7316 36.667 74.8896 36.6147 74.9949 36.6147C76.1536 36.6147 77.207 37.4521 77.365 38.6559C77.5756 39.9644 76.6803 41.1681 75.3636 41.3775C74.0469 41.5869 72.8355 40.6971 72.6248 39.3886C72.4142 38.0802 73.3622 36.8764 74.6262 36.667Z" fill="white"/>
<path d="M83 46C80.7895 46 79 47.7895 79 50C79 52.2105 80.7895 54 83 54C85.2105 54 87 52.2105 87 50C86.9474 47.7895 85.1579 46 83 46ZM83 52.3684C81.6842 52.3684 80.5789 51.2632 80.5789 49.9474C80.5789 48.6316 81.6842 47.5263 83 47.5263C84.3158 47.5263 85.4211 48.6316 85.4211 49.9474C85.3684 51.3158 84.3158 52.3684 83 52.3684Z" fill="white"/>
<defs>
<linearGradient id="paint0_linear_139_93" x1="156.813" y1="79" x2="1.1875" y2="79" gradientUnits="userSpaceOnUse">
<stop stop-color="#2F5F6D"/>
<stop offset="1" stop-color="#6AE9FB"/>
</linearGradient>
<linearGradient id="paint1_linear_139_93" x1="156.813" y1="79" x2="1.1875" y2="79" gradientUnits="userSpaceOnUse">
<stop stop-color="#2F5F6D"/>
<stop offset="1" stop-color="#6AE9FB"/>
</linearGradient>
</defs>
</svg>
