<svg width="158" height="158" viewBox="0 0 158 158" fill="none" xmlns="http://www.w3.org/2000/svg">
<circle cx="79.5" cy="78.5" r="77.5" fill="white"/>
<path d="M77.6357 156.812C34.7714 156.812 1.1875 122.632 1.1875 79C1.1875 60.1746 7.60444 42.1117 19.2659 28.1418C20.1893 27.042 21.8182 26.9019 22.9179 27.8149C24.0177 28.7331 24.1681 30.3672 23.2499 31.4669C12.3666 44.5031 6.375 61.3833 6.375 79C6.375 119.727 37.6764 151.625 77.6357 151.625C118.435 151.625 151.625 119.047 151.625 79C151.625 38.9525 118.435 6.375 77.6357 6.375C64.9782 6.375 52.6682 9.59125 42.0598 15.671C40.8304 16.3609 39.2326 15.9511 38.5219 14.7061C37.8112 13.4611 38.2418 11.8789 39.4868 11.1631C50.8786 4.63719 64.0704 1.1875 77.6357 1.1875C121.294 1.1875 156.812 36.0942 156.812 79C156.812 121.906 121.294 156.812 77.6357 156.812Z" fill="url(#paint0_linear_2_94)" stroke="url(#paint1_linear_2_94)" stroke-width="2"/>
<path d="M35.1293 19.6135C35.1293 21.0401 33.9621 22.2073 32.5356 22.2073C31.109 22.2073 29.9418 21.0401 29.9418 19.6135C29.9418 18.1869 31.109 17.0198 32.5356 17.0198C33.9621 17.0198 35.1293 18.1818 35.1293 19.6135Z" fill="#2F5F6D" stroke="#2F5F6D" stroke-width="3"/>
<g clip-path="url(#clip0_2_94)">
<path d="M119.13 65.2605H98.264L103.032 62.8982C103.311 62.7646 103.567 62.579 103.79 62.356C105.546 60.5985 106.513 58.2553 106.513 55.769C106.513 53.2775 105.547 50.9405 103.79 49.1768C100.161 45.5489 94.2666 45.5489 90.6395 49.1768C90.4426 49.3764 90.276 49.6036 90.145 49.8491L83.5025 62.2042L76.8608 49.85C76.729 49.6045 76.5615 49.3772 76.3646 49.182C72.7393 45.5454 66.8411 45.5454 63.2166 49.182C59.5913 52.8143 59.5913 58.7238 63.2166 62.356C63.437 62.579 63.6946 62.7646 63.9722 62.8982L68.7401 65.2605H48.8689C47.2848 65.2605 46 66.5496 46 68.1354V85.2011C46 86.7877 47.2848 88.0743 48.8689 88.0743H52.1836V118.674C52.1836 120.261 53.4675 121.546 55.0525 121.546H113.126C114.709 121.546 115.996 120.262 115.996 118.674V88.0743H119.13C120.714 88.0743 122.001 86.7895 122.001 85.2011V68.1354C121.998 66.5496 120.714 65.2605 119.13 65.2605ZM80.9294 115.798V88.0743H87.1426V115.799L80.9294 115.798ZM87.1946 82.3261H80.9841V71.0121H87.1946V82.3261ZM94.9614 52.9999C96.3599 51.8592 98.4297 51.9372 99.7327 53.2454C100.405 53.9178 100.776 54.8139 100.776 55.769C100.776 56.5845 100.506 57.36 100.002 57.9916L89.4805 63.2001L94.9614 52.9999ZM67.2722 53.2454C68.5293 51.9841 70.6798 51.8869 72.0409 52.9999L77.521 63.2001L67.0007 57.9916C65.8903 56.5906 65.9805 54.5398 67.2722 53.2454ZM51.7351 71.0121H75.2464V82.3261H51.7351V71.0121ZM57.9187 88.0743H78.0623V115.799H57.9187V88.0743ZM110.259 115.798H90.0088V88.0743H110.259V115.798ZM116.264 82.3261H92.9323V71.0121H116.265L116.264 82.3261Z" fill="#6D6D6D"/>
</g>
<defs>
<linearGradient id="paint0_linear_2_94" x1="156.813" y1="79" x2="1.1875" y2="79" gradientUnits="userSpaceOnUse">
<stop stop-color="#2F5F6D"/>
<stop offset="1" stop-color="#6AE9FB"/>
</linearGradient>
<linearGradient id="paint1_linear_2_94" x1="156.813" y1="79" x2="1.1875" y2="79" gradientUnits="userSpaceOnUse">
<stop stop-color="#2F5F6D"/>
<stop offset="1" stop-color="#6AE9FB"/>
</linearGradient>
<clipPath id="clip0_2_94">
<rect width="76" height="76" fill="white" transform="translate(46 46)"/>
</clipPath>
</defs>
</svg>
