<svg width="158" height="158" viewBox="0 0 158 158" fill="none" xmlns="http://www.w3.org/2000/svg">
<g clip-path="url(#clip0_2_25)">
<circle cx="78.5" cy="79.5" r="77.5" fill="white"/>
<path d="M77.6357 156.812C34.7714 156.812 1.1875 122.632 1.1875 79C1.1875 60.1746 7.60444 42.1117 19.2659 28.1418C20.1893 27.042 21.8182 26.9019 22.9179 27.8149C24.0177 28.7331 24.1681 30.3672 23.2499 31.4669C12.3666 44.5031 6.375 61.3833 6.375 79C6.375 119.727 37.6764 151.625 77.6357 151.625C118.435 151.625 151.625 119.047 151.625 79C151.625 38.9525 118.435 6.375 77.6357 6.375C64.9782 6.375 52.6682 9.59125 42.0598 15.671C40.8304 16.3609 39.2326 15.9511 38.5219 14.7061C37.8112 13.4611 38.2418 11.8789 39.4868 11.1631C50.8786 4.63719 64.0704 1.1875 77.6357 1.1875C121.294 1.1875 156.812 36.0942 156.812 79C156.812 121.906 121.294 156.812 77.6357 156.812Z" fill="url(#paint0_linear_2_25)" stroke="url(#paint1_linear_2_25)" stroke-width="2"/>
<path d="M35.1293 19.6135C35.1293 21.0401 33.9621 22.2073 32.5356 22.2073C31.109 22.2073 29.9418 21.0401 29.9418 19.6135C29.9418 18.1869 31.109 17.0198 32.5356 17.0198C33.9621 17.0198 35.1293 18.1818 35.1293 19.6135Z" fill="#2F5F6D" stroke="#2F5F6D" stroke-width="3"/>
<g clip-path="url(#clip1_2_25)">
<path fill-rule="evenodd" clip-rule="evenodd" d="M41.4924 82.4661C46.4438 67.941 66.1395 56.9729 87.6685 62.8173C93.0116 58.6181 97.6809 57.2706 105.249 58.5867C106.753 58.8688 106.91 59.9813 106.205 61.9399C104.262 64.9013 103.196 67.941 102.679 71.0121C105.578 73.2528 107.85 76.4022 109.636 80.3038C112.786 80.7895 115.935 81.902 119.085 83.6256C121.404 89.2037 121.419 94.5311 118.426 99.5451C115.167 101.472 111.689 102.757 107.975 103.353C107.176 105.891 105.625 108.273 103.165 110.482C103.306 115.183 102.194 119.727 100.345 124.208L90.2225 124.255C89.2197 122.375 88.734 120.447 88.734 118.457C80.4452 121.873 71.9997 122.281 63.3661 118.959C63.4758 120.808 63.1468 122.641 62.0343 124.427L51.9122 124.255C49.5932 107.599 36.071 96.3173 41.4611 82.4661H41.4924Z" fill="#6D6D6D"/>
<path d="M98.8247 80.2881C99.967 80.2881 100.893 79.4042 100.893 78.3138C100.893 77.2235 99.967 76.3396 98.8247 76.3396C97.6824 76.3396 96.7564 77.2235 96.7564 78.3138C96.7564 79.4042 97.6824 80.2881 98.8247 80.2881Z" fill="white"/>
<path fill-rule="evenodd" clip-rule="evenodd" d="M65.9358 67.1733C72.1563 66.4838 78.3769 66.4368 84.5817 67.1733C85.4749 67.283 86.227 67.9097 86.227 68.8185C86.227 69.7273 85.4905 70.5421 84.5817 70.4637C78.4709 69.931 72.266 69.8996 65.9358 70.4637C65.0427 70.5421 64.2906 69.7273 64.2906 68.8185C64.2906 67.9097 65.027 67.283 65.9358 67.1733Z" fill="white"/>
<path d="M76.2772 55.97C81.1925 55.97 85.1771 51.9854 85.1771 47.0701C85.1771 42.1549 81.1925 38.1702 76.2772 38.1702C71.362 38.1702 67.3773 42.1549 67.3773 47.0701C67.3773 51.9854 71.362 55.97 76.2772 55.97Z" stroke="#6D6D6D" stroke-miterlimit="22.9256"/>
<path d="M76.2772 58.3047C82.4819 58.3047 87.5118 53.2748 87.5118 47.0701C87.5118 40.8655 82.4819 35.8356 76.2772 35.8356C70.0726 35.8356 65.0427 40.8655 65.0427 47.0701C65.0427 53.2748 70.0726 58.3047 76.2772 58.3047Z" stroke="#6D6D6D" stroke-width="0.283492" stroke-miterlimit="22.9256"/>
<path d="M66.7193 31.6833C66.7193 29.9526 66.393 28.5496 65.9906 28.5496C65.5883 28.5496 65.2621 29.9526 65.2621 31.6833V36.243C65.2621 37.9737 65.5883 39.3767 65.9906 39.3767C66.393 39.3767 66.7193 37.9737 66.7193 36.243V31.6833Z" fill="#6D6D6D"/>
<path d="M87.3864 31.6833C87.3864 29.9526 87.0602 28.5496 86.6578 28.5496C86.2555 28.5496 85.9292 29.9526 85.9292 31.6833V36.243C85.9292 37.9737 86.2555 39.3767 86.6578 39.3767C87.0602 39.3767 87.3864 37.9737 87.3864 36.243V31.6833Z" fill="#6D6D6D"/>
<path d="M82.2471 27.6251C82.2471 25.8944 81.9209 24.4913 81.5185 24.4913C81.1161 24.4913 80.7899 25.8944 80.7899 27.6251V32.1847C80.7899 33.9155 81.1161 35.3185 81.5185 35.3185C81.9209 35.3185 82.2471 33.9155 82.2471 32.1847V27.6251Z" fill="#6D6D6D"/>
<path d="M71.8743 27.6251C71.8743 25.8944 71.5481 24.4913 71.1457 24.4913C70.7433 24.4913 70.4171 25.8944 70.4171 27.6251V32.1847C70.4171 33.9155 70.7433 35.3185 71.1457 35.3185C71.5481 35.3185 71.8743 33.9155 71.8743 32.1847V27.6251Z" fill="#6D6D6D"/>
<path d="M77.139 25.1338C77.139 23.403 76.8128 22 76.4104 22C76.008 22 75.6818 23.403 75.6818 25.1338V29.6934C75.6818 31.4241 76.008 32.8272 76.4104 32.8272C76.8128 32.8272 77.139 31.4241 77.139 29.6934V25.1338Z" fill="#6D6D6D"/>
<path d="M76.4787 40.2394L78.389 44.2426L82.7866 44.8223L79.5696 47.8761L80.3772 52.2377L76.4787 50.1218L72.5802 52.2377L73.3879 47.8761L70.1708 44.8223L74.5685 44.2426L76.4787 40.2394Z" fill="#6D6D6D"/>
</g>
</g>
<defs>
<linearGradient id="paint0_linear_2_25" x1="156.813" y1="79" x2="1.1875" y2="79" gradientUnits="userSpaceOnUse">
<stop stop-color="#2F5F6D"/>
<stop offset="1" stop-color="#6AE9FB"/>
</linearGradient>
<linearGradient id="paint1_linear_2_25" x1="156.813" y1="79" x2="1.1875" y2="79" gradientUnits="userSpaceOnUse">
<stop stop-color="#2F5F6D"/>
<stop offset="1" stop-color="#6AE9FB"/>
</linearGradient>
<clipPath id="clip0_2_25">
<rect width="158" height="158" fill="white"/>
</clipPath>
<clipPath id="clip1_2_25">
<rect width="81" height="102.662" fill="white" transform="translate(40 22)"/>
</clipPath>
</defs>
</svg>
