<svg width="317" height="1049" viewBox="0 0 317 1049" fill="none" xmlns="http://www.w3.org/2000/svg">
<path d="M163.914 59.1978C162.651 0.0412565 132.759 0 118.289 0H0V134.411C0.570525 193.135 28.7683 195.299 38.0177 196H164V135.339V135.03V130V62.0835C163.983 61.9392 163.983 61.7743 163.983 61.63C163.965 60.785 163.931 60.0017 163.914 59.1978ZM116.37 134.329C116.37 137.194 114.416 139.523 112.013 139.523H56.6721C51.5201 139.523 47.3363 134.514 47.3363 128.372V61.5682C47.3363 58.7031 49.2899 56.3739 51.6757 56.3739H107.017C112.169 56.3739 116.353 61.3827 116.353 67.5251V134.329H116.37Z" fill="#B08254" fill-opacity="0.03"/>
<path d="M316.983 347.739C316.983 347.719 316.983 347.719 316.983 347.698V276.696V275.794C316.948 275.65 316.948 275.486 316.948 275.322C316.948 274.973 316.931 274.645 316.931 274.276C316.136 214.041 285.884 214 271.294 214H153V270.072H265.209C267.612 270.072 269.565 272.389 269.565 275.24V278.501C269.565 281.352 267.629 283.669 265.226 283.669L190.409 283.936C181.454 284.695 153.311 287.074 153.311 345.853C153.311 346.447 153.207 347.145 153.035 347.781C153.64 406.149 181.748 408.303 191.031 409H317V350.221L316.983 347.739ZM269.565 347.698C269.565 350.549 267.612 352.867 265.209 352.867H204.515C202.112 352.867 200.158 350.549 200.158 347.698V344.438C200.158 341.587 202.112 339.269 204.515 339.269H265.209C267.612 339.269 269.565 341.587 269.565 344.438V347.698Z" fill="#B08254" fill-opacity="0.03"/>
<path d="M0.034611 488.238C0.207497 488.795 0.311236 489.372 0.311236 489.99C0.311236 552.919 29.7538 552.919 45.5729 552.919H112.221C114.641 552.919 116.577 555.248 116.577 558.113V561.391C116.577 564.256 114.641 566.585 112.221 566.585H0V623H126.086C135.474 622.299 163.118 619.888 163.965 562.194C163.965 562.112 163.965 562.03 163.965 561.947C163.983 561.246 164 560.566 164 559.845C164 558.897 163.965 558.031 163.965 557.103C163.101 499.967 135.422 497.576 126.207 496.813L51.6584 496.545C49.4974 496.545 47.7339 494.443 47.7339 491.866V488.589C47.7339 486.012 49.4801 483.91 51.6584 483.91H164V483.353V427H45.6939C31.0158 427.041 0.639713 427.062 0.034611 488.238Z" fill="#B08254" fill-opacity="0.03"/>
<path d="M267 700.705V702.581V771.687V773.563V775.357V775.378V837H317V777.893V775.419V704.004V701.468V641H267V700.705Z" fill="#B08254" fill-opacity="0.03"/>
<path d="M0.0173055 915.599C0.190192 916.15 0.293877 916.722 0.293877 917.334C0.293877 979.627 29.7364 979.627 45.5555 979.627H112.22C114.624 979.627 116.577 981.933 116.577 984.769V988.013C116.577 990.849 114.624 993.155 112.22 993.155H0V1049H126.086C135.612 1048.29 163.896 1045.9 164 986.483C164.017 927.25 135.56 924.863 126.207 924.087L51.6412 923.843C49.4628 923.843 47.7166 921.761 47.7166 919.211V915.967C47.7166 913.416 49.4801 911.335 51.6412 911.335H164V855H45.6939C30.9985 855.02 0.622408 855.041 0.0173055 915.599Z" fill="#B08254" fill-opacity="0.03"/>
</svg>
