<svg width="166" height="166" viewBox="0 0 166 166" fill="none" xmlns="http://www.w3.org/2000/svg">
<circle cx="82.5" cy="83.5" r="77.5" fill="white"/>
<path d="M81.6357 160.812C38.7714 160.812 5.1875 126.632 5.1875 83C5.1875 64.1746 11.6044 46.1117 23.2659 32.1418C24.1893 31.042 25.8182 30.9019 26.9179 31.8149C28.0177 32.7331 28.1681 34.3672 27.2499 35.4669C16.3666 48.5031 10.375 65.3833 10.375 83C10.375 123.727 41.6764 155.625 81.6357 155.625C122.435 155.625 155.625 123.047 155.625 83C155.625 42.9525 122.435 10.375 81.6357 10.375C68.9782 10.375 56.6682 13.5913 46.0598 19.671C44.8304 20.3609 43.2326 19.9511 42.5219 18.7061C41.8112 17.4611 42.2418 15.8789 43.4868 15.1631C54.8786 8.63719 68.0704 5.1875 81.6357 5.1875C125.294 5.1875 160.812 40.0942 160.812 83C160.812 125.906 125.294 160.812 81.6357 160.812Z" fill="url(#paint0_linear_2_25)" stroke="url(#paint1_linear_2_25)" stroke-width="2"/>
<path d="M39.1293 23.6135C39.1293 25.0401 37.9621 26.2073 36.5356 26.2073C35.109 26.2073 33.9418 25.0401 33.9418 23.6135C33.9418 22.1869 35.109 21.0198 36.5356 21.0198C37.9621 21.0198 39.1293 22.1818 39.1293 23.6135Z" fill="#2F5F6D" stroke="#2F5F6D" stroke-width="3"/>
<g clip-path="url(#clip0_2_25)">
<path fill-rule="evenodd" clip-rule="evenodd" d="M45.4924 86.4661C50.4438 71.941 70.1395 60.9729 91.6685 66.8173C97.0116 62.6181 101.681 61.2706 109.249 62.5867C110.753 62.8688 110.91 63.9813 110.205 65.9399C108.262 68.9013 107.196 71.941 106.679 75.0121C109.578 77.2528 111.85 80.4022 113.636 84.3038C116.786 84.7895 119.935 85.902 123.085 87.6256C125.404 93.2037 125.419 98.5311 122.426 103.545C119.167 105.472 115.689 106.757 111.975 107.353C111.176 109.891 109.625 112.273 107.165 114.482C107.306 119.183 106.194 123.727 104.345 128.208L94.2225 128.255C93.2197 126.375 92.734 124.447 92.734 122.457C84.4452 125.873 75.9997 126.281 67.3661 122.959C67.4758 124.808 67.1468 126.641 66.0343 128.427L55.9122 128.255C53.5932 111.599 40.071 100.317 45.4611 86.4661H45.4924Z" fill="#6D6D6D"/>
<path d="M102.825 84.2881C103.967 84.2881 104.893 83.4042 104.893 82.3138C104.893 81.2235 103.967 80.3396 102.825 80.3396C101.682 80.3396 100.756 81.2235 100.756 82.3138C100.756 83.4042 101.682 84.2881 102.825 84.2881Z" fill="white"/>
<path fill-rule="evenodd" clip-rule="evenodd" d="M69.9358 71.1733C76.1563 70.4838 82.3769 70.4368 88.5817 71.1733C89.4749 71.283 90.227 71.9097 90.227 72.8185C90.227 73.7273 89.4905 74.5421 88.5817 74.4637C82.4709 73.931 76.266 73.8996 69.9358 74.4637C69.0427 74.5421 68.2906 73.7273 68.2906 72.8185C68.2906 71.9097 69.027 71.283 69.9358 71.1733Z" fill="white"/>
<path d="M80.2772 59.97C85.1925 59.97 89.1771 55.9854 89.1771 51.0701C89.1771 46.1549 85.1925 42.1702 80.2772 42.1702C75.362 42.1702 71.3773 46.1549 71.3773 51.0701C71.3773 55.9854 75.362 59.97 80.2772 59.97Z" stroke="#6D6D6D" stroke-miterlimit="22.9256"/>
<path d="M80.2772 62.3047C86.4819 62.3047 91.5118 57.2748 91.5118 51.0701C91.5118 44.8655 86.4819 39.8356 80.2772 39.8356C74.0726 39.8356 69.0427 44.8655 69.0427 51.0701C69.0427 57.2748 74.0726 62.3047 80.2772 62.3047Z" stroke="#6D6D6D" stroke-width="0.283492" stroke-miterlimit="22.9256"/>
<path d="M70.7193 35.6833C70.7193 33.9526 70.393 32.5496 69.9906 32.5496C69.5883 32.5496 69.2621 33.9526 69.2621 35.6833V40.243C69.2621 41.9737 69.5883 43.3767 69.9906 43.3767C70.393 43.3767 70.7193 41.9737 70.7193 40.243V35.6833Z" fill="#6D6D6D"/>
<path d="M91.3864 35.6833C91.3864 33.9526 91.0602 32.5496 90.6578 32.5496C90.2555 32.5496 89.9292 33.9526 89.9292 35.6833V40.243C89.9292 41.9737 90.2555 43.3767 90.6578 43.3767C91.0602 43.3767 91.3864 41.9737 91.3864 40.243V35.6833Z" fill="#6D6D6D"/>
<path d="M86.2471 31.6251C86.2471 29.8944 85.9209 28.4913 85.5185 28.4913C85.1161 28.4913 84.7899 29.8944 84.7899 31.6251V36.1847C84.7899 37.9155 85.1161 39.3185 85.5185 39.3185C85.9209 39.3185 86.2471 37.9155 86.2471 36.1847V31.6251Z" fill="#6D6D6D"/>
<path d="M75.8743 31.6251C75.8743 29.8944 75.5481 28.4913 75.1457 28.4913C74.7433 28.4913 74.4171 29.8944 74.4171 31.6251V36.1847C74.4171 37.9155 74.7433 39.3185 75.1457 39.3185C75.5481 39.3185 75.8743 37.9155 75.8743 36.1847V31.6251Z" fill="#6D6D6D"/>
<path d="M81.139 29.1338C81.139 27.403 80.8128 26 80.4104 26C80.008 26 79.6818 27.403 79.6818 29.1338V33.6934C79.6818 35.4241 80.008 36.8272 80.4104 36.8272C80.8128 36.8272 81.139 35.4241 81.139 33.6934V29.1338Z" fill="#6D6D6D"/>
<path d="M80.4787 44.2394L82.389 48.2426L86.7866 48.8223L83.5696 51.8761L84.3772 56.2377L80.4787 54.1218L76.5802 56.2377L77.3879 51.8761L74.1708 48.8223L78.5685 48.2426L80.4787 44.2394Z" fill="#6D6D6D"/>
</g>
<defs>
<linearGradient id="paint0_linear_2_25" x1="160.813" y1="83" x2="5.1875" y2="83" gradientUnits="userSpaceOnUse">
<stop stop-color="#2F5F6D"/>
<stop offset="1" stop-color="#6AE9FB"/>
</linearGradient>
<linearGradient id="paint1_linear_2_25" x1="160.813" y1="83" x2="5.1875" y2="83" gradientUnits="userSpaceOnUse">
<stop stop-color="#2F5F6D"/>
<stop offset="1" stop-color="#6AE9FB"/>
</linearGradient>
<clipPath id="clip0_2_25">
<rect width="81" height="102.662" fill="white" transform="translate(44 26)"/>
</clipPath>
</defs>
</svg>
