<svg width="30" height="30" viewBox="0 0 30 30" fill="none" xmlns="http://www.w3.org/2000/svg">
<path d="M14.737 30C6.474 30 0 23.411 0 15C0 11.371 1.237 7.889 3.485 5.196C3.663 4.984 3.977 4.957 4.189 5.133C4.401 5.31 4.43 5.625 4.253 5.837C2.155 8.35 1 11.604 1 15C1 22.851 7.034 29 14.737 29C22.602 29 29 22.72 29 15C29 7.28 22.602 1 14.737 1C12.297 1 9.924 1.62 7.879 2.792C7.642 2.925 7.334 2.846 7.197 2.606C7.06 2.366 7.143 2.061 7.383 1.923C9.579 0.665 12.122 0 14.737 0C23.153 0 30 6.729 30 15C30 23.271 23.153 30 14.737 30Z" fill="#6D6D6D"/>
<path d="M6.54297 3.55176C6.54297 3.82676 6.31797 4.05176 6.04297 4.05176C5.76797 4.05176 5.54297 3.82676 5.54297 3.55176C5.54297 3.27676 5.76797 3.05176 6.04297 3.05176C6.31797 3.05176 6.54297 3.27576 6.54297 3.55176Z" fill="#6D6D6D"/>
<path d="M18.5483 23.0172C18.4373 23.0172 18.3243 22.9802 18.2323 22.9042L12.4693 18.1832C12.3563 18.0912 12.2893 17.9542 12.2853 17.8082C12.2823 17.6622 12.3423 17.5232 12.4503 17.4252L16.7273 13.5652C16.9323 13.3782 17.2483 13.3962 17.4333 13.6012C17.6193 13.8062 17.6023 14.1222 17.3973 14.3072L13.5513 17.7772L18.8643 22.1302C19.0783 22.3052 19.1093 22.6202 18.9343 22.8342C18.8363 22.9542 18.6923 23.0172 18.5483 23.0172Z" fill="#6D6D6D"/>
<path d="M19.157 23.2036C18.892 23.2036 18.607 23.1206 18.308 22.9556L15.022 20.3146L13.338 21.8676C13.104 22.0966 12.818 22.3746 12.249 22.3746C11.549 22.3746 11.386 22.0056 11.279 21.6266C11.26 21.5616 11.239 21.4856 11.208 21.3986L10.002 17.4296L6.54603 16.3516C5.73203 16.1016 5.62303 15.6026 5.61403 15.4006C5.60003 15.0646 5.77503 14.5856 6.68803 14.2196L21.536 8.49058C21.961 8.32458 22.46 8.45858 22.748 8.81358C22.951 9.06258 23.029 9.38658 22.963 9.70258L20.398 21.9776C20.168 23.0836 19.453 23.2036 19.157 23.2036ZM15 19.1546C15.111 19.1546 15.222 19.1916 15.313 19.2656L18.863 22.1276C19.322 22.3466 19.363 22.0426 19.42 21.7736L21.985 9.49958L21.922 9.41858L7.05603 15.1506C6.88103 15.2206 6.76603 15.2896 6.69603 15.3406C6.73303 15.3586 6.78203 15.3776 6.84303 15.3966L10.554 16.5546C10.711 16.6046 10.835 16.7286 10.883 16.8866L12.157 21.0826C12.19 21.1706 12.218 21.2706 12.242 21.3546C12.244 21.3606 12.246 21.3676 12.247 21.3736C12.38 21.3726 12.45 21.3366 12.635 21.1556L14.661 19.2856C14.757 19.1996 14.878 19.1546 15 19.1546Z" fill="#6D6D6D"/>
<path d="M19.043 12.5518C19.043 12.8268 18.818 13.0518 18.543 13.0518C18.268 13.0518 18.043 12.8268 18.043 12.5518C18.043 12.2768 18.268 12.0518 18.543 12.0518C18.818 12.0518 19.043 12.2758 19.043 12.5518Z" fill="#6D6D6D"/>
</svg>
