<svg width="30" height="30" viewBox="0 0 30 30" fill="none" xmlns="http://www.w3.org/2000/svg">
<path d="M15.004 30C12.136 30 9.358 29.189 6.954 27.653L1.606 29.362C1.427 29.419 1.23 29.371 1.097 29.237C0.965 29.103 0.919 28.905 0.98 28.727L2.705 23.581C0.935 21.061 0 18.1 0 15C0 10.924 1.612 7.109 4.539 4.258C4.736 4.066 5.053 4.07 5.246 4.267C5.438 4.465 5.434 4.782 5.236 4.974C2.505 7.636 1 11.196 1 15C1 17.974 1.922 20.811 3.665 23.204C3.76 23.335 3.786 23.504 3.734 23.658L2.242 28.11L6.875 26.629C7.019 26.582 7.177 26.605 7.304 26.688C9.589 28.2 12.252 29 15.004 29C22.722 29 29 22.72 29 15C29 7.281 22.722 1 15.004 1H15.001C12.834 1 10.763 1.481 8.837 2.429C8.589 2.55 8.29 2.449 8.168 2.202C8.046 1.955 8.147 1.654 8.396 1.532C10.46 0.516 12.682 0 14.996 0C23.272 0 30 6.729 30 15C30 23.271 23.272 30 15.004 30Z" fill="#6D6D6D"/>
<path d="M19.6011 23.4928C18.5901 23.4928 17.1791 23.1028 15.1621 22.2668C12.5291 21.1768 9.91906 18.8928 7.81206 15.8378L7.73706 15.7308C7.04106 14.7798 5.91406 12.9578 5.91406 11.0558C5.91406 8.82684 7.02906 7.69584 7.50606 7.21284C7.95506 6.75184 8.62606 6.50684 9.38006 6.50684C9.57006 6.50684 9.74006 6.51584 9.89506 6.52484C10.5301 6.54984 10.8981 6.70984 11.2481 7.54684L11.6111 8.42684C11.9951 9.35784 12.4681 10.5068 12.5421 10.6618C12.6241 10.8308 12.8731 11.3498 12.5961 11.8898C12.4481 12.2058 12.3031 12.3728 12.1041 12.6028C11.9641 12.7638 11.8711 12.8638 11.7761 12.9638C11.6661 13.0818 11.5541 13.1978 11.4421 13.3388C11.2491 13.5648 11.2491 13.5648 11.3141 13.6778C11.6841 14.3028 12.4711 15.5028 13.5671 16.4778C14.9891 17.7428 16.1381 18.2078 16.6901 18.4318L16.8271 18.4878C16.9721 18.5478 17.1551 18.5908 17.2921 18.4458C17.5401 18.1788 17.8541 17.7398 18.1861 17.2748L18.3851 16.9958C18.7341 16.5028 19.1641 16.3988 19.4631 16.3988C19.6381 16.3988 19.8201 16.4338 20.0061 16.5038C20.4711 16.6658 22.9181 17.8848 22.9431 17.8968L23.1781 18.0118C23.5281 18.1798 23.8041 18.3128 23.9621 18.5908C24.1911 18.9888 24.1011 20.0328 23.7531 21.0178C23.3361 22.1968 21.7861 23.1178 20.5401 23.3858C20.2921 23.4378 19.9971 23.4928 19.6011 23.4928ZM9.37906 7.50684C8.90706 7.50684 8.47706 7.64884 8.25506 7.87584C7.79406 8.34384 6.91306 9.23684 6.91306 11.0558C6.91306 12.2368 7.49806 13.7138 8.51806 15.1068L8.63406 15.2718C10.6321 18.1698 13.0861 20.3268 15.5431 21.3438C17.4361 22.1288 18.7251 22.4938 19.6001 22.4938C19.9001 22.4938 20.1231 22.4518 20.3271 22.4088C21.3001 22.1988 22.5251 21.4798 22.8061 20.6848C23.1101 19.8278 23.1041 19.1688 23.0681 19.0378C23.0661 19.0688 22.8861 18.9838 22.7411 18.9138L22.4921 18.7918C21.7911 18.4408 19.9791 17.5558 19.6621 17.4448C19.5781 17.4128 19.5141 17.3998 19.4601 17.3998C19.4151 17.3998 19.3221 17.3998 19.1961 17.5778L18.9961 17.8578C18.6451 18.3498 18.3141 18.8138 18.0201 19.1298C17.6431 19.5328 16.9961 19.6448 16.4391 19.4128L16.3121 19.3608C15.7551 19.1358 14.4501 18.6078 12.8991 17.2278C11.7031 16.1618 10.8501 14.8648 10.4481 14.1858C10.0251 13.4568 10.4541 12.9548 10.6601 12.7138C10.7911 12.5508 10.9191 12.4158 11.0471 12.2798C11.1311 12.1908 11.2151 12.1018 11.3011 12.0018C11.5261 11.7428 11.6001 11.6568 11.6971 11.4498C11.7261 11.3928 11.7421 11.3118 11.6381 11.0958C11.5621 10.9358 11.0761 9.76184 10.6851 8.80984L10.3231 7.93284C10.1581 7.53684 10.1581 7.53684 9.84406 7.52484C9.70006 7.51484 9.54806 7.50684 9.37906 7.50684Z" fill="#6D6D6D"/>
<path d="M6.5 3.5C6.77614 3.5 7 3.27614 7 3C7 2.72386 6.77614 2.5 6.5 2.5C6.22386 2.5 6 2.72386 6 3C6 3.27614 6.22386 3.5 6.5 3.5Z" fill="#6D6D6D"/>
</svg>
