<svg width="30" height="30" viewBox="0 0 30 30" fill="none" xmlns="http://www.w3.org/2000/svg">
<path d="M14.737 30C6.474 30 0 23.411 0 15C0 11.371 1.237 7.889 3.485 5.196C3.663 4.984 3.977 4.957 4.189 5.133C4.401 5.31 4.43 5.625 4.253 5.837C2.155 8.35 1 11.604 1 15C1 22.851 7.034 29 14.737 29C22.602 29 29 22.72 29 15C29 7.28 22.602 1 14.737 1C12.297 1 9.924 1.62 7.879 2.792C7.642 2.925 7.334 2.846 7.197 2.606C7.06 2.366 7.143 2.061 7.383 1.923C9.579 0.665 12.122 0 14.737 0C23.153 0 30 6.729 30 15C30 23.271 23.153 30 14.737 30Z" fill="#6D6D6D"/>
<path d="M6.54297 3.55176C6.54297 3.82676 6.31797 4.05176 6.04297 4.05176C5.76797 4.05176 5.54297 3.82676 5.54297 3.55176C5.54297 3.27676 5.76797 3.05176 6.04297 3.05176C6.31797 3.05176 6.54297 3.27576 6.54297 3.55176Z" fill="#6D6D6D"/>
<path d="M15.0004 5.00001C11.1622 4.99731 7.89051 6.05675 6.21307 7.1164C5.77454 7.3607 6.18211 8.00952 6.59255 7.72053C8.09178 6.77345 11.2968 5.71108 15.0004 5.71429C17.6317 5.71159 20.0073 6.23906 21.7047 6.89251C22.5534 7.21923 23.2336 7.58004 23.6823 7.90537C24.1311 8.2307 24.2857 8.53966 24.2857 8.56948V10.3573C24.2857 10.5614 24.134 10.7131 23.9299 10.7131H21.072C20.868 10.7131 20.7163 10.5614 20.7162 10.3573V9.99808H23.2156C23.692 9.99808 23.692 9.28376 23.2156 9.28376H20.7162V8.56948C20.7159 8.44421 20.65 8.32827 20.5425 8.26393C20.5425 8.26393 20.0452 7.96848 19.1209 7.6912C18.1966 7.41392 16.8218 7.14013 15.0004 7.14013C13.1789 7.14013 11.8892 7.41638 11.0479 7.6968C10.2067 7.97721 9.78533 8.28486 9.78533 8.28486C9.69592 8.35222 9.64325 8.45754 9.64302 8.56948V10.3573C9.64299 10.5614 9.49131 10.7131 9.28726 10.7131H6.07356C5.86951 10.7131 5.71499 10.5614 5.71501 10.3573V9.99808H8.57225C9.04858 9.99808 9.04858 9.28376 8.57225 9.28376H5.71501V8.56948C5.71501 8.09281 5 8.09281 5 8.56948V10.3573C4.99997 10.9448 5.48615 11.4274 6.07356 11.4274H9.28726C9.87467 11.4274 10.3573 10.9447 10.3573 10.3573V8.79057C10.4286 8.74076 10.6126 8.59505 11.2753 8.37413C12.0413 8.11881 13.2503 7.85515 15.0004 7.85515C16.7504 7.85515 18.0543 8.11848 18.9158 8.37693C19.6584 8.59971 19.9064 8.75287 20.0019 8.80664V10.3573C20.002 10.9447 20.4846 11.4274 21.072 11.4274H23.9299C24.5174 11.4274 25.0007 10.9448 25.0007 10.3573V8.56948C25.0007 8.06355 24.6237 7.70351 24.1015 7.32497C23.5794 6.94644 22.853 6.56912 21.9607 6.2256C20.1761 5.53857 17.7273 4.99767 15.0004 5.00001ZM22.8599 20.41V21.072C22.8133 21.5909 23.6181 21.5909 23.5715 21.072V20.357C23.5722 20.3223 23.5675 20.2879 23.5582 20.2544L21.4094 13.0949C21.2389 12.527 20.8631 12.1417 20.357 12.1417H17.5026V10.7131H18.2141V11.0716C18.2141 11.5479 18.9284 11.5479 18.9284 11.0716V10.3573C18.9291 10.16 18.7699 9.99874 18.5726 9.99804H17.144C16.9467 9.99875 16.7875 10.16 16.7883 10.3573V12.1417H11.7867V10.7131H12.501V11.0716C12.501 11.5479 13.2153 11.5479 13.2153 11.0716V10.3573C13.216 10.1589 13.0551 9.99727 12.8567 9.99804H11.4309C11.2326 9.99732 11.0716 10.1589 11.0723 10.3573V12.1417H9.64302C9.02013 12.1417 8.7419 12.5972 8.5883 13.1092L6.44467 20.2544C6.4346 20.2876 6.42942 20.3222 6.42931 20.357V22.4979C6.42929 23.0853 6.91197 23.5707 7.49938 23.5707H7.85794V24.6415C7.85723 24.8387 8.01646 24.9992 8.2137 25H10.3573C10.5557 25.0007 10.7166 24.8398 10.7159 24.6415V23.5707H19.2869V24.6415C19.2862 24.839 19.4459 24.9996 19.6434 25H21.787C21.9853 25.0007 22.1463 24.8398 22.1456 24.6415V23.5707H22.5013C23.0887 23.5707 23.5714 23.0853 23.5714 22.4979C23.618 21.979 22.8133 21.979 22.8599 22.4979C22.8599 22.7019 22.7054 22.8564 22.5013 22.8564H7.49939C7.29534 22.8564 7.14362 22.7019 7.14363 22.4979V20.41L9.27122 13.315C9.35102 13.0489 9.46346 12.856 9.64302 12.856H20.3577C20.5628 12.856 20.6486 13.1507 20.7386 13.344L22.8599 20.41ZM15.0011 13.5703C14.3889 13.5703 13.7836 13.7013 13.2264 13.9547C12.7808 14.1472 13.0842 14.8143 13.5222 14.6048C13.9865 14.3937 14.4909 14.2846 15.0011 14.2846C16.9778 14.2846 18.5726 15.8794 18.5726 17.8562C18.5726 19.8329 16.9778 21.4278 15.0011 21.4278C13.0243 21.4278 11.4295 19.8329 11.4295 17.8562C11.4295 16.872 11.8356 15.932 12.5519 15.257C12.9011 14.9302 12.4085 14.4075 12.0615 14.7367C11.2022 15.5464 10.7152 16.6755 10.7152 17.8562C10.7152 20.219 12.6383 22.142 15.0011 22.142C17.3638 22.142 19.2869 20.219 19.2869 17.8562C19.2869 15.4934 17.3638 13.5703 15.0011 13.5703ZM14.9948 14.9948C14.7989 14.9988 14.6427 15.1595 14.6446 15.3554V16.0704C14.655 16.5361 15.3484 16.5361 15.3589 16.0704V15.3554C15.361 15.1541 15.1961 14.9908 14.9948 14.9948ZM13.2285 15.7272C12.907 15.7272 12.7492 16.1188 12.9809 16.3418L13.4873 16.8454C13.8497 17.178 14.3182 16.6697 13.9903 16.3418L13.4873 15.8353C13.4194 15.7655 13.3259 15.7264 13.2285 15.7272ZM16.7617 15.7272C16.6689 15.7299 16.5809 15.7688 16.5162 15.8353L16.0104 16.3418C15.6452 16.6787 16.1808 17.212 16.5162 16.8454L17.0226 16.3418C17.2594 16.1144 17.0898 15.7148 16.7617 15.7272ZM13.2153 18.2141C13.6919 18.2141 13.6919 17.499 13.2153 17.499H12.4825C11.9873 17.5237 12.0243 18.2387 12.501 18.2141H13.2153ZM17.5025 18.2141C17.9792 18.2141 17.9792 17.499 17.5025 17.499H16.7694C16.2746 17.5232 16.3109 18.2382 16.7875 18.2141H17.5025ZM13.7322 18.7596C13.6396 18.7623 13.5518 18.8012 13.4873 18.8677L12.9809 19.3713C12.6289 19.7089 13.1503 20.2295 13.4873 19.8771L13.9903 19.3713C14.2208 19.1446 14.0555 18.7527 13.7322 18.7596ZM14.9948 19.2785C14.7975 19.2826 14.6407 19.4454 14.6446 19.6427V20.357C14.6551 20.8226 15.3484 20.8226 15.3589 20.357V19.6427C15.3629 19.4399 15.1975 19.2746 14.9948 19.2785ZM8.57225 23.5707H10.0016V24.2857H8.57225L8.57225 23.5707ZM20.0019 23.5707H21.4305V24.2857H20.0019V23.5707Z" fill="#6D6D6D"/>
</svg>
