<svg width="78" height="72" viewBox="0 0 78 72" fill="none" xmlns="http://www.w3.org/2000/svg">
<path d="M77.3906 16.4996C77.025 16.2559 76.5375 16.134 76.1719 16.3777L51.3094 25.2746L33.8812 18.9371C34.8563 16.4996 35.3438 14.3059 35.3438 12.4777C35.3438 9.18711 34.125 6.26211 31.8094 3.94648C29.4937 1.63086 26.4469 0.412109 23.2781 0.412109C16.575 0.412109 11.2125 5.77461 11.2125 12.4777C11.2125 14.7934 12.0656 17.5965 13.5281 21.009L0.853125 25.2746C0.365625 25.5184 0 26.0059 0 26.4934V70.3684C0 70.8559 0.24375 71.2215 0.609375 71.4652C0.853125 71.5871 1.09688 71.709 1.34063 71.709C1.4625 71.709 1.70625 71.709 1.82812 71.5871L26.6906 62.8121L50.8219 71.709C51.0656 71.8309 51.4313 71.8309 51.675 71.709L77.025 62.6902C77.5125 62.4465 77.8781 61.959 77.8781 61.4715V17.5965C78 17.109 77.7562 16.7434 77.3906 16.4996ZM23.2781 2.84961C25.8375 2.84961 28.1531 3.82461 29.8594 5.65273C31.6875 7.35898 32.6625 9.79648 32.6625 12.234C32.6625 13.9402 32.0531 16.2559 30.8344 18.9371C28.6406 23.8121 24.9844 28.9309 23.2781 31.2465C23.0344 31.0027 22.9125 30.759 22.6688 30.3934C21.0844 28.1996 18.525 24.5434 16.6969 20.7652C14.8687 17.2309 14.0156 14.3059 14.0156 12.1121C13.8938 7.11523 18.1594 2.84961 23.2781 2.84961ZM75.3187 60.4965L51.3094 69.0277L27.1781 60.1309C27.0562 60.1309 26.8125 60.009 26.6906 60.009C26.5688 60.009 26.325 60.009 26.2031 60.1309L2.68125 68.5402V27.4684L14.8687 23.2027C14.8687 23.2027 14.8687 23.2027 14.8687 23.3246C14.9906 23.4465 14.9906 23.5684 15.1125 23.6902C15.2344 23.934 15.3562 24.1777 15.4781 24.4215C15.6 24.5434 15.6 24.6652 15.7219 24.7871C15.8438 25.0309 15.9656 25.2746 16.0875 25.5184C16.2094 25.6402 16.2094 25.7621 16.3312 25.884C16.4531 26.1277 16.575 26.3715 16.6969 26.4934C16.8188 26.6152 16.8188 26.7371 16.9406 26.859C17.0625 27.1027 17.1844 27.2246 17.3062 27.4684C17.4281 27.5902 17.4281 27.7121 17.55 27.834C17.6719 28.0777 17.7937 28.1996 17.9156 28.4434C18.0375 28.5652 18.0375 28.6871 18.1594 28.809C18.2812 29.0527 18.4031 29.1746 18.525 29.4184C18.6469 29.5402 18.6469 29.6621 18.7687 29.784C18.8906 30.0277 19.0125 30.1496 19.1344 30.3934C19.2563 30.5152 19.2563 30.6371 19.3781 30.6371C19.5 30.8809 19.6219 31.0027 19.7438 31.1246C19.7438 31.2465 19.8656 31.2465 19.8656 31.3684C19.9875 31.6121 20.1094 31.734 20.2313 31.8559L20.3531 31.9777C20.475 32.0996 20.5969 32.3434 20.7188 32.4652L20.8406 32.5871C20.9625 32.709 21.0844 32.9527 21.2062 33.0746C21.3281 33.1965 21.45 33.3184 21.5719 33.4402C21.8156 33.8059 22.0594 34.0496 22.0594 34.1715C22.3031 34.5371 22.6688 34.659 23.1562 34.659C23.5219 34.659 23.8875 34.4152 24.2531 34.1715C24.2531 34.1715 24.375 34.0496 24.6188 33.8059L24.7406 33.684C24.8625 33.5621 24.8625 33.5621 24.9844 33.4402L25.1063 33.3184C25.2281 33.1965 25.2281 33.0746 25.35 32.9527C25.35 32.8309 25.4719 32.8309 25.4719 32.709C25.5938 32.5871 25.7156 32.4652 25.7156 32.3434C25.8375 32.2215 25.8375 32.0996 25.9594 31.9777C26.0812 31.8559 26.2031 31.734 26.325 31.4902C26.4469 31.3684 26.4469 31.2465 26.5687 31.1246C26.6906 31.0027 26.8125 30.8809 26.9344 30.6371C27.0562 30.5152 27.1781 30.3934 27.1781 30.2715C27.3 30.1496 27.4219 29.9059 27.5438 29.784C27.6656 29.6621 27.7875 29.4184 27.9094 29.2965C28.0312 29.1746 28.1531 28.9309 28.275 28.809C28.3969 28.6871 28.5187 28.4434 28.6406 28.3215C28.7625 28.0777 28.8844 27.9559 29.0062 27.7121C29.1281 27.5902 29.25 27.3465 29.3719 27.2246C29.4937 26.9809 29.6156 26.859 29.7375 26.6152C29.8594 26.3715 29.9813 26.2496 30.1031 26.0059C30.225 25.7621 30.3469 25.6402 30.4688 25.3965C30.5906 25.1527 30.7125 25.0309 30.8344 24.7871C30.9562 24.5434 31.0781 24.4215 31.2 24.1777C31.3219 23.934 31.4438 23.8121 31.5656 23.5684C31.6875 23.3246 31.8094 23.2027 31.9313 22.959C32.0531 22.7152 32.175 22.5934 32.2969 22.3496C32.4188 22.1059 32.5406 21.8621 32.6625 21.7402C32.7844 21.4965 32.9062 21.3746 32.9062 21.1309C32.9062 21.1309 32.9062 21.1309 32.9062 21.009L50.9437 27.5902C51.1875 27.7121 51.5531 27.7121 51.7969 27.5902L75.3187 19.1809V60.4965Z" fill="#6D6D6D"/>
<path d="M63.9862 48.6751C64.23 48.797 64.5956 48.7969 64.8394 48.7969C65.5706 48.7969 66.3019 48.5532 66.9113 48.1876C67.7644 47.5782 68.3737 46.7251 68.6175 45.7501C68.8612 44.7751 68.6175 43.6782 68.13 42.8251C67.5206 41.9719 66.6675 41.3626 65.6925 41.1188C63.6206 40.6313 61.4269 41.9719 60.9394 44.0438C60.6956 45.0188 60.9394 46.1157 61.4269 46.9688C62.1581 47.8219 63.0112 48.4313 63.9862 48.6751ZM63.6206 44.5313C63.7425 43.8001 64.4738 43.4344 65.0831 43.5563C65.4488 43.6782 65.6925 43.8001 65.8144 44.1657C65.9362 44.4094 66.0581 44.7751 65.9362 45.1407C65.8144 45.5063 65.6925 45.7501 65.3269 45.8719C65.0831 45.9938 64.7175 46.1157 64.3519 45.9938C63.9862 45.8719 63.7425 45.7501 63.6206 45.3844C63.6206 45.1407 63.6206 44.8969 63.6206 44.5313Z" fill="#6D6D6D"/>
<path d="M13.4078 44.6527L12.5546 45.1402L12.0671 44.2871C11.7015 43.6777 10.8484 43.4339 10.239 43.9214C9.62965 44.2871 9.3859 45.1402 9.8734 45.7496L10.3609 46.6027L9.50777 47.0902C8.8984 47.4558 8.65465 48.3089 9.14215 48.9183C9.26402 49.4058 9.75152 49.5277 10.1171 49.5277C10.3609 49.5277 10.6046 49.4058 10.8484 49.2839L11.7015 48.7964L12.189 49.6496C12.4328 50.0152 12.9203 50.2589 13.2859 50.2589C13.5296 50.2589 13.7734 50.1371 14.0171 50.0152C14.6265 49.6496 14.8703 48.7964 14.3828 48.1871L13.8953 47.3339L14.7484 46.8464C15.3578 46.4808 15.6015 45.6277 15.114 45.0183C14.8703 44.4089 14.0171 44.2871 13.4078 44.6527Z" fill="#6D6D6D"/>
<path d="M25.9593 48.3087C24.3749 48.3087 22.303 48.065 20.9624 47.6993C20.2312 47.5775 19.4999 48.065 19.378 48.7962C19.2562 49.5275 19.7437 50.2587 20.4749 50.3806C21.8155 50.6243 24.0093 50.99 25.9593 50.99C26.6905 50.99 27.2999 50.3806 27.2999 49.6493C27.2999 48.9181 26.6905 48.3087 25.9593 48.3087Z" fill="#6D6D6D"/>
<path d="M35.9523 43.6776C35.0992 44.8963 34.1242 45.8713 32.9055 46.6026C32.5398 46.8463 32.0523 47.0901 31.5648 47.3338C30.8336 47.5776 30.5898 48.4307 30.8336 49.162C31.0773 49.6495 31.5648 50.0151 32.0523 50.0151C32.1742 50.0151 32.418 50.0151 32.5398 49.8932C33.1492 49.6495 33.6367 49.4057 34.1242 49.0401C35.5867 48.0651 36.8055 46.9682 37.9023 45.5057C38.3898 44.8963 38.268 44.0432 37.6586 43.6776C37.293 42.9463 36.4398 43.0682 35.9523 43.6776Z" fill="#6D6D6D"/>
<path d="M45.7025 34.9023C44.3619 34.9023 43.6307 35.268 42.8994 35.5117C41.1932 36.243 39.7307 37.8273 39.365 38.3148C38.8775 38.9242 38.9994 39.7773 39.4869 40.2648C39.7307 40.5086 40.0963 40.6305 40.34 40.6305C40.7057 40.6305 41.0713 40.5086 41.315 40.143C41.9244 39.4117 42.8994 38.5586 43.8744 38.0711C44.6057 37.8273 44.8494 37.7055 45.7025 37.5836C46.4338 37.5836 47.0432 36.9742 47.0432 36.243C47.0432 35.5117 46.4338 34.9023 45.7025 34.9023Z" fill="#6D6D6D"/>
<path d="M50.7008 36.9741C50.457 37.7054 50.7008 38.4366 51.432 38.8023C52.7727 39.4116 54.7227 40.3866 56.1852 41.4835C56.4289 41.6054 56.6727 41.7273 56.9164 41.7273C57.4039 41.7273 57.7695 41.4835 58.0133 41.1179C58.3789 40.5085 58.257 39.6554 57.6477 39.2898C55.9414 38.1929 53.9914 37.096 52.407 36.4866C51.7977 35.9991 51.0664 36.3648 50.7008 36.9741Z" fill="#6D6D6D"/>
<path d="M23.2766 15.5248C25.5922 15.5248 27.4203 13.6967 27.4203 11.3811C27.4203 9.06543 25.5922 7.2373 23.2766 7.2373C20.9609 7.2373 19.1328 9.06543 19.1328 11.3811C19.1328 13.6967 21.0828 15.5248 23.2766 15.5248ZM23.2766 9.91856C24.0078 9.91856 24.7391 10.5279 24.7391 11.3811C24.7391 12.1123 24.1297 12.8436 23.2766 12.8436C22.5453 12.8436 21.8141 12.2342 21.8141 11.3811C21.9359 10.6498 22.5453 9.91856 23.2766 9.91856Z" fill="#6D6D6D"/>
</svg>
