<svg width="158" height="158" viewBox="0 0 158 158" fill="none" xmlns="http://www.w3.org/2000/svg">
<path d="M77.6357 156.812C34.7714 156.812 1.1875 122.632 1.1875 79C1.1875 60.1746 7.60444 42.1117 19.2659 28.1418C20.1893 27.042 21.8182 26.9019 22.9179 27.8149C24.0177 28.7331 24.1681 30.3672 23.2499 31.4669C12.3666 44.5031 6.375 61.3833 6.375 79C6.375 119.727 37.6764 151.625 77.6357 151.625C118.435 151.625 151.625 119.048 151.625 79C151.625 38.9525 118.435 6.375 77.6357 6.375C64.9782 6.375 52.6682 9.59125 42.0598 15.671C40.8304 16.3609 39.2326 15.9511 38.5219 14.7061C37.8112 13.4611 38.2418 11.8789 39.4868 11.1631C50.8786 4.63719 64.0704 1.1875 77.6357 1.1875C121.294 1.1875 156.812 36.0942 156.812 79C156.812 121.906 121.294 156.812 77.6357 156.812Z" fill="#2F5F6D" stroke="#2F5F6D" stroke-width="2"/>
<path d="M35.1328 19.6133C35.1328 21.0398 33.9656 22.207 32.5391 22.207C31.1125 22.207 29.9453 21.0398 29.9453 19.6133C29.9453 18.1867 31.1125 17.0195 32.5391 17.0195C33.9656 17.0195 35.1328 18.1815 35.1328 19.6133Z" fill="#2F5F6D" stroke="#2F5F6D" stroke-width="3"/>
</svg>
