<svg width="115" height="115" viewBox="0 0 115 115" fill="none" xmlns="http://www.w3.org/2000/svg">
<path d="M49.1038 29.696H65.9038L61.7758 73.952H53.2318L49.1038 29.696ZM50.0638 78.752H65.0398V92H50.0638V78.752Z" fill="#FF0000"/>
<path d="M56.522 113.281C25.7939 113.281 1.71875 88.7784 1.71875 57.5C1.71875 44.0047 6.31884 31.056 14.6786 21.0414C15.3405 20.253 16.5082 20.1526 17.2966 20.8071C18.085 21.4653 18.1928 22.6367 17.5346 23.4251C9.73266 32.7703 5.4375 44.8711 5.4375 57.5C5.4375 86.6959 27.8764 109.562 56.522 109.562C85.7699 109.562 109.562 86.2087 109.562 57.5C109.562 28.7913 85.7699 5.4375 56.522 5.4375C47.4482 5.4375 38.6236 7.74313 31.0188 12.1015C30.1374 12.5961 28.9921 12.3023 28.4826 11.4098C27.9731 10.5173 28.2818 9.38309 29.1743 8.86991C37.3407 4.19172 46.7974 1.71875 56.522 1.71875C87.819 1.71875 113.281 26.7422 113.281 57.5C113.281 88.2578 87.819 113.281 56.522 113.281Z" fill="#2F5F6D" stroke="#2F5F6D" stroke-width="2"/>
<path d="M26.0505 14.9277C26.0505 15.9504 25.2138 16.7871 24.1912 16.7871C23.1685 16.7871 22.3318 15.9504 22.3318 14.9277C22.3318 13.9051 23.1685 13.0684 24.1912 13.0684C25.2138 13.0684 26.0505 13.9014 26.0505 14.9277Z" fill="#2F5F6D" stroke="#2F5F6D" stroke-width="3"/>
</svg>
