<svg width="30" height="28" viewBox="0 0 30 28" fill="none" xmlns="http://www.w3.org/2000/svg">
<path d="M22 1C19.0837 1 16.8769 2.68904 15 4.45403C13.2115 2.58109 10.9164 1 8 1C3.89274 1 1 4.48509 1 8.28543C1 10.3242 1.84613 11.793 2.77274 13.172L13.6516 26.0434C14.8731 27.3189 15.1033 27.3189 16.3247 26.0434L27.2281 13.172C28.3175 11.793 29 10.3242 29 8.28543C29 4.48514 26.1072 1 22 1ZM25.5 12.8145L15 25.1782L4.5 12.7636C3.24439 11.0409 2.75 9.87862 2.75 8.28543C2.75 5.31668 4.89813 2.64412 8 2.61906C10.5515 2.59834 13.4434 5.16985 15 7.10844C16.5155 5.23722 19.4485 2.61906 22 2.61906C25.0196 2.61906 27.25 5.31668 27.25 8.28543C27.25 9.87862 26.8589 11.1272 25.5 12.8145Z" fill="#615F5D" stroke="#5D5B58" stroke-width="0.5"/>
</svg>
