<svg width="30" height="30" viewBox="0 0 30 30" fill="none" xmlns="http://www.w3.org/2000/svg">
<path d="M14.6384 6.79934L14.9811 7.15819L15.3425 6.81827C17.207 5.06499 19.2896 3.5 22 3.5C25.7919 3.5 28.5 6.72042 28.5 10.2854C28.5 12.1855 27.8733 13.5468 26.841 14.8554L15.9531 27.7086C15.6521 28.0225 15.4372 28.2305 15.2634 28.361C15.0894 28.4915 15.0137 28.5 14.9882 28.5C14.9627 28.5 14.887 28.4915 14.713 28.3609C14.5392 28.2305 14.3243 28.0226 14.0234 27.7088L3.17246 14.8704C2.26528 13.5179 1.5 12.1585 1.5 10.2854C1.5 6.72037 4.20805 3.5 8 3.5C10.7202 3.5 12.8932 4.9717 14.6384 6.79934ZM25.8811 15.1382L25.8812 15.1383L25.8894 15.1282C26.5916 14.2563 27.0617 13.4755 27.3534 12.6884C27.6464 11.898 27.75 11.1262 27.75 10.2854C27.75 7.0945 25.3468 4.11906 22 4.11906C20.5682 4.11906 19.0921 4.84554 17.8205 5.75542C16.7365 6.53111 15.7522 7.47532 15.0019 8.33098C14.2378 7.45036 13.2495 6.4972 12.1636 5.72205C10.8949 4.81644 9.42819 4.10744 7.99596 4.11908C4.56875 4.14676 2.25 7.09583 2.25 10.2854C2.25 12.0248 2.80689 13.2895 4.09594 15.0581L4.10657 15.0727L4.11824 15.0865L14.6182 27.5011L14.9992 27.9516L15.3811 27.5019L25.8811 15.1382Z" fill="#615F5D" stroke="#5D5B58"/>
</svg>
