<svg width="29" height="27" viewBox="0 0 29 27" fill="none" xmlns="http://www.w3.org/2000/svg">
<path d="M12.5641 13.0166H9.66406V14.9499V19.7833H10.6307V16.8833H12.5641C13.6274 16.8833 14.4974 16.0132 14.4974 14.9499C14.4974 13.8866 13.6274 13.0166 12.5641 13.0166ZM12.5641 15.9167H10.6307V13.9833H12.5641C13.1441 13.9833 13.5307 14.37 13.5307 14.95C13.5307 15.53 13.1441 15.9167 12.5641 15.9167Z" fill="#615F5D"/>
<path d="M18.3688 13.0166H15.4688V19.7833H18.3688C19.4321 19.7833 20.3021 18.9132 20.3021 17.8499V14.9499C20.3021 13.8866 19.4321 13.0166 18.3688 13.0166ZM19.3354 17.85C19.3354 18.43 18.9488 18.8167 18.3688 18.8167H16.4354V13.9833H18.3688C18.9488 13.9833 19.3354 14.37 19.3354 14.95V17.85Z" fill="#615F5D"/>
<path d="M26.1 10.1169H18.3667V7.21686L12.5667 0.450195H1.93333C0.869975 0.450195 0 1.32017 0 2.38353V24.6169C0 25.6802 0.869975 26.5502 1.93333 26.5502H16.4333C17.4966 26.5502 18.3667 25.6802 18.3667 24.6169V22.6835H26.1C27.7434 22.6835 29 21.4269 29 19.7835V13.0168C29 11.3735 27.7434 10.1169 26.1 10.1169ZM12.5667 1.90017L17.11 7.21686H13.5333C13.05 7.21686 12.5667 6.73355 12.5667 6.2502V1.90017ZM17.4 24.6168C17.4 25.1001 17.0133 25.5835 16.4333 25.5835H1.93333C1.45003 25.5835 0.966667 25.1968 0.966667 24.6168V2.38353C0.966667 1.90022 1.35333 1.41686 1.93333 1.41686H11.6V6.2502C11.6 7.31355 12.47 8.18353 13.5333 8.18353H17.4V10.1169H9.66667C8.02331 10.1169 6.76667 11.3735 6.76667 13.0169V19.7835C6.76667 21.4269 8.02331 22.6835 9.66667 22.6835H17.4V24.6168ZM28.0333 19.7835C28.0333 20.8468 27.1633 21.7169 26.1 21.7169H9.66667C8.60331 21.7169 7.73333 20.8468 7.73333 19.7835V13.0168C7.73333 11.9535 8.60331 11.0835 9.66667 11.0835H26.1C27.1633 11.0835 28.0333 11.9535 28.0333 13.0168V19.7835Z" fill="#615F5D"/>
<path d="M21.2656 19.7833H22.2323V16.8833H25.1323V15.9167H22.2323V13.9833H26.099V13.0166H21.2656V19.7833Z" fill="#615F5D"/>
</svg>
