<svg xmlns="http://www.w3.org/2000/svg" width="25" height="25" viewBox="0 0 25 25" fill="none">
    <path d="M15.8833 12.146L15.5297 12.4995L15.8833 12.8531L23.8723 20.8427L23.8723 20.8427C24.7092 21.6796 24.7092 23.0354 23.8723 23.8723L23.8723 23.8723C23.0354 24.7092 21.6795 24.7092 20.8425 23.8723L20.489 24.2258L20.8425 23.8723L12.8536 15.8836L12.5 15.5301L12.1465 15.8836L4.15748 23.8723L4.51103 24.2258L4.15747 23.8723C3.32054 24.7092 1.96463 24.7092 1.1277 23.8723L1.12769 23.8723C0.290775 23.0354 0.290765 21.6796 1.12769 20.8427L9.11667 12.854L9.47025 12.5005L9.11667 12.1469L1.12769 4.1582C0.290769 3.32131 0.290769 1.96547 1.12769 1.12858C1.96463 0.291673 3.32054 0.291673 4.15748 1.12858L12.1465 9.11727L12.5 9.47082L12.8536 9.11725L20.8425 1.12767C20.8425 1.12767 20.8425 1.12766 20.8426 1.12766C21.6794 0.29078 23.0353 0.290775 23.8723 1.12768L24.225 0.774935L23.8723 1.12768C24.7092 1.96458 24.7092 3.3204 23.8723 4.1573L24.2258 4.51086L23.8723 4.1573L15.8833 12.146Z" fill="#ffffff" stroke="white"/>
</svg>