<svg width="65" height="32" viewBox="0 0 65 32" fill="none" xmlns="http://www.w3.org/2000/svg">
<path d="M32.036 10.1335L36.9724 4.89771C43.0045 -1.50033 52.9755 -1.6492 59.1894 4.56469L59.438 4.81327C65.6164 10.9916 65.6172 21.0129 59.438 27.1921L59.1894 27.4407C52.978 33.6521 43.0015 33.5024 36.9724 27.1076L32.036 21.8719L27.0997 27.1076C21.0706 33.5024 11.0941 33.6521 4.88265 27.4407L4.63408 27.1921C-1.54509 21.0129 -1.5443 10.9916 4.63408 4.81327L4.88265 4.56469C11.0965 -1.6492 21.0676 -1.50033 27.0997 4.89771L32.036 10.1335ZM21.2788 10.3857C18.3403 7.26893 13.5634 7.19761 10.5395 10.2215L10.2909 10.4701C7.23656 13.5245 7.23616 18.4805 10.2909 21.5352L10.5395 21.7838C13.5608 24.8051 18.3432 24.7334 21.2788 21.6197L26.5746 16.0027L21.2788 10.3857ZM42.7932 21.6197C45.7289 24.7334 50.5112 24.8051 53.5326 21.7838L53.7811 21.5352C56.8359 18.4805 56.8355 13.5245 53.7811 10.4701L53.5326 10.2215C50.5086 7.19761 45.7317 7.26893 42.7932 10.3857L37.4975 16.0027L42.7932 21.6197Z" fill="#2F5F6D"/>
</svg>
