<svg width="84" height="6" viewBox="0 0 84 6" fill="none" xmlns="http://www.w3.org/2000/svg">
<path d="M13.5469 5.44298L2.88024 5.43196C1.40889 5.43044 0.214733 4.3086 0.216158 2.92921C0.217583 1.54981 1.41405 0.430442 2.88541 0.431961L13.5521 0.442979C15.0234 0.444499 16.2176 1.56634 16.2161 2.94573C16.2147 4.32513 15.0183 5.4445 13.5469 5.44298Z" fill="#671993"/>
<path d="M80.6351 5.51349L23.8018 5.45478C22.3764 5.45331 21.2196 4.33151 21.2211 2.95212C21.2225 1.57272 22.3816 0.453314 23.807 0.454786L80.6403 0.513492C82.0656 0.514964 83.2224 1.63677 83.221 3.01616C83.2196 4.39555 82.0605 5.51496 80.6351 5.51349Z" fill="#671993"/>
</svg>
