<svg width="184" height="42" viewBox="0 0 184 42" fill="none" xmlns="http://www.w3.org/2000/svg">
<path d="M142.285 12.9972C142.328 13.1153 142.353 13.2378 142.353 13.369C142.353 26.7244 149.689 26.7244 153.63 26.7244H170.238C170.837 26.7244 171.324 27.2187 171.324 27.8268V28.5223C171.324 29.1304 170.837 29.6247 170.238 29.6247H142.28V41.5978H173.693C176.066 41.4447 183.113 40.9328 183.139 28.1943C183.143 15.495 176.053 14.9832 173.723 14.817L155.146 14.7645C154.603 14.7645 154.168 14.3183 154.168 13.7715V13.0759C154.168 12.5291 154.608 12.0829 155.146 12.0829H183.139V0.00488281H153.664C150.003 0.00925733 142.435 0.0136237 142.285 12.9972Z" fill="white"/>
<path d="M40.8367 12.5724C40.5223 0.017545 33.0751 0.00878906 29.47 0.00878906H0V28.535C0.142138 40.998 7.1672 41.4573 9.47156 41.6061H40.8582V28.7318V28.6662V27.5989V13.1848C40.8539 13.1542 40.8539 13.1192 40.8539 13.0886C40.8496 12.9092 40.841 12.743 40.8367 12.5724ZM28.9919 28.5175C28.9919 29.1256 28.5051 29.6199 27.9064 29.6199H14.1191C12.8355 29.6199 11.7931 28.5569 11.7931 27.2533V13.0755C11.7931 12.4674 12.2799 11.9731 12.8743 11.9731H26.6617C27.9452 11.9731 28.9876 13.0361 28.9876 14.3397V28.5175H28.9919Z" fill="white"/>
<path d="M83.6678 28.5311C83.6678 28.5267 83.6678 28.5267 83.6678 28.5223V13.3778V13.1853C83.6592 13.1547 83.6592 13.1197 83.6592 13.0847C83.6592 13.0103 83.6549 12.9403 83.6549 12.8616C83.4567 0.0136245 75.9191 0.00488281 72.2838 0.00488281H42.8096V11.9648H70.7677C71.3664 11.9648 71.8531 12.4591 71.8531 13.0672V13.7627C71.8531 14.3708 71.3707 14.8651 70.772 14.8651L52.1304 14.922C49.8992 15.0838 42.8871 15.5913 42.8871 28.1286C42.8871 28.2555 42.8613 28.4042 42.8182 28.5398C42.9689 40.9897 49.9725 41.449 52.2854 41.5978H83.6721V29.0604L83.6678 28.5311ZM71.8531 28.5223C71.8531 29.1304 71.3664 29.6247 70.7677 29.6247H55.6451C55.0464 29.6247 54.5597 29.1304 54.5597 28.5223V27.8268C54.5597 27.2187 55.0464 26.7244 55.6451 26.7244H70.7677C71.3664 26.7244 71.8531 27.2187 71.8531 27.8268V28.5223Z" fill="white"/>
<path d="M85.6273 12.9967C85.6703 13.1148 85.6962 13.2373 85.6962 13.3685C85.6962 26.7239 93.0314 26.7239 96.9725 26.7239H113.577C114.18 26.7239 114.662 27.2182 114.662 27.8263V28.5218C114.662 29.1299 114.18 29.6242 113.577 29.6242H85.6187V41.5973H117.031C119.37 41.4485 126.257 40.9367 126.468 28.6924C126.468 28.6749 126.468 28.6574 126.468 28.6399C126.473 28.4912 126.477 28.3469 126.477 28.1938C126.477 27.9925 126.468 27.8088 126.468 27.6119C126.253 15.4858 119.357 14.9783 117.061 14.8165L98.4886 14.7596C97.9502 14.7596 97.5109 14.3134 97.5109 13.7666V13.0711C97.5109 12.5242 97.9459 12.078 98.4886 12.078H126.477V11.9599V0H97.0026C93.3458 0.00874903 85.778 0.0131197 85.6273 12.9967Z" fill="white"/>
<path d="M128.437 12.6774V13.0755V27.7388V28.1369V28.5175V28.5219V41.5973H140.325V29.0556V28.5306V13.3773V12.8392V0.00878906H128.437V12.6774Z" fill="white"/>
</svg>
