<svg width="122" height="155" viewBox="0 0 122 155" fill="none" xmlns="http://www.w3.org/2000/svg">
<g clip-path="url(#clip0_937_10414)">
<path fill-rule="evenodd" clip-rule="evenodd" d="M2.2478 91.0723C9.7054 69.1951 39.3706 52.6751 71.797 61.4779C79.8445 55.1531 86.8773 53.1235 98.2761 55.1059C100.542 55.5307 100.778 57.2063 99.7157 60.1563C96.7893 64.6167 95.1845 69.1951 94.4057 73.8207C98.7717 77.1955 102.194 81.9391 104.884 87.8155C109.628 88.5471 114.371 90.2227 119.115 92.8187C122.608 101.22 122.631 109.244 118.124 116.796C113.215 119.699 107.976 121.634 102.383 122.531C101.179 126.354 98.8425 129.941 95.1373 133.269C95.3497 140.349 93.6741 147.193 90.8893 153.943L75.6437 154.013C74.1333 151.181 73.4017 148.279 73.4017 145.281C60.9174 150.426 48.197 151.04 35.1934 146.037C35.3586 148.821 34.863 151.583 33.1874 154.273L17.9418 154.013C14.449 128.927 -5.91779 111.935 2.2006 91.0723H2.2478Z" fill="#FF7A00"/>
<path d="M88.5996 87.7919C90.32 87.7919 91.7148 86.4606 91.7148 84.8183C91.7148 83.176 90.32 81.8447 88.5996 81.8447C86.8791 81.8447 85.4844 83.176 85.4844 84.8183C85.4844 86.4606 86.8791 87.7919 88.5996 87.7919Z" fill="white"/>
<path fill-rule="evenodd" clip-rule="evenodd" d="M39.0639 68.039C48.4331 67.0006 57.8023 66.9298 67.1479 68.039C68.4931 68.2042 69.6259 69.1482 69.6259 70.517C69.6259 71.8858 68.5167 73.113 67.1479 72.995C57.9439 72.1926 48.5983 72.1454 39.0639 72.995C37.7187 73.113 36.5859 71.8858 36.5859 70.517C36.5859 69.1482 37.6951 68.2042 39.0639 68.039Z" fill="white"/>
<path d="M54.6392 51.1646C62.0424 51.1646 68.044 45.163 68.044 37.7598C68.044 30.3565 62.0424 24.355 54.6392 24.355C47.2359 24.355 41.2344 30.3565 41.2344 37.7598C41.2344 45.163 47.2359 51.1646 54.6392 51.1646Z" stroke="#FF7A00" stroke-miterlimit="22.9256"/>
<path d="M54.6399 54.6812C63.9853 54.6812 71.5611 47.1054 71.5611 37.7601C71.5611 28.4147 63.9853 20.8389 54.6399 20.8389C45.2946 20.8389 37.7188 28.4147 37.7188 37.7601C37.7188 47.1054 45.2946 54.6812 54.6399 54.6812Z" stroke="#FF7A00" stroke-width="0.283492" stroke-miterlimit="22.9256"/>
<path d="M40.2417 14.5847C40.2417 11.978 39.7503 9.86475 39.1443 9.86475C38.5382 9.86475 38.0469 11.978 38.0469 14.5847V21.4523C38.0469 24.0591 38.5382 26.1723 39.1443 26.1723C39.7503 26.1723 40.2417 24.0591 40.2417 21.4523V14.5847Z" fill="#FF7A00"/>
<path d="M71.3745 14.5847C71.3745 11.978 70.8832 9.86475 70.2771 9.86475C69.671 9.86475 69.1797 11.978 69.1797 14.5847V21.4523C69.1797 24.0591 69.671 26.1723 70.2771 26.1723C70.8832 26.1723 71.3745 24.0591 71.3745 21.4523V14.5847Z" fill="#FF7A00"/>
<path d="M63.6323 8.47244C63.6323 5.86566 63.141 3.75244 62.5349 3.75244C61.9288 3.75244 61.4375 5.86566 61.4375 8.47244V15.34C61.4375 17.9468 61.9288 20.06 62.5349 20.06C63.141 20.06 63.6323 17.9468 63.6323 15.34V8.47244Z" fill="#FF7A00"/>
<path d="M48.0073 8.47244C48.0073 5.86566 47.516 3.75244 46.9099 3.75244C46.3038 3.75244 45.8125 5.86566 45.8125 8.47244V15.34C45.8125 17.9468 46.3038 20.06 46.9099 20.06C47.516 20.06 48.0073 17.9468 48.0073 15.34V8.47244Z" fill="#FF7A00"/>
<path d="M55.937 4.72C55.937 2.11321 55.4457 0 54.8396 0C54.2335 0 53.7422 2.11321 53.7422 4.72V11.5876C53.7422 14.1944 54.2335 16.3076 54.8396 16.3076C55.4457 16.3076 55.937 14.1944 55.937 11.5876V4.72Z" fill="#FF7A00"/>
<path d="M54.9428 27.4717L57.82 33.5013L64.4436 34.3744L59.5982 38.974L60.8146 45.5432L54.9428 42.3563L49.071 45.5432L50.2874 38.974L45.4421 34.3744L52.0656 33.5013L54.9428 27.4717Z" fill="#FF7A00"/>
</g>
<defs>
<clipPath id="clip0_937_10414">
<rect width="122" height="154.627" fill="white"/>
</clipPath>
</defs>
</svg>
