<svg width="138" height="124" viewBox="0 0 138 124" fill="none" xmlns="http://www.w3.org/2000/svg">
<path d="M104.036 94.1335L108.972 88.8977C115.005 82.4997 124.976 82.3508 131.189 88.5647L131.438 88.8133C137.616 94.9916 137.617 105.013 131.438 111.192L131.189 111.441C124.978 117.652 115.001 117.502 108.972 111.108L104.036 105.872L99.0997 111.108C93.0706 117.502 83.0941 117.652 76.8827 111.441L76.6341 111.192C70.4549 105.013 70.4557 94.9916 76.6341 88.8133L76.8827 88.5647C83.0965 82.3508 93.0676 82.4997 99.0997 88.8977L104.036 94.1335ZM93.2788 94.3857C90.3403 91.2689 85.5634 91.1976 82.5395 94.2215L82.291 94.4701C79.2366 97.5245 79.2362 102.48 82.291 105.535L82.5395 105.784C85.5608 108.805 90.3432 108.733 93.2788 105.62L98.5746 100.003L93.2788 94.3857ZM114.793 105.62C117.729 108.733 122.511 108.805 125.533 105.784L125.781 105.535C128.836 102.48 128.836 97.5245 125.781 94.4701L125.533 94.2215C122.509 91.1976 117.732 91.2689 114.793 94.3857L109.497 100.003L114.793 105.62ZM124 62C124 64.2091 122.209 66 120 66C117.791 66 116 64.2091 116 62C116 32.1766 91.8234 8 62 8C32.1766 8 8 32.1766 8 62C8 91.8234 32.1766 116 62 116C64.2091 116 66 117.791 66 120C66 122.209 64.2091 124 62 124C27.7583 124 0 96.2417 0 62C0 27.7583 27.7583 0 62 0C96.2417 0 124 27.7583 124 62ZM84 60C86.2091 60 88 61.7909 88 64C88 66.2091 86.2091 68 84 68H60C57.7909 68 56 66.2091 56 64V28C56 25.7909 57.7909 24 60 24C62.2091 24 64 25.7909 64 28V60H84Z" fill="#FF7A00"/>
</svg>
