<svg width="95" height="95" viewBox="0 0 95 95" fill="none" xmlns="http://www.w3.org/2000/svg">
<path d="M87.4356 54.1589C83.7646 56.0456 79.8712 57.9322 78.5363 61.1507C77.0902 64.4801 78.6475 68.4755 79.9824 72.3598C81.3173 76.0222 82.6522 79.5736 80.9836 81.1273C79.2038 82.903 75.7553 82.1262 72.0843 81.2383C68.4134 80.3505 64.7424 79.5736 61.5164 80.9054C58.4016 82.2372 56.3993 85.3446 54.5082 88.4521C52.3946 91.7816 50.3923 95 47.5 95C44.719 95 42.7166 91.7815 40.603 88.3411C38.7119 85.1227 36.7096 81.9042 33.5948 80.5724C30.3689 79.2407 26.5867 80.1285 22.9157 81.1273C19.2447 82.0152 15.7963 82.903 14.0164 81.2383C12.3478 79.5736 13.4602 76.0222 14.6838 72.3598C15.9075 68.4755 17.2424 64.4801 15.7963 61.2617C14.4614 58.0432 10.7904 56.1565 7.23068 54.3808C3.55972 52.4942 0.111241 50.7185 0.111241 47.9439C0.111241 47.8329 0.111241 47.611 0 47.5C0 47.389 0.111241 47.1671 0.111241 47.0561C0.111241 44.3925 3.55972 42.6168 7.23068 40.6192C10.7904 38.8435 14.4614 36.9568 15.7963 33.7383C17.1311 30.4089 15.9075 26.4136 14.6838 22.6402C13.4602 18.8668 12.3478 15.3154 14.0164 13.7617C15.7963 11.986 19.2447 12.8738 22.9157 13.8727C26.5867 14.7605 30.3689 15.7593 33.5948 14.4276C36.7096 13.0958 38.7119 9.87734 40.603 6.65888C42.7166 3.21846 44.6077 0 47.5 0C50.3923 0 52.3946 3.21846 54.5082 6.5479C56.5105 9.65537 58.5129 12.7629 61.5164 14.0946C64.7424 15.4264 68.4134 14.5386 72.0843 13.7617C75.7553 12.8738 79.2038 12.097 80.9836 13.8727C82.6522 15.4264 81.3173 18.9778 79.9824 22.6402C78.5363 26.5245 77.0902 30.5199 78.5363 33.8493C79.8712 37.0678 83.7646 38.9544 87.4356 40.8411C91.329 42.7278 94.8888 44.6145 94.8888 47.278C94.8888 47.389 94.8888 47.611 95 47.722C95 47.8329 94.8888 48.0549 94.8888 48.1659C95 50.3855 91.329 52.2722 87.4356 54.1589Z" fill="#FF7A00"/>
<path d="M62.1838 32.3586L27.6431 59.9014C26.9569 60.4752 26.7281 61.6229 27.4143 62.3114C27.7575 62.7705 28.215 63 28.7868 63C29.1299 63 29.5874 62.8852 29.8162 62.6557L64.3569 35.1129C65.0431 34.5391 65.2719 33.3915 64.5857 32.7029C64.0138 31.8996 62.9844 31.7848 62.1838 32.3586Z" fill="white"/>
<path d="M37.9898 44C38.4111 44 38.8325 44 39.2538 43.8888C43.5726 43.2215 46.6274 38.8839 45.89 34.2127C45.574 31.9883 44.4153 29.9863 42.7299 28.6517C41.0446 27.317 38.9378 26.7609 36.8311 27.0946C34.7244 27.4282 32.8283 28.6517 31.5643 30.4312C30.3003 32.2107 29.7736 34.4351 30.0896 36.6595C30.7216 40.9971 34.1977 44 37.9898 44ZM37.2524 30.5424C37.4631 30.5424 37.7791 30.4312 37.9898 30.4312C40.3072 30.4312 42.4139 32.2107 42.7299 34.7688C43.1513 37.5493 41.3606 40.1073 38.7272 40.5522C36.0938 40.9971 33.671 39.1063 33.2497 36.3258C32.8283 33.5453 34.7244 30.9873 37.2524 30.5424Z" fill="white"/>
<path d="M54.5 51C49.8026 51 46 54.8026 46 59.5C46 64.1974 49.8026 68 54.5 68C59.1974 68 63 64.1974 63 59.5C62.8882 54.8026 59.0855 51 54.5 51ZM54.5 64.5329C51.7039 64.5329 49.3553 62.1842 49.3553 59.3882C49.3553 56.5921 51.7039 54.2434 54.5 54.2434C57.2961 54.2434 59.6447 56.5921 59.6447 59.3882C59.5329 62.2961 57.2961 64.5329 54.5 64.5329Z" fill="white"/>
</svg>
