<svg width="116" height="116" viewBox="0 0 116 116" fill="none" xmlns="http://www.w3.org/2000/svg">
<g clip-path="url(#clip0_937_10432)">
<path d="M111.62 29.3976H79.7714L87.0487 25.7921C87.475 25.5882 87.8656 25.3048 88.2059 24.9645C90.8859 22.2819 92.3623 18.7055 92.3623 14.9107C92.3623 11.1079 90.8872 7.54074 88.2059 4.84886C82.6672 -0.688508 73.67 -0.688508 68.134 4.84886C67.8334 5.1534 67.5792 5.50031 67.3792 5.87503L57.2406 24.7328L47.1034 5.87636C46.9021 5.50164 46.6465 5.15472 46.346 4.8568C40.8126 -0.693804 31.8101 -0.693804 26.278 4.8568C20.7446 10.4008 20.7446 19.4205 26.278 24.9645C26.6143 25.3048 27.0076 25.5882 27.4313 25.7921L34.7085 29.3976H4.37878C1.96098 29.3976 0 31.3652 0 33.7856V59.8332C0 62.255 1.96098 64.2186 4.37878 64.2186H9.43815V110.923C9.43815 113.345 11.3978 115.308 13.8169 115.308H102.456C104.872 115.308 106.836 113.348 106.836 110.923V64.2186H111.62C114.038 64.2186 116.001 62.2577 116.001 59.8332V33.7856C115.997 31.3652 114.038 29.3976 111.62 29.3976ZM53.3134 106.534V64.2186H62.7965V106.535L53.3134 106.534ZM62.876 55.4452H53.3968V38.1763H62.876V55.4452ZM74.7306 10.6841C76.865 8.94296 80.0243 9.06213 82.0131 11.0589C83.0393 12.085 83.606 13.4528 83.606 14.9107C83.606 16.1553 83.1929 17.339 82.4236 18.303L66.365 26.2529L74.7306 10.6841ZM32.4681 11.0589C34.3867 9.13363 37.6692 8.98533 39.7467 10.6841L48.111 26.2529L32.0537 18.303C30.3589 16.1646 30.4966 13.0344 32.4681 11.0589ZM8.75359 38.1763H44.6392V55.4452H8.75359V38.1763ZM18.1917 64.2186H48.9372V106.535H18.1917V64.2186ZM98.0797 106.534H67.1713V64.2186H98.0797V106.534ZM107.245 55.4452H71.6335V38.1763H107.246L107.245 55.4452Z" fill="#FF7A00"/>
</g>
<defs>
<clipPath id="clip0_937_10432">
<rect width="116" height="116" fill="white"/>
</clipPath>
</defs>
</svg>
