<svg width="127" height="102" viewBox="0 0 127 102" fill="none" xmlns="http://www.w3.org/2000/svg">
<path d="M106.017 63.9093H127V71.0664H120.074V102H112.719V71.0664H105.998V63.9093H106.017ZM85.8739 74.0269L80.7215 87.1423H90.989L85.8739 74.0269ZM45.7745 50.7377H16.9507C16.596 50.7377 16.2413 50.7752 15.9053 50.7939H0V70.2609V75.1886V81.9711C0 92.7444 7.59789 101.475 16.9507 101.475H34.4429H45.7745H62.7253V81.9711V77.0809V70.2422C62.7253 59.4688 55.1272 50.7377 45.7745 50.7377ZM96.6828 26.0619H89.4021H78.1266C72.0967 26.0619 67.2057 31.7017 67.2057 38.6154V42.9996V46.1661V58.7006H77.8466C77.9399 58.7006 78.0145 58.7381 78.1079 58.7381H96.6641C102.694 58.7381 107.585 53.1173 107.585 46.1661V41.7629V38.6154V26.0619H96.6828ZM51.3749 10.6983H32.0907C31.9787 10.6983 31.8667 10.7358 31.736 10.7358H20.7404V23.7574V27.055V31.5893C20.7404 38.8027 25.8182 44.6484 32.0907 44.6484H43.7956H51.3564H62.7066V31.5893V28.3292V23.7574C62.7252 16.5627 57.6475 10.6983 51.3749 10.6983ZM85.7619 0.0187545H81.1882H74.0943C70.3046 0.0187545 67.2429 3.55985 67.2429 7.92539V10.6608V12.6657V20.5348H73.9262C73.9822 20.5348 74.0383 20.5536 74.0943 20.5536H85.7619C89.5516 20.5536 92.6131 17.0125 92.6131 12.6657V9.89279V7.90664V0H85.7619V0.0187545ZM82.2336 63.9093H89.5143L104.113 102H96.5895L93.6212 94.1496H78.0706L75.0464 102H67.523L82.2336 63.9093Z" fill="#505050"/>
</svg>
