<svg width="288" height="56" viewBox="0 0 288 56" fill="none" xmlns="http://www.w3.org/2000/svg">
<g clip-path="url(#clip0_675_3214)">
<path d="M176.574 0.180664H175.539V12.8927H176.574V0.180664Z" fill="black"/>
<path d="M189.329 12.8927H188.294L181.149 2.01622L181.093 2.02866V12.8927H180.059V0.180664H181.093L188.245 11.0384L188.294 11.026V0.180664H189.329V12.8927Z" fill="black"/>
<path d="M201.106 1.07666H196.819V12.8927H195.79V1.07666H191.355V0.180664H201.106V1.07666Z" fill="black"/>
<path d="M209.808 6.73889H204.166V12.0153H210.689V12.8989H203.125V0.180664H210.646V1.07666H204.166V5.84911H209.808V6.73889Z" fill="black"/>
<path d="M213.925 12.0153H220.424V12.8927H212.891V0.180664H213.925V12.0153Z" fill="black"/>
<path d="M223.674 12.0153H230.172V12.8927H222.633V0.180664H223.674V12.0153Z" fill="black"/>
<path d="M233.691 0.180664H232.656V12.8927H233.691V0.180664Z" fill="black"/>
<path d="M246.119 11.1813C245.842 11.6418 245.331 12.0711 244.585 12.4756C243.84 12.8738 242.898 13.0791 241.764 13.0791C240.317 13.0791 239.134 12.5751 238.21 11.5671C237.286 10.5591 236.824 9.25867 236.824 7.65333V5.32622C236.824 3.752 237.274 2.47644 238.161 1.48089C239.054 0.491556 240.212 0 241.629 0C242.996 0 244.08 0.360889 244.887 1.08889C245.694 1.81689 246.076 2.744 246.058 3.864L246.033 3.91378H245.078C245.078 3.03644 244.776 2.30844 244.179 1.736C243.581 1.16978 242.731 0.883556 241.629 0.883556C240.502 0.883556 239.59 1.29422 238.9 2.12178C238.21 2.94933 237.865 4.00711 237.865 5.30133V7.64711C237.865 8.97867 238.222 10.0613 238.943 10.9138C239.664 11.7662 240.606 12.1893 241.764 12.1893C242.645 12.1893 243.366 12.0587 243.926 11.7911C244.487 11.5236 244.875 11.2124 245.09 10.8578V7.60356H241.703V6.71378H246.119V11.1813Z" fill="black"/>
<path d="M256.043 6.73889H250.4V12.0153H256.93V12.8989H249.359V0.180664H256.88V1.07666H250.4V5.84911H256.043V6.73889Z" fill="black"/>
<path d="M268.395 12.8927H267.36L260.209 2.01622L260.16 2.02866V12.8927H259.125V0.180664H260.16L267.311 11.0384L267.36 11.026V0.180664H268.395V12.8927Z" fill="black"/>
<path d="M280.173 1.07666H275.885V12.8927H274.857V1.07666H270.422V0.180664H280.173V1.07666Z" fill="black"/>
<path d="M183.377 31.2662C183.377 30.6128 183.119 30.0715 182.607 29.6484C182.096 29.2253 181.228 28.8271 180.002 28.4537C178.653 28.0804 177.636 27.62 176.934 27.06C176.238 26.5062 175.881 25.7471 175.881 24.7951C175.881 23.8182 176.275 23.0217 177.057 22.3995C177.84 21.7711 178.844 21.46 180.057 21.46C181.338 21.46 182.367 21.8146 183.143 22.524C183.919 23.2271 184.301 24.1293 184.277 25.2182L184.258 25.268H183.291C183.291 24.428 182.989 23.7311 182.386 23.1835C181.782 22.6297 181.006 22.356 180.057 22.356C179.078 22.356 178.308 22.5924 177.754 23.0591C177.199 23.532 176.922 24.1044 176.922 24.7826C176.922 25.4297 177.175 25.9586 177.68 26.3755C178.185 26.7924 179.078 27.1782 180.347 27.5453C181.677 27.9373 182.687 28.4164 183.383 28.9826C184.079 29.5551 184.431 30.308 184.431 31.2537C184.431 32.2431 184.024 33.0395 183.205 33.6431C182.392 34.2466 181.363 34.5453 180.125 34.5453C178.887 34.5453 177.809 34.228 176.885 33.5871C175.961 32.9524 175.518 32.0191 175.548 30.7995L175.567 30.7497H176.528C176.528 31.7328 176.891 32.4671 177.624 32.9462C178.357 33.4253 179.189 33.668 180.131 33.668C181.092 33.668 181.88 33.444 182.484 33.0022C183.075 32.5417 183.377 31.9693 183.377 31.2662Z" fill="black"/>
<path d="M193.648 28.1988H188.006V33.4691H194.529V34.3526H186.965V21.6406H194.486V22.5304H188.006V27.3091H193.648V28.1988Z" fill="black"/>
<path d="M197.738 28.6101V34.3532H196.703V21.6475H200.898C202.247 21.6475 203.275 21.9461 204.002 22.5435C204.723 23.1408 205.08 24.0119 205.08 25.1568C205.08 25.835 204.889 26.4386 204.507 26.9675C204.125 27.5026 203.583 27.8883 202.881 28.1372C203.657 28.3363 204.218 28.6848 204.563 29.2012C204.908 29.7115 205.074 30.3461 205.074 31.1177V32.3123C205.074 32.7106 205.123 33.0652 205.216 33.3763C205.308 33.6875 205.456 33.9488 205.672 34.1417V34.3532H204.618C204.409 34.1417 204.255 33.8492 204.169 33.4697C204.082 33.0901 204.039 32.6981 204.039 32.2937V31.1301C204.039 30.3523 203.793 29.7364 203.294 29.2821C202.795 28.8279 202.099 28.6039 201.206 28.6039H197.738V28.6101ZM197.738 27.7203H200.775C201.908 27.7203 202.74 27.4901 203.263 27.0235C203.787 26.563 204.045 25.9346 204.045 25.1506C204.045 24.3168 203.787 23.6697 203.263 23.2155C202.74 22.7612 201.951 22.5372 200.892 22.5372H197.732V27.7203H197.738Z" fill="black"/>
<path d="M211.651 32.1251L211.903 33.0149H211.953L212.205 32.1251L215.987 21.6406H217.108L212.421 34.3526H211.435L206.754 21.6406H207.875L211.651 32.1251Z" fill="black"/>
<path d="M220.269 21.6406H219.234V34.3526H220.269V21.6406Z" fill="black"/>
<path d="M232.42 30.3834L232.438 30.4331C232.463 31.6776 232.056 32.6731 231.231 33.4198C230.4 34.1665 229.309 34.5336 227.96 34.5336C226.562 34.5336 225.429 34.0234 224.573 33.0029C223.71 31.9825 223.285 30.6571 223.285 29.0331V26.9611C223.285 25.3434 223.71 24.018 224.573 22.9914C225.429 21.9647 226.562 21.4482 227.96 21.4482C229.322 21.4482 230.418 21.8154 231.237 22.5371C232.063 23.2651 232.463 24.2669 232.438 25.5425L232.42 25.5922H231.453C231.453 24.5656 231.145 23.7691 230.523 23.1967C229.901 22.6242 229.051 22.3318 227.96 22.3318C226.858 22.3318 225.977 22.7611 225.312 23.626C224.646 24.4909 224.314 25.5922 224.314 26.9362V29.0269C224.314 30.3896 224.646 31.4971 225.312 32.3558C225.977 33.2145 226.864 33.6438 227.96 33.6438C229.051 33.6438 229.901 33.3638 230.523 32.8038C231.145 32.2438 231.453 31.4349 231.453 30.3709H232.42V30.3834Z" fill="black"/>
<path d="M241.785 28.1988H236.143V33.4691H242.666V34.3526H235.102V21.6406H242.622V22.5304H236.143V27.3091H241.785V28.1988Z" fill="black"/>
<path d="M185.29 43.9913H181.003V55.8136H179.974V43.9913H175.539V43.1016H185.29V43.9913Z" fill="black"/>
<path d="M193.992 49.6598H188.35V54.93H194.873V55.8136H187.309V43.1016H194.829V43.9913H188.35V48.77H193.992V49.6598Z" fill="black"/>
<path d="M205.736 51.8439L205.755 51.8937C205.779 53.1382 205.373 54.1337 204.547 54.8804C203.716 55.627 202.632 55.9941 201.277 55.9941C199.878 55.9941 198.751 55.4839 197.889 54.4635C197.033 53.443 196.602 52.1177 196.602 50.4999V48.4279C196.602 46.8102 197.033 45.4848 197.889 44.4581C198.751 43.4315 199.878 42.915 201.277 42.915C202.644 42.915 203.734 43.2822 204.554 44.0039C205.379 44.7319 205.779 45.7337 205.755 47.0093L205.736 47.059H204.769C204.769 46.0324 204.461 45.2359 203.839 44.6635C203.217 44.091 202.367 43.8048 201.277 43.8048C200.18 43.8048 199.293 44.2342 198.628 45.099C197.963 45.9639 197.63 47.0653 197.63 48.4093V50.4999C197.63 51.8626 197.963 52.9702 198.628 53.8288C199.293 54.6875 200.18 55.1168 201.277 55.1168C202.367 55.1168 203.223 54.8368 203.839 54.2768C204.461 53.7168 204.769 52.9079 204.769 51.8439H205.736Z" fill="black"/>
<path d="M217.639 55.8136H216.604V49.9647H209.453V55.8136H208.418V43.1016H209.453V49.0749H216.604V43.1016H217.639V55.8136Z" fill="black"/>
<path d="M230.132 55.8136H229.091L221.946 44.9371L221.896 44.9433V55.8136H220.855V43.1016H221.896L229.042 53.9531L229.091 53.9469V43.1016H230.132V55.8136Z" fill="black"/>
<path d="M242.572 50.4931C242.572 52.1295 242.128 53.4611 241.235 54.4753C240.348 55.4895 239.153 55.9935 237.656 55.9935C236.178 55.9935 235.001 55.4895 234.127 54.4753C233.246 53.4611 232.809 52.1358 232.809 50.4931V48.4211C232.809 46.7846 233.246 45.4593 234.127 44.4389C235.001 43.4184 236.178 42.9082 237.65 42.9082C239.147 42.9082 240.342 43.4184 241.235 44.4389C242.128 45.4593 242.572 46.7846 242.572 48.4211V50.4931ZM241.549 48.4086C241.549 47.0335 241.204 45.926 240.514 45.086C239.824 44.2522 238.87 43.8291 237.65 43.8291C236.449 43.8291 235.519 44.246 234.847 45.086C234.182 45.926 233.843 47.0273 233.843 48.4086V50.4931C233.843 51.8806 234.182 52.9882 234.854 53.8282C235.525 54.662 236.461 55.0851 237.656 55.0851C238.882 55.0851 239.837 54.6682 240.52 53.8344C241.204 53.0006 241.549 51.8869 241.549 50.4931V48.4086Z" fill="black"/>
<path d="M246.293 54.93H252.791V55.8136H245.258V43.1016H246.293V54.93Z" fill="black"/>
<path d="M264.236 50.4931C264.236 52.1295 263.792 53.4611 262.899 54.4753C262.012 55.4895 260.817 55.9935 259.32 55.9935C257.842 55.9935 256.665 55.4895 255.791 54.4753C254.91 53.4611 254.473 52.1358 254.473 50.4931V48.4211C254.473 46.7846 254.91 45.4593 255.791 44.4389C256.665 43.4184 257.842 42.9082 259.32 42.9082C260.817 42.9082 262.012 43.4184 262.905 44.4389C263.798 45.4593 264.242 46.7846 264.242 48.4211V50.4931H264.236ZM263.213 48.4086C263.213 47.0335 262.868 45.926 262.178 45.086C261.488 44.2522 260.534 43.8291 259.314 43.8291C258.113 43.8291 257.183 44.246 256.511 45.086C255.84 45.926 255.507 47.0273 255.507 48.4086V50.4931C255.507 51.8806 255.846 52.9882 256.518 53.8282C257.189 54.662 258.125 55.0851 259.32 55.0851C260.546 55.0851 261.501 54.6682 262.185 53.8344C262.868 53.0006 263.213 51.8869 263.213 50.4931V48.4086Z" fill="black"/>
<path d="M275.865 54.1022C275.588 54.5627 275.077 54.992 274.331 55.3964C273.586 55.7947 272.644 56 271.51 56C270.063 56 268.88 55.496 267.956 54.488C267.032 53.48 266.57 52.1796 266.57 50.5742V48.2471C266.57 46.6729 267.02 45.3973 267.913 44.4018C268.806 43.4125 269.958 42.9209 271.381 42.9209C272.748 42.9209 273.833 43.288 274.633 44.0098C275.44 44.7378 275.828 45.6649 275.804 46.7849L275.779 46.8347H274.83C274.83 45.9573 274.529 45.2293 273.931 44.6569C273.334 44.0907 272.484 43.8045 271.381 43.8045C270.254 43.8045 269.342 44.2151 268.646 45.0427C267.956 45.8702 267.611 46.928 267.611 48.2222V50.568C267.611 51.8996 267.975 52.9822 268.695 53.8347C269.416 54.6871 270.352 55.1102 271.51 55.1102C272.391 55.1102 273.112 54.9796 273.672 54.712C274.233 54.4444 274.621 54.1333 274.843 53.7787V50.5244H271.455V49.6347H275.871V54.1022H275.865Z" fill="black"/>
<path d="M282.9 50.1638L286.799 43.1016H288L283.411 51.1656V55.8136H282.382V51.122L277.824 43.1016H279.025L282.9 50.1638Z" fill="black"/>
<path d="M10.4529 0.553711H0V55.4524H10.4529V0.553711Z" fill="black"/>
<path d="M136.615 0.553711H122.473H112.02H97.8711V11.1128H112.02V55.4462H122.473V11.1128H136.615V0.553711Z" fill="black"/>
<path d="M67.2836 40.6936C67.2836 38.5843 66.7662 36.9354 65.719 35.7594C64.6781 34.5772 62.7316 33.3887 59.8859 32.1941C54.5023 30.315 50.4863 28.1434 47.8315 25.6732C45.1767 23.2092 43.8523 19.7621 43.8523 15.3381C43.8523 10.9452 45.3491 7.37985 48.3427 4.6483C51.3363 1.91674 55.2723 0.547852 60.1569 0.547852C65.3679 0.547852 69.4826 2.00385 72.5008 4.91585C75.519 7.82785 76.9789 11.7603 76.8803 16.7194L76.8002 16.9434H66.6861C66.6861 14.1496 66.1379 12.0465 65.0476 10.6341C63.9512 9.22163 62.2758 8.51852 60.0091 8.51852C58.0503 8.51852 56.6089 9.15318 55.6912 10.4287C54.7672 11.6981 54.3114 13.3532 54.3114 15.3816C54.3114 17.267 54.8658 18.7914 55.9745 19.955C57.0832 21.1247 59.1098 22.3692 62.0479 23.6883C67.2528 25.4181 71.1642 27.5585 73.7635 30.1096C76.3691 32.6607 77.6687 36.1639 77.6687 40.6127C77.6687 45.2172 76.1412 48.8323 73.086 51.4767C70.0308 54.1212 65.9223 55.4403 60.7667 55.4403C55.685 55.4403 51.3671 54.0341 47.8253 51.2279C44.2773 48.4216 42.565 44.1283 42.6943 38.3603L42.7682 38.1301H52.8824C52.8824 41.459 53.5353 43.8545 54.8473 45.3167C56.1531 46.779 58.1304 47.507 60.7729 47.507C63.0088 47.507 64.6596 46.8847 65.719 45.6403C66.76 44.4083 67.2836 42.7532 67.2836 40.6936Z" fill="black"/>
<path d="M156.732 0.553711H155.574V55.4524H156.732V0.553711Z" fill="black"/>
</g>
<defs>
<clipPath id="clip0_675_3214">
<rect width="288" height="56" fill="white"/>
</clipPath>
</defs>
</svg>
