<svg width="100" height="99" viewBox="0 0 100 99" fill="none" xmlns="http://www.w3.org/2000/svg">
<g clip-path="url(#clip0_2381_12817)">
<g clip-path="url(#clip1_2381_12817)">
<ellipse cx="50" cy="49.5642" rx="49" ry="48.7487" fill="white"/>
<mask id="mask0_2381_12817" style="mask-type:luminance" maskUnits="userSpaceOnUse" x="-48" y="-89" width="196" height="275">
<path d="M147.193 -88.9863H-47.9766V185.357H147.193V-88.9863Z" fill="white"/>
</mask>
<g mask="url(#mask0_2381_12817)">
<path d="M27.9777 47.2738C28.6755 46.9144 29.2134 46.4074 29.5912 45.7461C29.9714 45.0893 30.1615 44.3312 30.1615 43.474C30.1615 42.6168 29.9737 41.8586 29.5912 41.1973C29.2134 40.5383 28.6802 40.029 27.9917 39.6695C27.3008 39.3147 26.5033 39.1349 25.5876 39.1349H18.3872V45.1285V47.8131H25.5876C26.4848 47.8131 27.28 47.6333 27.9777 47.2738ZM50.1818 -0.174805C22.8058 -0.174805 0.613281 21.8846 0.613281 49.0966C0.613281 76.3085 22.8058 98.368 50.1818 98.368C77.5579 98.368 99.7457 76.3085 99.7457 49.0966C99.748 21.8869 77.5579 -0.174805 50.1818 -0.174805ZM30.9938 63.3466L23.7887 51.5392H18.3849V58.6734C17.9073 59.1919 17.3185 59.8463 16.6161 60.639C15.8905 61.4294 15.035 62.3304 14.0614 63.3466V52.272V36.796C13.7878 36.8191 13.4725 36.8444 13.1063 36.8674H11.7779V36.2568V35.4065H14.0683H14.5018H18.3849H25.3976C27.3518 35.4065 29.065 35.7406 30.5417 36.4066C32.0231 37.0679 33.166 38.0127 33.9797 39.2386C34.791 40.4599 35.1991 41.8702 35.1991 43.4694C35.1991 45.0732 34.7864 46.4835 33.9681 47.7048C33.1451 48.9284 31.9976 49.8708 30.5185 50.5368C29.9877 50.781 29.422 50.9746 28.8285 51.1267L36.6155 63.3443H30.9938V63.3466ZM44.8081 82.3436H43.1552V15.8519H44.8081V82.3436ZM78.3043 35.6484C78.557 35.736 78.7935 35.8282 79.023 35.9204C79.2479 36.0563 79.4635 36.1992 79.6698 36.3582C79.8738 36.4941 80.0778 36.6531 80.2841 36.8329C80.5577 37.1048 80.7941 37.3744 80.9981 37.6463C81.179 37.9182 81.3389 38.2086 81.4757 38.5243C81.6357 38.863 81.7492 39.1902 81.8165 39.5082C81.9092 39.847 81.9648 40.1949 81.9857 40.5567C81.9857 40.9392 81.9648 41.3033 81.9208 41.642C81.8536 41.9762 81.7608 42.2965 81.6472 42.5868C81.5105 42.9256 81.3505 43.2459 81.1697 43.5362C80.9842 43.8081 80.7617 44.0777 80.4881 44.3496C80.3282 44.5524 80.1473 44.7322 79.9433 44.8912C79.7138 45.0709 79.489 45.2299 79.2618 45.3659C79.0369 45.4788 78.8074 45.5894 78.5802 45.7046C78.3322 45.7922 78.0818 45.8613 77.8314 45.9051C77.9473 45.8613 78.0354 45.8175 78.1073 45.7737C78.1954 45.7046 78.2765 45.6493 78.3438 45.6032C78.4318 45.5364 78.4991 45.4557 78.5478 45.3681C78.615 45.3013 78.6845 45.2322 78.7518 45.1654C78.9071 44.9188 79.0439 44.6354 79.1621 44.3197C79.2502 43.9809 79.3429 43.5938 79.4356 43.1675C79.5029 42.7366 79.5608 42.3103 79.6049 41.8794C79.6281 41.4738 79.6396 41.0544 79.6396 40.6281C79.6396 40.2226 79.6165 39.8032 79.5724 39.3769C79.5052 38.9713 79.4241 38.5519 79.3313 38.1256C79.2177 37.7201 79.0949 37.3444 78.9581 37.0057C78.8422 36.69 78.6984 36.4204 78.513 36.1923C78.4458 36.1047 78.3762 36.0241 78.309 35.9572C78.2418 35.8904 78.1722 35.8328 78.1096 35.7867C78.0169 35.7222 77.9242 35.6623 77.8337 35.6185C77.7457 35.5747 77.6645 35.5309 77.5973 35.4825C77.8152 35.524 78.0563 35.5793 78.3043 35.6484ZM61.6803 45.1308V58.6734C61.2027 59.1919 60.6139 59.8463 59.9115 60.639C59.1859 61.4294 58.3351 62.3304 57.3568 63.3466V52.272V36.796C57.0832 36.8191 56.7679 36.8444 56.4016 36.8674H55.0733V36.2568V35.4065H57.7972H61.6803V45.1308ZM68.0879 58.5006C68.1319 58.9983 68.2247 59.4984 68.3614 59.9915C68.4495 60.4662 68.5863 60.904 68.7694 61.3119C68.9503 61.7197 69.1543 62.07 69.3838 62.365C69.451 62.5009 69.5391 62.6115 69.6573 62.7037C69.7454 62.7913 69.8381 62.8719 69.9262 62.9387C70.0421 63.0056 70.1557 63.0747 70.267 63.1415C70.3829 63.1853 70.4965 63.2406 70.6078 63.3097C70.267 63.2222 69.9494 63.1185 69.6573 63.0056C69.3351 62.9134 69.0198 62.7913 68.7022 62.63C68.4055 62.4756 68.1203 62.3027 67.8468 62.123C67.5779 61.9433 67.3136 61.7405 67.0655 61.5123C66.7248 61.1736 66.4187 60.8257 66.1475 60.4639C65.874 60.1251 65.6468 59.7657 65.466 59.3785C65.2851 59.0191 65.1484 58.6319 65.0556 58.231C64.9629 57.8254 64.9188 57.406 64.9188 56.9751C64.9188 56.5235 64.9629 56.0856 65.0556 55.6547C65.1484 55.2492 65.2851 54.8528 65.466 54.4703C65.6468 54.0878 65.874 53.7237 66.1475 53.3849C66.4211 53.0255 66.7248 52.6867 67.0655 52.3733C67.3136 52.1452 67.5871 51.9424 67.8839 51.7627C68.1574 51.5783 68.4287 51.4124 68.7022 51.2534C69.0198 51.1175 69.3351 50.9954 69.6573 50.8824C69.9494 50.7718 70.267 50.6797 70.6078 50.6105C70.471 50.6543 70.3597 50.7096 70.267 50.7787C70.1557 50.8456 70.0421 50.9055 69.9262 50.9493C69.8381 51.0414 69.7454 51.129 69.6573 51.2212C69.5414 51.3087 69.4533 51.4124 69.3838 51.5253C69.1543 51.7973 68.9503 52.136 68.7694 52.5416C68.5863 52.9494 68.4495 53.4103 68.3614 53.9288C68.2247 54.4265 68.1319 54.9335 68.0879 55.4519C68.0206 55.9497 67.9836 56.4566 67.9836 56.9751C67.9836 57.4775 68.0183 57.9821 68.0879 58.5006ZM83.4856 56.2677C83.4416 56.6502 83.3488 57.0258 83.2121 57.3853C83.0521 57.86 82.8388 58.3347 82.5653 58.8094C82.2917 59.3071 81.9625 59.7703 81.5777 60.1966C81.2369 60.6044 80.8706 60.9662 80.4858 61.2819C80.0755 61.5976 79.635 61.881 79.1575 62.1276C78.7008 62.3742 78.2348 62.5793 77.7619 62.7383C77.2611 62.918 76.7581 63.054 76.262 63.1461C76.3988 63.077 76.6028 62.9756 76.8763 62.8397C77.0803 62.729 77.2866 62.6161 77.4906 62.5055C77.6946 62.3696 77.9079 62.2106 78.1374 62.0262C78.2487 61.9156 78.3623 61.8142 78.4782 61.722C78.5918 61.6114 78.7031 61.5077 78.819 61.4179C78.9071 61.3027 78.9998 61.1897 79.0925 61.0791C79.2038 60.9432 79.285 60.7957 79.329 60.6413C79.4403 60.3671 79.5585 60.086 79.6698 59.791C79.7811 59.5007 79.8854 59.2057 79.9781 58.9108C80.0894 58.6204 80.1589 58.2932 80.1821 57.9291C80.2262 57.5696 80.2262 57.1641 80.1821 56.7078C80.1334 56.3691 80.0662 56.0303 79.9781 55.6962C79.9063 55.3805 79.7927 55.074 79.6373 54.7791C79.5006 54.4887 79.3406 54.2053 79.1598 53.9334C78.9558 53.6868 78.7379 53.4403 78.5107 53.1891C78.2858 52.9656 78.0123 52.7374 77.697 52.5116C77.3771 52.2881 77.0363 52.0738 76.6746 51.8687C76.2852 51.6452 75.8563 51.4309 75.3787 51.2258C74.8803 51.023 74.368 50.8317 73.8464 50.6474C73.2089 50.4239 72.6061 50.1888 72.0405 49.9377C71.4702 49.6911 70.9625 49.4514 70.5081 49.2279C70.0514 48.9814 69.6457 48.7187 69.2818 48.4514C68.9155 48.2002 68.5886 47.9536 68.2942 47.7048C68.0415 47.4536 67.8166 47.1748 67.6126 46.8545C67.4086 46.5641 67.2278 46.2438 67.0679 45.9051C66.9079 45.5894 66.7827 45.2322 66.6946 44.8243C66.5787 44.4418 66.4976 44.0339 66.4535 43.6053C66.4095 43.0869 66.3979 42.5799 66.4211 42.0822C66.4419 41.5867 66.5207 41.1143 66.6575 40.6581C66.7734 40.2064 66.9311 39.7801 67.1351 39.3746C67.3646 38.9437 67.6335 38.5381 67.9534 38.1533C68.2455 37.7707 68.5863 37.432 68.9758 37.1371C69.3374 36.8214 69.7222 36.5517 70.1326 36.3236C70.5406 36.1001 70.9949 35.9204 71.4957 35.7821C71.9732 35.6508 72.4833 35.5586 73.028 35.5148H73.0651H73.1324H73.1648H73.232C73.0072 35.6024 72.6733 35.7291 72.2445 35.8858C71.9037 35.9964 71.5629 36.2245 71.2221 36.5633C70.8814 36.879 70.5406 37.2961 70.1998 37.8145C70.0445 38.0173 69.9077 38.2454 69.7941 38.492C69.6782 38.7386 69.5901 39.022 69.5182 39.3377C69.4533 39.6096 69.4185 39.9115 69.4185 40.2502C69.3954 40.5682 69.3954 40.907 69.4185 41.2664C69.4858 41.6743 69.5669 42.0683 69.6596 42.4555C69.7709 42.8149 69.917 43.1537 70.1001 43.4694C70.2809 43.7874 70.4965 44.0685 70.7469 44.3197C70.9949 44.5662 71.2592 44.8151 71.5328 45.0617C71.6881 45.1769 71.906 45.3128 72.1796 45.4695C72.4531 45.6285 72.7684 45.7968 73.1347 45.9811C73.4708 46.1355 73.8811 46.3083 74.3587 46.4881C74.8108 46.6678 75.3022 46.8706 75.8262 47.0987C76.4845 47.3268 77.085 47.5619 77.6274 47.8084C78.1722 48.055 78.6869 48.3154 79.1644 48.585C79.642 48.8362 80.0708 49.0966 80.4557 49.3662C80.8405 49.6381 81.1813 49.9169 81.478 50.2119C81.7956 50.4838 82.0668 50.7787 82.2964 51.0921C82.5212 51.3825 82.7252 51.7028 82.9107 52.0415C83.066 52.3319 83.1958 52.6706 83.2839 53.0554C83.3975 53.4426 83.4763 53.8366 83.525 54.2445C83.525 54.3758 83.5343 54.5233 83.5575 54.6823C83.5807 54.8413 83.5922 54.998 83.5922 55.157C83.5876 55.5349 83.5528 55.9059 83.4856 56.2677Z" fill="#010202"/>
</g>
<mask id="mask1_2381_12817" style="mask-type:luminance" maskUnits="userSpaceOnUse" x="-48" y="-89" width="196" height="275">
<path d="M147.193 -88.9863H-47.9766V185.357H147.193V-88.9863Z" fill="white"/>
</mask>
<g mask="url(#mask1_2381_12817)">
<path d="M93.0245 49.7115L92.2549 49.7691C92.2108 49.7737 92.176 49.7852 92.1505 49.8083C92.1227 49.8267 92.1088 49.8566 92.1065 49.8935L92.0184 51.0457L96.5042 51.3844C96.5436 51.3867 96.583 51.3775 96.6224 51.3522C96.6618 51.3291 96.685 51.2876 96.6966 51.23L96.7685 50.7162L97.1162 50.7415L96.9493 52.926L96.6015 52.9007L96.6085 52.3822C96.6085 52.3246 96.59 52.2785 96.5552 52.2509C96.5204 52.2209 96.4833 52.2025 96.4439 52.2002L91.9581 51.8614L91.87 53.0228C91.8677 53.0597 91.877 53.0919 91.9002 53.1173C91.9233 53.1449 91.9558 53.1611 91.9975 53.1703L92.751 53.3385L92.7162 53.8063L91.418 53.7072L91.768 49.1377L93.0662 49.2368L93.0245 49.7115Z" fill="white"/>
</g>
<mask id="mask2_2381_12817" style="mask-type:luminance" maskUnits="userSpaceOnUse" x="-48" y="-89" width="196" height="275">
<path d="M147.193 -88.9863H-47.9766V185.357H147.193V-88.9863Z" fill="white"/>
</mask>
<g mask="url(#mask2_2381_12817)">
<path d="M95.5094 61.307L95.1687 61.2286L95.2336 60.8138C95.2405 60.7562 95.2312 60.7078 95.2011 60.671C95.171 60.6318 95.1385 60.6088 95.0991 60.5995L90.8753 59.6271C90.8359 59.6179 90.7965 59.6248 90.7524 59.6455C90.7084 59.6663 90.6782 59.7055 90.6597 59.7608L90.5322 60.1594L90.1914 60.0811L91.0839 56.2559L92.2639 56.5278L92.1526 57.0002L91.4757 56.9702C91.4363 56.9656 91.3969 56.9748 91.3598 56.9933C91.3227 57.014 91.2995 57.0416 91.2926 57.0762L90.8938 58.7837L92.8666 59.2377L93.1425 58.0579C93.1518 58.021 93.1425 57.9841 93.1193 57.9495C93.0938 57.9127 93.0683 57.8919 93.0405 57.885L92.512 57.6799L92.6047 57.279L94.3735 57.6869L94.2808 58.0878L93.7128 58.0417C93.685 58.0348 93.6502 58.044 93.6108 58.0671C93.5714 58.0901 93.5459 58.1178 93.5389 58.1523L93.2631 59.3322L95.4422 59.8345L95.9059 57.8412C95.9128 57.809 95.9012 57.7744 95.8734 57.7376C95.8433 57.7007 95.8154 57.6776 95.7876 57.6661L95.0342 57.3435L95.1339 56.9195L96.4576 57.2237L95.5094 61.307Z" fill="white"/>
</g>
<mask id="mask3_2381_12817" style="mask-type:luminance" maskUnits="userSpaceOnUse" x="-48" y="-89" width="196" height="275">
<path d="M147.193 -88.9863H-47.9766V185.357H147.193V-88.9863Z" fill="white"/>
</mask>
<g mask="url(#mask3_2381_12817)">
<path d="M89.6868 62.9668C89.6706 63.0221 89.6729 63.0705 89.6984 63.1097C89.7216 63.1489 89.7517 63.1765 89.7888 63.1903L94.3372 64.9877L94.1031 65.5753L88.7549 66.6953L92.4664 68.1631C92.5035 68.1769 92.5429 68.1792 92.5893 68.1677C92.6333 68.1562 92.6704 68.1239 92.6959 68.0732L92.8976 67.6562L93.2221 67.7852L92.573 69.4098L92.2485 69.2807L92.3922 68.8406C92.4084 68.7853 92.4061 68.7346 92.3829 68.6954C92.3598 68.6516 92.3296 68.624 92.2925 68.6102L88.2634 67.0179C88.2263 67.004 88.1846 67.0017 88.1382 67.0179C88.0919 67.0317 88.0571 67.0662 88.0293 67.1169L87.8206 67.5479L87.4961 67.4188L88.0919 65.9302L88.2797 66.004L93.0807 65.0062L89.6126 63.6351C89.5756 63.6213 89.5338 63.619 89.4898 63.6328C89.4434 63.6466 89.4086 63.6766 89.3831 63.7273L89.1814 64.1443L88.8569 64.0153L89.499 62.4092L89.8236 62.5382L89.6868 62.9668Z" fill="white"/>
</g>
<mask id="mask4_2381_12817" style="mask-type:luminance" maskUnits="userSpaceOnUse" x="-48" y="-89" width="196" height="275">
<path d="M147.193 -88.9863H-47.9766V185.357H147.193V-88.9863Z" fill="white"/>
</mask>
<g mask="url(#mask4_2381_12817)">
<path d="M90.1029 72.4051C90.1794 72.4489 90.242 72.5042 90.293 72.5687C90.344 72.6356 90.3811 72.7047 90.3996 72.7807C90.4205 72.8568 90.4251 72.9374 90.4158 73.0181C90.4066 73.1011 90.3811 73.1794 90.3393 73.2531C90.2953 73.3292 90.2396 73.3914 90.1724 73.4421C90.1052 73.4928 90.0333 73.5297 89.9568 73.5504C89.8803 73.5711 89.8015 73.5757 89.718 73.5665C89.6369 73.555 89.5558 73.5297 89.4793 73.4859C89.4051 73.4421 89.3425 73.3891 89.2915 73.3246C89.2428 73.26 89.2057 73.1886 89.1848 73.1126C89.164 73.0342 89.1593 72.9559 89.1686 72.8729C89.1802 72.7923 89.2057 72.7116 89.2498 72.6356C89.2938 72.5618 89.3471 72.4996 89.412 72.4489C89.4769 72.4005 89.5488 72.3637 89.6253 72.3429C89.7018 72.3222 89.7829 72.3176 89.8641 72.3268C89.9499 72.336 90.0287 72.3637 90.1029 72.4051Z" fill="white"/>
</g>
<mask id="mask5_2381_12817" style="mask-type:luminance" maskUnits="userSpaceOnUse" x="-48" y="-89" width="196" height="275">
<path d="M147.193 -88.9863H-47.9766V185.357H147.193V-88.9863Z" fill="white"/>
</mask>
<g mask="url(#mask5_2381_12817)">
<path d="M83.9447 73.7877L85.0644 76.728L86.4484 77.8088C86.4808 77.8341 86.5203 77.8456 86.5666 77.8456C86.6153 77.8456 86.657 77.8249 86.6964 77.7857L87.0442 77.3986L87.3177 77.6129L85.9616 79.3296L85.688 79.1153L85.9732 78.7005C86.0056 78.6521 86.0172 78.6037 86.0056 78.5577C85.9963 78.5116 85.9755 78.477 85.943 78.4517L84.6564 77.447L81.4781 76.94L81.1118 77.2511L80.8359 77.0368L82.0275 75.5275L82.3034 75.7418L82.0808 76.0851C82.06 76.122 82.0507 76.1519 82.0553 76.175C82.06 76.2003 82.0716 76.2188 82.0878 76.2303C82.1086 76.2464 82.1295 76.2579 82.1504 76.2602L84.5312 76.6681L83.6549 74.3937C83.6456 74.3753 83.6341 74.3592 83.6201 74.3476C83.597 74.3292 83.5715 74.3223 83.539 74.3269C83.5089 74.3315 83.4834 74.343 83.4602 74.3638L83.1356 74.6864L82.8598 74.4721L83.8798 73.1816L84.1557 73.3959L83.9447 73.7877Z" fill="white"/>
</g>
<mask id="mask6_2381_12817" style="mask-type:luminance" maskUnits="userSpaceOnUse" x="-48" y="-89" width="196" height="275">
<path d="M147.193 -88.9863H-47.9766V185.357H147.193V-88.9863Z" fill="white"/>
</mask>
<g mask="url(#mask6_2381_12817)">
<path d="M79.95 79.6983L79.3612 79.2005C79.3264 79.1729 79.294 79.1568 79.2592 79.1545C79.2267 79.1499 79.1943 79.1591 79.1665 79.1844L78.2902 79.9425L81.2459 83.3138C81.2737 83.3437 81.3085 83.3645 81.3526 83.3737C81.3989 83.3852 81.443 83.3714 81.4916 83.3368L81.9043 83.0211L82.1338 83.2815L80.4716 84.7194L80.2421 84.459L80.613 84.095C80.6524 84.0535 80.6733 84.0097 80.6687 83.9636C80.6664 83.9175 80.6525 83.8807 80.6246 83.8507L77.6689 80.4795L76.7856 81.2445C76.7578 81.2698 76.7416 81.2998 76.7393 81.3344C76.7369 81.3689 76.7462 81.4035 76.7717 81.4404L77.189 82.0856L76.832 82.3944L75.9766 81.4196L79.4539 78.4102L80.3093 79.3849L79.95 79.6983Z" fill="white"/>
</g>
<mask id="mask7_2381_12817" style="mask-type:luminance" maskUnits="userSpaceOnUse" x="-48" y="-89" width="196" height="275">
<path d="M147.193 -88.9863H-47.9766V185.357H147.193V-88.9863Z" fill="white"/>
</mask>
<g mask="url(#mask7_2381_12817)">
<path d="M76.1781 86.1367C76.2894 86.3095 76.3636 86.5008 76.403 86.7105C76.4401 86.9202 76.4285 87.1368 76.3659 87.3603C76.3033 87.5838 76.1804 87.8096 76.0042 88.0355C75.8257 88.2613 75.5754 88.4756 75.2531 88.6784C75.0654 88.7982 74.8892 88.8904 74.7246 88.9572C74.5577 89.024 74.4116 89.077 74.2864 89.1139C74.1404 89.1531 74.0013 89.183 73.8738 89.1968L73.0995 87.9917L73.5307 87.7175L74.1149 88.4318C74.1357 88.4549 74.1682 88.4756 74.2122 88.4917C74.254 88.5078 74.2934 88.5148 74.3235 88.5078L74.4 88.5032C74.4418 88.4963 74.4997 88.4871 74.5693 88.4664C74.6388 88.4502 74.7199 88.4226 74.815 88.3834C74.9077 88.3442 75.0074 88.2935 75.1164 88.2244C75.2624 88.1322 75.3853 88.0285 75.485 87.9133C75.5846 87.7958 75.6588 87.6783 75.7029 87.5515C75.7492 87.4271 75.7631 87.2981 75.7492 87.1667C75.7353 87.0354 75.6866 86.9063 75.6055 86.7796C75.5174 86.6413 75.3992 86.5468 75.2555 86.4938C75.1094 86.4409 74.9518 86.4109 74.7802 86.4063C74.6087 86.4017 74.4325 86.4109 74.2517 86.4362C74.0685 86.4616 73.897 86.4823 73.7347 86.5031C73.5515 86.5261 73.373 86.5422 73.1992 86.5515C73.0253 86.563 72.8607 86.5515 72.7031 86.5215C72.5454 86.4892 72.3971 86.4293 72.2626 86.3395C72.1258 86.2519 72.0006 86.1182 71.8894 85.9454C71.7595 85.7426 71.683 85.5353 71.6575 85.3186C71.6344 85.1043 71.6552 84.8923 71.7225 84.6873C71.7897 84.4799 71.8986 84.284 72.0516 84.0996C72.2047 83.9153 72.3948 83.7494 72.6196 83.6065C72.7425 83.5282 72.8607 83.4636 72.9789 83.4083C73.0925 83.353 73.2061 83.3069 73.3151 83.2678C73.424 83.2286 73.5284 83.1963 73.6257 83.1687C73.7231 83.141 73.8181 83.1157 73.9062 83.0926L73.9781 83.0742L74.6597 84.1342L74.2679 84.3831L73.7463 83.7978C73.7231 83.7701 73.693 83.7563 73.6605 83.7563C73.628 83.7563 73.5956 83.7517 73.5631 83.7471C73.5492 83.7471 73.526 83.7448 73.4866 83.7448C73.4495 83.7448 73.4009 83.7517 73.3429 83.7655C73.2826 83.777 73.2131 83.8001 73.1343 83.8323C73.0554 83.8646 72.9674 83.9107 72.87 83.9706C72.7309 84.0582 72.6196 84.1573 72.5362 84.2679C72.4527 84.3762 72.3948 84.4914 72.3669 84.6112C72.3368 84.731 72.3322 84.8532 72.3553 84.9776C72.3762 85.102 72.4249 85.2219 72.4991 85.3348C72.5663 85.4385 72.6474 85.5214 72.7448 85.5813C72.8398 85.6413 72.9534 85.6804 73.0809 85.7012C73.2084 85.7196 73.3522 85.7242 73.5098 85.7127C73.6698 85.6988 73.8436 85.6735 74.0337 85.632C74.2911 85.579 74.5275 85.5422 74.7431 85.5237C74.9587 85.5053 75.1558 85.5122 75.3343 85.5468C75.5105 85.5813 75.6704 85.6459 75.8118 85.738C75.9416 85.8348 76.0691 85.9662 76.1781 86.1367Z" fill="white"/>
</g>
<mask id="mask8_2381_12817" style="mask-type:luminance" maskUnits="userSpaceOnUse" x="-48" y="-89" width="196" height="275">
<path d="M147.193 -88.9863H-47.9766V185.357H147.193V-88.9863Z" fill="white"/>
</mask>
<g mask="url(#mask8_2381_12817)">
<path d="M68.8688 86.7237C68.8155 86.7467 68.7807 86.779 68.7645 86.8228C68.7483 86.8665 68.746 86.908 68.7576 86.9449L69.671 89.8783C69.7706 90.194 69.8124 90.482 69.7961 90.7401C69.7822 90.9982 69.715 91.2287 69.5944 91.4314C69.4739 91.6342 69.3 91.8094 69.0728 91.9591C68.8457 92.1089 68.5698 92.2334 68.2476 92.3324C67.6054 92.5306 67.0815 92.5214 66.6712 92.3071C66.2631 92.0928 65.9664 91.6826 65.7763 91.0743L64.8629 88.1408C64.8513 88.104 64.8282 88.0717 64.7887 88.0441C64.7517 88.0164 64.7053 88.0095 64.6473 88.021L64.2254 88.1178L64.1211 87.786L66.0962 87.1776L66.2006 87.5095L65.7647 87.6754C65.7114 87.6984 65.6766 87.7307 65.6604 87.7744C65.6442 87.8182 65.6419 87.8597 65.6534 87.8966L66.5042 90.6295C66.5738 90.8554 66.6572 91.0581 66.75 91.2333C66.8427 91.4107 66.9586 91.549 67.0977 91.655C67.2368 91.7587 67.4014 91.8209 67.5961 91.8439C67.7909 91.8647 68.0227 91.8347 68.2916 91.7517C68.5605 91.6688 68.7668 91.5628 68.9152 91.4314C69.0636 91.3024 69.1656 91.1503 69.2212 90.9844C69.2769 90.8162 69.2954 90.6341 69.2745 90.436C69.2537 90.2401 69.2119 90.0327 69.1447 89.8184L68.2939 87.0855C68.2823 87.0486 68.2568 87.0163 68.2151 86.9887C68.1757 86.9633 68.127 86.9541 68.0691 86.9679L67.6147 87.0739L67.5104 86.7421L69.198 86.2236L69.3024 86.5555L68.8688 86.7237Z" fill="white"/>
</g>
<mask id="mask9_2381_12817" style="mask-type:luminance" maskUnits="userSpaceOnUse" x="-48" y="-89" width="196" height="275">
<path d="M147.193 -88.9863H-47.9766V185.357H147.193V-88.9863Z" fill="white"/>
</mask>
<g mask="url(#mask9_2381_12817)">
<path d="M47.4652 95.4281C47.4466 95.4304 47.4211 95.4373 47.3863 95.4465C47.3516 95.458 47.3098 95.4696 47.2635 95.4811C47.2171 95.4949 47.1638 95.5041 47.1058 95.5156C47.0479 95.5249 46.9899 95.5295 46.9296 95.5295C46.6862 95.5295 46.4892 95.4926 46.3385 95.4212C46.1878 95.3474 46.0673 95.2529 45.9722 95.1331C45.8795 95.0133 45.8053 94.8773 45.7543 94.7253C45.701 94.5709 45.6523 94.4165 45.6082 94.2575C45.5642 94.0962 45.5132 93.9418 45.4599 93.7897C45.4066 93.6353 45.3301 93.4993 45.2327 93.3795C45.1353 93.2597 45.0078 93.1629 44.8525 93.0915C44.6972 93.0177 44.4932 92.9809 44.2451 92.9809C44.2011 92.9809 44.1593 92.9809 44.1176 92.9809C44.0759 92.9832 44.0388 92.9855 44.004 92.9878C43.9716 92.9901 43.9437 92.9924 43.9182 92.9924C43.8951 92.9947 43.8812 92.9947 43.8788 92.9947L43.8742 94.8382C43.8742 94.8773 43.8881 94.9165 43.9159 94.9534C43.9438 94.9903 43.9855 95.011 44.0434 95.0179L44.4723 95.0525V95.4004L42.4531 95.3958V95.0479L42.8727 95.0156C42.9307 95.011 42.9747 94.9903 43.0049 94.9534C43.0373 94.9165 43.0512 94.8773 43.0512 94.8382L43.0628 90.5291C43.0628 90.4876 43.0489 90.4507 43.0165 90.4138C42.9863 90.377 42.9423 90.3562 42.8843 90.3493L42.4647 90.3148V89.9668L44.5836 89.9714C44.8919 89.9714 45.1701 89.9991 45.4158 90.0497C45.6616 90.1004 45.8702 90.1811 46.0418 90.2963C46.2133 90.4092 46.3454 90.559 46.4359 90.7411C46.5263 90.9254 46.5726 91.1489 46.5703 91.4139C46.5703 91.6259 46.5332 91.8103 46.4567 91.9623C46.3825 92.1144 46.2829 92.2435 46.16 92.3472C46.0371 92.4509 45.8934 92.5384 45.7334 92.603C45.5712 92.6675 45.4042 92.7205 45.2327 92.7597C45.4529 92.8127 45.6291 92.8864 45.7589 92.9809C45.8911 93.073 45.9954 93.1791 46.0719 93.2989C46.1484 93.4187 46.2064 93.5431 46.2411 93.6768C46.2782 93.8104 46.3107 93.9418 46.3385 94.0708C46.3686 94.1999 46.4011 94.3266 46.4359 94.4418C46.4729 94.5593 46.5309 94.6653 46.6074 94.7598C46.6839 94.852 46.7905 94.9257 46.925 94.9787C47.0595 95.034 47.2356 95.0594 47.4582 95.0617L47.4652 95.4281Z" fill="white"/>
</g>
<mask id="mask10_2381_12817" style="mask-type:luminance" maskUnits="userSpaceOnUse" x="-48" y="-89" width="196" height="275">
<path d="M147.193 -88.9863H-47.9766V185.357H147.193V-88.9863Z" fill="white"/>
</mask>
<g mask="url(#mask10_2381_12817)">
<path d="M45.6871 91.4499C45.6871 91.2771 45.6616 91.1227 45.6083 90.989C45.555 90.8577 45.4715 90.7424 45.3579 90.6526C45.242 90.5604 45.0937 90.4913 44.9152 90.4406C44.7343 90.3922 44.5141 90.3691 44.2591 90.3691H43.8859L43.8789 92.5836C43.8835 92.5836 43.9044 92.5859 43.9345 92.5859C43.9647 92.5882 44.0018 92.5882 44.0435 92.5882C44.0852 92.5882 44.127 92.5905 44.1687 92.5905C44.2127 92.5928 44.2498 92.5928 44.2823 92.5928C44.5048 92.5928 44.7065 92.5744 44.8804 92.5375C45.0542 92.5006 45.2026 92.4384 45.3208 92.3463C45.4391 92.2587 45.5295 92.1389 45.5921 91.9937C45.657 91.8462 45.6871 91.6642 45.6871 91.4499Z" fill="#201C20"/>
</g>
<mask id="mask11_2381_12817" style="mask-type:luminance" maskUnits="userSpaceOnUse" x="-48" y="-89" width="196" height="275">
<path d="M147.193 -88.9863H-47.9766V185.357H147.193V-88.9863Z" fill="white"/>
</mask>
<g mask="url(#mask11_2381_12817)">
<path d="M55.2843 92.3834C55.3144 92.7751 55.2796 93.1461 55.1776 93.4987C55.0779 93.8513 54.9203 94.1647 54.7093 94.4389C54.4984 94.7131 54.2364 94.9343 53.9211 95.1071C53.6082 95.28 53.2535 95.3814 52.8571 95.4113C52.4583 95.4413 52.0897 95.3975 51.7536 95.2777C51.4174 95.1601 51.123 94.9827 50.8703 94.7454C50.6176 94.508 50.416 94.2223 50.263 93.8858C50.11 93.5517 50.0172 93.1807 49.9871 92.7728C49.9569 92.3788 49.9917 92.0055 50.0891 91.6529C50.1865 91.3004 50.3395 90.987 50.5504 90.7151C50.7614 90.4409 51.0233 90.2196 51.3386 90.0468C51.6539 89.8763 52.0132 89.7749 52.4189 89.7449C52.82 89.715 53.1886 89.7634 53.527 89.8878C53.8632 90.0122 54.1576 90.1966 54.408 90.4339C54.6583 90.6736 54.86 90.9593 55.013 91.2958C55.1637 91.6299 55.2541 91.9917 55.2843 92.3834Z" fill="white"/>
</g>
<mask id="mask12_2381_12817" style="mask-type:luminance" maskUnits="userSpaceOnUse" x="-48" y="-89" width="196" height="275">
<path d="M147.193 -88.9863H-47.9766V185.357H147.193V-88.9863Z" fill="white"/>
</mask>
<g mask="url(#mask12_2381_12817)">
<path d="M54.3451 92.4615C54.3196 92.1343 54.2617 91.8278 54.1666 91.5421C54.0739 91.2563 53.9464 91.0121 53.7887 90.807C53.6311 90.6019 53.4387 90.4452 53.2161 90.3346C52.9936 90.2263 52.7432 90.1825 52.4604 90.2032C52.1683 90.2263 51.9179 90.3069 51.7116 90.4498C51.5053 90.5904 51.3407 90.777 51.2132 91.0028C51.088 91.2287 51.0022 91.4914 50.9559 91.784C50.9095 92.0767 50.8979 92.3831 50.9234 92.7034C50.9489 93.0261 51.0069 93.3302 51.0996 93.6137C51.19 93.8994 51.3152 94.1437 51.4751 94.3533C51.6328 94.5607 51.8229 94.7197 52.0454 94.8327C52.268 94.9456 52.523 94.9917 52.8104 94.9686C53.1025 94.9456 53.3506 94.8626 53.5569 94.7174C53.7609 94.5746 53.9278 94.3879 54.053 94.1598C54.1782 93.934 54.2663 93.6713 54.3127 93.3786C54.3567 93.0883 54.3683 92.7818 54.3451 92.4615Z" fill="#201C20"/>
</g>
<mask id="mask13_2381_12817" style="mask-type:luminance" maskUnits="userSpaceOnUse" x="-48" y="-89" width="196" height="275">
<path d="M147.193 -88.9863H-47.9766V185.357H147.193V-88.9863Z" fill="white"/>
</mask>
<g mask="url(#mask13_2381_12817)">
<path d="M62.6282 92.3121C62.6629 92.5287 62.6629 92.7222 62.6282 92.8951C62.5934 93.0679 62.5331 93.22 62.4474 93.3536C62.3616 93.4873 62.2573 93.6025 62.1321 93.7016C62.0069 93.8007 61.8724 93.8836 61.731 93.9527C61.5873 94.0219 61.4389 94.0795 61.2882 94.121C61.1352 94.1648 60.9892 94.197 60.8478 94.2201L58.6014 94.5772L58.5458 94.2339L58.963 94.1348C59.0187 94.121 59.0581 94.0933 59.0789 94.0518C59.1021 94.0104 59.1091 93.9712 59.1021 93.932L58.4159 89.6759C58.409 89.6367 58.3904 89.5999 58.3557 89.5699C58.3232 89.5376 58.2768 89.5238 58.2189 89.5284L57.79 89.563L57.7344 89.2196L59.8834 88.8763C60.2033 88.8256 60.4815 88.8118 60.7203 88.8325C60.959 88.8556 61.1607 88.9109 61.3253 88.9984C61.4899 89.086 61.6174 89.2035 61.7125 89.3533C61.8052 89.5008 61.8678 89.6759 61.9002 89.8741C61.9327 90.0745 61.9234 90.2497 61.8701 90.4041C61.8168 90.5562 61.7403 90.6898 61.6406 90.805C61.5409 90.9202 61.4273 91.0147 61.3021 91.0931C61.1746 91.1714 61.0541 91.2382 60.9428 91.2866C61.1213 91.259 61.3045 91.2498 61.4876 91.2659C61.6707 91.282 61.8423 91.3258 61.9976 91.4018C62.1553 91.4779 62.2897 91.5908 62.4033 91.736C62.5146 91.8881 62.5911 92.0793 62.6282 92.3121Z" fill="white"/>
</g>
<mask id="mask14_2381_12817" style="mask-type:luminance" maskUnits="userSpaceOnUse" x="-48" y="-89" width="196" height="275">
<path d="M147.193 -88.9863H-47.9766V185.357H147.193V-88.9863Z" fill="white"/>
</mask>
<g mask="url(#mask14_2381_12817)">
<path d="M61.039 90.0726C60.988 89.7569 60.8466 89.5334 60.6148 89.3975C60.3853 89.2615 60.0607 89.2269 59.6458 89.2938C59.6041 89.3007 59.56 89.3099 59.5113 89.3191C59.4626 89.3283 59.4163 89.3399 59.3745 89.3491C59.3328 89.3583 59.2934 89.3675 59.261 89.3744C59.2262 89.3836 59.203 89.3882 59.1914 89.3906L59.5183 91.4092C59.5554 91.4092 59.5925 91.4046 59.6295 91.3999C59.6597 91.3953 59.6921 91.3907 59.7223 91.3838L59.8104 91.37C60.0723 91.3285 60.2879 91.2686 60.4595 91.1925C60.631 91.1165 60.7632 91.022 60.8582 90.9137C60.9556 90.8054 61.0159 90.681 61.0414 90.5381C61.0669 90.4022 61.0669 90.2432 61.039 90.0726Z" fill="#201C20"/>
</g>
<mask id="mask15_2381_12817" style="mask-type:luminance" maskUnits="userSpaceOnUse" x="-48" y="-89" width="196" height="275">
<path d="M147.17 -89H-48V185.343H147.17V-89Z" fill="white"/>
</mask>
<g mask="url(#mask15_2381_12817)">
<path d="M61.7416 92.5015C61.6837 92.1374 61.5307 91.8885 61.2873 91.7549C61.0439 91.6212 60.7054 91.589 60.2765 91.6558C60.2116 91.6673 60.1397 91.6811 60.0609 91.6973C59.9821 91.7157 59.9079 91.7318 59.8384 91.7503C59.7688 91.7664 59.7085 91.7825 59.6552 91.7963C59.6042 91.8102 59.5741 91.8171 59.5625 91.8194L59.9033 93.9256C59.9705 93.9186 60.0331 93.9117 60.098 93.9025C60.1513 93.9002 60.2046 93.8933 60.2603 93.8864C60.3159 93.8795 60.3646 93.8726 60.404 93.8656C60.6868 93.8196 60.9187 93.7596 61.1041 93.6813C61.2873 93.6053 61.4333 93.5085 61.5376 93.3956C61.6443 93.2826 61.7092 93.1536 61.7393 93.0038C61.7718 92.8609 61.7718 92.6904 61.7416 92.5015Z" fill="#010202"/>
</g>
</g>
</g>
<defs>
<clipPath id="clip0_2381_12817">
<rect width="100" height="99" fill="white"/>
</clipPath>
<clipPath id="clip1_2381_12817">
<rect width="138" height="194" fill="white" transform="translate(-16 -35)"/>
</clipPath>
</defs>
</svg>
