<svg width="25" height="25" viewBox="0 0 25 25" fill="none" xmlns="http://www.w3.org/2000/svg">
<g clip-path="url(#clip0_754_6814)">
<path d="M3.40817 4.76025L3.40795 4.76052C1.63222 6.88775 0.65625 9.63669 0.65625 12.5C0.65625 19.138 5.76796 24.3438 12.2945 24.3438C18.9365 24.3438 24.3438 19.0328 24.3438 12.5C24.3438 5.96721 18.9365 0.65625 12.2945 0.65625C10.2305 0.65625 8.22227 1.18111 6.48708 2.17513L6.48691 2.17523C6.23984 2.3173 6.15409 2.63169 6.29535 2.87916C6.43745 3.12809 6.75466 3.20801 6.99789 3.07151L6.99789 3.07151L6.99887 3.07095C8.57692 2.16656 10.4093 1.6875 12.2945 1.6875C18.3722 1.6875 23.3125 6.53997 23.3125 12.5C23.3125 18.46 18.3722 23.3125 12.2945 23.3125C6.34782 23.3125 1.6875 18.5668 1.6875 12.5C1.6875 9.87496 2.58032 7.36142 4.19986 5.42152C4.38258 5.20267 4.35241 4.87779 4.13402 4.69545L4.13375 4.69523C3.9155 4.51404 3.59169 4.54168 3.40817 4.76025Z" fill="white" stroke="white" stroke-width="0.25"/>
<path d="M5.50244 4.07227C5.78632 4.07227 6.01807 3.84052 6.01807 3.55664C6.01807 3.27182 5.78616 3.04102 5.50244 3.04102C5.21856 3.04102 4.98682 3.27276 4.98682 3.55664C4.98682 3.84052 5.21856 4.07227 5.50244 4.07227Z" fill="white" stroke="white" stroke-width="0.25"/>
<path d="M14.5992 20.3016C13.8094 20.3016 12.707 19.9969 11.1312 19.3438C9.07422 18.4922 7.03516 16.7078 5.38906 14.3211L5.33047 14.2375C4.78672 13.4945 3.90625 12.0711 3.90625 10.5852C3.90625 8.84375 4.77734 7.96016 5.15 7.58281C5.50078 7.22266 6.025 7.03125 6.61406 7.03125C6.7625 7.03125 6.89531 7.03828 7.01641 7.04531C7.5125 7.06484 7.8 7.18984 8.07344 7.84375L8.35703 8.53125C8.65703 9.25859 9.02656 10.1562 9.08438 10.2773C9.14844 10.4094 9.34297 10.8148 9.12656 11.2367C9.01094 11.4836 8.89766 11.6141 8.74219 11.7937C8.63281 11.9195 8.56016 11.9977 8.48594 12.0758C8.4 12.168 8.3125 12.2586 8.225 12.3687C8.07422 12.5453 8.07422 12.5453 8.125 12.6336C8.41406 13.1219 9.02891 14.0594 9.88516 14.8211C10.9961 15.8094 11.8938 16.1727 12.325 16.3477L12.432 16.3914C12.5453 16.4383 12.6883 16.4719 12.7953 16.3586C12.9891 16.15 13.2344 15.807 13.4938 15.4437L13.6492 15.2258C13.9219 14.8406 14.2578 14.7594 14.4914 14.7594C14.6281 14.7594 14.7703 14.7867 14.9156 14.8414C15.2789 14.968 17.1906 15.9203 17.2102 15.9297L17.3938 16.0195C17.6672 16.1508 17.8828 16.2547 18.0063 16.4719C18.1852 16.7828 18.1148 17.5984 17.843 18.368C17.5172 19.2891 16.3063 20.0086 15.3328 20.218C15.1391 20.2586 14.9086 20.3016 14.5992 20.3016ZM6.61328 7.8125C6.24453 7.8125 5.90859 7.92344 5.73516 8.10078C5.375 8.46641 4.68672 9.16406 4.68672 10.5852C4.68672 11.5078 5.14375 12.6617 5.94063 13.75L6.03125 13.8789C7.59219 16.143 9.50938 17.8281 11.4289 18.6227C12.9078 19.2359 13.9148 19.5211 14.5984 19.5211C14.8328 19.5211 15.007 19.4883 15.1664 19.4547C15.9266 19.2906 16.8836 18.7289 17.1031 18.1078C17.3406 17.4383 17.3359 16.9234 17.3078 16.8211C17.3062 16.8453 17.1656 16.7789 17.0523 16.7242L16.8578 16.6289C16.3102 16.3547 14.8945 15.6633 14.6469 15.5766C14.5813 15.5516 14.5312 15.5414 14.4891 15.5414C14.4539 15.5414 14.3813 15.5414 14.2828 15.6805L14.1266 15.8992C13.8523 16.2836 13.5938 16.6461 13.3641 16.893C13.0695 17.2078 12.5641 17.2953 12.1289 17.1141L12.0297 17.0734C11.5945 16.8977 10.575 16.4852 9.36328 15.407C8.42891 14.5742 7.7625 13.5609 7.44844 13.0305C7.11797 12.4609 7.45313 12.0687 7.61406 11.8805C7.71641 11.7531 7.81641 11.6477 7.91641 11.5414C7.98203 11.4719 8.04766 11.4023 8.11484 11.3242C8.29063 11.1219 8.34844 11.0547 8.42422 10.893C8.44688 10.8484 8.45937 10.7852 8.37813 10.6164C8.31875 10.4914 7.93906 9.57422 7.63359 8.83047L7.35078 8.14531C7.22188 7.83594 7.22188 7.83594 6.97656 7.82656C6.86406 7.81875 6.74531 7.8125 6.61328 7.8125Z" fill="white" stroke="white" stroke-width="0.25"/>
<path d="M16.7416 7.47753C15.0888 5.82454 12.8948 4.83403 10.5637 4.68835C10.3536 4.67431 10.1703 4.8359 10.157 5.04711C10.1437 5.25851 10.3044 5.44051 10.5158 5.4538C12.6602 5.58787 14.6786 6.49918 16.1993 8.01978C17.7197 9.5402 18.6308 11.5585 18.7651 13.703C18.7778 13.9062 18.9465 14.0625 19.1474 14.0625C19.1554 14.0625 19.1635 14.0623 19.1717 14.0618C19.3831 14.0485 19.5438 13.8665 19.5305 13.6551C19.3846 11.3241 18.3941 9.13014 16.7416 7.47753Z" fill="white"/>
<path d="M10.5062 7.77706C12.0492 7.87367 13.5014 8.52938 14.5955 9.6235C15.6893 10.7176 16.345 12.1698 16.4416 13.7125C16.454 13.9103 16.6182 14.0625 16.8138 14.0625C16.8216 14.0625 16.8295 14.0623 16.8375 14.0618C17.0433 14.0488 17.1997 13.8716 17.1868 13.6658C17.0788 11.9413 16.3461 10.3182 15.1234 9.09558C13.9006 7.87276 12.2774 7.13977 10.5529 7.03185C10.3464 7.02036 10.1699 7.17549 10.157 7.38112C10.1441 7.58693 10.3005 7.76412 10.5062 7.77706Z" fill="white"/>
<path d="M10.4886 10.0835C11.4364 10.1429 12.3285 10.5458 13.0009 11.218C13.673 11.8904 14.0758 12.7825 14.1354 13.7301C14.1472 13.9181 14.3033 14.0625 14.4889 14.0625C14.4963 14.0625 14.5039 14.0623 14.5114 14.0618C14.7068 14.0495 14.8553 13.8811 14.843 13.6858C14.7728 12.5655 14.2966 11.5112 13.5022 10.7166C12.7076 9.92219 11.6531 9.44594 10.5329 9.37583C10.3349 9.3625 10.1693 9.51224 10.157 9.70752C10.1447 9.90297 10.2932 10.0712 10.4886 10.0835Z" fill="white"/>
</g>
<defs>
<clipPath id="clip0_754_6814">
<rect width="25" height="25" fill="white"/>
</clipPath>
</defs>
</svg>
