<svg width="24" height="23" viewBox="0 0 24 23" fill="none" xmlns="http://www.w3.org/2000/svg">
<path d="M17.5681 22C16.3443 22 14.6363 21.5178 12.1947 20.4843C9.00747 19.1367 5.84806 16.313 3.29753 12.536L3.20675 12.4037C2.36424 11.228 1 8.97545 1 6.62398C1 3.86824 2.34971 2.46998 2.92712 1.87284C3.47064 1.3029 4.28288 1 5.1956 1C5.4256 1 5.63138 1.01113 5.81901 1.02225C6.58768 1.05316 7.03314 1.25097 7.45682 2.28576L7.89623 3.37372C8.36107 4.52473 8.93363 5.94525 9.02321 6.13688C9.12247 6.34581 9.42389 6.98746 9.08858 7.65507C8.90942 8.04574 8.7339 8.25221 8.49301 8.53656C8.32354 8.73561 8.21096 8.85924 8.09597 8.98287C7.96281 9.12875 7.82723 9.27217 7.69166 9.44649C7.45803 9.72589 7.45803 9.72589 7.53671 9.8656C7.9846 10.6383 8.93726 12.1219 10.264 13.3273C11.9853 14.8912 13.3762 15.4661 14.0444 15.743L14.2102 15.8123C14.3857 15.8864 14.6073 15.9396 14.7731 15.7603C15.0733 15.4302 15.4534 14.8875 15.8553 14.3126L16.0962 13.9677C16.5186 13.3582 17.0392 13.2296 17.4011 13.2296C17.6129 13.2296 17.8332 13.2729 18.0584 13.3594C18.6213 13.5597 21.5834 15.0668 21.6136 15.0816L21.8981 15.2238C22.3218 15.4315 22.6559 15.5959 22.8471 15.9396C23.1244 16.4316 23.0154 17.7224 22.5942 18.9401C22.0894 20.3977 20.2131 21.5364 18.7048 21.8677C18.4046 21.932 18.0475 22 17.5681 22ZM5.19439 2.23631C4.62303 2.23631 4.10252 2.41187 3.83379 2.69251C3.27574 3.27111 2.20929 4.37513 2.20929 6.62398C2.20929 8.08407 2.91744 9.9101 4.15215 11.6323L4.29257 11.8363C6.71115 15.4191 9.68172 18.0858 12.6559 19.3432C14.9474 20.3137 16.5077 20.7649 17.5669 20.7649C17.9301 20.7649 18.2 20.713 18.447 20.6598C19.6248 20.4002 21.1077 19.5113 21.4478 18.5284C21.8158 17.4689 21.8085 16.6542 21.765 16.4922C21.7625 16.5306 21.5446 16.4255 21.3691 16.3389L21.0677 16.1881C20.2191 15.7542 18.0257 14.66 17.642 14.5228C17.5403 14.4832 17.4628 14.4671 17.3975 14.4671C17.343 14.4671 17.2304 14.4671 17.0779 14.6872L16.8358 15.0334C16.4109 15.6416 16.0102 16.2153 15.6543 16.606C15.198 17.1042 14.4148 17.2427 13.7405 16.9558L13.5868 16.8916C12.9126 16.6134 11.3328 15.9606 9.45536 14.2545C8.0076 12.9366 6.97504 11.3331 6.48842 10.4936C5.97638 9.59237 6.49568 8.97174 6.74505 8.67379C6.90362 8.47227 7.05857 8.30537 7.21351 8.13723C7.31519 8.0272 7.41687 7.91717 7.52098 7.79354C7.79334 7.47333 7.88292 7.36701 8.00034 7.11109C8.03544 7.04062 8.05481 6.94048 7.92892 6.67344C7.83692 6.47563 7.24861 5.0242 6.77531 3.84723L6.33711 2.76298C6.13737 2.2734 6.13737 2.2734 5.75728 2.25857C5.58296 2.2462 5.39897 2.23631 5.19439 2.23631Z" fill="white" stroke="white" stroke-width="0.5"/>
</svg>
