<svg width="50" height="68" viewBox="0 0 50 68" fill="none" xmlns="http://www.w3.org/2000/svg">
<path d="M40 67.3327H10C7.34784 67.3327 4.8043 66.2791 2.92893 64.4038C1.05357 62.5284 0 59.9848 0 57.3327V10.666C0 8.01385 1.05357 5.47031 2.92893 3.59495C4.8043 1.71958 7.34784 0.666016 10 0.666016H31.9667C32.8411 0.669698 33.6791 1.01687 34.3 1.63268L49.0333 16.366C49.6491 16.9869 49.9963 17.8249 50 18.6993V57.3327C50 59.9848 48.9464 62.5284 47.0711 64.4038C45.1957 66.2791 42.6522 67.3327 40 67.3327Z" fill="#4D96AB"/>
<path d="M47.6666 19.7996H35.6666C34.3406 19.7996 33.0688 19.2728 32.1311 18.3352C31.1934 17.3975 30.6666 16.1257 30.6666 14.7996V2.79962C30.6652 2.43596 30.7719 2.08009 30.9733 1.77725C31.1746 1.47442 31.4615 1.23831 31.7974 1.09895C32.1333 0.959585 32.503 0.923268 32.8596 0.994614C33.2162 1.06596 33.5436 1.24175 33.8 1.49962L48.9666 16.6663C49.2245 16.9227 49.4003 17.25 49.4716 17.6066C49.543 17.9632 49.5067 18.333 49.3673 18.6689C49.228 19.0048 48.9918 19.2916 48.689 19.493C48.3862 19.6943 48.0303 19.8011 47.6666 19.7996Z" fill="#8DC8D9"/>
<path d="M11.3 57.7669C11.069 57.8004 10.8333 57.7796 10.6117 57.706C10.3902 57.6325 10.1888 57.5082 10.0238 57.3431C9.85867 57.178 9.73441 56.9767 9.66084 56.7551C9.58727 56.5336 9.56643 56.2979 9.59998 56.0669V46.3002C9.5676 46.0723 9.5881 45.84 9.65988 45.6214C9.73167 45.4027 9.85282 45.2034 10.014 45.0391C10.1751 44.8747 10.3719 44.7496 10.5891 44.6735C10.8063 44.5974 11.0382 44.5723 11.2666 44.6002C11.4717 44.5771 11.6792 44.5966 11.8764 44.6574C12.0736 44.7182 12.256 44.819 12.4125 44.9535C12.5689 45.088 12.6959 45.2534 12.7855 45.4392C12.8751 45.6251 12.9254 45.8274 12.9333 46.0335C13.2021 45.5655 13.6098 45.1927 14.1 44.9669C14.6247 44.6947 15.2089 44.5573 15.8 44.5669C16.5541 44.5564 17.2952 44.7648 17.9333 45.1669C18.5622 45.5867 19.0591 46.1761 19.3666 46.8669C19.7197 47.6941 19.9016 48.5842 19.9016 49.4835C19.9016 50.3829 19.7197 51.273 19.3666 52.1002C18.9122 53.0264 18.1175 53.7411 17.1485 54.0952C16.1795 54.4492 15.1112 54.4152 14.1666 54.0002C13.694 53.7793 13.2906 53.4335 13 53.0002V56.0335C13.0192 56.2632 12.9907 56.4943 12.9161 56.7123C12.8415 56.9303 12.7225 57.1305 12.5667 57.3002C12.3975 57.4588 12.1982 57.5818 11.9806 57.6619C11.763 57.7421 11.5316 57.7778 11.3 57.7669ZM14.6333 51.9002C14.8761 51.9029 15.1164 51.8502 15.3358 51.7463C15.5553 51.6423 15.7482 51.4898 15.9 51.3002C16.2715 50.7654 16.4373 50.1143 16.3666 49.4669C16.4343 48.8197 16.2688 48.1696 15.9 47.6335C15.742 47.4536 15.547 47.3099 15.3284 47.2121C15.1098 47.1143 14.8728 47.0648 14.6333 47.0669C14.3886 47.0622 14.1458 47.1104 13.9214 47.2082C13.697 47.306 13.4964 47.4511 13.3333 47.6335C12.9819 48.1774 12.818 48.8212 12.8666 49.4669C12.8129 50.113 12.9772 50.7584 13.3333 51.3002C13.4984 51.5087 13.7129 51.6727 13.9573 51.7775C14.2018 51.8822 14.4685 51.9244 14.7333 51.9002H14.6333Z" fill="white"/>
<path d="M25.5667 54.3664C24.8255 54.3942 24.0933 54.1966 23.4667 53.7997C22.8279 53.3819 22.3197 52.7928 22 52.0997C21.647 51.2725 21.465 50.3824 21.465 49.483C21.465 48.5836 21.647 47.6936 22 46.8664C22.3197 46.1733 22.8279 45.5842 23.4667 45.1664C24.0904 44.7596 24.8223 44.5505 25.5667 44.5664C26.1466 44.5609 26.719 44.6982 27.2333 44.9664C27.694 45.1753 28.095 45.4962 28.4 45.8997V42.2664C28.3665 42.0353 28.3873 41.7996 28.4609 41.5781C28.5344 41.3565 28.6587 41.1552 28.8238 40.9901C28.9889 40.825 29.1902 40.7008 29.4117 40.6272C29.6333 40.5536 29.869 40.5328 30.1 40.5664C30.3243 40.5498 30.5497 40.5797 30.7619 40.6542C30.9742 40.7288 31.1687 40.8464 31.3333 40.9997C31.4892 41.1694 31.6082 41.3696 31.6828 41.5876C31.7574 41.8056 31.7859 42.0367 31.7667 42.2664V52.633C31.802 53.075 31.6604 53.513 31.3728 53.8506C31.0853 54.1881 30.6754 54.3977 30.2333 54.433C30.0145 54.4505 29.7943 54.4248 29.5854 54.3572C29.3765 54.2896 29.1829 54.1815 29.0158 54.0391C28.6782 53.7516 28.4687 53.3417 28.4333 52.8997C28.1769 53.3654 27.7804 53.7385 27.3 53.9664C26.762 54.2349 26.168 54.372 25.5667 54.3664ZM26.6667 51.8997C26.9095 51.9024 27.1497 51.8497 27.3692 51.7458C27.5887 51.6418 27.7816 51.4893 27.9333 51.2997C28.3195 50.7707 28.4975 50.1181 28.4333 49.4663C28.4913 48.8151 28.3139 48.1647 27.9333 47.633C27.7753 47.4531 27.5804 47.3094 27.3618 47.2116C27.1432 47.1138 26.9061 47.0643 26.6667 47.0664C26.4269 47.062 26.1891 47.1105 25.9702 47.2085C25.7513 47.3064 25.5566 47.4514 25.4 47.633C25.0194 48.1647 24.842 48.8151 24.9 49.4663C24.8359 50.1181 25.0139 50.7707 25.4 51.2997C25.5483 51.4932 25.7405 51.6485 25.9608 51.7529C26.1811 51.8572 26.4231 51.9076 26.6667 51.8997Z" fill="white"/>
<path d="M36.7333 54.3338C36.5036 54.3605 36.2709 54.3349 36.0525 54.2589C35.8341 54.1829 35.6357 54.0585 35.4722 53.895C35.3087 53.7314 35.1843 53.5331 35.1083 53.3147C35.0323 53.0963 35.0067 52.8635 35.0333 52.6338V47.3338H34.5333C34.3593 47.3612 34.1813 47.3477 34.0134 47.2942C33.8455 47.2408 33.6924 47.149 33.5662 47.026C33.44 46.903 33.3442 46.7524 33.2864 46.5859C33.2286 46.4195 33.2105 46.2418 33.2333 46.0671C33.2333 45.2338 33.6667 44.8338 34.5333 44.8338H35C34.9855 44.2992 35.0783 43.7671 35.2729 43.269C35.4676 42.7709 35.7602 42.3169 36.1333 41.9338C36.9934 41.2035 38.0727 40.7812 39.2 40.7338H39.7667C40.0769 40.6096 40.4231 40.6096 40.7333 40.7338C40.9583 40.862 41.1342 41.0613 41.2333 41.3005C41.2827 41.5424 41.2827 41.7919 41.2333 42.0338C41.1949 42.2689 41.0909 42.4885 40.9333 42.6671C40.7852 42.8532 40.5695 42.973 40.3333 43.0005H40.0667C39.5794 42.9786 39.0986 43.1193 38.7 43.4005C38.5709 43.5381 38.4716 43.7009 38.4085 43.8788C38.3454 44.0566 38.3198 44.2456 38.3333 44.4338V44.7338H39.4C40.2667 44.7338 40.7 45.1338 40.7 45.9671C40.7229 46.1418 40.7047 46.3195 40.6469 46.4859C40.5892 46.6524 40.4934 46.803 40.3672 46.926C40.241 47.049 40.0879 47.1408 39.92 47.1942C39.7521 47.2477 39.5741 47.2612 39.4 47.2338H38.3333V52.5671C38.3751 52.7939 38.3641 53.0272 38.3011 53.249C38.2381 53.4708 38.1248 53.675 37.97 53.8459C37.8152 54.0168 37.6231 54.1497 37.4087 54.2344C37.1942 54.319 36.9631 54.353 36.7333 54.3338Z" fill="white"/>
</svg>
