<svg width="133" height="114" viewBox="0 0 133 114" fill="none" xmlns="http://www.w3.org/2000/svg">
<path fill-rule="evenodd" clip-rule="evenodd" d="M63.8284 99.4921L64.9775 112.213C66.116 111.456 76.5892 96.5494 78.6324 93.7502C79.6974 92.3395 80.6891 90.9644 81.7377 89.5289C83.6426 86.9226 83.4772 86.4415 85.5546 85.937C92.8611 83.4159 100.235 81.0204 107.575 78.5759C118.352 74.9862 127.275 66.6692 130.933 55.1188C134.934 42.4848 131.671 28.68 123.091 19.5563C113.113 8.94459 103.676 9.51084 89.9852 14.2196C83.1051 16.586 76.3796 18.7062 69.4567 21.0705C59.3371 24.5262 48.7955 27.8746 38.6118 31.3721C31.594 33.7826 25.0796 35.2897 19.0634 39.2853C16.3138 41.1111 13.8408 43.3412 11.8161 45.7006C7.66138 50.542 4.41913 56.8977 3.33624 64.5398C1.49839 77.5108 7.34485 90.6997 17.1921 98.0836C25.8752 104.056 34.442 102.999 44.1859 99.7347C46.1692 99.0706 62.8125 93.4287 63.2901 93.4465L63.8291 99.4921H63.8284Z" fill="#671993"/>
<path d="M19.1686 25.9401C19.2645 25.6124 19.0743 25.269 18.7438 25.1733C18.4134 25.0776 18.0678 25.2657 17.972 25.5935L17.0058 28.8981C16.9099 29.2259 17.1001 29.5692 17.4305 29.6649C17.761 29.7606 18.1066 29.5725 18.2024 29.2447L19.1686 25.9401Z" fill="#671993"/>
<path d="M57.7204 106.403C57.7914 106.16 57.6504 105.906 57.4055 105.835C57.1605 105.764 56.9043 105.904 56.8333 106.147L56.117 108.596C56.0459 108.839 56.1869 109.094 56.4319 109.165C56.6769 109.236 56.933 109.096 57.0041 108.853L57.7204 106.403Z" fill="#671993"/>
<path d="M118.311 1.7419C118.407 1.41412 118.217 1.0708 117.886 0.975076C117.556 0.879355 117.21 1.06748 117.115 1.39527L116.148 4.69983C116.052 5.02762 116.243 5.37094 116.573 5.46666C116.904 5.56238 117.249 5.37425 117.345 5.04647L118.311 1.7419Z" fill="#6AE9FB"/>
<path d="M7.80801 20.7604C7.88553 20.4953 7.7317 20.2176 7.46442 20.1402C7.19714 20.0628 6.91763 20.2149 6.8401 20.4801L6.05857 23.153C5.98105 23.4181 6.13488 23.6958 6.40216 23.7732C6.66944 23.8506 6.94896 23.6985 7.02648 23.4333L7.80801 20.7604Z" fill="#FA1B95"/>
<path d="M49.298 102.564C49.3555 102.367 49.2415 102.161 49.0433 102.104C48.8452 102.047 48.638 102.159 48.5805 102.356L48.0011 104.337C47.9437 104.534 48.0577 104.74 48.2559 104.797C48.454 104.855 48.6612 104.742 48.7187 104.545L49.298 102.564Z" fill="#FA1B95"/>
<path d="M106.798 0.76044C106.876 0.495309 106.722 0.217613 106.455 0.140189C106.187 0.0627647 105.908 0.214931 105.83 0.480062L105.049 3.15297C104.971 3.4181 105.125 3.6958 105.392 3.77322C105.66 3.85065 105.939 3.69848 106.017 3.43335L106.798 0.76044Z" fill="#FA1B95"/>
<path d="M7.85331 38.03C7.95831 37.6709 7.74995 37.2948 7.38793 37.1899C7.0259 37.085 6.6473 37.2911 6.5423 37.6502L5.48373 41.2706C5.37873 41.6297 5.58709 42.0059 5.94912 42.1107C6.31114 42.2156 6.68974 42.0095 6.79474 41.6504L7.85331 38.03Z" fill="#6AE9FB"/>
<path d="M17.5231 31.5651C17.6189 31.2374 17.4288 30.894 17.0983 30.7983C16.7679 30.7026 16.4223 30.8907 16.3265 31.2185L15.3602 34.5231C15.2644 34.8509 15.4546 35.1942 15.785 35.2899C16.1155 35.3856 16.461 35.1975 16.5569 34.8697L17.5231 31.5651Z" fill="#671993"/>
<path d="M56.5006 110.573C56.5717 110.33 56.4307 110.076 56.1857 110.005C55.9408 109.934 55.6846 110.073 55.6135 110.316L54.8973 112.766C54.8262 113.009 54.9672 113.264 55.2122 113.335C55.4571 113.406 55.7133 113.266 55.7844 113.023L56.5006 110.573Z" fill="#671993"/>
<path d="M116.666 7.3669C116.762 7.03912 116.571 6.6958 116.241 6.60008C115.91 6.50435 115.565 6.69248 115.469 7.02027L114.503 10.3248C114.407 10.6526 114.597 10.9959 114.928 11.0917C115.258 11.1874 115.604 10.9993 115.699 10.6715L116.666 7.3669Z" fill="#6AE9FB"/>
<path d="M6.47696 25.3102C6.55448 25.0451 6.40065 24.7674 6.13337 24.69C5.86609 24.6126 5.58657 24.7647 5.50905 25.0299L4.72752 27.7028C4.65 27.9679 4.80383 28.2456 5.07111 28.323C5.33839 28.4005 5.6179 28.2483 5.69543 27.9832L6.47696 25.3102Z" fill="#FA1B95"/>
<path d="M48.3117 105.937C48.3692 105.74 48.2551 105.534 48.057 105.477C47.8589 105.42 47.6517 105.532 47.5942 105.729L47.0148 107.71C46.9574 107.907 47.0714 108.113 47.2695 108.17C47.4677 108.228 47.6749 108.115 47.7324 107.918L48.3117 105.937Z" fill="#FA1B95"/>
<path d="M105.467 5.31024C105.545 5.04511 105.391 4.76742 105.124 4.68999C104.856 4.61257 104.577 4.76474 104.499 5.02987L103.718 7.70278C103.64 7.96791 103.794 8.2456 104.061 8.32303C104.329 8.40045 104.608 8.24829 104.686 7.98315L105.467 5.31024Z" fill="#FA1B95"/>
<path d="M6.05057 44.1926C6.15558 43.8335 5.94722 43.4573 5.58519 43.3525C5.22317 43.2476 4.84457 43.4537 4.73957 43.8128L3.681 47.4332C3.576 47.7923 3.78436 48.1685 4.14638 48.2733C4.50841 48.3782 4.88701 48.1721 4.99201 47.813L6.05057 44.1926Z" fill="#6AE9FB"/>
<path d="M12.9445 28.3654C12.6152 28.2701 12.2703 28.4594 12.1741 28.7883C12.078 29.1172 12.267 29.4611 12.5963 29.5565L15.9163 30.5182C16.2456 30.6136 16.5906 30.4243 16.6867 30.0954C16.7829 29.7665 16.5939 29.4226 16.2646 29.3272L12.9445 28.3654Z" fill="#671993"/>
<path d="M53.1065 108.202C52.8623 108.131 52.6066 108.271 52.5353 108.515C52.464 108.759 52.6042 109.014 52.8483 109.085L55.3095 109.798C55.5536 109.868 55.8093 109.728 55.8806 109.484C55.9519 109.24 55.8118 108.985 55.5677 108.915L53.1065 108.202Z" fill="#671993"/>
<path d="M112.087 4.16721C111.758 4.07181 111.413 4.26111 111.317 4.59001C111.221 4.91892 111.41 5.26288 111.739 5.35827L115.059 6.31999C115.388 6.41539 115.733 6.22609 115.829 5.89719C115.925 5.56828 115.736 5.22432 115.407 5.12893L112.087 4.16721Z" fill="#6AE9FB"/>
<path d="M2.77376 22.7222C2.50739 22.645 2.2284 22.7982 2.15061 23.0642C2.07282 23.3302 2.2257 23.6084 2.49208 23.6856L5.1775 24.4635C5.44387 24.5407 5.72286 24.3875 5.80065 24.1215C5.87844 23.8555 5.72556 23.5773 5.45919 23.5001L2.77376 22.7222Z" fill="#FA1B95"/>
<path d="M45.5664 104.018C45.3689 103.961 45.1621 104.074 45.1044 104.271C45.0467 104.469 45.1601 104.675 45.3575 104.732L47.3483 105.309C47.5458 105.366 47.7526 105.252 47.8103 105.055C47.8679 104.858 47.7546 104.652 47.5571 104.594L45.5664 104.018Z" fill="#FA1B95"/>
<path d="M101.764 2.72221C101.498 2.64505 101.219 2.79816 101.141 3.0642C101.063 3.33023 101.216 3.60845 101.482 3.68561L104.168 4.4635C104.434 4.54066 104.713 4.38755 104.791 4.12151C104.869 3.85548 104.716 3.57726 104.449 3.5001L101.764 2.72221Z" fill="#FA1B95"/>
<path d="M1.03482 40.6871C0.674024 40.5826 0.296131 40.7899 0.190771 41.1503C0.0854111 41.5106 0.292482 41.8875 0.653276 41.992L4.29061 43.0456C4.65141 43.1501 5.0293 42.9427 5.13466 42.5824C5.24002 42.2221 5.03295 41.8452 4.67215 41.7407L1.03482 40.6871Z" fill="#6AE9FB"/>
<path d="M18.5959 30.0027C18.2666 29.9073 17.9217 30.0966 17.8255 30.4255C17.7293 30.7544 17.9183 31.0983 18.2477 31.1937L21.5677 32.1554C21.897 32.2508 22.2419 32.0615 22.3381 31.7326C22.4343 31.4037 22.2453 31.0598 21.9159 30.9644L18.5959 30.0027Z" fill="#671993"/>
<path d="M57.2959 109.415C57.0518 109.344 56.7961 109.485 56.7248 109.728C56.6535 109.972 56.7936 110.227 57.0377 110.298L59.499 111.011C59.7431 111.082 59.9988 110.941 60.0701 110.697C60.1414 110.454 60.0013 110.199 59.7571 110.128L57.2959 109.415Z" fill="#671993"/>
<path d="M117.738 5.80441C117.409 5.70902 117.064 5.89832 116.968 6.22722C116.872 6.55612 117.061 6.90009 117.39 6.99548L120.71 7.9572C121.04 8.0526 121.385 7.8633 121.481 7.53439C121.577 7.20549 121.388 6.86153 121.059 6.76613L117.738 5.80441Z" fill="#6AE9FB"/>
<path d="M7.34408 24.0464C7.07771 23.9693 6.79871 24.1224 6.72092 24.3884C6.64314 24.6545 6.79602 24.9327 7.06239 25.0098L9.74781 25.7877C10.0142 25.8649 10.2932 25.7118 10.371 25.4457C10.4487 25.1797 10.2959 24.9015 10.0295 24.8243L7.34408 24.0464Z" fill="#FA1B95"/>
<path d="M48.9541 105C48.7566 104.943 48.5498 105.056 48.4921 105.253C48.4344 105.45 48.5478 105.657 48.7452 105.714L50.736 106.291C50.9335 106.348 51.1403 106.234 51.198 106.037C51.2556 105.84 51.1423 105.634 50.9448 105.576L48.9541 105Z" fill="#FA1B95"/>
<path d="M106.334 4.04643C106.068 3.96927 105.789 4.12238 105.711 4.38842C105.633 4.65445 105.786 4.93267 106.053 5.00983L108.738 5.78772C109.004 5.86488 109.283 5.71177 109.361 5.44573C109.439 5.1797 109.286 4.90148 109.02 4.82432L106.334 4.04643Z" fill="#FA1B95"/>
<path d="M7.22525 42.481C6.86445 42.3765 6.48656 42.5839 6.3812 42.9442C6.27584 43.3046 6.48291 43.6814 6.84371 43.7859L10.481 44.8395C10.8418 44.9441 11.2197 44.7367 11.3251 44.3763C11.4304 44.016 11.2234 43.6392 10.8626 43.5346L7.22525 42.481Z" fill="#6AE9FB"/>
<path d="M20.886 64.1462L24.228 63.0933L25.5695 67.3509L29.7585 66.0311L28.417 61.7734L31.7591 60.7205L35.2498 71.7996L31.9077 72.8525L30.4509 68.2286L26.2619 69.5484L27.7187 74.1724L24.3767 75.2253L20.886 64.1462ZM43.552 69.4354C42.8653 69.6518 42.2934 69.8068 41.8364 69.9004C41.3795 69.9941 40.8775 70.0516 40.3307 70.0729C39.7332 70.0934 39.2233 70.0192 38.8011 69.8503C38.374 69.6661 37.9642 69.3506 37.5719 68.9039C37.1843 68.4724 36.8775 67.8981 36.6515 67.1808L35.6202 63.9075C35.3894 63.175 35.3019 62.498 35.3577 61.8765C35.4135 61.255 35.5765 60.7339 35.8466 60.3133C36.0853 59.9529 36.4377 59.607 36.9036 59.2757C37.38 58.9243 37.8628 58.6464 38.352 58.4419C38.9223 58.2287 39.444 58.0475 39.9171 57.8985C40.619 57.6773 41.1833 57.5247 41.6097 57.4407C42.0466 57.3366 42.5409 57.2815 43.0926 57.2754C43.6949 57.2702 44.2095 57.3597 44.6366 57.5438C45.079 57.7232 45.5064 58.0415 45.9188 58.4987C46.3208 58.9759 46.642 59.5961 46.8824 60.3591L47.9138 63.6324C48.1301 64.3192 48.2056 64.958 48.1402 65.549C48.09 66.1352 47.9351 66.6285 47.6755 67.0291C47.452 67.3846 47.0996 67.7305 46.6184 68.0667C46.1476 68.3827 45.6677 68.643 45.1785 68.8475C44.7351 69.0375 44.1929 69.2335 43.552 69.4354ZM42.8957 67.3524C43.5214 67.1552 43.98 66.9604 44.2716 66.7679C44.5584 66.5601 44.7292 66.3301 44.784 66.078C44.854 65.8211 44.8241 65.4866 44.6943 65.0746L43.3745 60.8856C43.1822 60.2751 42.8873 59.8983 42.4899 59.7551C42.0925 59.6119 41.4513 59.6798 40.5661 59.9587C39.681 60.2375 39.1167 60.5495 38.8732 60.8947C38.6296 61.2398 38.604 61.7176 38.7964 62.328L40.1162 66.517C40.246 66.929 40.4056 67.2226 40.595 67.3978C40.7997 67.5682 41.0791 67.6563 41.4332 67.6622C41.7825 67.6528 42.27 67.5495 42.8957 67.3524ZM48.2252 55.5325L54.3599 53.5996C55.5655 53.2198 56.5047 53.0329 57.1776 53.0389C57.8506 53.045 58.3387 53.2099 58.642 53.5338C58.9558 53.8375 59.2161 54.3175 59.4228 54.9737L59.5454 55.3628C59.7281 55.9427 59.6973 56.4305 59.4529 56.8263C59.2238 57.2172 58.7747 57.6019 58.1055 57.9805L58.1344 58.0721C59.017 57.945 59.7497 58.0077 60.3325 58.2602C60.9153 58.5127 61.3053 58.9519 61.5024 59.5775L61.7116 60.2414C62.0289 61.2486 61.8882 62.1065 61.2895 62.8152C60.6908 63.5238 59.5369 64.1474 57.8277 64.6859L51.7159 66.6116L48.2252 55.5325ZM54.57 58.3396C55.1651 58.152 55.5957 57.9745 55.8616 57.8068C56.1275 57.6391 56.2898 57.4622 56.3486 57.2759C56.4025 57.0744 56.379 56.8134 56.278 56.4929L56.1915 56.2182C56.1001 55.9283 55.893 55.7503 55.5703 55.6842C55.2628 55.6134 54.6588 55.7198 53.7585 56.0035L52.1561 56.5083L52.899 58.8661L54.57 58.3396ZM56.1172 63.0105C57.048 62.7172 57.673 62.4113 57.992 62.0927C58.311 61.7741 58.4032 61.4012 58.2686 60.9739L58.1387 60.5618C58.0474 60.2719 57.9014 60.0747 57.7007 59.9701C57.5153 59.8608 57.2451 59.8285 56.8901 59.8732C56.5351 59.918 56.0296 60.0437 55.3734 60.2505L53.5192 60.8347L54.3775 63.5586L56.1172 63.0105ZM61.5259 51.3418L64.868 50.2888L67.147 57.5223L69.2401 48.9113L72.5821 47.8583L76.0728 58.9374L72.7308 59.9904L70.3868 52.5509L68.3587 61.3679L65.0166 62.4209L61.5259 51.3418ZM75.5197 46.9328L78.8617 45.8798L80.2032 50.1375L84.3922 48.8177L83.0507 44.56L86.3927 43.507L89.8834 54.5861L86.5414 55.6391L85.0845 51.0152L80.8955 52.335L82.3524 56.9589L79.0104 58.0119L75.5197 46.9328ZM89.3122 42.5872L92.6543 41.5342L94.0678 46.0208C94.312 45.9438 94.5008 45.8508 94.6341 45.7417C94.7627 45.6173 94.8744 45.4395 94.9694 45.2083L96.9119 40.1927L100.391 39.0965L97.566 45.6232C98.2831 45.716 99.0738 46.0959 99.9382 46.763L104.225 50.0674L100.38 51.279L96.7909 48.434C96.3912 48.1238 96.0524 47.9537 95.7746 47.9238C95.4968 47.8939 95.1442 47.9463 94.7169 48.0809L96.1449 52.6133L92.8029 53.6663L89.3122 42.5872ZM108.909 48.8432C107.872 49.1702 107.065 49.3238 106.488 49.3042C105.922 49.2645 105.455 49.0341 105.088 48.6131C104.731 48.172 104.396 47.4555 104.083 46.4635C103.804 45.5784 103.692 44.8504 103.747 44.2795C103.818 43.7038 104.063 43.2322 104.484 42.8647C104.916 42.4771 105.566 42.1463 106.436 41.8722L110.19 40.6894L109.952 39.934C109.803 39.461 109.624 39.1316 109.415 38.946C109.22 38.7555 108.933 38.6698 108.554 38.6888C108.189 38.7031 107.663 38.8183 106.977 39.0347C106.03 39.3328 104.762 39.8331 103.172 40.5355L102.508 38.4295C103.666 37.8971 105.053 37.376 106.671 36.8664C108.09 36.4192 109.215 36.1823 110.045 36.1555C110.891 36.1239 111.563 36.3147 112.062 36.7278C112.562 37.1408 112.967 37.8433 113.28 38.8353L115.682 46.4579L112.408 47.4892L112.091 46.482C111.971 47.0063 111.719 47.4297 111.334 47.7523C110.954 48.0901 110.146 48.4538 108.909 48.8432ZM109.558 46.3491C110.229 46.1375 110.703 45.9632 110.978 45.826C111.182 45.7282 111.313 45.6367 111.37 45.5517C111.442 45.4618 111.487 45.3385 111.505 45.182C111.533 45.0559 111.513 44.8861 111.445 44.6724L110.767 42.5207L108.478 43.2419C107.959 43.4054 107.605 43.5589 107.416 43.7025C107.221 43.8309 107.119 44.0139 107.11 44.2516C107.097 44.474 107.172 44.8447 107.335 45.3635C107.494 45.8671 107.642 46.2061 107.781 46.3804C107.92 46.5548 108.106 46.6388 108.339 46.6325C108.587 46.6215 108.993 46.527 109.558 46.3491Z" fill="white"/>
</svg>
