<svg width="45" height="45" viewBox="0 0 45 45" fill="none" xmlns="http://www.w3.org/2000/svg">
<g clip-path="url(#clip0_2072_12813)">
<path d="M45 22.5C45 10.0736 34.9264 0 22.5 0C10.0736 0 0 10.0736 0 22.5C0 34.9264 10.0736 45 22.5 45C34.9264 45 45 34.9264 45 22.5Z" fill="#4D96AB"/>
<path d="M27.0862 7.28967L14.275 20.8319C14.0918 21.0254 14 21.248 14 21.4998C14 21.7516 14.0918 21.9746 14.275 22.1682L27.0862 35.7093C27.2697 35.9033 27.4803 36 27.7186 36C27.9569 36 28.1678 35.903 28.3509 35.7093L29.7251 34.2567C29.9083 34.063 29.9999 33.8401 29.9999 33.5883C29.9999 33.3365 29.9083 33.1136 29.7251 32.9199L18.9209 21.4998L29.7258 10.0793C29.909 9.88567 30 9.66267 30 9.41127C30 9.15906 29.9084 8.93616 29.7258 8.74258L28.351 7.28977C28.1678 7.09618 27.9569 7 27.7187 7C27.4803 6.9999 27.2694 7.09608 27.0862 7.28967Z" fill="white"/>
</g>
<defs>
<clipPath id="clip0_2072_12813">
<rect width="45" height="45" fill="white" transform="matrix(0 -1 1 0 0 45)"/>
</clipPath>
</defs>
</svg>
