<svg width="64" height="64" viewBox="0 0 64 64" fill="none" xmlns="http://www.w3.org/2000/svg">
<circle cx="32" cy="32" r="32" fill="#C4C4C4"/>
<path fill-rule="evenodd" clip-rule="evenodd" d="M32 14C26.4772 14 22 18.4772 22 24C22 29.5228 26.4772 34 32 34C37.5228 34 42 29.5228 42 24C42 18.4772 37.5228 14 32 14ZM26 24C26 20.6863 28.6863 18 32 18C35.3137 18 38 20.6863 38 24C38 27.3137 35.3137 30 32 30C28.6863 30 26 27.3137 26 24Z" fill="white"/>
<path fill-rule="evenodd" clip-rule="evenodd" d="M32 37C23.1004 37 18.1538 40.0107 15.8662 42.0185C14.4545 43.2577 14 44.9992 14 46.4893C14 50.6373 17.3626 54 21.5107 54H42.4893C46.6374 54 50 50.6373 50 46.4893C50 44.9992 49.5455 43.2577 48.1338 42.0185C45.8462 40.0107 40.8996 37 32 37ZM18.5049 45.0248C20.0787 43.6434 24.0925 41 32 41C39.9075 41 43.9213 43.6434 45.4951 45.0248C45.7712 45.2671 46 45.7337 46 46.4893C46 48.4282 44.4282 50 42.4893 50H21.5107C19.5718 50 18 48.4282 18 46.4893C18 45.7337 18.2288 45.2671 18.5049 45.0248Z" fill="white"/>
</svg>
