<svg width="90" height="90" viewBox="0 0 90 90" fill="none" xmlns="http://www.w3.org/2000/svg">
<path d="M45 90C20.1472 90 0 69.8528 0 45C0 20.1472 20.1472 0 45 0C69.8528 0 90 20.1472 90 45C90 69.8528 69.8528 90 45 90ZM45 85.5C67.3675 85.5 85.5 67.3675 85.5 45C85.5 22.6325 67.3675 4.5 45 4.5C22.6325 4.5 4.5 22.6325 4.5 45C4.5 67.3675 22.6325 85.5 45 85.5Z" fill="#2F5F6D"/>
<path d="M59.8389 31.7078C60.7908 30.7641 62.3342 30.7641 63.2861 31.7078C64.238 32.6516 64.238 34.1817 63.2861 35.1255L38.9111 59.2922C37.9592 60.2359 36.4158 60.2359 35.4639 59.2922L25.7139 49.6255C24.762 48.6817 24.762 47.1516 25.7139 46.2078C26.6658 45.2641 28.2092 45.2641 29.1611 46.2078L37.1875 54.1656L59.8389 31.7078Z" fill="#2F5F6D"/>
</svg>
