<svg width="90" height="90" viewBox="0 0 90 90" fill="none" xmlns="http://www.w3.org/2000/svg">
<path d="M45 90C20.1472 90 0 69.8528 0 45C0 20.1472 20.1472 0 45 0C69.8528 0 90 20.1472 90 45C90 69.8528 69.8528 90 45 90ZM45 85.5C67.3675 85.5 85.5 67.3675 85.5 45C85.5 22.6325 67.3675 4.5 45 4.5C22.6325 4.5 4.5 22.6325 4.5 45C4.5 67.3675 22.6325 85.5 45 85.5Z" fill="#2F5F6D"/>
<path d="M39.9025 26.464H51.1025L48.3505 55.968H42.6545L39.9025 26.464ZM40.5425 59.168H50.5265V68H40.5425V59.168Z" fill="#2F5F6D"/>
</svg>
