<svg width="22" height="22" viewBox="0 0 22 22" fill="none" xmlns="http://www.w3.org/2000/svg">
<path d="M8.85714 1C13.1965 1 16.7143 4.51776 16.7143 8.85714C16.7143 10.7697 16.0309 12.5227 14.8951 13.8852L20.7908 19.7806C21.0697 20.0596 21.0697 20.5118 20.7908 20.7908C20.5428 21.0387 20.1579 21.0663 19.8796 20.8734L19.7806 20.7908L13.8852 14.8951C12.5227 16.0309 10.7697 16.7143 8.85714 16.7143C4.51776 16.7143 1 13.1965 1 8.85714C1 4.51776 4.51776 1 8.85714 1ZM8.85714 2.42857C5.30674 2.42857 2.42857 5.30674 2.42857 8.85714C2.42857 12.4075 5.30674 15.2857 8.85714 15.2857C12.4075 15.2857 15.2857 12.4075 15.2857 8.85714C15.2857 5.30674 12.4075 2.42857 8.85714 2.42857Z" fill="#FAF8F1" stroke="#FAF8F1"/>
</svg>
