<svg width="45" height="45" viewBox="0 0 45 45" fill="none" xmlns="http://www.w3.org/2000/svg">
<path d="M41.4169 25.6542C39.678 26.5479 37.8337 27.4416 37.2014 28.9661C36.5164 30.5432 37.2541 32.4357 37.8864 34.2757C38.5187 36.0105 39.1511 37.6928 38.3607 38.4287C37.5176 39.2699 35.8841 38.9019 34.1452 38.4813C32.4063 38.0607 30.6674 37.6928 29.1393 38.3236C27.6639 38.9544 26.7155 40.4264 25.8197 41.8984C24.8185 43.4755 23.87 45 22.5 45C21.1827 45 20.2342 43.4755 19.233 41.8458C18.3372 40.3213 17.3888 38.7967 15.9133 38.1659C14.3852 37.535 12.5937 37.9556 10.8548 38.4287C9.11593 38.8493 7.48244 39.2699 6.63935 38.4813C5.84895 37.6928 6.37588 36.0105 6.9555 34.2757C7.53513 32.4357 8.16745 30.5432 7.48244 29.0187C6.85012 27.4942 5.11124 26.6005 3.42506 25.7593C1.68618 24.8657 0.0526931 24.0245 0.0526931 22.7103C0.0526931 22.6577 0.0526932 22.5526 0 22.5C0 22.4474 0.0526931 22.3423 0.0526931 22.2897C0.0526931 21.028 1.68618 20.1869 3.42506 19.2407C5.11124 18.3995 6.85012 17.5058 7.48244 15.9813C8.11475 14.4042 7.53513 12.5117 6.9555 10.7243C6.37588 8.93692 5.84895 7.25467 6.63935 6.51869C7.48244 5.67757 9.11593 6.09813 10.8548 6.57126C12.5937 6.99182 14.3852 7.46495 15.9133 6.83411C17.3888 6.20327 18.3372 4.67874 19.233 3.15421C20.2342 1.52453 21.13 0 22.5 0C23.87 0 24.8185 1.52453 25.8197 3.10164C26.7681 4.5736 27.7166 6.04556 29.1393 6.6764C30.6674 7.30724 32.4063 6.88668 34.1452 6.51869C35.8841 6.09813 37.5176 5.73014 38.3607 6.57126C39.1511 7.30724 38.5187 8.98949 37.8864 10.7243C37.2014 12.5643 36.5164 14.4568 37.2014 16.0339C37.8337 17.5584 39.678 18.4521 41.4169 19.3458C43.2611 20.2395 44.9473 21.1332 44.9473 22.3949C44.9473 22.4474 44.9473 22.5526 45 22.6051C45 22.6577 44.9473 22.7629 44.9473 22.8154C45 23.8668 43.2611 24.7605 41.4169 25.6542Z" fill="#671993"/>
<path d="M29.666 15.1735L13.3046 28.5007C12.9796 28.7783 12.8712 29.3336 13.1963 29.6668C13.3588 29.8889 13.5755 30 13.8464 30C14.0089 30 14.2256 29.9445 14.334 29.8334L30.6954 16.5062C31.0204 16.2286 31.1288 15.6733 30.8037 15.3401C30.5328 14.9514 30.0453 14.8959 29.666 15.1735Z" fill="white"/>
<path d="M17.9949 21C18.2056 21 18.4162 21 18.6269 20.9477C20.7863 20.6336 22.3137 18.5924 21.945 16.3942C21.787 15.3474 21.2077 14.4053 20.365 13.7773C19.5223 13.1492 18.4689 12.8875 17.4156 13.0445C16.3622 13.2015 15.4142 13.7773 14.7821 14.6147C14.1501 15.4521 13.8868 16.4989 14.0448 17.5456C14.3608 19.5869 16.0988 21 17.9949 21ZM17.6262 14.667C17.7316 14.667 17.8896 14.6147 17.9949 14.6147C19.1536 14.6147 20.207 15.4521 20.365 16.6559C20.5756 17.9644 19.6803 19.1681 18.3636 19.3775C17.0469 19.5869 15.8355 18.6971 15.6248 17.3886C15.4142 16.0802 16.3622 14.8764 17.6262 14.667Z" fill="white"/>
<path d="M26 24C23.7895 24 22 25.7895 22 28C22 30.2105 23.7895 32 26 32C28.2105 32 30 30.2105 30 28C29.9474 25.7895 28.1579 24 26 24ZM26 30.3684C24.6842 30.3684 23.5789 29.2632 23.5789 27.9474C23.5789 26.6316 24.6842 25.5263 26 25.5263C27.3158 25.5263 28.4211 26.6316 28.4211 27.9474C28.3684 29.3158 27.3158 30.3684 26 30.3684Z" fill="white"/>
</svg>
