<svg width="158" height="158" viewBox="0 0 158 158" fill="none" xmlns="http://www.w3.org/2000/svg">
<path d="M77.6357 156.812C34.7714 156.812 1.1875 122.632 1.1875 79C1.1875 60.1746 7.60444 42.1117 19.2659 28.1418C20.1893 27.042 21.8182 26.9019 22.9179 27.8149C24.0177 28.7331 24.1681 30.3672 23.2499 31.4669C12.3666 44.5031 6.375 61.3833 6.375 79C6.375 119.727 37.6764 151.625 77.6357 151.625C118.435 151.625 151.625 119.047 151.625 79C151.625 38.9525 118.435 6.375 77.6357 6.375C64.9782 6.375 52.6682 9.59125 42.0598 15.671C40.8304 16.3609 39.2326 15.9511 38.5219 14.7061C37.8112 13.4611 38.2418 11.8789 39.4868 11.1631C50.8786 4.63719 64.0704 1.1875 77.6357 1.1875C121.294 1.1875 156.812 36.0942 156.812 79C156.812 121.906 121.294 156.812 77.6357 156.812Z" fill="#2F5F6D" stroke="#2F5F6D" stroke-width="2"/>
<path d="M35.1293 19.6135C35.1293 21.0401 33.9621 22.2073 32.5356 22.2073C31.109 22.2073 29.9418 21.0401 29.9418 19.6135C29.9418 18.1869 31.109 17.0198 32.5356 17.0198C33.9621 17.0198 35.1293 18.1818 35.1293 19.6135Z" fill="#2F5F6D" stroke="#2F5F6D" stroke-width="3"/>
<g clip-path="url(#clip0_135_18)">
<path d="M68.1913 107.5C67.5629 107.498 66.9416 107.367 66.366 107.114C65.7904 106.862 65.2728 106.494 64.8455 106.033L42.5705 82.3373C41.7378 81.45 41.2918 80.2682 41.3304 79.0519C41.3496 78.4497 41.4872 77.8571 41.7353 77.3081C41.9835 76.759 42.3374 76.2642 42.7767 75.8519C43.2161 75.4396 43.7324 75.1179 44.2961 74.9051C44.8598 74.6924 45.4599 74.5927 46.0622 74.6119C47.2784 74.6505 48.4295 75.1708 49.2622 76.0582L68.1455 96.179L106.691 54.0123C107.083 53.5252 107.569 53.1232 108.121 52.831C108.673 52.5388 109.28 52.3626 109.902 52.3132C110.525 52.2638 111.151 52.3422 111.743 52.5436C112.334 52.745 112.878 53.0652 113.341 53.4845C113.804 53.9038 114.177 54.4134 114.436 54.9819C114.695 55.5504 114.835 56.1659 114.847 56.7905C114.86 57.4151 114.745 58.0356 114.509 58.614C114.272 59.1925 113.921 59.7165 113.475 60.154L71.583 105.987C71.1597 106.456 70.6439 106.833 70.0682 107.093C69.4924 107.354 68.869 107.492 68.2372 107.5H68.1913Z" fill="#2F5F6D"/>
</g>
<defs>
<clipPath id="clip0_135_18">
<rect width="110" height="110" fill="white" transform="translate(23 25)"/>
</clipPath>
</defs>
</svg>
