<svg width="25" height="25" viewBox="0 0 25 25" fill="none" xmlns="http://www.w3.org/2000/svg">
<g clip-path="url(#clip0_785_7139)">
<path d="M3.40817 4.76025L3.40795 4.76052C1.63222 6.88775 0.65625 9.63669 0.65625 12.5C0.65625 19.138 5.76796 24.3438 12.2945 24.3438C18.9365 24.3438 24.3438 19.0328 24.3438 12.5C24.3438 5.96721 18.9365 0.65625 12.2945 0.65625C10.2305 0.65625 8.22227 1.18111 6.48708 2.17513L6.48691 2.17523C6.23984 2.3173 6.15409 2.63169 6.29535 2.87916C6.43745 3.12809 6.75466 3.20801 6.99789 3.07151L6.99789 3.07151L6.99887 3.07095C8.57692 2.16656 10.4093 1.6875 12.2945 1.6875C18.3722 1.6875 23.3125 6.53997 23.3125 12.5C23.3125 18.46 18.3722 23.3125 12.2945 23.3125C6.34782 23.3125 1.6875 18.5668 1.6875 12.5C1.6875 9.87496 2.58032 7.36142 4.19986 5.42152C4.38258 5.20267 4.35241 4.87779 4.13402 4.69545L4.13375 4.69523C3.9155 4.51404 3.59169 4.54168 3.40817 4.76025Z" fill="white" stroke="white" stroke-width="0.25"/>
<path d="M5.50244 4.07227C5.78632 4.07227 6.01807 3.84052 6.01807 3.55664C6.01807 3.27182 5.78616 3.04102 5.50244 3.04102C5.21856 3.04102 4.98682 3.27276 4.98682 3.55664C4.98682 3.84052 5.21856 4.07227 5.50244 4.07227Z" fill="white" stroke="white" stroke-width="0.25"/>
<path d="M15.2734 18.764C15.1867 18.764 15.0984 18.7351 15.0265 18.6757L10.5242 14.9875C10.4359 14.9156 10.3836 14.8086 10.3805 14.6945C10.3781 14.5804 10.425 14.4718 10.5094 14.3953L13.8508 11.3796C14.0109 11.2336 14.2578 11.2476 14.4023 11.4078C14.5476 11.5679 14.5344 11.8148 14.3742 11.9593L11.3695 14.6703L15.5203 18.0711C15.6875 18.2078 15.7117 18.4539 15.575 18.6211C15.4984 18.7148 15.3859 18.764 15.2734 18.764Z" fill="white"/>
<path d="M15.0144 18.8196L15.006 18.8128L12.5227 16.817L11.2876 17.956C11.1011 18.1385 10.8465 18.3865 10.3507 18.3865C10.0543 18.3865 9.85051 18.3076 9.71029 18.1693C9.57484 18.0358 9.51518 17.8619 9.47274 17.7116M15.0144 18.8196L9.59287 17.6771M15.0144 18.8196L15.0239 18.8248C15.2709 18.9611 15.5143 19.0341 15.7476 19.0341C15.8786 19.0341 16.1038 19.0077 16.3225 18.8572C16.5442 18.7047 16.7442 18.435 16.8395 17.9767L18.8434 8.38702L18.8434 8.38701C18.9026 8.1036 18.8326 7.81198 18.6499 7.58794C18.391 7.26902 17.9439 7.14857 17.5609 7.29805C17.5608 7.29808 17.5608 7.29812 17.5607 7.29815L5.96116 11.7737L5.96115 11.7737L5.95964 11.7743C5.58885 11.923 5.35479 12.0997 5.21516 12.2853C5.0741 12.4728 5.03565 12.6611 5.0422 12.8182L5.04222 12.8186C5.04651 12.915 5.07448 13.0772 5.19377 13.2433C5.31379 13.4105 5.51866 13.5711 5.85833 13.6754M15.0144 18.8196L5.85833 13.6754M9.47274 17.7116C9.47269 17.7114 9.47263 17.7112 9.47258 17.711L9.59287 17.6771M9.47274 17.7116C9.47279 17.7118 9.47284 17.712 9.47289 17.7122L9.59287 17.6771M9.47274 17.7116C9.47047 17.7039 9.4682 17.696 9.46592 17.6881C9.45276 17.6427 9.43892 17.595 9.41966 17.5409L9.41767 17.5353L9.4178 17.5353L8.49485 14.4978M9.59287 17.6771C9.59067 17.6696 9.58844 17.6618 9.58615 17.6539C9.57299 17.6085 9.55803 17.5568 9.5374 17.499L8.59522 14.3982M8.49485 14.4978L8.55799 14.5175L8.59522 14.3982M8.49485 14.4978L8.47562 14.4345L8.59522 14.3982M8.49485 14.4978L5.85852 13.6755L5.89522 13.556M8.59522 14.3982L5.89522 13.556M5.89522 13.556L5.85799 13.6753L5.85833 13.6754M5.89522 13.556C5.25928 13.3607 5.17412 12.9708 5.16709 12.813C5.15615 12.5505 5.29287 12.1763 6.00615 11.8904L5.85833 13.6754M10.5648 17.2198C10.5021 17.2811 10.4642 17.313 10.4365 17.3307C10.4247 17.2915 10.4116 17.2506 10.3973 17.212L9.40311 13.9376L9.4031 13.9376C9.35346 13.7742 9.22562 13.6468 9.0644 13.5955L9.0637 13.5953L6.32392 12.7403C6.32899 12.7382 6.33414 12.7361 6.33938 12.734C6.33961 12.734 6.33984 12.7339 6.34008 12.7338L17.8063 8.31266L15.8307 17.766C15.8307 17.766 15.8307 17.7661 15.8307 17.7661C15.8286 17.776 15.8266 17.7856 15.8247 17.795C15.8155 17.8388 15.8076 17.8766 15.797 17.9117C15.7841 17.9543 15.7714 17.9774 15.7607 17.9891C15.7544 17.996 15.7476 18.0015 15.7274 18.0021C15.7026 18.0027 15.6578 17.9952 15.5845 17.9617L12.8233 15.7356C12.8232 15.7355 12.8231 15.7354 12.823 15.7354C12.729 15.6589 12.6143 15.6208 12.4999 15.6208C12.3738 15.6208 12.2496 15.6674 12.1517 15.7551L12.1516 15.7551L12.1503 15.7563L10.5675 17.2173L10.5674 17.2172L10.5648 17.2198Z" fill="white" stroke="white" stroke-width="0.25"/>
<path d="M15.6587 10.5879C15.6587 10.8027 15.4829 10.9785 15.2681 10.9785C15.0532 10.9785 14.8774 10.8027 14.8774 10.5879C14.8774 10.373 15.0532 10.1973 15.2681 10.1973C15.4829 10.1973 15.6587 10.3723 15.6587 10.5879Z" fill="white"/>
</g>
<defs>
<clipPath id="clip0_785_7139">
<rect width="25" height="25" fill="white"/>
</clipPath>
</defs>
</svg>
