<svg width="128" height="128" viewBox="0 0 128 128" fill="none" xmlns="http://www.w3.org/2000/svg">
<circle cx="64" cy="64" r="64" fill="white"/>
<g clip-path="url(#clip0_2375_12813)">
<path d="M93.2221 42.8452C94.037 41.475 94.2576 39.7959 93.8258 38.2625C93.4725 37.0078 92.6939 35.89 91.644 35.1164C90.5489 34.3091 89.1869 33.9014 87.827 33.9763C87.34 34.0026 86.8561 34.0914 86.3905 34.2367C86.1679 34.3066 85.9493 34.3894 85.7361 34.4846C85.6646 34.5164 85.5861 34.5769 85.513 34.6002C85.4305 34.626 85.4037 34.5501 85.3485 34.499C84.7677 33.9604 84.1183 33.4958 83.4201 33.1199C82.0229 32.3676 80.4394 31.9827 78.8518 32.0006C77.5073 32.016 76.1711 32.321 74.9553 32.8947C73.7792 33.4492 72.7233 34.2496 71.8691 35.2285C71.01 36.2134 70.3586 37.3753 69.973 38.623C69.5244 40.0761 69.4379 41.6372 69.7216 43.1309C69.7425 43.242 69.7743 43.3531 69.7912 43.4641C69.8021 43.5375 69.7972 43.5633 69.7355 43.6104C69.5875 43.7235 69.4116 43.8068 69.26 43.9179C68.946 44.1485 68.6548 44.4094 68.3925 44.6965C67.91 45.2251 67.5264 45.8425 67.2655 46.5086C66.7518 47.8232 66.7284 49.312 67.2054 50.6405C67.6447 51.8644 68.4963 52.9247 69.5939 53.6239C70.7914 54.3876 72.2532 54.6951 73.6579 54.4759C73.889 54.4397 74.1255 54.3961 74.3491 54.3247C74.4917 54.279 74.6075 54.1932 74.7133 54.3351C74.9752 54.6852 75.2638 55.0026 75.5933 55.2932C76.1493 55.7836 76.7848 56.1828 77.4685 56.471C78.9398 57.0904 80.6143 57.1816 82.1451 56.7274C82.6112 56.5885 83.0634 56.4015 83.4907 56.169C83.6224 56.0975 83.8082 55.9036 83.9672 55.9379C84.0472 55.9547 84.1203 56.0028 84.1953 56.0336C84.3041 56.0777 84.4174 56.1134 84.5292 56.1501C85.3878 56.4283 86.2911 56.5662 87.194 56.5548C88.5335 56.5374 89.8607 56.1903 91.0358 55.5471C92.1742 54.9237 93.1595 54.0311 93.8919 52.9614C94.6392 51.8704 95.1157 50.6028 95.2693 49.2901C95.4491 47.7464 95.1858 46.1609 94.509 44.761C94.1731 44.0657 93.7384 43.419 93.2221 42.8452ZM87.0856 54.0063C86.3428 54.0063 85.601 53.86 84.9143 53.5773C84.5913 53.4444 84.2887 53.2267 83.9369 53.1811C83.6288 53.1419 83.3108 53.2178 83.0544 53.3923C82.7608 53.5922 82.4974 53.8139 82.1784 53.9785C81.8768 54.1337 81.5573 54.2537 81.2279 54.3356C80.5934 54.4933 79.9246 54.5067 79.2841 54.3752C78.1065 54.1342 77.0685 53.4008 76.4429 52.3777C76.281 52.1129 76.1706 51.8297 75.9227 51.6289C75.6623 51.4186 75.3235 51.3174 74.9906 51.3507C74.6293 51.3874 74.3481 51.6115 74.0211 51.7459C73.6773 51.8872 73.3091 51.9715 72.9374 51.9919C71.8001 52.0539 70.6886 51.5123 70.0302 50.5865C69.3624 49.6467 69.2317 48.396 69.6873 47.3372C69.9129 46.8121 70.2761 46.3494 70.7323 46.0037C70.9599 45.8316 71.2103 45.6888 71.4741 45.5797C71.7544 45.4637 72.0296 45.3962 72.2542 45.1785C72.4967 44.9434 72.6378 44.6147 72.6413 44.2769C72.6448 43.9144 72.4634 43.5762 72.3665 43.233C72.1683 42.5283 72.0853 41.7929 72.1196 41.0619C72.2244 38.8204 73.4681 36.7341 75.3816 35.5588C77.4491 34.2887 80.1144 34.2208 82.2455 35.3852C82.809 35.6932 83.3282 36.081 83.7844 36.5332C84.0045 36.7519 84.1858 37.0187 84.4189 37.2216C84.6375 37.412 84.9197 37.5221 85.2094 37.533C85.4897 37.5439 85.7699 37.4601 85.9985 37.297C86.2732 37.1016 86.5336 36.9121 86.8466 36.7792C87.4414 36.5263 88.1087 36.4554 88.7442 36.5699C89.8379 36.7673 90.7829 37.5216 91.2212 38.5402C91.7335 39.7304 91.487 41.1254 90.6239 42.087C90.1618 42.6022 90.1196 43.3769 90.6259 43.8847C90.8575 44.1168 91.1143 44.3166 91.3345 44.5626C91.5491 44.8031 91.7429 45.062 91.9138 45.3357C92.5871 46.4138 92.8773 47.7087 92.7352 48.9708C92.4838 51.2034 90.8674 53.127 88.7109 53.7702C88.1842 53.9269 87.6352 54.0063 87.0856 54.0063Z" fill="#6D6D6D"/>
<path d="M62.9038 58.2612C63.111 58.7581 63.6268 59.0834 64.1669 59.0462C64.6976 59.009 65.1602 58.6396 65.3092 58.1303C65.4573 57.6254 65.2675 57.0626 64.8436 56.7501C64.4312 56.4466 63.8673 56.4213 63.427 56.6812C62.8904 56.9981 62.6643 57.6874 62.9038 58.2612Z" fill="#6D6D6D"/>
<path d="M66.0206 55.5032C66.2238 55.9931 66.7301 56.3165 67.2618 56.2887C67.788 56.2614 68.2521 55.9058 68.414 55.4055C68.5775 54.8991 68.3991 54.3298 67.9768 54.005C67.5485 53.6757 66.9398 53.6569 66.4906 53.9559C65.9902 54.2892 65.791 54.9482 66.0206 55.5032Z" fill="#6D6D6D"/>
<path d="M80.313 74.5011C80.9555 72.6295 80.8069 70.5303 79.9051 68.7693C79.1309 67.2573 77.8326 66.0353 76.2734 65.3549C75.8764 65.1814 75.4644 65.0435 75.0426 64.9428C74.826 64.8908 74.6063 64.8491 74.3852 64.8174C74.3365 64.8104 74.1308 64.8144 74.103 64.7817C74.0985 64.7767 74.105 64.7579 74.1025 64.7514V62.0606C74.0945 61.1977 73.8083 60.3507 73.2901 59.6599C72.2397 58.2599 70.357 57.6732 68.6969 58.243C67.0627 58.8039 65.9467 60.376 65.9397 62.0968V70.6875C65.9397 71.4011 65.9054 72.1346 65.9755 72.8447C66.0317 73.4101 66.1529 73.969 66.3382 74.5065C65.9283 74.5244 65.5964 74.628 65.3206 74.9444C65.1119 75.1835 65.0081 75.485 65.0051 75.7999V80.6985C63.991 79.1409 62.7358 77.7409 61.2984 76.5611C59.8564 75.3779 58.2326 74.4173 56.4975 73.7294C56.2565 73.6337 56.013 73.5435 55.7681 73.4582C55.6717 73.425 55.5748 73.3897 55.4764 73.362C55.4322 73.3496 55.3259 73.3421 55.301 73.296V71.603C55.301 71.5003 55.3711 71.5003 55.463 71.4487C56.97 70.6052 58.2798 69.42 59.2651 68.0036C60.2649 66.5665 60.9655 64.9002 61.2064 63.1665V50.0491C61.1145 48.4373 60.7125 46.8534 59.9503 45.4296C59.2075 44.0416 58.171 42.8142 56.9308 41.8432C55.6776 40.8618 54.2208 40.1462 52.677 39.7574C51.0671 39.3517 49.3702 39.3001 47.7385 39.6046C46.1594 39.8992 44.6484 40.5305 43.3287 41.4445C42.0383 42.3386 40.9357 43.498 40.1119 44.833C39.2731 46.1928 38.7022 47.7287 38.5064 49.3136V62.4033C38.6277 64.1543 39.14 65.8672 40.0453 67.3723C40.9307 68.8447 42.153 70.1083 43.593 71.0475C43.7783 71.1685 43.9672 71.2841 44.1594 71.3942C44.2146 71.4259 44.389 71.4864 44.4178 71.538C44.4228 71.5464 44.4158 71.5658 44.4178 71.5752V73.2801C44.3925 73.3535 44.1197 73.4002 44.0377 73.4279C42.4537 73.9675 40.9476 74.7312 39.5762 75.6893C38.2277 76.6315 37.0113 77.7597 35.9684 79.0308C34.9199 80.3092 34.0474 81.7305 33.3816 83.2426C32.7029 84.7839 32.2398 86.4179 32.0067 88.0852C31.8542 89.1757 31.8283 90.2677 31.8283 91.3661C31.8283 92.4661 31.8278 95.3394 31.8283 95.6756C31.8298 96.3104 32.2502 96.8613 32.8951 96.968H37.3606C37.7397 96.8623 38.0558 96.5633 38.2018 96.1983C38.5179 95.4088 37.9529 94.5132 37.1042 94.4547C36.7191 94.4279 36.3256 94.4517 35.94 94.4517C35.4501 94.4517 34.9607 94.4517 34.4708 94.4517C34.3808 94.4517 34.3828 94.4656 34.3828 94.3778C34.3828 94.2201 34.3828 91.861 34.3828 90.8395C34.3828 89.4063 34.5403 87.986 34.906 86.5979C35.3353 84.9693 36.0275 83.4112 36.9497 82.0013C37.859 80.6112 38.9909 79.367 40.2932 78.334C41.5662 77.3248 42.9992 76.5195 44.5252 75.9591C44.9232 77.9323 46.4367 79.5495 48.369 80.1074C50.2308 80.645 52.2939 80.1099 53.6722 78.7555C54.4419 77.9993 54.9815 77.0174 55.1942 75.9591C56.9844 76.6171 58.6465 77.611 60.078 78.8691C61.5011 80.1198 62.6946 81.6284 63.5781 83.3026C64.0228 84.1451 64.389 85.0283 64.6692 85.9383C64.8128 86.406 64.9172 86.8796 65.0314 87.3542C65.1353 87.7846 65.4597 88.1377 65.8821 88.2741C66.7039 88.5389 67.5452 87.9066 67.5561 87.0576C67.5581 86.8731 67.5561 78.0186 67.5561 77.2003C67.5561 77.0898 67.5218 77.0402 67.6535 77.0446H79.0022V87.9889C78.9993 89.3537 78.5665 90.6942 77.7585 91.7971C76.9109 92.954 75.6821 93.814 74.3003 94.2062C73.6598 94.3882 73.0044 94.4512 72.3411 94.4512H47.252C46.6155 94.4591 46.061 94.9298 45.9825 95.567C45.8886 96.3248 46.4918 96.9903 47.2495 97.0002H72.2938C72.8707 97.0002 73.4446 96.9734 74.015 96.8787C75.4446 96.6421 76.8075 96.0545 77.9633 95.1827C79.1026 94.3228 80.0333 93.1951 80.6569 91.9126C81.2506 90.6907 81.5537 89.3443 81.5562 87.9875V75.78C81.5488 75.0912 81.0106 74.5189 80.313 74.5011ZM41.1359 49.1862C41.3073 48.2162 41.6482 47.2774 42.1366 46.421C43.113 44.7101 44.6683 43.3552 46.4948 42.6128C47.5611 42.1794 48.7089 41.9582 49.8597 41.9582C51.9143 41.9582 53.9346 42.6768 55.5211 43.9811C57.062 45.2471 58.1501 47.0275 58.5447 48.9824C58.7166 49.8348 58.7146 50.6883 58.7146 51.5527C57.3109 51.5299 55.9067 51.4674 54.5085 51.3355C53.1644 51.2085 51.8149 51.0225 50.5091 50.6704C49.9431 50.5182 49.3817 50.3337 48.852 50.0803C48.373 49.8512 47.8647 49.5541 47.5621 49.1048C47.3917 48.8519 47.2386 48.6233 46.9802 48.4473C46.707 48.2608 46.381 48.1552 46.0501 48.1462C45.4583 48.1304 44.8844 48.4264 44.553 48.9159C44.3686 49.1882 44.2141 49.4679 44.0004 49.7208C43.7475 50.0203 43.4593 50.2891 43.1433 50.5217C42.5108 50.9863 41.7739 51.2933 41.0043 51.4431C41.0047 50.6858 41.0033 49.9355 41.1359 49.1862ZM52.671 75.5445C52.4663 76.4118 51.8507 77.1517 51.0368 77.5162C50.199 77.8907 49.2068 77.8386 48.4132 77.3779C47.5308 76.8661 46.9723 75.9035 46.9723 74.8844C46.9723 74.2298 46.9723 72.6672 46.9723 72.5402C48.4465 72.9231 49.9923 72.999 51.4994 72.7887C51.9192 72.7302 52.3371 72.6469 52.7475 72.5402V74.0399C52.747 74.5398 52.7863 75.055 52.671 75.5445ZM54.107 69.2826C52.2641 70.2804 50.0733 70.6022 48.0212 70.1668C46.2175 69.784 44.5555 68.8447 43.3063 67.4894C42.1406 66.2248 41.3605 64.624 41.1021 62.9235C41.037 62.494 41.0047 62.0596 41.0047 61.6257V54.0342C41.0331 53.9916 41.2805 53.9866 41.3377 53.9772C42.9625 53.7005 44.4809 52.9179 45.6223 51.7277C45.7713 51.5725 45.9139 51.4113 46.0491 51.2447C46.7865 51.9514 47.7256 52.4175 48.6761 52.7672C49.6684 53.1322 50.7054 53.3662 51.7448 53.5487C53.8983 53.9271 56.1005 54.0511 58.2838 54.0942C58.3534 54.0957 58.6878 54.065 58.7146 54.1116C58.722 54.1245 58.7146 54.1651 58.7146 54.18V61.5508C58.7146 63.0093 58.3707 64.444 57.6736 65.7289C56.8607 67.2265 55.6066 68.4708 54.107 69.2826ZM68.4937 65.0291C68.4937 64.2352 68.4937 62.2803 68.4937 62.0968C68.4937 61.1843 69.329 60.4603 70.2343 60.5867C71.0049 60.6943 71.547 61.3683 71.549 62.1315C71.5505 62.6135 71.549 64.6681 71.549 64.7742C71.549 64.8149 71.5669 64.9052 71.549 64.9423C71.5296 64.9825 71.4541 64.9815 71.4064 64.9944C71.2484 65.0371 71.0914 65.0857 70.9364 65.1387C70.6422 65.2384 70.355 65.3564 70.0758 65.4923C69.5068 65.769 68.9732 66.1187 68.4937 66.5322C68.4937 66.0309 68.4937 65.53 68.4937 65.0291ZM77.8306 73.8554C77.7725 74.0042 77.7039 74.148 77.6353 74.2923C77.5946 74.3786 77.5677 74.4832 77.4679 74.4986H69.1595C69.0537 74.4733 68.9876 74.2412 68.9419 74.1435C68.69 73.6055 68.5419 73.0208 68.5036 72.4282C68.4336 71.3406 68.7387 70.2452 69.3647 69.353C70.5587 67.65 72.7813 66.8858 74.7713 67.5107C76.5163 68.0587 77.8371 69.599 78.1034 71.4061C78.1377 71.6392 78.1551 71.8752 78.1551 72.1113C78.1551 72.7064 78.0467 73.3005 77.8306 73.8554Z" fill="#6D6D6D"/>
<path d="M43.3141 95.2385C43.1078 94.7411 42.5891 94.4183 42.0515 94.455C41.5253 94.4912 41.0672 94.8517 40.9136 95.3556C40.7611 95.8549 40.9375 96.4129 41.3519 96.7322C41.7767 97.0595 42.3745 97.0863 42.8256 96.7957C43.3359 96.4669 43.5471 95.8009 43.3141 95.2385Z" fill="#6D6D6D"/>
<path d="M78.1835 45.688C77.6608 45.688 77.2081 45.5667 76.8255 45.324C76.4428 45.072 76.1488 44.7407 75.9435 44.33C75.7475 43.91 75.6495 43.4527 75.6495 42.958C75.6495 42.426 75.7568 41.9547 75.9715 41.544C76.1955 41.124 76.5035 40.802 76.8955 40.578C77.2875 40.3447 77.7308 40.228 78.2255 40.228C78.7575 40.228 79.2101 40.3587 79.5835 40.62C79.9661 40.8813 80.2555 41.222 80.4515 41.642C80.6475 42.062 80.7455 42.5007 80.7455 42.958C80.7455 43.49 80.6381 43.966 80.4235 44.386C80.2088 44.7967 79.9055 45.1187 79.5135 45.352C79.1215 45.576 78.6781 45.688 78.1835 45.688ZM83.9515 40.368H85.9115L79.0515 50H77.0915L83.9515 40.368ZM78.1835 44.316C78.4635 44.316 78.6688 44.1807 78.7995 43.91C78.9395 43.63 79.0095 43.3127 79.0095 42.958C79.0095 42.594 78.9348 42.2813 78.7855 42.02C78.6361 41.7587 78.4355 41.628 78.1835 41.628C77.9128 41.628 77.7121 41.7587 77.5815 42.02C77.4508 42.2813 77.3855 42.594 77.3855 42.958C77.3855 43.3313 77.4555 43.6533 77.5955 43.924C77.7448 44.1853 77.9408 44.316 78.1835 44.316ZM84.8195 50.14C84.2968 50.14 83.8441 50.0233 83.4615 49.79C83.0788 49.5473 82.7848 49.2207 82.5795 48.81C82.3741 48.39 82.2715 47.9187 82.2715 47.396C82.2715 46.8733 82.3788 46.4067 82.5935 45.996C82.8175 45.576 83.1208 45.2493 83.5035 45.016C83.8955 44.7733 84.3341 44.652 84.8195 44.652C85.3235 44.652 85.7668 44.7873 86.1495 45.058C86.5415 45.3193 86.8401 45.6693 87.0455 46.108C87.2508 46.5373 87.3535 46.9947 87.3535 47.48C87.3535 48.0027 87.2461 48.4693 87.0315 48.88C86.8168 49.2813 86.5181 49.594 86.1355 49.818C85.7528 50.0327 85.3141 50.14 84.8195 50.14ZM84.8195 48.74C85.0808 48.74 85.2768 48.6047 85.4075 48.334C85.5475 48.054 85.6175 47.7413 85.6175 47.396C85.6175 47.032 85.5428 46.724 85.3935 46.472C85.2535 46.2107 85.0621 46.08 84.8195 46.08C84.5581 46.08 84.3575 46.2107 84.2175 46.472C84.0775 46.724 84.0075 47.032 84.0075 47.396C84.0075 47.7693 84.0775 48.0867 84.2175 48.348C84.3668 48.6093 84.5675 48.74 84.8195 48.74Z" fill="#6D6D6D"/>
</g>
<defs>
<clipPath id="clip0_2375_12813">
<rect width="65" height="65" fill="white" transform="translate(31 32)"/>
</clipPath>
</defs>
</svg>
