<svg width="128" height="128" viewBox="0 0 128 128" fill="none" xmlns="http://www.w3.org/2000/svg">
<circle cx="64" cy="64" r="64" fill="white"/>
<path d="M33 49.8896V59.9409C33 64.6053 34.0645 69.065 36.1642 73.1957C38.0772 76.9596 40.837 80.3281 44.1659 82.9689V89.3467H80.6454V82.967C82.9237 81.1512 84.9021 79.0428 86.5355 76.692H92.1817C96.9709 76.692 99.3618 72.7528 99.9568 70.6699L99.9999 70.5193V49.8896H33ZM85.0122 74.9541C83.349 77.4559 81.2743 79.6699 78.8457 81.5347L78.4082 81.8706V87.1098H46.4031V83.5406H70.5941V81.3034H45.6711C39.0363 76.1047 35.237 68.3413 35.237 59.9412V52.1269H89.5743V55.845H43.7957V58.0822H89.5743V59.9412C89.5743 65.3301 87.9981 70.5197 85.0122 74.9541ZM97.7627 70.1879C97.5026 70.9441 96.0843 74.4548 92.1817 74.4548H87.9569C90.4841 70.0605 91.8115 65.0841 91.8115 59.9411V52.1268H97.7628V70.1879H97.7627Z" fill="#6D6D6D"/>
<path d="M62.0338 38.7251C62.0338 37.3624 62.5475 36.7534 63.2589 35.9107C64.0396 34.9854 65.0115 33.834 65.0115 31.6533H62.7743C62.7743 33.0162 62.2604 33.6251 61.5492 34.4678C60.7685 35.3931 59.7969 36.5446 59.7969 38.7251C59.7969 40.8958 60.7669 42.0476 61.5463 42.9732C62.2593 43.8198 62.7743 44.4316 62.7743 45.7968H65.0115C65.0115 43.615 64.0389 42.4603 63.2574 41.5321C62.547 40.6886 62.0338 40.0792 62.0338 38.7251Z" fill="#6D6D6D"/>
<path d="M78.4127 38.7251C78.4127 37.3624 78.9264 36.7534 79.6378 35.9107C80.4185 34.9854 81.3904 33.834 81.3904 31.6533H79.1532C79.1532 33.0162 78.6393 33.6251 77.9281 34.4678C77.1474 35.3931 76.1758 36.5446 76.1758 38.7251C76.1758 40.8958 77.1458 42.0476 77.9252 42.9732C78.6382 43.8198 79.1532 44.4316 79.1532 45.7968H81.3904C81.3904 43.615 80.4178 42.4603 79.6363 41.5321C78.9259 40.6886 78.4127 40.0792 78.4127 38.7251Z" fill="#6D6D6D"/>
<path d="M45.6588 38.7251C45.6588 37.3624 46.1725 36.7534 46.8839 35.9107C47.6646 34.9854 48.6365 33.834 48.6365 31.6533H46.3993C46.3993 33.0162 45.8854 33.6251 45.1742 34.4678C44.3935 35.3931 43.4219 36.5446 43.4219 38.7251C43.4219 40.8958 44.3919 42.0476 45.1713 42.9732C45.8843 43.8198 46.3993 44.4316 46.3993 45.7968H48.6365C48.6365 43.615 47.6639 42.4603 46.8824 41.5321C46.1719 40.6886 45.6588 40.0792 45.6588 38.7251Z" fill="#6D6D6D"/>
<path d="M40.4481 59.8613V55.4746H38.2109V60.0152L38.2208 60.0887C38.2841 60.5636 39.8435 71.774 46.1024 76.4681L47.4446 74.6786C42.1714 70.7236 40.5849 60.784 40.4481 59.8613Z" fill="#6D6D6D"/>
</svg>
