<svg width="128" height="128" viewBox="0 0 128 128" fill="none" xmlns="http://www.w3.org/2000/svg">
<circle cx="64" cy="64" r="64" fill="white"/>
<path d="M99.8477 51.6855L93.0811 38.3509V33.0625C93.0811 32.286 92.4516 31.6562 91.6748 31.6562H36.3248C35.5482 31.6562 34.9185 32.286 34.9185 33.0625V38.3516L28.1522 51.6855C28.0522 51.8827 28 52.1008 28 52.3219V55.7814C28 59.8922 30.9959 63.3144 34.9185 63.9851V93.5312H33.4795C32.7028 93.5312 32.0732 94.1609 32.0732 94.9375C32.0732 95.714 32.7028 96.3437 33.4795 96.3437H36.3139C36.3174 96.3437 36.3211 96.3443 36.3248 96.3443H74.7999H86.0501H91.6751H94.5204C95.2969 96.3443 95.9266 95.7146 95.9266 94.938C95.9266 94.1615 95.2969 93.5318 94.5204 93.5318H93.0814V63.9851C97.0041 63.3144 100 59.8923 100 55.7814V52.3219C100 52.1008 99.9478 51.8827 99.8477 51.6855ZM37.731 34.4688H90.2686V37.2817H80.6052H69.535H58.4651H47.3948H37.731V34.4688ZM72.3177 52.1798L71.0913 40.0942H79.5634L83.3501 52.5311V55.7814C83.3501 58.8209 80.8772 61.2936 77.8376 61.2936C74.7979 61.2936 72.3249 58.8209 72.3249 55.7814V52.3219C72.3249 52.2745 72.3225 52.2271 72.3177 52.1798ZM69.5124 52.393V55.7814H69.5122C69.5122 58.8209 67.0395 61.2936 64.0001 61.2936C60.9605 61.2936 58.4875 58.8209 58.4875 55.7814V52.393L59.736 40.0942H68.2643L69.5124 52.393ZM56.9091 40.0943L55.6823 52.18C55.6774 52.2271 55.675 52.2745 55.675 52.3219V55.7814C55.675 58.8209 53.2022 61.2936 50.1626 61.2936C47.123 61.2936 44.6502 58.8209 44.6502 55.7814V52.5313L48.437 40.0943H56.9091ZM30.8125 55.7814V52.6583L37.1882 40.0942H45.4968L41.8986 51.9122C41.8582 52.045 41.8376 52.1831 41.8376 52.3219V55.7814C41.8376 58.8209 39.3645 61.2936 36.3248 61.2936C33.2853 61.2936 30.8125 58.8209 30.8125 55.7814ZM84.6438 93.5318H76.2062V89.3127V83.6877H77.6126C78.3892 83.6877 79.0188 83.0581 79.0188 82.2814C79.0188 81.5049 78.3892 80.8752 77.6126 80.8752H76.2062V71.0317H84.6438V93.5318ZM90.2686 93.5318H87.4561V69.6254C87.4561 68.8489 86.8265 68.2192 86.0498 68.2192H74.7996H41.9499C41.1731 68.2192 40.5437 68.8489 40.5437 69.6254V89.3127C40.5437 90.0894 41.1731 90.719 41.9499 90.719H73.3936V93.5318H37.731V63.9851C40.0224 63.5934 41.9974 62.2641 43.2438 60.4055C44.7389 62.6351 47.2819 64.1062 50.1624 64.1062C53.043 64.1062 55.5858 62.6351 57.0811 60.4055C58.5764 62.6351 61.1194 64.1062 64 64.1062C66.8803 64.1062 69.4234 62.6352 70.9184 60.4055C72.4136 62.6352 74.9567 64.1062 77.8373 64.1062C80.7178 64.1062 83.2609 62.6351 84.7561 60.4055C86.0023 62.2641 87.9774 63.5934 90.2686 63.9851V93.5318ZM57.0715 71.0317H61.9709L59.2969 73.7053C58.7478 74.2543 58.7478 75.1447 59.2968 75.694C59.5714 75.9686 59.9313 76.106 60.2913 76.106C60.6511 76.106 61.0109 75.9686 61.2855 75.6941L65.9485 71.0317H73.3935V87.9065H43.3562V84.747L57.0715 71.0317ZM43.3562 80.7694V71.0317H53.0939L43.3562 80.7694ZM97.1875 55.7814C97.1875 58.8209 94.7146 61.2936 91.6751 61.2936C88.6355 61.2936 86.1626 58.8209 86.1626 55.7814V52.3219C86.1626 52.1831 86.1421 52.045 86.1016 51.9122L82.5034 40.0942H90.8118L97.1875 52.6583V55.7814Z" fill="#6D6D6D"/>
<path d="M57.4101 78.9863C57.7687 78.9863 58.1273 78.85 58.4016 78.5773L58.4251 78.554C58.9759 78.0065 58.9785 77.1161 58.431 76.5652C57.8833 76.0144 56.9928 76.0117 56.4422 76.5595L56.4187 76.5828C55.8678 77.1303 55.8654 78.0209 56.4128 78.5715C56.6877 78.848 57.0488 78.9863 57.4101 78.9863Z" fill="#6D6D6D"/>
<path d="M29.4394 93.5312H29.4063C28.6296 93.5312 28 94.161 28 94.9375C28 95.714 28.6296 96.3438 29.4063 96.3438H29.4394C30.216 96.3438 30.8457 95.714 30.8457 94.9375C30.8457 94.161 30.2161 93.5312 29.4394 93.5312Z" fill="#6D6D6D"/>
<path d="M98.5957 93.5322H98.5625C97.7858 93.5322 97.1562 94.1619 97.1562 94.9385C97.1562 95.715 97.7858 96.3447 98.5625 96.3447H98.5957C99.3724 96.3447 100.002 95.715 100.002 94.9385C100.002 94.1619 99.3724 93.5322 98.5957 93.5322Z" fill="#6D6D6D"/>
</svg>
