<svg width="128" height="128" viewBox="0 0 128 128" fill="none" xmlns="http://www.w3.org/2000/svg">
<circle cx="64" cy="64" r="64" fill="white"/>
<path d="M94.9882 76.1361C94.6129 74.9838 93.588 74.2392 92.3774 74.2392H86.0898C85.9043 74.2392 85.7407 74.1195 85.6831 73.9425L84.5945 70.5879C86.8724 68.9043 87.9785 66.0138 87.3132 63.2464C87.0402 62.1032 87.2733 61.268 88.0934 60.4525C90.9614 57.5957 91.0741 53.0069 88.3429 50.2215C87.4488 49.3134 87.2048 48.4402 87.5269 47.3031C88.0448 45.4803 87.7949 43.5606 86.8234 41.8975C85.8802 40.283 84.3635 39.0832 82.555 38.5197C81.484 38.1839 80.9256 37.5802 80.6873 36.4992C80.2865 34.694 79.1935 33.1521 77.6093 32.1579C75.9731 31.1308 73.9469 30.7981 72.0507 31.2446C70.8483 31.5274 69.9754 31.2606 69.1317 30.3517C67.752 28.868 65.8126 28.0108 63.8113 28.0001C61.8656 27.9885 60.0729 28.7522 58.7467 30.1477C57.8102 31.1338 56.884 31.4053 55.6498 31.0563C53.7914 30.5307 51.8575 30.7694 50.2038 31.7286C48.5229 32.7037 47.3335 34.2997 46.8546 36.2247C46.5745 37.359 45.9756 37.9708 44.8515 38.2706C41.0381 39.2907 38.764 43.3062 39.7825 47.2241C40.0846 48.3771 39.8119 49.2613 38.8711 50.1809C37.5244 51.4971 36.7901 53.2731 36.8034 55.1818C36.8177 57.1882 37.6725 59.1433 39.1508 60.5477C40.0087 61.3595 40.2648 62.2018 40.0067 63.3668C39.403 66.1227 40.4191 68.9993 42.5044 70.6816L41.4466 73.9414C41.3887 74.1195 41.225 74.2392 41.0395 74.2392H34.752C33.5414 74.2392 32.5166 74.9838 32.1412 76.1361C31.7647 77.2916 32.1559 78.5006 33.1384 79.2168L38.2214 82.9154C38.3727 83.0253 38.4357 83.2172 38.3772 83.3958L36.4346 89.3866C36.0604 90.5417 36.4533 91.7488 37.4353 92.462C37.9254 92.8178 38.487 92.9957 39.0489 92.9957C39.611 92.9957 40.1733 92.8176 40.6643 92.4612L45.7531 88.7573C45.9014 88.6488 46.1007 88.6486 46.2518 88.7593L50.5255 91.8688C51.0442 92.2461 51.7706 92.1315 52.1479 91.613C52.5253 91.0944 52.4107 90.3681 51.8921 89.9907L47.6211 86.8833C46.6522 86.1743 45.3505 86.1741 44.3842 86.8814L39.2988 90.5827C39.0927 90.7323 38.9139 90.6654 38.8001 90.5827C38.7059 90.5144 38.5605 90.361 38.6441 90.1028L40.5858 84.1155C40.9577 82.979 40.5567 81.7419 39.588 81.0373L34.5061 77.3395C34.2853 77.1786 34.3135 76.9673 34.3497 76.8556C34.3934 76.7217 34.4986 76.5619 34.7523 76.5619H41.0398C42.2339 76.5619 43.2851 75.7978 43.6558 74.6595L45.5986 68.6721C45.6774 68.4291 45.8612 68.378 46.0015 68.3779H46.0019C46.1181 68.3779 46.3246 68.4166 46.4082 68.6727L48.3494 74.6552C48.7145 75.7957 49.765 76.5619 50.9631 76.5619H56.2456C56.8869 76.5619 57.4069 76.0419 57.4069 75.4006C57.4069 74.7593 56.8869 74.2393 56.2456 74.2393H50.9631C50.7789 74.2393 50.6174 74.1218 50.5599 73.9426L48.6167 67.9539C48.2401 66.8002 47.2142 66.0551 46.0019 66.0551C46.0008 66.0551 45.9998 66.0551 45.9987 66.0551C44.7869 66.0565 43.7625 66.8027 43.389 67.9558L43.302 68.2237C42.3436 67.0661 41.93 65.4409 42.275 63.8667C42.7076 61.9137 42.1935 60.2295 40.7487 58.8623C39.7271 57.8917 39.1356 56.5443 39.126 55.1655C39.117 53.8935 39.6029 52.7132 40.4943 51.8422C42.0257 50.3455 42.5422 48.5938 42.0298 46.6379C41.3318 43.9529 42.8668 41.2059 45.4509 40.5147C47.3949 39.9963 48.6257 38.7404 49.1089 36.7837C49.4342 35.4764 50.2369 34.3947 51.3693 33.7378C52.4742 33.097 53.7699 32.9384 55.0179 33.2914C57.0822 33.8752 58.9034 33.3557 60.4306 31.7477C61.3104 30.8219 62.5065 30.3161 63.7988 30.3227C65.162 30.3301 66.4858 30.9171 67.4304 31.9329C68.8382 33.4492 70.5714 33.9783 72.5826 33.5056C73.8788 33.2002 75.2609 33.426 76.3746 34.1251C77.4284 34.7864 78.1548 35.8085 78.4194 37.0009C78.8367 38.8943 79.9943 40.1509 81.8619 40.7365C84.4536 41.544 85.9927 44.2049 85.2924 46.6693C84.7432 48.6092 85.2127 50.3526 86.6861 51.8493C88.526 53.7257 88.422 56.8469 86.4549 58.8064C85.0662 60.1874 84.5948 61.8629 85.0546 63.7878C85.4449 65.4109 84.9553 67.0469 83.8193 68.1984L83.7406 67.9563C83.367 66.8027 82.3426 66.0564 81.1308 66.0551C81.1297 66.0551 81.1286 66.0551 81.1275 66.0551C79.9155 66.0551 78.8894 66.8002 78.5122 67.9558L76.5682 73.947C76.5121 74.1218 76.3508 74.2393 76.1664 74.2393H70.8839C70.2425 74.2393 69.7226 74.7593 69.7226 75.4006C69.7226 76.0419 70.2425 76.5619 70.8839 76.5619H76.1664C77.3645 76.5619 78.4149 75.7956 78.7786 74.6595L80.7206 68.6746C80.805 68.4161 81.0108 68.3722 81.128 68.3779C81.2683 68.378 81.4521 68.4293 81.5311 68.6727L82.1013 70.4303C82.1036 70.4382 82.1064 70.4459 82.1089 70.4537L83.474 74.6606C83.8443 75.7979 84.8954 76.5619 86.0897 76.5619H92.3772C92.6308 76.5619 92.736 76.7217 92.7798 76.8556C92.8162 76.9673 92.8442 77.1786 92.6243 77.3389L87.5417 81.0372C86.5728 81.7419 86.1716 82.979 86.5426 84.1124L88.485 90.1024C88.5688 90.361 88.4232 90.5142 88.3291 90.5827C88.2154 90.6654 88.0364 90.7323 87.8316 90.5835L82.7478 86.8833C81.779 86.1741 80.4771 86.1743 79.5109 86.8813L75.2372 89.9907C74.7185 90.3681 74.604 91.0943 74.9814 91.613C75.3587 92.1317 76.0851 92.2461 76.6036 91.8688L80.8801 88.7574C81.0285 88.6487 81.2277 88.6489 81.3785 88.7593L86.4661 92.4621C86.9563 92.8181 87.5181 92.996 88.08 92.996C88.6419 92.996 89.2036 92.8181 89.6938 92.4621C90.676 91.7491 91.0688 90.5418 90.6946 89.3864L88.751 83.3929C88.6936 83.2173 88.7566 83.0255 88.908 82.9154L93.9917 79.2164C94.9734 78.5006 95.3647 77.2916 94.9882 76.1361Z" fill="#6D6D6D"/>
<path d="M71.7715 88.7509C71.6949 88.5143 71.778 88.2573 71.9785 88.1114L77.5204 84.0788C78.5527 83.3275 78.9644 82.0572 78.5691 80.8424C78.1744 79.6289 77.0953 78.8448 75.8204 78.8448H68.9703C68.7237 78.8448 68.5064 78.6864 68.4301 78.4507L66.3133 71.9258C65.9191 70.7108 64.8398 69.9258 63.5637 69.9258C62.2875 69.9258 61.2083 70.7108 60.814 71.9258L58.6972 78.4507C58.6209 78.6864 58.4037 78.8448 58.157 78.8448H51.3069C50.0318 78.8448 48.9529 79.6289 48.5582 80.8424C48.1629 82.0572 48.5747 83.3275 49.6071 84.0788L55.149 88.1114C55.3495 88.2573 55.4326 88.5143 55.356 88.7509L53.2392 95.2758C52.8448 96.4916 53.2581 97.7621 54.2921 98.5123C55.3242 99.2612 56.6574 99.2603 57.6888 98.5098L63.2306 94.4772C63.43 94.3321 63.6981 94.3321 63.8973 94.4772L69.439 98.5098C69.9552 98.8854 70.547 99.0732 71.139 99.0732C71.7295 99.0732 72.3203 98.8862 72.8357 98.5123C73.8697 97.7619 74.283 96.4916 73.8886 95.2758L71.7715 88.7509ZM71.4713 96.6324C71.3713 96.705 71.1059 96.8504 70.8053 96.6319L65.2635 92.5993C64.2468 91.8595 62.8804 91.8595 61.8637 92.5993L56.3219 96.6319C56.0215 96.8505 55.7561 96.7051 55.6559 96.6324C55.5548 96.559 55.3323 96.3498 55.4481 95.9924L57.5649 89.4675C57.9528 88.2722 57.5308 86.9724 56.5152 86.2334L50.9734 82.2008C50.6706 81.9804 50.7278 81.6799 50.7666 81.5608C50.8051 81.4425 50.9347 81.1672 51.3068 81.1672H58.1568C59.4134 81.1672 60.5183 80.3635 60.9065 79.1673L63.0233 72.6424C63.1386 72.2868 63.4395 72.2485 63.5635 72.2484C63.6875 72.2484 63.9885 72.2868 64.1039 72.6424L66.2205 79.1673C66.6086 80.3636 67.7136 81.1674 68.9702 81.1674H75.8202C76.1922 81.1674 76.3219 81.4425 76.3605 81.561C76.3992 81.6801 76.4565 81.9804 76.1536 82.2009L70.6118 86.2336C69.5962 86.9726 69.1742 88.2723 69.5621 89.4677L71.6789 95.9926C71.7949 96.3498 71.5724 96.559 71.4713 96.6324Z" fill="#6D6D6D"/>
<path d="M46.4059 50.32C46.4059 49.1333 46.7526 48.18 47.4459 47.46C48.1393 46.74 49.0859 46.38 50.2859 46.38C51.4993 46.38 52.7393 46.5 54.0059 46.74L53.6059 49.94C52.2859 49.6333 51.3793 49.48 50.8859 49.48C50.2593 49.48 49.9459 49.7333 49.9459 50.24C49.9459 50.44 50.0926 50.6333 50.3859 50.82C50.6926 51.0067 51.0593 51.2067 51.4859 51.42C51.9126 51.62 52.3393 51.8667 52.7659 52.16C53.1926 52.44 53.5526 52.8467 53.8459 53.38C54.1526 53.9133 54.3059 54.5267 54.3059 55.22C54.3059 56.4867 53.9659 57.4667 53.2859 58.16C52.6059 58.8533 51.6393 59.2 50.3859 59.2C49.1459 59.2 47.9326 59.0067 46.7459 58.62L46.9659 55.64C48.3926 56.0533 49.3859 56.26 49.9459 56.26C50.5059 56.26 50.7859 56.0133 50.7859 55.52C50.7859 55.2667 50.6326 55.0333 50.3259 54.82C50.0326 54.6067 49.6726 54.3933 49.2459 54.18C48.8193 53.9667 48.3859 53.72 47.9459 53.44C47.5193 53.16 47.1526 52.7533 46.8459 52.22C46.5526 51.6867 46.4059 51.0533 46.4059 50.32ZM64.4211 59H61.0811L60.7011 57.04H58.3411L57.9611 59H54.7811L57.0611 46.58H62.1411L64.4211 59ZM60.3211 54.7L59.6211 50.26H59.4811L58.7811 54.7H60.3211ZM71.782 59H65.462V46.58H68.882V56.22H71.982L71.782 59ZM79.4281 59H72.7081V46.58H79.6281L79.4281 49.64H76.1281V51.5H78.9881V54.14H76.1281V56.2H79.6281L79.4281 59Z" fill="#6D6D6D"/>
</svg>
