<svg width="25" height="25" viewBox="0 0 25 25" fill="none" xmlns="http://www.w3.org/2000/svg">
<g clip-path="url(#clip0_73_3)">
<path d="M2.72972 22.548L3.81687 19.3041L2.72972 22.548ZM2.72972 22.548L6.11356 21.4663C6.11372 21.4663 6.11389 21.4662 6.11406 21.4662C6.26369 21.4175 6.42619 21.4419 6.55588 21.5266L6.55648 21.527C8.3211 22.6947 10.3776 23.3125 12.5031 23.3125C18.4637 23.3125 23.3125 18.4622 23.3125 12.5C23.3125 6.53853 18.4637 1.6875 12.5031 1.6875H12.5008C10.8268 1.6875 9.22775 2.05894 7.74036 2.79106L7.73997 2.79125C7.48488 2.9157 7.17645 2.81207 7.05043 2.55692C6.92465 2.30227 7.02861 1.99187 7.28552 1.86593M2.72972 22.548L1.42836 23.1845L1.42849 23.1841C1.36552 23.3683 1.41328 23.5724 1.54923 23.7104L1.54956 23.7107C1.68653 23.8487 1.88935 23.8982 2.07387 23.8394L2.07399 23.8394L6.19639 22.522M7.28552 1.86593C7.28556 1.86591 7.28559 1.86589 7.28563 1.86587L7.34062 1.97811L7.28542 1.86598C7.28545 1.86596 7.28549 1.86594 7.28552 1.86593ZM7.28552 1.86593C8.91526 1.06371 10.6701 0.65625 12.4969 0.65625C19.0315 0.65625 24.3438 5.96923 24.3438 12.5C24.3438 19.0307 19.0316 24.3438 12.5031 24.3438C10.2584 24.3438 8.08325 23.7145 6.19639 22.522M6.19639 22.522L6.25211 22.5042L6.21406 22.3852L6.14676 22.4905C6.16328 22.501 6.17983 22.5116 6.19639 22.522ZM2.756 19.2239L1.42863 23.1837L3.81696 19.3038C3.87044 19.1451 3.8436 18.971 3.74572 18.836L3.74557 18.8358C2.39949 16.9877 1.6875 14.7971 1.6875 12.5C1.6875 9.56201 2.84953 6.81305 4.95901 4.75681C5.16343 4.55846 5.16716 4.23175 4.96943 4.02782L4.96898 4.02737C4.77016 3.82443 4.44355 3.82001 4.2401 4.0183C1.92931 6.2691 0.65625 9.28182 0.65625 12.5C0.65625 14.9262 1.38182 17.2453 2.756 19.2239Z" fill="white" stroke="white" stroke-width="0.25"/>
<path d="M9.68485 6.62951L9.68509 6.63007L9.96868 7.31757L9.96868 7.31757C9.9905 7.37047 10.0127 7.42422 10.035 7.47845C10.3214 8.17283 10.6408 8.94737 10.6931 9.05715C10.6932 9.05726 10.6932 9.05737 10.6933 9.05747L10.6937 9.05825C10.7582 9.1913 10.9793 9.64685 10.7349 10.1257C10.6127 10.386 10.4907 10.5271 10.3364 10.7054L10.3328 10.7095L10.3326 10.7098C10.222 10.837 10.1481 10.9164 10.073 10.9955C10.0606 11.0088 10.0483 11.0219 10.0361 11.0349C9.96195 11.1141 9.89064 11.1903 9.81897 11.2805L9.81621 11.284L9.81615 11.2839C9.77766 11.329 9.7516 11.3595 9.73334 11.383C9.72958 11.3878 9.72646 11.392 9.72388 11.3955C9.72539 11.3982 9.72711 11.4012 9.72906 11.4046C10.0155 11.8884 10.6224 12.8127 11.4643 13.5617C12.5572 14.5338 13.4382 14.8914 13.8647 15.0644L13.8681 15.0658L13.8684 15.0659L13.9754 15.1097L13.9759 15.1099C14.0272 15.1311 14.0734 15.144 14.1123 15.144C14.146 15.1441 14.1737 15.135 14.2002 15.1071C14.3871 14.9058 14.6269 14.571 14.8881 14.2051L15.0433 13.9875C15.0433 13.9875 15.0434 13.9874 15.0434 13.9874C15.3439 13.5631 15.7216 13.4684 15.9875 13.4684C16.1406 13.4684 16.2972 13.4989 16.4543 13.5579M9.68485 6.62951L19.6108 15.2437C19.4675 14.992 19.2193 14.8729 18.9603 14.7487L18.9448 14.7412L18.8899 14.8535L18.9439 14.7408L18.7612 14.6514L18.7603 14.651C18.7606 14.6511 18.7592 14.6504 18.7545 14.6481L18.7368 14.6393L18.6725 14.6074L18.4459 14.4954C18.2581 14.4027 18.0057 14.2787 17.7425 14.151C17.2222 13.8986 16.6463 13.6251 16.4543 13.5579M9.68485 6.62951C9.54406 6.29281 9.39192 6.07264 9.19528 5.93759C8.99813 5.80218 8.77376 5.76457 8.51859 5.75444C8.39742 5.74741 8.26195 5.74023 8.11016 5.74023C7.49544 5.74023 6.93616 5.94003 6.55685 6.32927C6.17649 6.71442 5.27734 7.62836 5.27734 9.41914C5.27734 10.947 6.17876 12.3978 6.72493 13.1443L6.78226 13.226C6.78235 13.2262 6.78244 13.2263 6.78253 13.2264L9.68485 6.62951ZM16.4543 13.5579C16.4548 13.558 16.4553 13.5582 16.4557 13.5584L16.4117 13.6754L16.4528 13.5573C16.4533 13.5575 16.4538 13.5577 16.4543 13.5579ZM12.5795 18.2932C12.5795 18.2932 12.5795 18.2932 12.5795 18.2932L12.6272 18.1781L12.5795 18.2932ZM7.3203 7.02249L7.32062 7.02216C7.46134 6.87828 7.75831 6.77148 8.10938 6.77148C8.23741 6.77148 8.35301 6.77754 8.464 6.78525L8.46399 6.78531L8.46788 6.78546C8.53243 6.78792 8.569 6.78956 8.59572 6.79406C8.61689 6.79763 8.62107 6.80141 8.62221 6.80244C8.62227 6.80249 8.62232 6.80254 8.62236 6.80258C8.62656 6.80616 8.63726 6.81753 8.65685 6.85647C8.67632 6.89517 8.69852 6.94824 8.73143 7.02724C8.73145 7.02728 8.73147 7.02733 8.73149 7.02737L9.01406 7.71194C9.01407 7.71197 9.01408 7.712 9.01409 7.71202C9.31839 8.45292 9.70004 9.37504 9.76131 9.50402L9.76159 9.50462C9.79928 9.5829 9.80969 9.62581 9.81184 9.64755C9.81326 9.66194 9.81129 9.66569 9.80935 9.6694C9.8092 9.66969 9.80905 9.66998 9.8089 9.67027L9.80884 9.67024L9.80712 9.67391C9.73953 9.81815 9.69253 9.87368 9.51657 10.0762L9.51616 10.0767C9.45114 10.1523 9.38744 10.2198 9.3216 10.2896L9.32148 10.2897C9.31734 10.2941 9.3132 10.2985 9.30905 10.3029C9.21382 10.4041 9.11502 10.509 9.01392 10.6347L9.01226 10.6366C8.93202 10.7304 8.79451 10.8913 8.72418 11.1079C8.6507 11.3341 8.65321 11.6114 8.83641 11.9272L8.83641 11.9272L8.83697 11.9281C9.15394 12.4635 9.82803 13.4892 10.7762 14.3343L10.7763 14.3344C12.0031 15.426 13.0375 15.845 13.4787 16.0232C13.4788 16.0232 13.4789 16.0233 13.479 16.0233L13.5769 16.0634C13.5771 16.0635 13.5772 16.0635 13.5773 16.0636C14.0535 16.2618 14.6164 16.1705 14.9514 15.8123L14.9517 15.8121C15.1868 15.5594 15.449 15.1918 15.7198 14.8123L15.7244 14.8059L15.7244 14.8058L15.8806 14.5871L15.8809 14.5867C15.9221 14.5285 15.9503 14.5102 15.9615 14.5046C15.97 14.5004 15.9733 14.5004 15.9852 14.5004C16.0071 14.5004 16.0414 14.5056 16.0985 14.5274L16.0985 14.5274L16.1017 14.5285C16.2171 14.5689 16.6245 14.7592 17.0818 14.9791C17.5345 15.1968 18.0248 15.4379 18.2979 15.5747L18.2989 15.5751L18.4934 15.6705L18.4941 15.6708C18.5502 15.6979 18.617 15.7298 18.6704 15.7518C18.6771 15.7545 18.684 15.7573 18.6909 15.76C18.6916 15.7735 18.692 15.7889 18.6922 15.8063C18.6928 15.8739 18.6889 15.9638 18.6769 16.0719C18.6529 16.2882 18.5967 16.5749 18.4814 16.9L18.4814 16.9001C18.385 17.1727 18.1178 17.4494 17.7648 17.6823C17.4152 17.9128 17.0004 18.0878 16.6365 18.1664C16.4802 18.1993 16.3159 18.2301 16.0945 18.2301C15.4382 18.2301 14.4516 17.9544 12.9729 17.3412L12.9728 17.3411C11.0817 16.5584 9.18185 14.8925 7.63026 12.6419L7.63026 12.6419L7.6296 12.641L7.53898 12.5121L7.539 12.5121L7.53757 12.5101C6.74946 11.4338 6.30781 10.3055 6.30781 9.41914C6.30781 8.05034 6.96516 7.38302 7.31855 7.02426L7.3203 7.02249ZM18.7315 15.6417L18.6792 15.647C18.6797 15.6384 18.6812 15.6298 18.6836 15.6215C18.7007 15.629 18.7169 15.6359 18.7315 15.6417ZM9.92031 9.72695C9.94297 9.68242 9.95547 9.61914 9.87422 9.45039L9.11016 10.7145C9.20854 10.592 9.30475 10.4898 9.40088 10.3877L9.4125 10.3754L9.41253 10.3754C9.47814 10.3058 9.54376 10.2363 9.61094 10.1582C9.78672 9.95586 9.84453 9.88867 9.92031 9.72695Z" fill="white" stroke="white" stroke-width="0.25"/>
<path d="M5.85938 3.64062C6.14415 3.64062 6.375 3.40977 6.375 3.125C6.375 2.84023 6.14415 2.60938 5.85938 2.60938C5.5746 2.60938 5.34375 2.84023 5.34375 3.125C5.34375 3.40977 5.5746 3.64062 5.85938 3.64062Z" fill="white" stroke="white" stroke-width="0.25"/>
</g>
<defs>
<clipPath id="clip0_73_3">
<rect width="25" height="25" fill="white"/>
</clipPath>
</defs>
</svg>
