<svg width="25" height="25" viewBox="0 0 25 25" fill="none" xmlns="http://www.w3.org/2000/svg">
<mask id="path-1-outside-1_3005_12826" maskUnits="userSpaceOnUse" x="0" y="0" width="25" height="25" fill="black">
<rect fill="white" width="25" height="25"/>
<path fill-rule="evenodd" clip-rule="evenodd" d="M12.7219 24.4375C10.4812 24.4375 8.31094 23.8039 6.43281 22.6039L2.25469 23.9391C2.11484 23.9836 1.96094 23.9461 1.85703 23.8414C1.75391 23.7367 1.71797 23.582 1.76562 23.443L3.11328 19.4227C1.73047 17.4539 1 15.1406 1 12.7188C1 9.53438 2.25937 6.55391 4.54609 4.32656C4.7 4.17656 4.94766 4.17969 5.09844 4.33359C5.24844 4.48828 5.24531 4.73594 5.09062 4.88594C2.95703 6.96562 1.78125 9.74687 1.78125 12.7188C1.78125 15.0422 2.50156 17.2586 3.86328 19.1281C3.9375 19.2305 3.95781 19.3625 3.91719 19.4828L2.75156 22.9609L6.37109 21.8039C6.48359 21.7672 6.60703 21.7852 6.70625 21.85C8.49141 23.0312 10.5719 23.6562 12.7219 23.6562C18.7516 23.6562 23.6562 18.75 23.6562 12.7188C23.6562 6.68828 18.7516 1.78125 12.7219 1.78125H12.7195C11.0266 1.78125 9.40859 2.15703 7.90391 2.89766C7.71016 2.99219 7.47656 2.91328 7.38125 2.72031C7.28594 2.52734 7.36484 2.29219 7.55937 2.19688C9.17188 1.40313 10.9078 1 12.7156 1C19.1812 1 24.4375 6.25703 24.4375 12.7188C24.4375 19.1805 19.1812 24.4375 12.7219 24.4375ZM16.3141 19.3543C15.5242 19.3543 14.4219 19.0496 12.8461 18.3965C10.7891 17.5449 8.75 15.7605 7.10391 13.3738L7.04531 13.2902C6.50156 12.5473 5.62109 11.1238 5.62109 9.63789C5.62109 7.89648 6.49219 7.01289 6.86484 6.63555C7.21562 6.27539 7.73984 6.08398 8.32891 6.08398C8.47734 6.08398 8.61016 6.09102 8.73125 6.09805C9.22734 6.11758 9.51484 6.24258 9.78828 6.89648L10.0719 7.58398L10.1415 7.75293C10.4264 8.44371 10.7458 9.21822 10.7992 9.33008C10.8633 9.46211 11.0578 9.86758 10.8414 10.2895C10.7262 10.5353 10.6134 10.6657 10.4589 10.8443L10.457 10.8465C10.3477 10.9723 10.275 11.0504 10.2008 11.1285L10.1641 11.1677C10.09 11.2468 10.0149 11.327 9.93984 11.4215C9.78906 11.598 9.78906 11.598 9.83984 11.6863C10.1289 12.1746 10.7437 13.1121 11.6 13.8738C12.7089 14.8603 13.6053 15.2241 14.0375 15.3994L14.0398 15.4004L14.1469 15.4441C14.2602 15.491 14.4031 15.5246 14.5102 15.4113C14.7039 15.2027 14.9492 14.8598 15.2086 14.4965L15.3641 14.2785C15.6367 13.8934 15.9727 13.8121 16.2063 13.8121C16.343 13.8121 16.4852 13.8395 16.6305 13.8941C16.968 14.0117 18.6422 14.8422 18.8935 14.9668L18.925 14.9824L19.1086 15.0723C19.382 15.2035 19.5977 15.3074 19.7211 15.5246C19.9 15.8355 19.8297 16.6512 19.5578 17.4207C19.232 18.3418 18.0211 19.0613 17.0477 19.2707C16.8539 19.3113 16.6234 19.3543 16.3141 19.3543ZM8.32812 6.86523C7.95937 6.86523 7.62344 6.97617 7.45 7.15352L7.44918 7.15435C7.0888 7.5202 6.40156 8.21787 6.40156 9.63789C6.40156 10.5605 6.85859 11.7145 7.65547 12.8027L7.74609 12.9316C9.30703 15.1957 11.2242 16.8809 13.1438 17.6754C14.6227 18.2887 15.6297 18.5738 16.3133 18.5738C16.5477 18.5738 16.7219 18.541 16.8812 18.5074C17.6414 18.3434 18.5984 17.7816 18.818 17.1605C19.0555 16.491 19.0508 15.9762 19.0227 15.8738C19.0211 15.898 18.8805 15.8316 18.7672 15.777L18.5727 15.6816C18.025 15.4074 16.6094 14.716 16.3617 14.6293C16.2961 14.6043 16.2461 14.5941 16.2039 14.5941C16.1688 14.5941 16.0961 14.5941 15.9977 14.7332L15.8414 14.952L15.8411 14.9524C15.567 15.3366 15.3085 15.6989 15.0789 15.9457C14.7844 16.2605 14.2789 16.348 13.8438 16.1668L13.7445 16.1262C13.3094 15.9504 12.2898 15.5379 11.0781 14.4598C10.1438 13.627 9.47734 12.6137 9.16328 12.0832C8.83281 11.5137 9.16797 11.1215 9.32891 10.9332C9.42729 10.8108 9.5235 10.7086 9.61963 10.6065L9.63125 10.5941C9.69688 10.5246 9.7625 10.4551 9.82969 10.377C10.0055 10.1746 10.0633 10.1074 10.1391 9.9457C10.1617 9.90117 10.1742 9.83789 10.093 9.66914C10.0336 9.54414 9.65391 8.62695 9.34844 7.8832L9.06563 7.19805C8.99343 7.02478 8.96167 6.94855 8.9046 6.91337C8.85977 6.88573 8.79933 6.88342 8.69141 6.8793C8.57891 6.87148 8.46016 6.86523 8.32812 6.86523ZM6.46875 3.34375C6.46875 3.55949 6.29386 3.73438 6.07812 3.73438C5.86239 3.73438 5.6875 3.55949 5.6875 3.34375C5.6875 3.12801 5.86239 2.95312 6.07812 2.95312C6.29386 2.95312 6.46875 3.12801 6.46875 3.34375Z"/>
</mask>
<path fill-rule="evenodd" clip-rule="evenodd" d="M12.7219 24.4375C10.4812 24.4375 8.31094 23.8039 6.43281 22.6039L2.25469 23.9391C2.11484 23.9836 1.96094 23.9461 1.85703 23.8414C1.75391 23.7367 1.71797 23.582 1.76562 23.443L3.11328 19.4227C1.73047 17.4539 1 15.1406 1 12.7188C1 9.53438 2.25937 6.55391 4.54609 4.32656C4.7 4.17656 4.94766 4.17969 5.09844 4.33359C5.24844 4.48828 5.24531 4.73594 5.09062 4.88594C2.95703 6.96562 1.78125 9.74687 1.78125 12.7188C1.78125 15.0422 2.50156 17.2586 3.86328 19.1281C3.9375 19.2305 3.95781 19.3625 3.91719 19.4828L2.75156 22.9609L6.37109 21.8039C6.48359 21.7672 6.60703 21.7852 6.70625 21.85C8.49141 23.0312 10.5719 23.6562 12.7219 23.6562C18.7516 23.6562 23.6562 18.75 23.6562 12.7188C23.6562 6.68828 18.7516 1.78125 12.7219 1.78125H12.7195C11.0266 1.78125 9.40859 2.15703 7.90391 2.89766C7.71016 2.99219 7.47656 2.91328 7.38125 2.72031C7.28594 2.52734 7.36484 2.29219 7.55937 2.19688C9.17188 1.40313 10.9078 1 12.7156 1C19.1812 1 24.4375 6.25703 24.4375 12.7188C24.4375 19.1805 19.1812 24.4375 12.7219 24.4375ZM16.3141 19.3543C15.5242 19.3543 14.4219 19.0496 12.8461 18.3965C10.7891 17.5449 8.75 15.7605 7.10391 13.3738L7.04531 13.2902C6.50156 12.5473 5.62109 11.1238 5.62109 9.63789C5.62109 7.89648 6.49219 7.01289 6.86484 6.63555C7.21562 6.27539 7.73984 6.08398 8.32891 6.08398C8.47734 6.08398 8.61016 6.09102 8.73125 6.09805C9.22734 6.11758 9.51484 6.24258 9.78828 6.89648L10.0719 7.58398L10.1415 7.75293C10.4264 8.44371 10.7458 9.21822 10.7992 9.33008C10.8633 9.46211 11.0578 9.86758 10.8414 10.2895C10.7262 10.5353 10.6134 10.6657 10.4589 10.8443L10.457 10.8465C10.3477 10.9723 10.275 11.0504 10.2008 11.1285L10.1641 11.1677C10.09 11.2468 10.0149 11.327 9.93984 11.4215C9.78906 11.598 9.78906 11.598 9.83984 11.6863C10.1289 12.1746 10.7437 13.1121 11.6 13.8738C12.7089 14.8603 13.6053 15.2241 14.0375 15.3994L14.0398 15.4004L14.1469 15.4441C14.2602 15.491 14.4031 15.5246 14.5102 15.4113C14.7039 15.2027 14.9492 14.8598 15.2086 14.4965L15.3641 14.2785C15.6367 13.8934 15.9727 13.8121 16.2063 13.8121C16.343 13.8121 16.4852 13.8395 16.6305 13.8941C16.968 14.0117 18.6422 14.8422 18.8935 14.9668L18.925 14.9824L19.1086 15.0723C19.382 15.2035 19.5977 15.3074 19.7211 15.5246C19.9 15.8355 19.8297 16.6512 19.5578 17.4207C19.232 18.3418 18.0211 19.0613 17.0477 19.2707C16.8539 19.3113 16.6234 19.3543 16.3141 19.3543ZM8.32812 6.86523C7.95937 6.86523 7.62344 6.97617 7.45 7.15352L7.44918 7.15435C7.0888 7.5202 6.40156 8.21787 6.40156 9.63789C6.40156 10.5605 6.85859 11.7145 7.65547 12.8027L7.74609 12.9316C9.30703 15.1957 11.2242 16.8809 13.1438 17.6754C14.6227 18.2887 15.6297 18.5738 16.3133 18.5738C16.5477 18.5738 16.7219 18.541 16.8812 18.5074C17.6414 18.3434 18.5984 17.7816 18.818 17.1605C19.0555 16.491 19.0508 15.9762 19.0227 15.8738C19.0211 15.898 18.8805 15.8316 18.7672 15.777L18.5727 15.6816C18.025 15.4074 16.6094 14.716 16.3617 14.6293C16.2961 14.6043 16.2461 14.5941 16.2039 14.5941C16.1688 14.5941 16.0961 14.5941 15.9977 14.7332L15.8414 14.952L15.8411 14.9524C15.567 15.3366 15.3085 15.6989 15.0789 15.9457C14.7844 16.2605 14.2789 16.348 13.8438 16.1668L13.7445 16.1262C13.3094 15.9504 12.2898 15.5379 11.0781 14.4598C10.1438 13.627 9.47734 12.6137 9.16328 12.0832C8.83281 11.5137 9.16797 11.1215 9.32891 10.9332C9.42729 10.8108 9.5235 10.7086 9.61963 10.6065L9.63125 10.5941C9.69688 10.5246 9.7625 10.4551 9.82969 10.377C10.0055 10.1746 10.0633 10.1074 10.1391 9.9457C10.1617 9.90117 10.1742 9.83789 10.093 9.66914C10.0336 9.54414 9.65391 8.62695 9.34844 7.8832L9.06563 7.19805C8.99343 7.02478 8.96167 6.94855 8.9046 6.91337C8.85977 6.88573 8.79933 6.88342 8.69141 6.8793C8.57891 6.87148 8.46016 6.86523 8.32812 6.86523ZM6.46875 3.34375C6.46875 3.55949 6.29386 3.73438 6.07812 3.73438C5.86239 3.73438 5.6875 3.55949 5.6875 3.34375C5.6875 3.12801 5.86239 2.95312 6.07812 2.95312C6.29386 2.95312 6.46875 3.12801 6.46875 3.34375Z" fill="white"/>
<path d="M6.43281 22.6039L6.56742 22.3932L6.46851 22.33L6.35671 22.3658L6.43281 22.6039ZM2.25469 23.9391L2.33054 24.1773L2.33079 24.1772L2.25469 23.9391ZM1.85703 23.8414L1.67893 24.0169L1.67959 24.0175L1.85703 23.8414ZM1.76562 23.443L2.00213 23.524L2.00266 23.5224L1.76562 23.443ZM3.11328 19.4227L3.35032 19.5021L3.39047 19.3823L3.31786 19.279L3.11328 19.4227ZM4.54609 4.32656L4.72053 4.50565L4.72058 4.5056L4.54609 4.32656ZM5.09844 4.33359L5.27791 4.15956L5.27702 4.15864L5.09844 4.33359ZM5.09062 4.88594L4.91659 4.70646L4.91612 4.70691L5.09062 4.88594ZM3.86328 19.1281L4.06567 18.9814L4.06536 18.9809L3.86328 19.1281ZM3.91719 19.4828L3.68033 19.4028L3.68014 19.4034L3.91719 19.4828ZM2.75156 22.9609L2.51452 22.8815L2.35775 23.3493L2.82768 23.1991L2.75156 22.9609ZM6.37109 21.8039L6.44722 22.042L6.44866 22.0416L6.37109 21.8039ZM6.70625 21.85L6.84421 21.6415L6.84302 21.6407L6.70625 21.85ZM7.90391 2.89766L8.01353 3.12234L8.01431 3.12196L7.90391 2.89766ZM7.38125 2.72031L7.6054 2.6096L7.6054 2.6096L7.38125 2.72031ZM7.55937 2.19688L7.66937 2.42138L7.66979 2.42117L7.55937 2.19688ZM12.8461 18.3965L12.9418 18.1655L12.9417 18.1655L12.8461 18.3965ZM7.10391 13.3738L7.30971 13.2319L7.30862 13.2303L7.10391 13.3738ZM7.04531 13.2902L7.25007 13.1467L7.24706 13.1426L7.04531 13.2902ZM6.86484 6.63555L7.04273 6.81122L7.04394 6.80998L6.86484 6.63555ZM8.73125 6.09805L8.71676 6.34767L8.72141 6.34785L8.73125 6.09805ZM9.78828 6.89648L10.0194 6.80115L10.0189 6.80004L9.78828 6.89648ZM10.0719 7.58398L10.303 7.48867L10.303 7.48865L10.0719 7.58398ZM10.1415 7.75293L10.3727 7.65762L10.3727 7.65761L10.1415 7.75293ZM10.7992 9.33008L10.5736 9.43779L10.5743 9.43921L10.7992 9.33008ZM10.8414 10.2895L10.6188 10.1753L10.615 10.1834L10.8414 10.2895ZM10.4589 10.8443L10.2699 10.6807L10.2699 10.6807L10.4589 10.8443ZM10.457 10.8465L10.6457 11.0105L10.6461 11.0101L10.457 10.8465ZM10.2008 11.1285L10.0195 10.9563L10.0182 10.9577L10.2008 11.1285ZM10.1641 11.1677L10.3465 11.3387L10.3467 11.3385L10.1641 11.1677ZM9.93984 11.4215L10.1301 11.5839L10.1356 11.577L9.93984 11.4215ZM9.83984 11.6863L9.62312 11.811L9.62471 11.8137L9.83984 11.6863ZM11.6 13.8738L11.4338 14.0606L11.4338 14.0606L11.6 13.8738ZM14.0375 15.3994L13.9435 15.6311L13.9435 15.6311L14.0375 15.3994ZM14.0398 15.4004L14.1344 15.169L14.1338 15.1687L14.0398 15.4004ZM14.1469 15.4441L14.2425 15.2131L14.2415 15.2127L14.1469 15.4441ZM14.5102 15.4113L14.6919 15.583L14.6933 15.5815L14.5102 15.4113ZM15.2086 14.4965L15.4121 14.6418L15.4121 14.6417L15.2086 14.4965ZM15.3641 14.2785L15.5676 14.4237L15.5681 14.423L15.3641 14.2785ZM16.6305 13.8941L16.5424 14.1282L16.5482 14.1302L16.6305 13.8941ZM18.8935 14.9668L18.7824 15.1908L18.7826 15.1909L18.8935 14.9668ZM18.925 14.9824L18.814 15.2065L18.8151 15.207L18.925 14.9824ZM19.1086 15.0723L18.9987 15.2968L19.0004 15.2976L19.1086 15.0723ZM19.7211 15.5246L19.5037 15.6481L19.5044 15.6493L19.7211 15.5246ZM19.5578 17.4207L19.7935 17.5041L19.7935 17.504L19.5578 17.4207ZM17.0477 19.2707L17.099 19.5154L17.1002 19.5151L17.0477 19.2707ZM7.45 7.15352L7.62805 7.32901L7.62873 7.32831L7.45 7.15352ZM7.44918 7.15435L7.27113 6.97885L7.27108 6.97891L7.44918 7.15435ZM7.65547 12.8027L7.86002 12.6589L7.85718 12.655L7.65547 12.8027ZM7.74609 12.9316L7.95193 12.7897L7.95061 12.7879L7.74609 12.9316ZM13.1438 17.6754L13.2395 17.4445L13.2394 17.4444L13.1438 17.6754ZM16.8812 18.5074L16.9328 18.752L16.934 18.7518L16.8812 18.5074ZM18.818 17.1605L18.5824 17.077L18.5823 17.0772L18.818 17.1605ZM19.0227 15.8738L19.2637 15.8076L18.7732 15.8577L19.0227 15.8738ZM18.7672 15.777L18.6572 16.0015L18.6585 16.0021L18.7672 15.777ZM18.5727 15.6816L18.4607 15.9052L18.4627 15.9061L18.5727 15.6816ZM16.3617 14.6293L16.2727 14.863L16.2791 14.8652L16.3617 14.6293ZM15.9977 14.7332L16.2011 14.8785L16.2017 14.8776L15.9977 14.7332ZM15.8414 14.952L15.638 14.8066L15.6378 14.8069L15.8414 14.952ZM15.8411 14.9524L16.0446 15.0976L16.0447 15.0974L15.8411 14.9524ZM15.0789 15.9457L15.2615 16.1165L15.2619 16.116L15.0789 15.9457ZM13.8438 16.1668L13.9399 15.936L13.9385 15.9354L13.8438 16.1668ZM13.7445 16.1262L13.8393 15.8948L13.8382 15.8944L13.7445 16.1262ZM11.0781 14.4598L10.9118 14.6464L10.9119 14.6465L11.0781 14.4598ZM9.16328 12.0832L8.94704 12.2087L8.94816 12.2106L9.16328 12.0832ZM9.32891 10.9332L9.51903 11.0957L9.52377 11.0898L9.32891 10.9332ZM9.61963 10.6065L9.80166 10.7779L9.80167 10.7778L9.61963 10.6065ZM9.63125 10.5941L9.44944 10.4225L9.44921 10.4228L9.63125 10.5941ZM9.82969 10.377L9.64095 10.213L9.64014 10.2139L9.82969 10.377ZM10.1391 9.9457L9.91613 9.83228L9.91269 9.83962L10.1391 9.9457ZM10.093 9.66914L9.86715 9.77641L9.86772 9.7776L10.093 9.66914ZM9.34844 7.8832L9.57969 7.78822L9.57952 7.78782L9.34844 7.8832ZM9.06563 7.19805L9.29671 7.10266L9.29639 7.10189L9.06563 7.19805ZM8.9046 6.91337L8.7734 7.12617L8.7734 7.12618L8.9046 6.91337ZM8.69141 6.8793L8.67408 7.12882L8.68186 7.12911L8.69141 6.8793ZM6.29821 22.8146C8.21668 24.0404 10.4337 24.6875 12.7219 24.6875V24.1875C10.5288 24.1875 8.4052 23.5675 6.56742 22.3932L6.29821 22.8146ZM2.33079 24.1772L6.50891 22.842L6.35671 22.3658L2.17859 23.7009L2.33079 24.1772ZM1.67959 24.0175C1.84962 24.1888 2.10135 24.2503 2.33054 24.1773L2.17883 23.7008C2.12834 23.7169 2.07225 23.7034 2.03447 23.6653L1.67959 24.0175ZM1.52913 23.3619C1.45044 23.5915 1.50996 23.8453 1.67893 24.0168L2.03513 23.666C1.99785 23.6281 1.9855 23.5725 2.00212 23.524L1.52913 23.3619ZM2.87624 19.3432L1.52859 23.3635L2.00266 23.5224L3.35032 19.5021L2.87624 19.3432ZM0.75 12.7188C0.75 15.1918 1.4962 17.5553 2.9087 19.5663L3.31786 19.279C1.96474 17.3525 1.25 15.0894 1.25 12.7188H0.75ZM4.37166 4.14748C2.03676 6.42175 0.75 9.46674 0.75 12.7188H1.25C1.25 9.60201 2.48199 6.68606 4.72053 4.50565L4.37166 4.14748ZM5.27702 4.15864C5.03017 3.90667 4.62459 3.90096 4.3716 4.14753L4.72058 4.5056C4.77541 4.45216 4.86515 4.4527 4.91986 4.50855L5.27702 4.15864ZM5.26466 5.06541C5.51905 4.81873 5.52347 4.41279 5.27791 4.15956L4.91896 4.50763C4.97341 4.56378 4.97158 4.65314 4.91659 4.70646L5.26466 5.06541ZM2.03125 12.7188C2.03125 9.81455 3.17962 7.09777 5.26513 5.06496L4.91612 4.70691C2.73444 6.83348 1.53125 9.6792 1.53125 12.7188H2.03125ZM4.06536 18.9809C2.73491 17.1543 2.03125 14.9895 2.03125 12.7188H1.53125C1.53125 15.0949 2.26821 17.3628 3.6612 19.2753L4.06536 18.9809ZM4.15405 19.5628C4.22063 19.3656 4.18732 19.1491 4.06566 18.9814L3.6609 19.2749C3.68768 19.3118 3.695 19.3594 3.68033 19.4028L4.15405 19.5628ZM2.98861 23.0404L4.15423 19.5623L3.68014 19.4034L2.51452 22.8815L2.98861 23.0404ZM6.29497 21.5658L2.67544 22.7228L2.82768 23.1991L6.44721 22.042L6.29497 21.5658ZM6.84302 21.6407C6.68257 21.5359 6.48056 21.5052 6.29352 21.5662L6.44866 22.0416C6.48663 22.0292 6.53149 22.0344 6.56948 22.0593L6.84302 21.6407ZM12.7219 23.4062C10.6207 23.4062 8.58829 22.7956 6.84421 21.6415L6.56829 22.0585C8.39452 23.2669 10.523 23.9062 12.7219 23.9062V23.4062ZM23.4062 12.7188C23.4062 18.612 18.6134 23.4062 12.7219 23.4062V23.9062C18.8897 23.9062 23.9062 18.888 23.9062 12.7188H23.4062ZM12.7219 2.03125C18.6134 2.03125 23.4062 6.82627 23.4062 12.7188H23.9062C23.9062 6.55029 18.8897 1.53125 12.7219 1.53125V2.03125ZM12.7195 2.03125H12.7219V1.53125H12.7195V2.03125ZM8.01431 3.12196C9.48441 2.39836 11.0646 2.03125 12.7195 2.03125V1.53125C10.9885 1.53125 9.33278 1.9157 7.7935 2.67336L8.01431 3.12196ZM7.1571 2.83103C7.31384 3.14835 7.69711 3.27672 8.01353 3.12234L7.79428 2.67297C7.7232 2.70765 7.63929 2.67821 7.6054 2.6096L7.1571 2.83103ZM7.44938 1.97237C7.12993 2.12889 7.00083 2.51463 7.1571 2.83103L7.6054 2.6096C7.57105 2.54005 7.59976 2.45548 7.66937 2.42138L7.44938 1.97237ZM12.7156 0.75C10.8697 0.75 9.096 1.16183 7.44896 1.97258L7.66979 2.42117C9.24775 1.64442 10.9459 1.25 12.7156 1.25V0.75ZM24.6875 12.7188C24.6875 6.11893 19.3193 0.75 12.7156 0.75V1.25C19.0432 1.25 24.1875 6.39514 24.1875 12.7188H24.6875ZM12.7219 24.6875C19.3194 24.6875 24.6875 19.3185 24.6875 12.7188H24.1875C24.1875 19.0425 19.0431 24.1875 12.7219 24.1875V24.6875ZM12.7504 18.6274C14.3294 19.2819 15.4711 19.6043 16.3141 19.6043V19.1043C15.5773 19.1043 14.5144 18.8173 12.9418 18.1655L12.7504 18.6274ZM6.89811 13.5158C8.56338 15.9303 10.6372 17.7526 12.7505 18.6275L12.9417 18.1655C10.9409 17.3372 8.93662 15.5908 7.30971 13.2319L6.89811 13.5158ZM6.8406 13.4337L6.89919 13.5173L7.30862 13.2303L7.25003 13.1467L6.8406 13.4337ZM5.37109 9.63789C5.37109 11.209 6.29512 12.6885 6.84357 13.4379L7.24706 13.1426C6.708 12.406 5.87109 11.0386 5.87109 9.63789H5.37109ZM6.68697 6.45988C6.29925 6.85247 5.37109 7.79678 5.37109 9.63789H5.87109C5.87109 7.99619 6.68513 7.17331 7.04272 6.81122L6.68697 6.45988ZM8.32891 5.83398C7.68822 5.83398 7.09359 6.04238 6.68575 6.46112L7.04394 6.80998C7.33766 6.50841 7.79147 6.33398 8.32891 6.33398V5.83398ZM8.74574 5.84847C8.6239 5.84139 8.48502 5.83398 8.32891 5.83398V6.33398C8.46966 6.33398 8.59641 6.34064 8.71676 6.34763L8.74574 5.84847ZM10.0189 6.80004C9.87406 6.45359 9.71001 6.20798 9.4848 6.0533C9.25797 5.89751 9.00435 5.85861 8.74108 5.84824L8.72141 6.34785C8.95425 6.35702 9.09242 6.39038 9.20173 6.46545C9.31264 6.54163 9.42907 6.68548 9.55763 6.99293L10.0189 6.80004ZM10.303 7.48865L10.0194 6.80115L9.55717 6.99182L9.84077 7.67932L10.303 7.48865ZM10.3727 7.65761L10.303 7.48867L9.84076 7.6793L9.91043 7.84824L10.3727 7.65761ZM11.0248 9.22237C10.9753 9.11864 10.6603 8.35518 10.3727 7.65762L9.91043 7.84824C10.1925 8.53225 10.5163 9.3178 10.5736 9.43779L11.0248 9.22237ZM11.0638 10.4036C11.3413 9.8626 11.0875 9.35151 11.0241 9.22095L10.5743 9.43921C10.6391 9.57271 10.7743 9.87256 10.619 10.1753L11.0638 10.4036ZM10.648 11.0079C10.8044 10.827 10.937 10.6747 11.0678 10.3955L10.615 10.1834C10.5155 10.396 10.4224 10.5044 10.2699 10.6807L10.648 11.0079ZM10.6461 11.0101L10.648 11.0079L10.2699 10.6807L10.268 10.6829L10.6461 11.0101ZM10.382 11.3007C10.4582 11.2205 10.5334 11.1396 10.6457 11.0105L10.2684 10.6824C10.1619 10.8049 10.0918 10.8803 10.0195 10.9563L10.382 11.3007ZM10.3467 11.3385L10.3834 11.2993L10.0182 10.9577L9.98151 10.997L10.3467 11.3385ZM10.1356 11.577C10.2034 11.4916 10.2718 11.4184 10.3465 11.3387L9.98165 10.9968C9.9082 11.0752 9.8264 11.1624 9.74409 11.266L10.1356 11.577ZM10.0565 11.5617C10.0494 11.5493 10.0468 11.5447 10.0453 11.5417C10.0438 11.5389 10.0475 11.5454 10.0513 11.5573C10.0556 11.5709 10.0599 11.5912 10.0593 11.6161C10.0588 11.6409 10.0535 11.6612 10.0481 11.6753C10.0433 11.6881 10.0388 11.6948 10.0395 11.6938C10.0401 11.6928 10.0431 11.6883 10.0507 11.6785C10.0668 11.6579 10.0907 11.6298 10.13 11.5838L9.74973 11.2591C9.71362 11.3014 9.68094 11.3396 9.65622 11.3713C9.63388 11.4 9.60086 11.4445 9.58037 11.4987C9.55374 11.5693 9.55327 11.6407 9.57442 11.7077C9.58923 11.7547 9.61558 11.7978 9.62314 11.811L10.0565 11.5617ZM11.7662 13.687C10.9379 12.9502 10.3385 12.0379 10.055 11.559L9.62471 11.8137C9.91934 12.3114 10.5496 13.274 11.4338 14.0606L11.7662 13.687ZM14.1315 15.1678C13.7115 14.9974 12.8447 14.6465 11.7662 13.687L11.4338 14.0606C12.5731 15.0741 13.4991 15.4508 13.9435 15.6311L14.1315 15.1678ZM14.1338 15.1687L14.1315 15.1678L13.9435 15.6311L13.9459 15.632L14.1338 15.1687ZM14.2415 15.2127L14.1344 15.169L13.9452 15.6318L14.0523 15.6756L14.2415 15.2127ZM14.3284 15.2396C14.3259 15.2424 14.327 15.2404 14.3316 15.2386C14.3355 15.2371 14.3363 15.2378 14.3312 15.2378C14.3255 15.2378 14.3149 15.2368 14.2986 15.2326C14.2824 15.2284 14.2638 15.222 14.2425 15.2131L14.0513 15.6751C14.1694 15.724 14.4642 15.824 14.6919 15.583L14.3284 15.2396ZM15.0051 14.3512C14.7416 14.7203 14.5071 15.0472 14.327 15.2412L14.6933 15.5815C14.9007 15.3582 15.1568 14.9992 15.4121 14.6418L15.0051 14.3512ZM15.1605 14.1333L15.0051 14.3513L15.4121 14.6417L15.5676 14.4237L15.1605 14.1333ZM16.2063 13.5621C15.908 13.5621 15.4883 13.6703 15.16 14.1341L15.5681 14.423C15.7851 14.1164 16.0373 14.0621 16.2063 14.0621V13.5621ZM16.7185 13.6602C16.5486 13.5962 16.3766 13.5621 16.2063 13.5621V14.0621C16.3093 14.0621 16.4217 14.0827 16.5424 14.1281L16.7185 13.6602ZM19.0046 14.7429C18.8789 14.6805 18.3965 14.4412 17.9031 14.2027C17.4187 13.9686 16.8988 13.7229 16.7127 13.6581L16.5482 14.1302C16.6997 14.183 17.1856 14.4113 17.6855 14.6529C18.1764 14.8902 18.6568 15.1285 18.7824 15.1908L19.0046 14.7429ZM19.036 14.7584L19.0045 14.7428L18.7826 15.1909L18.814 15.2064L19.036 14.7584ZM19.2185 14.8477L19.0349 14.7579L18.8151 15.207L18.9987 15.2968L19.2185 14.8477ZM19.9384 15.4011C19.7695 15.1037 19.4735 14.9701 19.2168 14.8469L19.0004 15.2976C19.2906 15.4369 19.4259 15.5111 19.5037 15.6481L19.9384 15.4011ZM19.7935 17.504C19.9359 17.101 20.0264 16.684 20.0576 16.3221C20.0732 16.1412 20.0743 15.9693 20.0578 15.8169C20.0417 15.6682 20.007 15.5202 19.9378 15.3999L19.5044 15.6493C19.5247 15.6845 19.5482 15.755 19.5607 15.8708C19.5729 15.9828 19.573 16.1212 19.5594 16.2792C19.5322 16.5953 19.4516 16.9709 19.3221 17.3374L19.7935 17.504ZM17.1002 19.5151C17.6199 19.4033 18.1963 19.1576 18.6877 18.8183C19.176 18.4811 19.6064 18.0332 19.7935 17.5041L19.3221 17.3373C19.1835 17.7293 18.8455 18.1017 18.4036 18.4069C17.9647 18.7099 17.4488 18.9287 16.9951 19.0263L17.1002 19.5151ZM16.3141 19.6043C16.6486 19.6043 16.8984 19.5574 17.099 19.5154L16.9964 19.026C16.8094 19.0652 16.5983 19.1043 16.3141 19.1043V19.6043ZM7.62873 7.32831C7.73674 7.21788 7.99475 7.11523 8.32812 7.11523V6.61523C7.924 6.61523 7.51014 6.73447 7.27127 6.97872L7.62873 7.32831ZM7.62723 7.32984L7.62805 7.32901L7.27195 6.97802L7.27113 6.97885L7.62723 7.32984ZM6.65156 9.63789C6.65156 8.31784 7.28139 7.68093 7.62729 7.32978L7.27108 6.97891C6.89621 7.35946 6.15156 8.1179 6.15156 9.63789H6.65156ZM7.85718 12.655C7.07783 11.5907 6.65156 10.488 6.65156 9.63789H6.15156C6.15156 10.6331 6.63936 11.8382 7.45376 12.9504L7.85718 12.655ZM7.95061 12.7879L7.85999 12.659L7.45095 12.9465L7.54158 13.0754L7.95061 12.7879ZM13.2394 17.4444C11.3767 16.6734 9.49417 15.0267 7.95192 12.7897L7.54027 13.0735C9.11989 15.3647 11.0717 17.0883 13.0481 17.9064L13.2394 17.4444ZM16.3133 18.3238C15.6842 18.3238 14.718 18.0576 13.2395 17.4445L13.048 17.9063C14.5273 18.5198 15.5752 18.8238 16.3133 18.8238V18.3238ZM16.8297 18.2628C16.6764 18.2951 16.522 18.3238 16.3133 18.3238V18.8238C16.5734 18.8238 16.7673 18.7869 16.9328 18.752L16.8297 18.2628ZM18.5823 17.0772C18.4993 17.3118 18.259 17.5696 17.9147 17.7967C17.5772 18.0193 17.1764 18.188 16.8285 18.263L16.934 18.7518C17.3462 18.6628 17.8041 18.4686 18.19 18.2141C18.5691 17.964 18.9171 17.6303 19.0537 17.2439L18.5823 17.0772ZM18.7816 15.9401C18.7796 15.9327 18.7853 15.9568 18.7859 16.0262C18.7865 16.0883 18.783 16.1732 18.7714 16.2769C18.7484 16.4842 18.6943 16.7614 18.5824 17.077L19.0536 17.2441C19.1792 16.8901 19.2414 16.5751 19.2684 16.3321C19.2819 16.2106 19.2867 16.1057 19.2859 16.0216C19.2852 15.9448 19.2798 15.8662 19.2637 15.8076L18.7816 15.9401ZM18.6585 16.0021C18.7141 16.0289 18.7841 16.0624 18.8415 16.0861C18.868 16.097 18.9042 16.1111 18.9392 16.1196C18.9521 16.1227 18.9918 16.1322 19.0392 16.1278C19.0631 16.1255 19.1154 16.1176 19.1677 16.0796C19.2313 16.0334 19.2674 15.9628 19.2721 15.8899L18.7732 15.8577C18.7777 15.7879 18.8126 15.7196 18.8738 15.6751C18.9239 15.6387 18.9728 15.6318 18.9925 15.63C19.0154 15.6278 19.0328 15.6297 19.0402 15.6306C19.0487 15.6317 19.0547 15.6331 19.0568 15.6336C19.0615 15.6347 19.0551 15.6334 19.0321 15.6238C18.9905 15.6067 18.9336 15.5797 18.8759 15.5518L18.6585 16.0021ZM18.4627 15.9061L18.6572 16.0015L18.8772 15.5525L18.6827 15.4571L18.4627 15.9061ZM16.2791 14.8652C16.3861 14.9027 16.785 15.0887 17.2464 15.3105C17.6986 15.5279 18.1882 15.7687 18.4607 15.9052L18.6846 15.4581C18.4095 15.3203 17.9174 15.0783 17.463 14.8598C17.0177 14.6457 16.585 14.4426 16.4443 14.3933L16.2791 14.8652ZM16.2039 14.8441C16.2056 14.8441 16.2242 14.8445 16.2727 14.8629L16.4507 14.3957C16.3679 14.3641 16.2866 14.3441 16.2039 14.3441V14.8441ZM16.2017 14.8776C16.2348 14.8308 16.2485 14.8291 16.2361 14.8353C16.2296 14.8385 16.2208 14.8414 16.211 14.843C16.2025 14.8444 16.1958 14.8441 16.2039 14.8441V14.3441C16.1748 14.3441 16.1006 14.3441 16.013 14.3878C15.9308 14.4287 15.8589 14.4965 15.7936 14.5888L16.2017 14.8776ZM16.0448 15.0973L16.2011 14.8785L15.7942 14.5879L15.638 14.8066L16.0448 15.0973ZM16.0447 15.0974L16.045 15.097L15.6378 14.8069L15.6375 14.8073L16.0447 15.0974ZM15.2619 16.116C15.5051 15.8546 15.7741 15.4767 16.0446 15.0976L15.6376 14.8072C15.3599 15.1965 15.1119 15.5432 14.8959 15.7754L15.2619 16.116ZM13.7476 16.3976C14.265 16.6131 14.8858 16.5181 15.2615 16.1165L14.8963 15.7749C14.6829 16.003 14.2928 16.083 13.9399 15.936L13.7476 16.3976ZM13.6498 16.3575L13.749 16.3982L13.9385 15.9354L13.8393 15.8948L13.6498 16.3575ZM10.9119 14.6465C12.1544 15.752 13.2039 16.1774 13.6509 16.358L13.8382 15.8944C13.4148 15.7234 12.4253 15.3238 11.2443 14.273L10.9119 14.6465ZM8.94816 12.2106C9.26803 12.7509 9.94982 13.789 10.9118 14.6464L11.2445 14.2731C10.3377 13.4649 9.68666 12.4765 9.37841 11.9558L8.94816 12.2106ZM9.13887 10.7708C9.05978 10.8633 8.9038 11.0424 8.82404 11.288C8.73969 11.5478 8.74587 11.862 8.94705 12.2087L9.37952 11.9577C9.25023 11.7349 9.25875 11.5682 9.29959 11.4424C9.34503 11.3025 9.4371 11.1914 9.51894 11.0956L9.13887 10.7708ZM9.43761 10.4351C9.34202 10.5366 9.23939 10.6455 9.13404 10.7766L9.52377 11.0898C9.61518 10.9761 9.70498 10.8805 9.80166 10.7779L9.43761 10.4351ZM9.44921 10.4228L9.43759 10.4351L9.80167 10.7778L9.81329 10.7655L9.44921 10.4228ZM9.64014 10.2139C9.57728 10.287 9.5155 10.3526 9.44944 10.4225L9.81306 10.7657C9.87825 10.6967 9.94772 10.6231 10.0192 10.54L9.64014 10.2139ZM9.91269 9.83962C9.85329 9.96638 9.81709 10.0103 9.64096 10.213L10.0184 10.5409C10.1939 10.339 10.2733 10.2485 10.3654 10.0518L9.91269 9.83962ZM9.86772 9.7776C9.88447 9.81239 9.8943 9.83747 9.89995 9.85479C9.90561 9.87213 9.90626 9.87923 9.90619 9.8786C9.90604 9.877 9.90554 9.86874 9.90809 9.85647C9.91068 9.84406 9.91482 9.83514 9.91624 9.83234L10.3619 10.0591C10.3917 10.0004 10.4133 9.92584 10.4038 9.82941C10.3955 9.74545 10.3647 9.65725 10.3182 9.56069L9.86772 9.7776ZM9.11718 7.97818C9.42032 8.71626 9.80398 9.64342 9.86715 9.7764L10.3188 9.56188C10.2632 9.44486 9.88749 8.53764 9.57969 7.78822L9.11718 7.97818ZM8.83454 7.29343L9.11735 7.97859L9.57952 7.78782L9.29671 7.10266L8.83454 7.29343ZM8.7734 7.12618C8.74685 7.1098 8.74325 7.09236 8.75893 7.12172C8.776 7.15367 8.79669 7.20259 8.83486 7.2942L9.29639 7.10189C9.26237 7.02023 9.23108 6.94441 9.19995 6.88614C9.16744 6.82527 9.11942 6.75212 9.0358 6.70056L8.7734 7.12618ZM8.68186 7.12911C8.70949 7.13017 8.73098 7.131 8.74971 7.13207C8.76839 7.13313 8.78047 7.13424 8.78872 7.13533C8.80534 7.13755 8.79285 7.13816 8.7734 7.12617L9.0358 6.70056C8.97153 6.66094 8.9064 6.64658 8.85461 6.6397C8.80611 6.63325 8.7505 6.63137 8.70095 6.62948L8.68186 7.12911ZM8.32812 7.11523C8.45216 7.11523 8.56461 7.12109 8.67409 7.1287L8.70873 6.6299C8.59321 6.62188 8.46815 6.61523 8.32812 6.61523V7.11523ZM6.07812 3.98438C6.43193 3.98438 6.71875 3.69756 6.71875 3.34375H6.21875C6.21875 3.42142 6.15579 3.48438 6.07812 3.48438V3.98438ZM5.4375 3.34375C5.4375 3.69756 5.72432 3.98438 6.07812 3.98438V3.48438C6.00046 3.48438 5.9375 3.42142 5.9375 3.34375H5.4375ZM6.07812 2.70312C5.72432 2.70312 5.4375 2.98994 5.4375 3.34375H5.9375C5.9375 3.26608 6.00046 3.20312 6.07812 3.20312V2.70312ZM6.71875 3.34375C6.71875 2.98994 6.43193 2.70312 6.07812 2.70312V3.20312C6.15579 3.20312 6.21875 3.26608 6.21875 3.34375H6.71875Z" fill="white" mask="url(#path-1-outside-1_3005_12826)"/>
</svg>
