<svg width="61" height="63" viewBox="0 0 61 63" fill="none" xmlns="http://www.w3.org/2000/svg">
<path d="M8.01625 28.0685C8.01612 26.928 8.944 26 10.0846 26H50.1654C51.306 26 52.2339 26.928 52.2339 28.0686V29.1146C51.6226 28.6306 50.8342 28.1331 49.5051 28.1331C47.9576 28.1331 47.1428 28.8082 46.4879 29.3506C45.9368 29.8072 45.5385 30.1371 44.6668 30.1371C43.7943 30.1371 43.3957 29.8071 42.8441 29.3505C42.189 28.8081 41.3737 28.1331 39.8259 28.1331C38.2775 28.1331 37.4619 28.8081 36.8066 29.3504C36.2548 29.8071 35.856 30.1371 34.9829 30.1371C34.1098 30.1371 33.711 29.8071 33.1591 29.3504C32.5039 28.8081 31.6882 28.1331 30.1399 28.1331C28.5915 28.1331 27.7759 28.8081 27.1206 29.3504C26.5687 29.8071 26.17 30.1371 25.2969 30.1371C24.4241 30.1371 24.0256 29.8071 23.4739 29.3505C22.8186 28.8081 22.0032 28.1331 20.4552 28.1331C18.907 28.1331 18.0915 28.8081 17.4363 29.3505C16.8845 29.8071 16.4857 30.1371 15.6129 30.1371C14.7386 30.1371 14.3395 29.807 13.7871 29.3501C13.1314 28.808 12.3155 28.1331 10.7664 28.1331C9.42287 28.1331 8.63075 28.6402 8.01625 29.1284V28.0685ZM2.00413 44.1006C2.004 42.9603 2.932 42.0324 4.07263 42.0324H47.1598C47.6775 42.0324 48.0973 41.6126 48.0973 41.0949C48.0973 40.5771 47.6775 40.1574 47.1598 40.1574H8.01612V31.4688C8.37525 31.259 8.6695 31.0177 8.93863 30.7954C9.49163 30.3384 9.89112 30.0082 10.7664 30.0082C11.6406 30.0082 12.0397 30.3384 12.5921 30.7952C13.2479 31.3374 14.0638 32.0122 15.6129 32.0122C17.1611 32.0122 17.9765 31.3372 18.6318 30.7949C19.1836 30.3382 19.5823 30.0082 20.4551 30.0082C21.3279 30.0082 21.7264 30.3382 22.2781 30.7949C22.9334 31.3372 23.7487 32.0122 25.2967 32.0122C26.8451 32.0122 27.6607 31.3373 28.316 30.795C28.8679 30.3383 29.2666 30.0082 30.1398 30.0082C31.0129 30.0082 31.4116 30.3383 31.9635 30.795C32.6188 31.3373 33.4344 32.0122 34.9826 32.0122C36.531 32.0122 37.3466 31.3373 38.0019 30.795C38.5538 30.3383 38.9525 30.0082 39.8256 30.0082C40.698 30.0082 41.0966 30.3382 41.6481 30.7949C42.3032 31.3372 43.1185 32.0122 44.6665 32.0122C46.214 32.0122 47.029 31.3371 47.6839 30.7946C48.235 30.3381 48.6333 30.0081 49.505 30.0081C50.3776 30.0081 50.7762 30.3381 51.3279 30.7948C51.5926 31.0139 51.8819 31.2516 52.2337 31.4594V40.1573H51.1673C50.6495 40.1573 50.2298 40.577 50.2298 41.0948C50.2298 41.6125 50.6495 42.0323 51.1673 42.0323H56.1774C57.318 42.0323 58.2459 42.9601 58.2459 44.1008V44.2599C57.2796 44.4636 56.6742 44.9624 56.1669 45.3829C55.6159 45.8394 55.2179 46.1693 54.3465 46.1693C53.4739 46.1693 53.0752 45.8393 52.5236 45.3826C51.8685 44.8403 51.0531 44.1653 49.5051 44.1653C47.9576 44.1653 47.1428 44.8402 46.4879 45.3827C45.9368 45.8392 45.5385 46.1693 44.6668 46.1693C43.7943 46.1693 43.3957 45.8393 42.8441 45.3826C42.189 44.8403 41.3737 44.1653 39.8259 44.1653C38.2775 44.1653 37.4619 44.8401 36.8066 45.3825C36.2548 45.8391 35.856 46.1693 34.9829 46.1693C34.1098 46.1693 33.711 45.8391 33.1591 45.3825C32.5039 44.8401 31.6882 44.1653 30.1399 44.1653C28.5915 44.1653 27.7759 44.8401 27.1206 45.3825C26.5687 45.8391 26.17 46.1693 25.2969 46.1693C24.4241 46.1693 24.0256 45.8393 23.4739 45.3825C22.8186 44.8401 22.0032 44.1653 20.4552 44.1653C18.907 44.1653 18.0915 44.8401 17.4363 45.3825C16.8845 45.8393 16.4857 46.1693 15.6129 46.1693C14.7386 46.1693 14.3395 45.8391 13.7871 45.3822C13.1314 44.84 12.3155 44.1653 10.7664 44.1653C9.21675 44.1653 8.40025 44.8399 7.74425 45.382C7.19125 45.839 6.79175 46.1693 5.9165 46.1693C5.04138 46.1693 4.64175 45.839 4.08875 45.382C3.58 44.9616 2.973 44.4628 2.00413 44.2595V44.1006ZM60.25 62.1373C60.25 62.1729 60.2211 62.2018 60.1855 62.2018H0.0645C0.028875 62.2018 0 62.1729 0 62.1373V60.1333C0 60.0976 0.028875 60.0687 0.0645 60.0687H5.07412C5.59187 60.0687 6.01162 59.649 6.01162 59.1312C6.01162 58.6135 5.59187 58.1937 5.07412 58.1937H2.004V46.2174C2.32562 46.358 2.58612 46.5731 2.89425 46.8276C3.55025 47.3698 4.36663 48.0445 5.91638 48.0445C7.46613 48.0445 8.28263 47.3698 8.93863 46.8276C9.49163 46.3706 9.89112 46.0405 10.7664 46.0405C11.6406 46.0405 12.0397 46.3706 12.5921 46.8274C13.2479 47.3696 14.0638 48.0445 15.6129 48.0445C17.1611 48.0445 17.9766 47.3695 18.6318 46.8271C19.1836 46.3704 19.5823 46.0405 20.4551 46.0405C21.3279 46.0405 21.7264 46.3705 22.2781 46.8271C22.9334 47.3695 23.7487 48.0445 25.2967 48.0445C26.8451 48.0445 27.6607 47.3695 28.316 46.8272C28.8679 46.3705 29.2666 46.0405 30.1398 46.0405C31.0129 46.0405 31.4116 46.3705 31.9635 46.8272C32.6188 47.3696 33.4344 48.0445 34.9826 48.0445C36.531 48.0445 37.3466 47.3695 38.0019 46.8272C38.5538 46.3705 38.9525 46.0405 39.8256 46.0405C40.698 46.0405 41.0966 46.3705 41.6481 46.8271C42.3032 47.3695 43.1185 48.0445 44.6665 48.0445C46.214 48.0445 47.029 47.3694 47.6839 46.8269C48.235 46.3703 48.6333 46.0404 49.505 46.0404C50.3776 46.0404 50.7762 46.3704 51.3279 46.827C51.983 47.3694 52.7984 48.0444 54.3464 48.0444C55.8935 48.0444 56.7084 47.3692 57.363 46.8267C57.6686 46.5735 57.9274 46.3596 58.2458 46.219V58.1936H9.08275C8.565 58.1936 8.14525 58.6134 8.14525 59.1311C8.14525 59.6489 8.565 60.0686 9.08275 60.0686H60.1855C60.2211 60.0686 60.25 60.0975 60.25 60.1331V62.1373Z" fill="#FFD740"/>
<path d="M23 6H22V9H23V6Z" fill="white"/>
<path d="M37 3.92772C37 3.00783 36.501 1.51371 35.1386 0.221501C34.7311 -0.165028 33.9672 -0.0230278 33.802 0.471704C33.3146 1.93148 32 2.53263 32 3.92772C32 5.07221 33.1193 6 34.5 6C35.8807 6 37 5.07221 37 3.92772Z" fill="#F89021"/>
<path d="M25 3.92772C25 3.00783 24.501 1.51371 23.1386 0.221501C22.7311 -0.165028 21.9672 -0.0230278 21.802 0.471704C21.3146 1.93148 20 2.53263 20 3.92772C20 5.07221 21.1193 6 22.5 6C23.8807 6 25 5.07221 25 3.92772Z" fill="#F89021"/>
<path d="M36 3.96388C36 3.50394 35.8004 2.75686 35.2554 2.11075C35.0924 1.91747 34.7868 1.98851 34.7208 2.23589C34.5259 2.96575 34 3.26634 34 3.96388C34 4.53612 34.4477 5 35 5C35.5522 5 36 4.53612 36 3.96388Z" fill="#F8CF32"/>
<path d="M24 3.96388C24 3.50394 23.8004 2.75686 23.2554 2.11075C23.0924 1.91747 22.7868 1.98851 22.7208 2.23589C22.5259 2.96575 22 3.26634 22 3.96388C22 4.53612 22.4477 5 23 5C23.5522 5 24 4.53612 24 3.96388Z" fill="#F8CF32"/>
<path d="M35 6H34V9H35V6Z" fill="white"/>
<path d="M20.3661 12.096L16.1181 14.448V11.496L21.0381 8.424H23.8701V24H20.3661V12.096ZM34.432 24.24C33.328 24.24 31.672 24.152 29.464 23.976V21.072C31.448 21.44 32.944 21.624 33.952 21.624C34.832 21.624 35.472 21.528 35.872 21.336C36.272 21.128 36.472 20.808 36.472 20.376V18.048C36.472 17.616 36.328 17.312 36.04 17.136C35.752 16.944 35.28 16.848 34.624 16.848H29.824V8.424H39.664V11.112H33.328V14.28H35.776C36.704 14.28 37.608 14.456 38.488 14.808C38.968 15.016 39.352 15.336 39.64 15.768C39.928 16.2 40.072 16.704 40.072 17.28V20.544C40.072 21.168 39.952 21.728 39.712 22.224C39.472 22.704 39.168 23.072 38.8 23.328C38.48 23.568 38.048 23.76 37.504 23.904C36.976 24.048 36.464 24.144 35.968 24.192C35.392 24.224 34.88 24.24 34.432 24.24Z" fill="#FFD740"/>
</svg>
