<svg width="30" height="30" viewBox="0 0 30 30" fill="none" xmlns="http://www.w3.org/2000/svg">
<path d="M27.1875 15V26.25C27.1875 26.4986 27.0887 26.7371 26.9129 26.9129C26.7371 27.0887 26.4986 27.1875 26.25 27.1875H3.75C3.50136 27.1875 3.2629 27.0887 3.08709 26.9129C2.91127 26.7371 2.8125 26.4986 2.8125 26.25V3.75C2.8125 3.50136 2.91127 3.2629 3.08709 3.08709C3.2629 2.91127 3.50136 2.8125 3.75 2.8125H15C15.2486 2.8125 15.4871 2.91127 15.6629 3.08709C15.8387 3.2629 15.9375 3.50136 15.9375 3.75C15.9375 3.99864 15.8387 4.2371 15.6629 4.41291C15.4871 4.58873 15.2486 4.6875 15 4.6875H4.6875V25.3125H25.3125V15C25.3125 14.7514 25.4113 14.5129 25.5871 14.3371C25.7629 14.1613 26.0014 14.0625 26.25 14.0625C26.4986 14.0625 26.7371 14.1613 26.9129 14.3371C27.0887 14.5129 27.1875 14.7514 27.1875 15ZM9.80625 15.1219L20.8969 4.02187C21.5707 3.34806 22.4846 2.96951 23.4375 2.96951C24.3904 2.96951 25.3043 3.34806 25.9781 4.02187C26.6519 4.69569 27.0305 5.60958 27.0305 6.5625C27.0305 7.51542 26.6519 8.42931 25.9781 9.10313L14.8781 20.1938C14.778 20.2948 14.6562 20.3718 14.5219 20.4188L8.74687 22.4438C8.64765 22.4798 8.54306 22.4988 8.4375 22.5C8.28811 22.4994 8.14103 22.4631 8.00851 22.3942C7.87599 22.3252 7.76186 22.2256 7.67564 22.1036C7.58942 21.9816 7.5336 21.8408 7.51283 21.6928C7.49206 21.5449 7.50695 21.3941 7.55625 21.2531L9.58125 15.4781C9.62825 15.3438 9.70519 15.222 9.80625 15.1219ZM9.96563 20.0344L13.7156 18.7219L24.6469 7.77187C24.9676 7.45113 25.1478 7.0161 25.1478 6.5625C25.1478 6.1089 24.9676 5.67387 24.6469 5.35313C24.3261 5.03238 23.8911 4.85219 23.4375 4.85219C22.9839 4.85219 22.5489 5.03238 22.2281 5.35313L11.25 16.2937L9.96563 20.0344Z" fill="#5D5B58"/>
</svg>
